<svg xmlns="http://www.w3.org/2000/svg" xml:space="preserve" id="Слой_1" x="0" y="0" version="1.1" viewBox="0 0 290 269.62"><style>.st1{fill:#fff;stroke:#111422}.st1,.st3,.st4,.st5{stroke-linecap:round;stroke-linejoin:round;stroke-miterlimit:10}.st3{fill-rule:evenodd;clip-rule:evenodd;fill:#c6c3d1;stroke:#101320}.st4,.st5{stroke:#111422}.st4{fill-rule:evenodd;clip-rule:evenodd;fill:#fff}.st5{fill:#ecf0fc}.st5,.st6,.st7{fill-rule:evenodd;clip-rule:evenodd}.st6{opacity:.2563;fill:#fff;enable-background:new}.st7{fill:#111422}.st9{fill:#fff;stroke:#1d1d1b;stroke-linecap:round;stroke-linejoin:round;stroke-miterlimit:10}.st10{fill:#1d1d1b}.st43,.st47,.st77,.st78{fill-rule:evenodd;clip-rule:evenodd;fill:#fff}.st47,.st77,.st78{fill:#1e212a}.st77,.st78{fill:#afafb1}.st78{fill:#d3d3d3}</style><path fill="#c6c3d1" stroke="#101320" stroke-linecap="round" stroke-linejoin="round" stroke-miterlimit="10" d="m35.49 207.08-26.46-14.4v-40l149.66-79.61 26.26 10.81-3.73 25.78 8.21 10.03-8.86 5.02-8.73-5.38-7.5 14.6-5.78-3.47-19.9 18.05-10.38-6.43-8.91 17.38-10.62-6.24-7.61 16.59-11.83-9.37-7.11 14.51-15.76 9.24-10.63-7.24-14.77 10.97 2.59 14.54z"/><path d="M91.64 154.28c0 4.66-.65 8.95-1.95 12.88-1.3 3.93-3.05 7.35-5.26 10.24-2.21 2.89-4.67 5.11-7.39 6.65-2.74 1.55-5.2 2.13-7.41 1.72-2.2-.4-3.95-1.83-5.25-4.29-1.3-2.46-1.94-6-1.94-10.63 0-4.66.65-8.95 1.94-12.88 1.29-3.93 3.04-7.34 5.25-10.23 2.2-2.89 4.67-5.11 7.41-6.67 2.72-1.54 5.18-2.12 7.39-1.73 2.21.39 3.96 1.81 5.26 4.26 1.3 2.47 1.95 6.02 1.95 10.68zm-8.38 4.76c0-2.51-.24-4.49-.71-5.94-.47-1.45-1.17-2.36-2.1-2.73-.92-.37-2.06-.17-3.41.6-1.35.76-2.48 1.85-3.41 3.27-.92 1.41-1.62 3.12-2.1 5.11-.47 1.99-.71 4.24-.71 6.75s.24 4.49.71 5.94c.47 1.46 1.17 2.36 2.1 2.73.92.36 2.06.17 3.41-.6 1.35-.76 2.49-1.86 3.41-3.27.92-1.41 1.62-3.12 2.1-5.11.47-1.99.71-4.24.71-6.75zM101.14 169.81 92.29 133l9.09-5.16 4.1 23.41.23-.13 4.87-28.5 7.15-4.06 4.87 23.05.23-.13 4.1-28.15 9.09-5.16-8.85 46.86-7.8 4.43-5.1-20.47-.23.13-5.1 26.26-7.8 4.43zM138.66 148.51v-41.83l21.63-12.28v9.15l-13.48 7.66v7.19l12.37-7.02v9.15l-12.37 7.02v7.19l13.43-7.62v9.15l-21.58 12.24zM54.29 156.41c-1.67-.28-3.62.22-5.85 1.48l-12.96 7.36v41.83l8.15-4.63v-12.42l4.51-2.56c2.29-1.3 4.29-3.03 6-5.18 1.72-2.16 3.05-4.6 4-7.34.95-2.74 1.43-5.6 1.43-8.59 0-2.97-.47-5.3-1.39-6.99-.92-1.7-2.22-2.68-3.89-2.96zm-3.76 18.17a9.557 9.557 0 0 1-1.57 2.9 8.43 8.43 0 0 1-2.46 2.1l-2.87 1.63v-11.52l2.87-1.63c.96-.54 1.78-.78 2.46-.71.68.07 1.2.43 1.57 1.07.36.64.55 1.56.55 2.76 0 1.19-.18 2.32-.55 3.4zM180.57 124.71l8.85-5.02-6.1-12.15c1.55-1.92 2.79-4.08 3.68-6.51.95-2.6 1.43-5.4 1.43-8.39 0-2.97-.47-5.25-1.39-6.85-.93-1.6-2.23-2.48-3.9-2.67-1.67-.18-3.62.36-5.85 1.63l-12.96 7.35v41.83l8.15-4.63v-13.8l2.82-1.6 5.27 10.81zm-8.09-28.17 2.87-1.63c.96-.54 1.78-.83 2.46-.85.68-.02 1.2.24 1.57.78.36.55.55 1.42.55 2.62 0 1.18-.18 2.25-.55 3.19-.37.94-.89 1.78-1.57 2.49-.68.72-1.5 1.35-2.46 1.9l-2.87 1.63V96.54z" class="st1"/><path fill="#ecf0fc" stroke="#111422" stroke-linecap="round" stroke-linejoin="round" stroke-miterlimit="10" d="m9.03 152.68 26.46 12.57 144.44-81.7 3.21-.43-24.45-10.05z"/><path d="m101.87 127.46-18.92-10.92V44.22l18.92 10.92z" class="st3"/><path d="m101.87 127.46 18.91-10.92V44.22l-18.91 10.92z" class="st4"/><path d="M101.94 55.2 82.95 44.24l18.85-10.98 18.98 10.96z" class="st5"/><path id="矩形_00000122694011154732022000000005445591957078414223_" d="M95.6 39.84c.37.21.31.62-.13.88l-3.92 2.32c-.44.26-1.14.31-1.51.09-.37-.21-.31-.62.13-.88l3.92-2.32c.44-.26 1.14-.3 1.51-.09z" class="st6"/><path id="矩形_00000168813939253894730090000003749328577403602106_" d="M89.06 43.63c.37.21.31.62-.13.88l-.76.45c-.44.26-1.14.31-1.51.09-.37-.21-.31-.62.13-.88l.76-.45c.47-.27 1.14-.3 1.51-.09z" class="st6"/><path d="m83.05 138.44-18.91-10.92V70.8l18.91 10.92z" class="st3"/><path d="m83.05 138.44 18.91-10.92V70.8L83.05 81.72z" class="st4"/><path d="M83.12 81.78 64.14 70.82l18.84-10.98 18.99 10.96z" class="st5"/><path id="矩形_00000060712384329144759220000010597096200675168910_" d="M76.78 66.42c.37.21.31.62-.13.88l-3.92 2.32c-.44.26-1.14.31-1.51.09-.37-.21-.31-.62.13-.88l3.92-2.32c.44-.26 1.14-.31 1.51-.09z" class="st6"/><path id="矩形_00000103979601520637086100000015979036520014002874_" d="M70.25 70.21c.37.21.31.62-.13.88l-.76.45c-.44.26-1.14.31-1.51.09-.37-.21-.31-.62.13-.88l.76-.45c.47-.28 1.13-.3 1.51-.09z" class="st6"/><path d="m64.14 149.41-18.92-10.92V99.03l18.92 10.92z" class="st3"/><path d="m64.14 149.41 18.91-10.92V99.03l-18.91 10.92z" class="st4"/><path d="M64.21 110.01 45.22 99.05l18.85-10.98 18.98 10.96z" class="st5"/><path id="矩形_00000074438447225999477790000017572539516493140364_" d="M57.87 94.65c.37.21.31.62-.13.88l-3.92 2.32c-.44.26-1.14.31-1.51.09-.37-.21-.31-.62.13-.88l3.92-2.32c.44-.26 1.14-.3 1.51-.09z" class="st6"/><path id="矩形_00000022538750193101211660000001025185107531595401_" d="M51.33 98.44c.37.21.31.62-.13.88l-.76.45c-.44.26-1.14.31-1.51.09-.37-.21-.31-.62.13-.88l.76-.45c.47-.27 1.14-.3 1.51-.09z" class="st6"/><path d="M91.36 5.64 84.3 24.56l3.53-1.84v12.99l7.63-4.38V18.77l3.53-2.26zM70.68 33.54l-7.05 18.91 3.52-1.83v12.99l7.63-4.38V46.67l3.53-2.26zM52.28 60.53l-7.06 18.92 3.53-1.83V90.6l7.63-4.37V73.66l3.53-2.26z" class="st7"/><path id="矩形_00000146494433560331813830000010016410068586371738_" d="M194.79 211.49c.62 0 1.15.76 1.15 1.64v1.52c0 .88-.53 1.64-1.15 1.64-.62 0-1.15-.76-1.15-1.64v-1.52c.01-.94.54-1.64 1.15-1.64z" class="st6"/><radialGradient id="SVGID_1_" cx="163.254" cy="245.62" r="29.158" gradientTransform="matrix(1 0 0 .5898 0 100.755)" gradientUnits="userSpaceOnUse"><stop offset="0" stop-color="#b8b3d4"/><stop offset=".346" stop-color="#bab6d6" stop-opacity=".654"/><stop offset=".606" stop-color="#c2c0da" stop-opacity=".394"/><stop offset=".838" stop-color="#d0d0e3" stop-opacity=".162"/><stop offset="1" stop-color="#dde0eb" stop-opacity="0"/></radialGradient><path fill="url(#SVGID_1_)" d="M188.25 231.55c-13.68-7.9-35.96-8-49.77-.23-13.81 7.77-13.91 20.48-.23 28.37 13.68 7.9 35.96 8 49.77.23s13.91-20.48.23-28.37z" opacity=".67"/><path fill="#3fa9bd" d="M201.76 195.52v-49.28c0-.23.02-.45.02-.68 0-22.91-18.57-41.48-41.48-41.48-22.91 0-41.48 18.57-41.48 41.48 0 .36.02.72.03 1.07v44.66h-.03v22.67a5.15 5.15 0 1 0 10.3 0v-.83c.56.36 1.13.72 1.74 1.07 1.83 1.06 3.79 1.99 5.85 2.81v8.2c0 2.84 2.3 5.15 5.15 5.15s5.15-2.31 5.15-5.15v-5.23c2.95.57 5.99.96 9.06 1.14v12.59a5.15 5.15 0 1 0 10.3 0v-12.7c3.39-.28 6.73-.8 9.93-1.55v6.36a5.15 5.15 0 1 0 10.3 0v-9.87c1-.47 1.97-.96 2.91-1.49.7-.39 1.35-.8 1.99-1.21v.71c0 2.84 2.3 5.15 5.15 5.15s5.15-2.31 5.15-5.15v-18.45h-.04z"/><radialGradient id="SVGID_00000165212806311375665900000015295542549160967061_" cx="184.976" cy="121.5" r="106.685" gradientUnits="userSpaceOnUse"><stop offset=".012" stop-color="#dd78ce"/><stop offset=".494" stop-color="#a7589a"/><stop offset=".583" stop-color="#a0619e"/><stop offset=".727" stop-color="#8e79a8"/><stop offset=".908" stop-color="#709fb9"/><stop offset="1" stop-color="#5eb6c3"/></radialGradient><path fill="url(#SVGID_00000165212806311375665900000015295542549160967061_)" d="M201.76 195.52v-49.28c0-.23.02-.45.02-.68 0-22.91-18.57-41.48-41.48-41.48-22.91 0-41.48 18.57-41.48 41.48 0 .36.02.72.03 1.07v44.66h-.03v22.67a5.15 5.15 0 1 0 10.3 0v-.83c.56.36 1.13.72 1.74 1.07 1.83 1.06 3.79 1.99 5.85 2.81v8.2c0 2.84 2.3 5.15 5.15 5.15s5.15-2.31 5.15-5.15v-5.23c2.95.57 5.99.96 9.06 1.14v12.59a5.15 5.15 0 1 0 10.3 0v-12.7c3.39-.28 6.73-.8 9.93-1.55v6.36a5.15 5.15 0 1 0 10.3 0v-9.87c1-.47 1.97-.96 2.91-1.49.7-.39 1.35-.8 1.99-1.21v.71c0 2.84 2.3 5.15 5.15 5.15s5.15-2.31 5.15-5.15v-18.45h-.04z"/><path id="矩形_00000086686037938408433010000017432550484199396753_" d="M122.7 181.67c1.12 0 2.09 1.38 2.09 2.99v14.25c0 1.61-.96 2.99-2.09 2.99-1.12 0-2.09-1.38-2.09-2.99v-14.25c.01-1.61.97-2.99 2.09-2.99z" class="st6"/><path id="矩形_00000127035227253838591450000005510751859295226771_" d="M184 118.59c1.37-1.02 3.68-.37 5.02 1.41l2.29 3.06c1.34 1.78 1.31 4.19-.06 5.22-1.37 1.02-3.68.37-5.02-1.41l-2.29-3.06c-1.42-1.92-1.3-4.2.06-5.22z" class="st6"/><path id="矩形_00000085238268124758462790000000569936219520805281_" d="M140.1 218.26c1.12 0 2.09 1.38 2.09 2.99v2.76c0 1.61-.96 2.99-2.09 2.99-1.12 0-2.09-1.38-2.09-2.99v-2.76c.01-1.72.97-2.99 2.09-2.99z" class="st6"/><path id="矩形_00000131365912482201639790000005537806523322177191_" d="M122.7 206.55c1.12 0 2.09 1.38 2.09 2.99v2.76c0 1.61-.96 2.99-2.09 2.99-1.12 0-2.09-1.38-2.09-2.99v-2.76c.01-1.73.97-2.99 2.09-2.99z" class="st6"/><path id="矩形_00000111187350418448899180000007650291859217353614_" d="M160.29 227c1.12 0 2.09 1.38 2.09 2.99v2.76c0 1.61-.96 2.99-2.09 2.99-1.12 0-2.09-1.38-2.09-2.99v-2.76c0-1.72.97-2.99 2.09-2.99z" class="st6"/><path id="矩形_00000043426772780075113890000012616275275566306237_" d="M179.99 221.66c.89 0 1.66 1.1 1.66 2.37v2.19c0 1.28-.76 2.37-1.66 2.37-.89 0-1.66-1.1-1.66-2.37v-2.19c.01-1.37.77-2.37 1.66-2.37z" class="st6"/><path id="椭圆形_00000103961425444885171440000001165092756602449579_" d="M162.41 160.69c4-.17 6.99-3.61 6.99-5.91 0-.92-.55-1.73-1.36-1.79-1.27-.13-3.18.69-5.63.79-2.27.09-3.72-.49-5.45-.42-1.82.08-1.72 2.19-1.45 3.01.63 2.28 2.82 4.49 6.9 4.32z" class="st47"/><path id="椭圆形_00000142155037613046968980000013880805948223121821_" d="M162.5 158.75c4.09-.17 7.08-3.33 7.08-5.54 0-.83-.54-1.54-1.36-1.6-1.27-.13-3.27.69-5.72.79-2.36.1-3.72-.49-5.54-.42-1.82.07-1.73 2.1-1.45 2.82.63 2.09 2.9 4.12 6.99 3.95z" class="st43"/><ellipse cx="145.72" cy="137.58" class="st43" rx="9.36" ry="8.96" transform="rotate(-55.453 145.722 137.576)"/><path id="形状结合_00000141431980385799448090000000448416744059669437_" d="M146.9 127.76c4.18-.17 7.54 3.92 7.55 9.08v1.1c0-5.25-3.28-9.44-7.36-9.27-4.09.17-7.35 4.54-7.35 9.89 0 1.01.09 2.02.37 2.93-.46-1.18-.73-2.55-.73-3.93-.01-5.24 3.35-9.62 7.52-9.8z" class="st77"/><path id="形状结合_00000165227456102400284330000009911901164819017403_" d="M146.9 126.66c4.63-.19 8.45 4.35 8.45 10.15s-3.8 10.66-8.43 10.85-8.45-4.35-8.45-10.15c-.01-5.8 3.71-10.65 8.43-10.85zm0 1.1c-4.18.17-7.53 4.55-7.53 9.71 0 5.16 3.37 9.26 7.55 9.08 4.18-.17 7.53-4.55 7.53-9.71-.01-5.15-3.46-9.25-7.55-9.08z" class="st78"/><ellipse cx="175.97" cy="136.22" class="st43" rx="9.36" ry="8.96" transform="rotate(-55.453 175.972 136.216)"/><path id="形状结合_00000076595040471615015540000002760029681454701961_" d="M176.95 126.41c4.18-.17 7.54 3.92 7.55 9.08v1.1c0-5.25-3.28-9.44-7.36-9.27s-7.35 4.54-7.35 9.89c0 1.01.09 2.02.37 2.93-.46-1.18-.73-2.55-.73-3.93-.01-5.24 3.34-9.62 7.52-9.8z" class="st77"/><path id="形状结合_00000062177242443019831290000003324964215811885464_" d="M176.95 125.31c4.63-.19 8.45 4.35 8.45 10.15.01 5.8-3.8 10.66-8.43 10.85-4.63.19-8.45-4.35-8.45-10.15-.01-5.8 3.71-10.65 8.43-10.85zm0 1.1c-4.18.17-7.53 4.55-7.53 9.71 0 5.16 3.37 9.26 7.55 9.08 4.18-.17 7.53-4.55 7.53-9.71-.01-5.15-3.46-9.25-7.55-9.08z" class="st78"/><circle cx="143.92" cy="135.18" r="3.71" class="st47"/><circle cx="174" cy="134.07" r="3.71" class="st47"/><linearGradient id="SVGID_00000049905709211524144530000013361972513771391921_" x1="606.974" x2="656.711" y1="809.273" y2="809.273" gradientTransform="matrix(.7491 -.4602 0 1 -247.638 -454.219)" gradientUnits="userSpaceOnUse"><stop offset="0" stop-color="#b4509c"/><stop offset="1" stop-color="#54b8c5"/></linearGradient><path fill="none" stroke="url(#SVGID_00000049905709211524144530000013361972513771391921_)" stroke-miterlimit="10" stroke-width="5" d="m242.43 86.49-33.52 20.59V42.05l33.52-20.59z"/><path d="m242.43 86.12-33.52 20.59V41.68l33.52-20.59z" class="st9"/><path d="m216.92 51.06-1.6.98-1.55-4.66 1.44-.89.91 3.22.91-4.33 1.44-.89-1.55 6.57zM222.41 46.98c-.44.81-.99 1.42-1.64 1.82-.66.4-1.2.47-1.64.2-.44-.27-.66-.83-.66-1.68s.22-1.68.66-2.49c.44-.81.99-1.42 1.64-1.82.65-.4 1.2-.47 1.64-.2.44.27.66.83.66 1.68s-.22 1.68-.66 2.49zm-2.37.36c.19.15.43.14.73-.04.3-.18.54-.47.73-.85.19-.38.28-.77.28-1.17 0-.4-.09-.67-.28-.83-.19-.15-.43-.14-.73.04-.3.18-.54.47-.73.85-.19.38-.28.77-.28 1.17 0 .4.1.68.28.83zM225.7 45.67l-1.27.78v-4.13l-1.13.69v-1.48l3.52-2.16v1.48l-1.12.69v4.13zM228.54 43.92l-1.27.78v-5.61l1.27-.78v5.61zM233.27 41.02l-1.22.75-1.55-1.89v2.84l-1.27.78v-5.61l1.31-.8 1.46 1.76v-2.66l1.27-.78v5.61zM236.03 39.42c-.65.4-1.2.47-1.65.22-.44-.26-.66-.82-.66-1.7s.22-1.71.66-2.51c.44-.8.99-1.4 1.65-1.81.46-.28.85-.38 1.16-.29.31.09.54.3.69.62l-1.07 1.39a.537.537 0 0 0-.31-.3c-.14-.05-.29-.03-.47.08-.3.19-.55.47-.74.86-.19.39-.28.78-.28 1.17 0 .4.09.67.28.83.19.15.43.14.74-.05.12-.07.24-.17.37-.3.13-.13.22-.25.29-.35v-.2l-.78.48v-1.48l2.05-1.26v2.3c-.52 1.06-1.16 1.83-1.93 2.3zM215.62 59.87l-1.34.82v-5.9l2.36-1.45c.5-.31.89-.35 1.17-.14.28.21.42.61.42 1.19 0 .57-.14 1.14-.42 1.69-.28.56-.67.99-1.17 1.3l-1.02.63v1.86zm.85-3.93c.12-.07.22-.17.29-.3.08-.13.11-.26.11-.41 0-.15-.04-.25-.11-.28-.08-.03-.17-.01-.29.06l-.85.52v.93l.85-.52zM222.57 54.86c-.46.85-1.04 1.49-1.72 1.91-.69.42-1.26.49-1.72.21-.46-.29-.69-.88-.69-1.77 0-.9.23-1.77.69-2.62.46-.85 1.04-1.49 1.72-1.91s1.26-.49 1.72-.21c.46.29.69.88.69 1.77s-.23 1.77-.69 2.62zm-2.49.38c.2.16.45.15.76-.05.31-.19.57-.49.76-.89.2-.4.29-.81.29-1.23 0-.42-.1-.71-.29-.87-.2-.16-.45-.15-.76.05-.31.19-.57.49-.76.89-.2.4-.29.81-.29 1.23 0 .42.09.71.29.87zM228.51 51.95l-1.4.86-.57-2.99-.57 3.69-1.4.86-1.26-5.12 1.5-.92.57 3.26.67-4.02 1.01-.62.67 3.2.56-3.95 1.5-.92-1.28 6.67zM233.4 48.95l-3.35 2.06v-5.9l3.35-2.06v1.56l-2.01 1.24v.58l1.97-1.21v1.56l-1.97 1.21v.65l2.01-1.24v1.55zM237.95 46.15l-1.52.94-.61-1.48-.48.3v1.86l-1.34.81v-5.9l2.36-1.45c.5-.31.89-.35 1.17-.14.28.21.42.61.42 1.19 0 .46-.08.88-.23 1.28-.16.39-.34.72-.56 1l.79 1.59zm-1.8-2.3c.12-.08.23-.18.31-.31.08-.13.13-.27.13-.43 0-.15-.04-.23-.13-.26-.08-.03-.19 0-.31.07l-.81.5v.93l.81-.5z" class="st10"/><linearGradient id="SVGID_00000000217971989827388910000010283345449562790278_" x1="641.964" x2="621.764" y1="828.156" y2="811.161" gradientTransform="matrix(.7491 -.4602 0 1 -247.638 -454.219)" gradientUnits="userSpaceOnUse"><stop offset="0" stop-color="#c1489f"/><stop offset="1" stop-color="#55bac7"/></linearGradient><path fill="url(#SVGID_00000000217971989827388910000010283345449562790278_)" d="M225.67 61.06c-5.61 3.45-10.17 12.33-10.17 19.82s4.55 10.78 10.17 7.33 10.17-12.32 10.17-19.82-4.56-10.78-10.17-7.33zm4.32 17.26c-.11.23-.26.4-.46.52-.13.08-.25.1-.36.06-.11-.03-.18-.13-.25-.27l-3.27-8.85-1.2 4.73.58-.36c.34-.21.62-.01.62.44v.02c0 .45-.28.99-.62 1.2l-1.09.67-1.57 6.17c-.06.21-.14.4-.25.57-.1.16-.23.29-.36.38-.19.12-.35.14-.46.05-.11-.09-.17-.26-.17-.51 0-.11.01-.22.04-.34l1.43-5.49-.61.37c-.34.21-.62.01-.62-.44v-.01c0-.45.28-.99.62-1.2l1.13-.7 1.49-5.75c.19-.69.48-1.15.86-1.39l.3-.19c.38-.23.67-.13.86.33l3.44 8.99c.03.08.04.18.04.29.05.25-.01.49-.12.71z"/><path d="m234.09 220.28-16.85-9.73V193.7l16.85 9.73z" class="st3"/><path d="m234.09 220.28 16.85-9.73V193.7l-16.85 9.73z" class="st4"/><path d="m234.16 203.48-16.92-9.76 16.79-9.78 16.92 9.76z" class="st5"/><path id="矩形_00000156589181652389726510000009832882575107733675_" d="M228.51 189.8c.33.19.28.55-.12.78l-3.5 2.07c-.39.23-1.02.27-1.35.08-.33-.19-.28-.55.12-.78l3.5-2.07c.4-.23 1.02-.27 1.35-.08z" class="st6"/><path id="矩形_00000114753872164836107390000008318334814263333760_" d="M222.69 193.18c.33.19.28.55-.12.78l-.68.4c-.39.23-1.02.27-1.35.08-.33-.19-.28-.55.12-.78l.68-.4c.42-.25 1.02-.27 1.35-.08z" class="st6"/><path d="m254.1 231.48-16.85-9.73V204.9l16.85 9.73z" class="st3"/><path d="m254.1 231.48 16.85-9.73V204.9l-16.85 9.73z" class="st4"/><path d="m254.17 214.68-16.92-9.76 16.79-9.79 16.91 9.77z" class="st5"/><path id="矩形_00000162332810622150213590000002441072825827850927_" d="M248.52 200.99c.33.19.28.55-.12.78l-3.5 2.07c-.39.23-1.02.27-1.35.08-.33-.19-.28-.55.12-.78l3.5-2.07c.4-.23 1.02-.26 1.35-.08z" class="st6"/><path id="矩形_00000020369642880654130900000005162499920152368524_" d="M242.7 204.37c.33.19.28.55-.12.78l-.68.4c-.39.23-1.02.27-1.35.08-.33-.19-.28-.55.12-.78l.68-.4c.42-.24 1.02-.26 1.35-.08z" class="st6"/><path d="m248.69 205.76-16.85-9.73v-16.85l16.85 9.73z" class="st3"/><path d="m248.69 205.76 16.85-9.73v-16.85l-16.85 9.73z" class="st4"/><path d="m248.76 188.96-16.92-9.76 16.79-9.78 16.92 9.76z" class="st5"/><path id="矩形_00000088093028257264078920000013150392875210970030_" d="M243.11 175.28c.33.19.28.55-.12.78l-3.5 2.07c-.39.23-1.02.27-1.35.08-.33-.19-.28-.55.12-.78l3.5-2.07c.4-.23 1.02-.27 1.35-.08z" class="st6"/><path id="矩形_00000160904953415103841010000007095377889291877524_" d="M237.29 178.66c.33.19.28.55-.12.78l-.68.4c-.39.23-1.02.27-1.35.08-.33-.19-.28-.55.12-.78l.68-.4c.42-.25 1.02-.27 1.35-.08z" class="st6"/><path d="m52.65 260.57-24.64-14.22v-24.63l24.64 14.22z" class="st3"/><path d="m52.65 260.57 24.63-14.22v-24.63l-24.63 14.22z" class="st4"/><path d="m52.73 236.02-24.72-14.27 24.55-14.3 24.72 14.27z" class="st5"/><path id="矩形_00000117649330528318197960000013226699253584129702_" d="M44.48 216.01c.48.28.4.8-.17 1.15l-5.11 3.03c-.58.34-1.49.4-1.97.12s-.4-.8.17-1.15l5.11-3.03c.58-.34 1.49-.39 1.97-.12z" class="st6"/><path id="矩形_00000005965904495616196920000016444588211959717797_" d="M35.97 220.95c.48.28.4.8-.17 1.15l-.99.59c-.58.34-1.49.4-1.97.12s-.4-.8.17-1.15l.99-.59c.62-.36 1.49-.39 1.97-.12z" class="st6"/><path d="M96.73 263.07 72.1 248.85v-24.63l24.63 14.22z" class="st3"/><path d="m96.73 263.07 24.63-14.22v-24.63l-24.63 14.22z" class="st4"/><path d="M96.82 238.51 72.1 224.24l24.54-14.3 24.72 14.27z" class="st5"/><path id="矩形_00000140722521983819098230000018417858482779818929_" d="M88.57 218.51c.48.28.4.8-.17 1.15l-5.11 3.03c-.58.34-1.49.4-1.97.12s-.4-.8.17-1.15l5.11-3.03c.57-.34 1.48-.4 1.97-.12z" class="st6"/><path id="矩形_00000114792118797483258940000016253436519173136525_" d="M80.06 223.45c.48.28.4.8-.17 1.15l-.99.59c-.58.34-1.49.4-1.97.12s-.4-.8.17-1.15l.99-.59c.61-.37 1.48-.4 1.97-.12z" class="st6"/><linearGradient id="SVGID_00000154417887637418172300000014601368104918184328_" x1="606.686" x2="652.86" y1="-573.102" y2="-573.102" gradientTransform="matrix(.763 .4367 0 1 -229.386 422.694)" gradientUnits="userSpaceOnUse"><stop offset="0" stop-color="#b4509c"/><stop offset="1" stop-color="#54b8c5"/></linearGradient><path fill="none" stroke="url(#SVGID_00000154417887637418172300000014601368104918184328_)" stroke-miterlimit="10" stroke-width="5" d="m266.86 163.49-31.41-17.97V85.67l31.41 17.98z"/><path d="m266.86 163.15-31.41-17.97V85.33l31.41 17.98z" class="st9"/><path d="m242.96 102.79-1.5-.86-1.46-5.99 1.35.77.85 3.96.85-2.99 1.35.77-1.44 4.34zM248.1 105.08c-.41.26-.92.22-1.54-.13-.61-.35-1.13-.89-1.54-1.63-.41-.73-.62-1.49-.62-2.28 0-.78.21-1.31.62-1.57.41-.26.92-.22 1.54.13.61.35 1.13.89 1.54 1.63.41.73.62 1.49.62 2.28 0 .78-.21 1.31-.62 1.57zm-2.22-2.27c.18.35.4.6.68.76.28.16.51.17.68.02.18-.15.26-.4.26-.77s-.09-.72-.26-1.07c-.18-.35-.4-.6-.68-.76-.28-.16-.51-.17-.68-.02-.18.15-.26.4-.26.77 0 .36.09.72.26 1.07zM251.18 107.49l-1.19-.68v-3.8l-1.06-.6v-1.36l3.3 1.89v1.36l-1.05-.6v3.79zM253.85 109.02l-1.19-.68v-5.16l1.19.68v5.16zM258.28 111.56l-1.15-.66-1.45-3.45v2.62l-1.19-.68v-5.16l1.23.7 1.37 3.23v-2.45l1.19.68v5.17zM260.87 113.13c-.61-.35-1.13-.89-1.54-1.61-.42-.73-.62-1.49-.62-2.29s.21-1.33.62-1.58c.42-.25.93-.2 1.54.15.43.25.79.58 1.08 1.01.29.42.5.87.65 1.33l-1 .1a2.32 2.32 0 0 0-.29-.62c-.13-.2-.27-.35-.44-.44-.28-.16-.51-.17-.69-.02-.18.15-.27.4-.27.77s.09.72.27 1.07c.18.35.41.6.69.77.11.06.22.11.34.13.12.02.21.02.27-.01v-.19l-.73-.42v-1.36l1.92 1.1v2.11c-.48.41-1.08.41-1.8 0zM241.74 109.47l-1.25-.72v-5.43l2.21 1.26c.47.27.83.65 1.1 1.16.26.51.39 1.02.39 1.56 0 .53-.13.89-.39 1.1-.26.2-.63.17-1.1-.09l-.96-.55v1.71zm.79-2.69c.11.06.2.08.27.05s.11-.12.11-.25c0-.14-.04-.27-.11-.38a.87.87 0 0 0-.27-.27l-.79-.45v.85l.79.45zM248.25 112.51c-.43.28-.97.23-1.62-.14-.65-.37-1.18-.94-1.62-1.71-.43-.77-.65-1.57-.65-2.39 0-.82.22-1.37.65-1.65.43-.28.97-.23 1.62.14.65.37 1.18.94 1.62 1.71.43.77.65 1.57.65 2.39 0 .82-.22 1.37-.65 1.65zm-2.33-2.39c.18.37.42.63.72.8.29.17.53.17.72.02.18-.16.28-.42.28-.81 0-.39-.09-.76-.28-1.13-.18-.37-.42-.63-.72-.8-.29-.17-.53-.17-.72-.02-.18.15-.28.42-.28.81 0 .39.09.76.28 1.13zM253.82 116.38l-1.32-.75-.53-3.38-.53 2.77-1.32-.75-1.19-6.1 1.4.8.53 3.62.63-2.96.94.54.63 3.68.53-3.02 1.41.81-1.18 4.74zM258.41 119.01l-3.14-1.8v-5.43l3.14 1.8v1.43l-1.89-1.08v.54l1.84 1.05v1.43l-1.84-1.05v.59l1.89 1.08v1.44zM262.67 121.45l-1.43-.82-.57-2.03-.45-.26v1.71l-1.25-.72v-5.43l2.21 1.26c.47.27.83.65 1.1 1.16.26.51.39 1.02.39 1.56 0 .42-.07.73-.22.92-.15.19-.32.29-.52.3l.74 2.35zm-1.69-4.11c.12.07.21.09.29.06.08-.03.12-.11.12-.25s-.04-.26-.12-.38a.964.964 0 0 0-.29-.28l-.76-.44v.85l.76.44z" class="st10"/><linearGradient id="SVGID_00000128470081129517810860000009064259262030788783_" x1="639.087" x2="620.497" y1="-555.723" y2="-571.365" gradientTransform="matrix(.763 .4367 0 1 -229.386 422.694)" gradientUnits="userSpaceOnUse"><stop offset="0" stop-color="#c1489f"/><stop offset="1" stop-color="#55bac7"/></linearGradient><path fill="url(#SVGID_00000128470081129517810860000009064259262030788783_)" d="M251.15 121.63c-5.26-3.01-9.53.14-9.53 7.04s4.27 14.94 9.53 17.95 9.53-.14 9.53-7.04-4.26-14.94-9.53-17.95zm4.06 20.65c-.1.09-.25.07-.43-.03-.12-.07-.23-.19-.33-.34-.1-.15-.17-.33-.23-.52l-3.07-11.75-1.13 3.03.55.31c.32.18.58.67.58 1.09v.02c0 .41-.26.61-.58.43l-1.02-.58-1.47 3.95c-.05.13-.13.22-.23.25-.09.04-.21.02-.33-.05-.18-.1-.33-.26-.43-.46-.1-.2-.16-.42-.16-.66 0-.1.01-.19.04-.27l1.34-3.47-.57-.33c-.32-.18-.58-.67-.58-1.09v-.01c0-.41.26-.61.58-.43l1.06.61 1.4-3.65c.18-.43.45-.53.81-.33l.28.16c.35.2.63.62.81 1.25l3.22 12.06c.03.11.04.21.04.32.01.25-.05.41-.15.49z"/></svg>