<svg xmlns="http://www.w3.org/2000/svg" xml:space="preserve" id="Слой_1" x="0" y="0" version="1.1" viewBox="0 0 290 269.62"><style>.st2{fill:#0d101d;stroke:#000;stroke-linecap:round;stroke-linejoin:round;stroke-miterlimit:10}.st3{fill:#30345e}.st5{fill-rule:evenodd;clip-rule:evenodd;fill:#0d101d}.st5,.st6{stroke:#000;stroke-linecap:round;stroke-linejoin:round;stroke-miterlimit:10}.st17,.st53,.st54,.st6,.st7{fill-rule:evenodd;clip-rule:evenodd}.st7{fill:#30345e;stroke:#000;stroke-linecap:round;stroke-linejoin:round;stroke-miterlimit:10}.st17,.st53,.st54{fill:#40407c}.st53,.st54{fill:#30345e}.st54{fill:#121421}.st74{opacity:.2563;enable-background:new}.st131,.st132,.st74,.st79{fill-rule:evenodd;clip-rule:evenodd;fill:#fff}.st131,.st132{fill:#aeaeb0}.st132{fill:#d2d2d2}</style><path stroke="#000" stroke-linecap="round" stroke-linejoin="round" stroke-miterlimit="10" d="m42.14 206.92-26.46-14.4v-40l149.66-79.61 26.26 10.81-3.73 25.78 8.21 10.03-8.86 5.02-8.73-5.38-7.5 14.6-5.78-3.47-19.9 18.05-10.38-6.43-8.91 17.38-10.62-6.24-7.61 16.59-11.83-9.37-7.11 14.51-15.76 9.24-10.63-7.24-14.77 10.97 2.59 14.54z"/><path d="M98.29 154.12c0 4.66-.65 8.95-1.95 12.88-1.3 3.93-3.05 7.35-5.26 10.24s-4.67 5.11-7.39 6.65c-2.74 1.55-5.2 2.13-7.41 1.72-2.2-.4-3.95-1.83-5.25-4.29-1.3-2.46-1.94-6-1.94-10.63 0-4.66.65-8.95 1.94-12.88 1.29-3.93 3.04-7.34 5.25-10.23 2.2-2.89 4.67-5.11 7.41-6.67 2.72-1.54 5.18-2.12 7.39-1.73s3.96 1.81 5.26 4.26c1.3 2.47 1.95 6.02 1.95 10.68zm-8.38 4.76c0-2.51-.24-4.49-.71-5.94s-1.17-2.36-2.1-2.73c-.92-.37-2.06-.17-3.41.6-1.35.76-2.48 1.85-3.41 3.27-.92 1.41-1.62 3.12-2.1 5.11-.47 1.99-.71 4.24-.71 6.75s.24 4.49.71 5.94c.47 1.46 1.17 2.36 2.1 2.73.92.36 2.06.17 3.41-.6 1.35-.76 2.49-1.86 3.41-3.27.92-1.41 1.62-3.12 2.1-5.11.47-1.99.71-4.24.71-6.75zM107.79 169.65l-8.85-36.81 9.09-5.16 4.1 23.41.23-.13 4.87-28.5 7.15-4.06 4.87 23.05.23-.13 4.1-28.15 9.09-5.16-8.85 46.86-7.8 4.43-5.1-20.47-.23.13-5.1 26.26-7.8 4.43zM145.31 148.35v-41.83l21.63-12.28v9.15l-13.48 7.66v7.19l12.37-7.02v9.15l-12.37 7.02v7.19l13.43-7.62v9.15l-21.58 12.24zM60.94 156.25c-1.67-.28-3.62.22-5.85 1.48l-12.96 7.36v41.83l8.15-4.63v-12.42l4.51-2.56c2.29-1.3 4.29-3.03 6-5.18 1.72-2.16 3.05-4.6 4-7.34.95-2.74 1.43-5.6 1.43-8.59 0-2.97-.47-5.3-1.39-6.99-.92-1.7-2.22-2.68-3.89-2.96zm-3.76 18.17a9.557 9.557 0 0 1-1.57 2.9 8.43 8.43 0 0 1-2.46 2.1l-2.87 1.63v-11.52l2.87-1.63c.96-.54 1.78-.78 2.46-.71.68.07 1.2.43 1.57 1.07.36.64.55 1.56.55 2.76 0 1.19-.18 2.32-.55 3.4zM187.22 124.55l8.85-5.02-6.1-12.15c1.55-1.92 2.79-4.08 3.68-6.51.95-2.6 1.43-5.4 1.43-8.39 0-2.97-.47-5.25-1.39-6.85-.93-1.6-2.23-2.48-3.9-2.67-1.67-.18-3.62.36-5.85 1.63l-12.96 7.35v41.83l8.15-4.63v-13.8l2.82-1.6 5.27 10.81zm-8.09-28.17 2.87-1.63c.96-.54 1.78-.83 2.46-.85.68-.02 1.2.24 1.57.78.36.55.55 1.42.55 2.62 0 1.18-.18 2.25-.55 3.19-.37.94-.89 1.78-1.57 2.49-.68.72-1.5 1.35-2.46 1.9l-2.87 1.63V96.38z" class="st2"/><path fill="#30345e" stroke="#000" stroke-linecap="round" stroke-linejoin="round" stroke-miterlimit="10" d="m15.68 152.52 26.46 12.57 144.44-81.7 3.21-.43-24.45-10.05z"/><path d="M108.52 127.3 89.6 116.38V44.06l18.92 10.92z" class="st6"/><path d="m108.52 127.3 18.91-10.92V44.06l-18.91 10.92z" class="st5"/><path d="M108.59 55.04 89.6 44.08l18.85-10.98 18.98 10.96z" class="st7"/><path id="矩形_00000168081341923676864140000018052773877421585335_" d="M102.25 39.68c.37.21.31.62-.13.88l-3.92 2.32c-.44.26-1.14.31-1.51.09-.37-.21-.31-.62.13-.88l3.92-2.32c.44-.26 1.14-.3 1.51-.09z" class="st17"/><path id="矩形_00000083071739719627040380000016538229091662453932_" d="M95.71 43.47c.37.21.31.62-.13.88l-.76.45c-.44.26-1.14.31-1.51.09-.37-.21-.31-.62.13-.88l.76-.45c.47-.27 1.14-.3 1.51-.09z" class="st17"/><path d="m89.7 138.28-18.91-10.92V70.64L89.7 81.56z" class="st6"/><path d="m89.7 138.28 18.91-10.92V70.64L89.7 81.56z" class="st5"/><path d="M89.77 81.62 70.79 70.66l18.84-10.98 18.99 10.96z" class="st7"/><path id="矩形_00000088820695350210309900000002353416271689938607_" d="M83.43 66.26c.37.21.31.62-.13.88l-3.92 2.32c-.44.26-1.14.31-1.51.09-.37-.21-.31-.62.13-.88l3.92-2.32c.44-.26 1.14-.31 1.51-.09z" class="st17"/><path id="矩形_00000150085076503232668710000012144745272101550983_" d="M76.9 70.05c.37.21.31.62-.13.88l-.76.45c-.44.26-1.14.31-1.51.09-.37-.21-.31-.62.13-.88l.76-.45c.47-.28 1.13-.3 1.51-.09z" class="st17"/><path d="m70.79 149.25-18.92-10.92V98.87l18.92 10.92z" class="st6"/><path d="m70.79 149.25 18.91-10.92V98.87l-18.91 10.92z" class="st5"/><path d="M70.86 109.85 51.87 98.89l18.85-10.98L89.7 98.87z" class="st7"/><path id="矩形_00000154417972731664589820000014270576307115558540_" d="M64.52 94.49c.37.21.31.62-.13.88l-3.92 2.32c-.44.26-1.14.31-1.51.09-.37-.21-.31-.62.13-.88l3.92-2.32c.44-.26 1.14-.3 1.51-.09z" class="st17"/><path id="矩形_00000052783614208074561450000014629245936590685100_" d="M57.98 98.28c.37.21.31.62-.13.88l-.76.45c-.44.26-1.14.31-1.51.09-.37-.21-.31-.62.13-.88l.76-.45c.47-.27 1.14-.3 1.51-.09z" class="st17"/><path d="M98.01 5.48 90.95 24.4l3.53-1.84v12.99l7.63-4.38V18.61l3.53-2.26zM77.33 33.38l-7.05 18.91 3.52-1.83v12.99l7.63-4.38V46.51l3.53-2.26zM58.93 60.37l-7.06 18.92 3.53-1.83v12.98l7.63-4.37V73.5l3.53-2.26z" class="st54"/><linearGradient id="SVGID_1_" x1="171.462" x2="221.209" y1="-6852.874" y2="-6852.874" gradientTransform="matrix(.7491 -.4602 0 -1 85.25 -6698.408)" gradientUnits="userSpaceOnUse"><stop offset="0" stop-color="#a75698"/><stop offset="1" stop-color="#6fb5c2"/></linearGradient><path fill="none" stroke="url(#SVGID_1_)" stroke-linecap="round" stroke-linejoin="round" stroke-miterlimit="10" stroke-width="5" d="m249.08 86.33-33.52 20.59V41.89l33.52-20.59z"/><path d="m249.08 85.96-33.52 20.59V41.52l33.52-20.59z" class="st2"/><path d="m223.57 50.9-1.6.98-1.55-4.66 1.44-.89.91 3.22.91-4.33 1.44-.89-1.55 6.57zM229.06 46.82c-.44.81-.99 1.42-1.64 1.82-.66.4-1.2.47-1.64.2s-.66-.83-.66-1.68.22-1.68.66-2.49.99-1.42 1.64-1.82 1.2-.47 1.64-.2.66.83.66 1.68-.22 1.68-.66 2.49zm-2.37.36c.19.15.43.14.73-.04s.54-.47.73-.85c.19-.38.28-.77.28-1.17 0-.4-.09-.67-.28-.83-.19-.15-.43-.14-.73.04s-.54.47-.73.85c-.19.38-.28.77-.28 1.17 0 .4.1.68.28.83zM232.35 45.51l-1.27.78v-4.13l-1.13.69v-1.48l3.52-2.16v1.48l-1.12.69v4.13zM235.19 43.76l-1.27.78v-5.61l1.27-.78v5.61zM239.92 40.86l-1.22.75-1.55-1.89v2.84l-1.27.78v-5.61l1.31-.8 1.46 1.76v-2.66l1.27-.78v5.61zM242.68 39.26c-.65.4-1.2.47-1.65.22-.44-.26-.66-.82-.66-1.7s.22-1.71.66-2.51.99-1.4 1.65-1.81c.46-.28.85-.38 1.16-.29s.54.3.69.62l-1.07 1.39c-.07-.15-.17-.25-.31-.3s-.29-.03-.47.08c-.3.19-.55.47-.74.86s-.28.78-.28 1.17c0 .4.09.67.28.83.19.15.43.14.74-.05.12-.07.24-.17.37-.3.13-.13.22-.25.29-.35v-.2l-.78.48v-1.48l2.05-1.26v2.3c-.52 1.06-1.16 1.83-1.93 2.3zM222.27 59.71l-1.34.82v-5.9l2.36-1.45c.5-.31.89-.35 1.17-.14s.42.61.42 1.19c0 .57-.14 1.14-.42 1.69-.28.56-.67.99-1.17 1.3l-1.02.63v1.86zm.85-3.93c.12-.07.22-.17.29-.3.08-.13.11-.26.11-.41s-.04-.25-.11-.28c-.08-.03-.17-.01-.29.06l-.85.52v.93l.85-.52zM229.22 54.7c-.46.85-1.04 1.49-1.72 1.91-.69.42-1.26.49-1.72.21-.46-.29-.69-.88-.69-1.77 0-.9.23-1.77.69-2.62s1.04-1.49 1.72-1.91 1.26-.49 1.72-.21c.46.29.69.88.69 1.77s-.23 1.77-.69 2.62zm-2.49.38c.2.16.45.15.76-.05.31-.19.57-.49.76-.89.2-.4.29-.81.29-1.23s-.1-.71-.29-.87c-.2-.16-.45-.15-.76.05-.31.19-.57.49-.76.89-.2.4-.29.81-.29 1.23 0 .42.09.71.29.87zM235.16 51.79l-1.4.86-.57-2.99-.57 3.69-1.4.86-1.26-5.12 1.5-.92.57 3.26.67-4.02 1.01-.62.67 3.2.56-3.95 1.5-.92-1.28 6.67zM240.05 48.79l-3.35 2.06v-5.9l3.35-2.06v1.56l-2.01 1.24v.58l1.97-1.21v1.56l-1.97 1.21v.65l2.01-1.24v1.55zM244.6 45.99l-1.52.94-.61-1.48-.48.3v1.86l-1.34.81v-5.9l2.36-1.45c.5-.31.89-.35 1.17-.14s.42.61.42 1.19c0 .46-.08.88-.23 1.28-.16.39-.34.72-.56 1l.79 1.59zm-1.8-2.3c.12-.08.23-.18.31-.31s.13-.27.13-.43c0-.15-.04-.23-.13-.26-.08-.03-.19 0-.31.07l-.81.5v.93l.81-.5z" class="st3"/><linearGradient id="SVGID_00000140706118110344485410000003861809536558816136_" x1="206.468" x2="186.269" y1="-6871.764" y2="-6854.769" gradientTransform="matrix(.7491 -.4602 0 -1 85.25 -6698.408)" gradientUnits="userSpaceOnUse"><stop offset="0" stop-color="#b2509a"/><stop offset="1" stop-color="#70b7c4"/></linearGradient><path fill="url(#SVGID_00000140706118110344485410000003861809536558816136_)" d="M232.32 60.9c-5.61 3.45-10.17 12.33-10.17 19.82s4.55 10.78 10.17 7.33 10.17-12.32 10.17-19.82-4.56-10.78-10.17-7.33zm4.32 17.26c-.11.23-.26.4-.46.52-.13.08-.25.1-.36.06-.11-.03-.18-.13-.25-.27l-3.27-8.85-1.2 4.73.58-.36c.34-.21.62-.01.62.44v.02c0 .45-.28.99-.62 1.2l-1.09.67-1.57 6.17c-.06.21-.14.4-.25.57-.1.16-.23.29-.36.38-.19.12-.35.14-.46.05s-.17-.26-.17-.51c0-.11.01-.22.04-.34l1.43-5.49-.61.37c-.34.21-.62.01-.62-.44v-.01c0-.45.28-.99.62-1.2l1.13-.7 1.49-5.75c.19-.69.48-1.15.86-1.39l.3-.19c.38-.23.67-.13.86.33l3.44 8.99c.03.08.04.18.04.29.05.25-.01.49-.12.71z"/><path d="m240.74 220.12-16.85-9.73v-16.85l16.85 9.73z" class="st6"/><path d="m240.74 220.12 16.85-9.73v-16.85l-16.85 9.73z" class="st5"/><path d="m240.81 203.32-16.92-9.76 16.79-9.78 16.92 9.76z" class="st7"/><path id="矩形_00000156589181652389726510000009832882575107733675_" d="M235.16 189.64c.33.19.28.55-.12.78l-3.5 2.07c-.39.23-1.02.27-1.35.08-.33-.19-.28-.55.12-.78l3.5-2.07c.4-.23 1.02-.27 1.35-.08z" class="st17"/><path id="矩形_00000114753872164836107390000008318334814263333760_" d="M229.34 193.02c.33.19.28.55-.12.78l-.68.4c-.39.23-1.02.27-1.35.08-.33-.19-.28-.55.12-.78l.68-.4c.42-.25 1.02-.27 1.35-.08z" class="st17"/><path d="m260.75 231.32-16.85-9.73v-16.85l16.85 9.73z" class="st6"/><path d="m260.75 231.32 16.85-9.73v-16.85l-16.85 9.73z" class="st5"/><path d="m260.82 214.52-16.92-9.76 16.79-9.79 16.91 9.77z" class="st7"/><path id="矩形_00000162332810622150213590000002441072825827850927_" d="M255.17 200.83c.33.19.28.55-.12.78l-3.5 2.07c-.39.23-1.02.27-1.35.08-.33-.19-.28-.55.12-.78l3.5-2.07c.4-.23 1.02-.26 1.35-.08z" class="st17"/><path id="矩形_00000020369642880654130900000005162499920152368524_" d="M249.35 204.21c.33.19.28.55-.12.78l-.68.4c-.39.23-1.02.27-1.35.08-.33-.19-.28-.55.12-.78l.68-.4c.42-.24 1.02-.26 1.35-.08z" class="st17"/><path d="m255.34 205.6-16.85-9.73v-16.85l16.85 9.73z" class="st6"/><path d="m255.34 205.6 16.85-9.73v-16.85l-16.85 9.73z" class="st5"/><path d="m255.41 188.8-16.92-9.76 16.79-9.78 16.92 9.76z" class="st7"/><path id="矩形_00000088093028257264078920000013150392875210970030_" d="M249.76 175.12c.33.19.28.55-.12.78l-3.5 2.07c-.39.23-1.02.27-1.35.08-.33-.19-.28-.55.12-.78l3.5-2.07c.4-.23 1.02-.27 1.35-.08z" class="st17"/><path id="矩形_00000160904953415103841010000007095377889291877524_" d="M243.94 178.5c.33.19.28.55-.12.78l-.68.4c-.39.23-1.02.27-1.35.08-.33-.19-.28-.55.12-.78l.68-.4c.42-.25 1.02-.27 1.35-.08z" class="st17"/><path d="m59.3 260.41-24.64-14.22v-24.63l24.64 14.22z" class="st6"/><path d="m59.3 260.41 24.63-14.22v-24.63L59.3 235.78z" class="st5"/><path d="m59.38 235.86-24.72-14.27 24.55-14.3 24.72 14.27z" class="st7"/><path id="矩形_00000101787043259056810290000007219544091455898007_" d="M51.13 215.85c.48.28.4.8-.17 1.15l-5.11 3.03c-.58.34-1.49.4-1.97.12s-.4-.8.17-1.15l5.11-3.03c.58-.34 1.49-.39 1.97-.12z" class="st17"/><path id="矩形_00000018918292298868977920000004989853832169414276_" d="M42.62 220.79c.48.28.4.8-.17 1.15l-.99.59c-.58.34-1.49.4-1.97.12s-.4-.8.17-1.15l.99-.59c.62-.36 1.49-.39 1.97-.12z" class="st17"/><path d="m103.38 262.91-24.63-14.22v-24.63l24.63 14.22z" class="st6"/><path d="m103.38 262.91 24.63-14.22v-24.63l-24.63 14.22z" class="st5"/><path d="m103.47 238.35-24.72-14.27 24.54-14.3 24.72 14.27z" class="st7"/><path id="矩形_00000109023682655146325480000014786054164984431503_" d="M95.22 218.35c.48.28.4.8-.17 1.15l-5.11 3.03c-.58.34-1.49.4-1.97.12s-.4-.8.17-1.15l5.11-3.03c.57-.34 1.48-.4 1.97-.12z" class="st17"/><path id="矩形_00000144331727562549907370000006413010026770162618_" d="M86.71 223.29c.48.28.4.8-.17 1.15l-.99.59c-.58.34-1.49.4-1.97.12s-.4-.8.17-1.15l.99-.59c.61-.37 1.48-.4 1.97-.12z" class="st17"/><linearGradient id="SVGID_00000118369772738523398300000007512778354888427142_" x1="203.326" x2="249.492" y1="-7037.034" y2="-7037.034" gradientTransform="matrix(.763 .4367 0 -1 85.06 -7011.48)" gradientUnits="userSpaceOnUse"><stop offset="0" stop-color="#a75698"/><stop offset="1" stop-color="#6fb5c2"/></linearGradient><path fill="none" stroke="url(#SVGID_00000118369772738523398300000007512778354888427142_)" stroke-linecap="round" stroke-linejoin="round" stroke-miterlimit="10" stroke-width="5" d="m273.51 163.33-31.41-17.97V85.51l31.41 17.98z"/><path d="m273.51 162.99-31.41-17.97V85.17l31.41 17.98z" class="st2"/><path d="m249.61 102.63-1.5-.86-1.46-5.99 1.35.77.85 3.96.85-2.99 1.35.77-1.44 4.34zM254.75 104.92c-.41.26-.92.22-1.54-.13-.61-.35-1.13-.89-1.54-1.63-.41-.73-.62-1.49-.62-2.28 0-.78.21-1.31.62-1.57.41-.26.92-.22 1.54.13.61.35 1.13.89 1.54 1.63.41.73.62 1.49.62 2.28 0 .78-.21 1.31-.62 1.57zm-2.22-2.27c.18.35.4.6.68.76s.51.17.68.02c.18-.15.26-.4.26-.77s-.09-.72-.26-1.07c-.18-.35-.4-.6-.68-.76s-.51-.17-.68-.02c-.18.15-.26.4-.26.77 0 .36.09.72.26 1.07zM257.83 107.33l-1.19-.68v-3.8l-1.06-.6v-1.36l3.3 1.89v1.36l-1.05-.6v3.79zM260.5 108.86l-1.19-.68v-5.16l1.19.68v5.16zM264.93 111.4l-1.15-.66-1.45-3.45v2.62l-1.19-.68v-5.16l1.23.7 1.37 3.23v-2.45l1.19.68v5.17zM267.52 112.97c-.61-.35-1.13-.89-1.54-1.61-.42-.73-.62-1.49-.62-2.29s.21-1.33.62-1.58c.42-.25.93-.2 1.54.15.43.25.79.58 1.08 1.01.29.42.5.87.65 1.33l-1 .1a2.32 2.32 0 0 0-.29-.62c-.13-.2-.27-.35-.44-.44-.28-.16-.51-.17-.69-.02s-.27.4-.27.77.09.72.27 1.07.41.6.69.77c.11.06.22.11.34.13s.21.02.27-.01v-.19l-.73-.42v-1.36l1.92 1.1v2.11c-.48.41-1.08.41-1.8 0zM248.39 109.31l-1.25-.72v-5.43l2.21 1.26c.47.27.83.65 1.1 1.16.26.51.39 1.02.39 1.56 0 .53-.13.89-.39 1.1-.26.2-.63.17-1.1-.09l-.96-.55v1.71zm.79-2.69c.11.06.2.08.27.05s.11-.12.11-.25c0-.14-.04-.27-.11-.38s-.16-.2-.27-.27l-.79-.45v.85l.79.45zM254.9 112.35c-.43.28-.97.23-1.62-.14s-1.18-.94-1.62-1.71c-.43-.77-.65-1.57-.65-2.39s.22-1.37.65-1.65.97-.23 1.62.14 1.18.94 1.62 1.71c.43.77.65 1.57.65 2.39s-.22 1.37-.65 1.65zm-2.33-2.39c.18.37.42.63.72.8.29.17.53.17.72.02.18-.16.28-.42.28-.81s-.09-.76-.28-1.13c-.18-.37-.42-.63-.72-.8-.29-.17-.53-.17-.72-.02-.18.15-.28.42-.28.81 0 .39.09.76.28 1.13zM260.47 116.22l-1.32-.75-.53-3.38-.53 2.77-1.32-.75-1.19-6.1 1.4.8.53 3.62.63-2.96.94.54.63 3.68.53-3.02 1.41.81-1.18 4.74zM265.06 118.85l-3.14-1.8v-5.43l3.14 1.8v1.43l-1.89-1.08v.54l1.84 1.05v1.43l-1.84-1.05v.59l1.89 1.08v1.44zM269.32 121.29l-1.43-.82-.57-2.03-.45-.26v1.71l-1.25-.72v-5.43l2.21 1.26c.47.27.83.65 1.1 1.16.26.51.39 1.02.39 1.56 0 .42-.07.73-.22.92-.15.19-.32.29-.52.3l.74 2.35zm-1.69-4.11c.12.07.21.09.29.06.08-.03.12-.11.12-.25s-.04-.26-.12-.38a.964.964 0 0 0-.29-.28l-.76-.44v.85l.76.44z" class="st3"/><linearGradient id="SVGID_00000051342035362812009520000015753878728355925655_" x1="235.724" x2="217.134" y1="-7054.418" y2="-7038.776" gradientTransform="matrix(.763 .4367 0 -1 85.06 -7011.48)" gradientUnits="userSpaceOnUse"><stop offset="0" stop-color="#b2509a"/><stop offset="1" stop-color="#70b7c4"/></linearGradient><path fill="url(#SVGID_00000051342035362812009520000015753878728355925655_)" d="M257.8 121.47c-5.26-3.01-9.53.14-9.53 7.04s4.27 14.94 9.53 17.95 9.53-.14 9.53-7.04-4.26-14.94-9.53-17.95zm4.06 20.65c-.1.09-.25.07-.43-.03-.12-.07-.23-.19-.33-.34s-.17-.33-.23-.52l-3.07-11.75-1.13 3.03.55.31c.32.18.58.67.58 1.09v.02c0 .41-.26.61-.58.43l-1.02-.58-1.47 3.95c-.05.13-.13.22-.23.25-.09.04-.21.02-.33-.05-.18-.1-.33-.26-.43-.46-.1-.2-.16-.42-.16-.66 0-.1.01-.19.04-.27l1.34-3.47-.57-.33c-.32-.18-.58-.67-.58-1.09v-.01c0-.41.26-.61.58-.43l1.06.61 1.4-3.65c.18-.43.45-.53.81-.33l.28.16c.35.2.63.62.81 1.25l3.22 12.06c.03.11.04.21.04.32.01.25-.05.41-.15.49z"/><path id="矩形_00000146494433560331813830000010016410068586371738_" d="M201.44 211.33c.62 0 1.15.76 1.15 1.64v1.52c0 .88-.53 1.64-1.15 1.64-.62 0-1.15-.76-1.15-1.64v-1.52c.01-.94.54-1.64 1.15-1.64z" class="st74"/><radialGradient id="SVGID_00000178196201523678727480000008629030416450706617_" cx="169.904" cy="-9776.598" r="29.158" gradientTransform="matrix(1 0 0 -.5898 0 -5520.774)" gradientUnits="userSpaceOnUse"><stop offset="0"/><stop offset="1" stop-color="#0d101d" stop-opacity="0"/></radialGradient><path fill="url(#SVGID_00000178196201523678727480000008629030416450706617_)" d="M194.9 231.39c-13.68-7.9-35.96-8-49.77-.23-13.81 7.77-13.91 20.48-.23 28.37 13.68 7.9 35.96 8 49.77.23 13.81-7.77 13.91-20.48.23-28.37z" opacity=".67"/><path fill="#5ea6b9" d="M208.41 195.36v-49.28c0-.23.02-.45.02-.68 0-22.91-18.57-41.48-41.48-41.48s-41.48 18.57-41.48 41.48c0 .36.02.72.03 1.07v44.66h-.03v22.67a5.15 5.15 0 1 0 10.3 0v-.83c.56.36 1.13.72 1.74 1.07 1.83 1.06 3.79 1.99 5.85 2.81v8.2c0 2.84 2.3 5.15 5.15 5.15s5.15-2.31 5.15-5.15v-5.23c2.95.57 5.99.96 9.06 1.14v12.59a5.15 5.15 0 1 0 10.3 0v-12.7c3.39-.28 6.73-.8 9.93-1.55v6.36a5.15 5.15 0 1 0 10.3 0v-9.87c1-.47 1.97-.96 2.91-1.49.7-.39 1.35-.8 1.99-1.21v.71c0 2.84 2.3 5.15 5.15 5.15s5.15-2.31 5.15-5.15v-18.45l-.04.01z"/><radialGradient id="SVGID_00000158718220497634298460000016446645368486458772_" cx="191.631" cy="-6976.114" r="106.685" gradientTransform="matrix(1 0 0 -1 0 -6854.771)" gradientUnits="userSpaceOnUse"><stop offset=".012" stop-color="#cf7dc9"/><stop offset=".494" stop-color="#9c5c96"/><stop offset=".583" stop-color="#96649a"/><stop offset=".727" stop-color="#8a7aa4"/><stop offset=".908" stop-color="#7a9db5"/><stop offset="1" stop-color="#74b3c0"/></radialGradient><path fill="url(#SVGID_00000158718220497634298460000016446645368486458772_)" d="M208.41 195.36v-49.28c0-.23.02-.45.02-.68 0-22.91-18.57-41.48-41.48-41.48s-41.48 18.57-41.48 41.48c0 .36.02.72.03 1.07v44.66h-.03v22.67a5.15 5.15 0 1 0 10.3 0v-.83c.56.36 1.13.72 1.74 1.07 1.83 1.06 3.79 1.99 5.85 2.81v8.2c0 2.84 2.3 5.15 5.15 5.15s5.15-2.31 5.15-5.15v-5.23c2.95.57 5.99.96 9.06 1.14v12.59a5.15 5.15 0 1 0 10.3 0v-12.7c3.39-.28 6.73-.8 9.93-1.55v6.36a5.15 5.15 0 1 0 10.3 0v-9.87c1-.47 1.97-.96 2.91-1.49.7-.39 1.35-.8 1.99-1.21v.71c0 2.84 2.3 5.15 5.15 5.15s5.15-2.31 5.15-5.15v-18.45l-.04.01z"/><path id="矩形_00000086686037938408433010000017432550484199396753_" d="M129.35 181.51c1.12 0 2.09 1.38 2.09 2.99v14.25c0 1.61-.96 2.99-2.09 2.99-1.12 0-2.09-1.38-2.09-2.99V184.5c.01-1.61.97-2.99 2.09-2.99z" class="st74"/><path id="矩形_00000127035227253838591450000005510751859295226771_" d="M190.65 118.43c1.37-1.02 3.68-.37 5.02 1.41l2.29 3.06c1.34 1.78 1.31 4.19-.06 5.22-1.37 1.02-3.68.37-5.02-1.41l-2.29-3.06c-1.42-1.92-1.3-4.2.06-5.22z" class="st74"/><path id="矩形_00000085238268124758462790000000569936219520805281_" d="M146.75 218.1c1.12 0 2.09 1.38 2.09 2.99v2.76c0 1.61-.96 2.99-2.09 2.99-1.12 0-2.09-1.38-2.09-2.99v-2.76c.01-1.72.97-2.99 2.09-2.99z" class="st74"/><path id="矩形_00000131365912482201639790000005537806523322177191_" d="M129.35 206.39c1.12 0 2.09 1.38 2.09 2.99v2.76c0 1.61-.96 2.99-2.09 2.99-1.12 0-2.09-1.38-2.09-2.99v-2.76c.01-1.73.97-2.99 2.09-2.99z" class="st74"/><path id="矩形_00000111187350418448899180000007650291859217353614_" d="M166.94 226.84c1.12 0 2.09 1.38 2.09 2.99v2.76c0 1.61-.96 2.99-2.09 2.99-1.12 0-2.09-1.38-2.09-2.99v-2.76c0-1.72.97-2.99 2.09-2.99z" class="st74"/><path id="矩形_00000043426772780075113890000012616275275566306237_" d="M186.64 221.5c.89 0 1.66 1.1 1.66 2.37v2.19c0 1.28-.76 2.37-1.66 2.37-.89 0-1.66-1.1-1.66-2.37v-2.19c.01-1.37.77-2.37 1.66-2.37z" class="st74"/><path id="椭圆形_00000103961425444885171440000001165092756602449579_" d="M169.06 160.53c4-.17 6.99-3.61 6.99-5.91 0-.92-.55-1.73-1.36-1.79-1.27-.13-3.18.69-5.63.79-2.27.09-3.72-.49-5.45-.42-1.82.08-1.72 2.19-1.45 3.01.63 2.28 2.82 4.49 6.9 4.32z" class="st53"/><path id="椭圆形_00000142155037613046968980000013880805948223121821_" d="M169.15 158.59c4.09-.17 7.08-3.33 7.08-5.54 0-.83-.54-1.54-1.36-1.6-1.27-.13-3.27.69-5.72.79-2.36.1-3.72-.49-5.54-.42-1.82.07-1.73 2.1-1.45 2.82.63 2.09 2.9 4.12 6.99 3.95z" class="st79"/><ellipse cx="152.38" cy="137.43" class="st79" rx="9.36" ry="8.96" transform="rotate(-55.453 152.379 137.422)"/><path id="形状结合_00000141431980385799448090000000448416744059669437_" d="M153.55 127.6c4.18-.17 7.54 3.92 7.55 9.08v1.1c0-5.25-3.28-9.44-7.36-9.27-4.09.17-7.35 4.54-7.35 9.89 0 1.01.09 2.02.37 2.93-.46-1.18-.73-2.55-.73-3.93-.01-5.24 3.35-9.62 7.52-9.8z" class="st131"/><path id="形状结合_00000165227456102400284330000009911901164819017403_" d="M153.55 126.5c4.63-.19 8.45 4.35 8.45 10.15s-3.8 10.66-8.43 10.85-8.45-4.35-8.45-10.15c-.01-5.8 3.71-10.65 8.43-10.85zm0 1.1c-4.18.17-7.53 4.55-7.53 9.71s3.37 9.26 7.55 9.08c4.18-.17 7.53-4.55 7.53-9.71-.01-5.15-3.46-9.25-7.55-9.08z" class="st132"/><ellipse cx="182.64" cy="136.07" class="st79" rx="9.36" ry="8.96" transform="rotate(-55.453 182.628 136.062)"/><path id="形状结合_00000076595040471615015540000002760029681454701961_" d="M183.6 126.25c4.18-.17 7.54 3.92 7.55 9.08v1.1c0-5.25-3.28-9.44-7.36-9.27s-7.35 4.54-7.35 9.89c0 1.01.09 2.02.37 2.93-.46-1.18-.73-2.55-.73-3.93-.01-5.24 3.34-9.62 7.52-9.8z" class="st131"/><path id="形状结合_00000062177242443019831290000003324964215811885464_" d="M183.6 125.15c4.63-.19 8.45 4.35 8.45 10.15.01 5.8-3.8 10.66-8.43 10.85-4.63.19-8.45-4.35-8.45-10.15-.01-5.8 3.71-10.65 8.43-10.85zm0 1.1c-4.18.17-7.53 4.55-7.53 9.71s3.37 9.26 7.55 9.08c4.18-.17 7.53-4.55 7.53-9.71-.01-5.15-3.46-9.25-7.55-9.08z" class="st132"/><circle cx="150.57" cy="135.02" r="3.71" class="st53"/><circle cx="180.65" cy="133.91" r="3.71" class="st53"/></svg>