<svg xmlns="http://www.w3.org/2000/svg" xml:space="preserve" id="Слой_1" x="0" y="0" version="1.1" viewBox="0 0 290 269.62"><style>.st2{fill:#0d101d;stroke:#000;stroke-linecap:round;stroke-linejoin:round;stroke-miterlimit:10}.st3{fill:#30345e}.st5{fill:#0d101d}.st5,.st6,.st7{fill-rule:evenodd;clip-rule:evenodd;stroke:#000;stroke-linecap:round;stroke-linejoin:round;stroke-miterlimit:10}.st7{fill:#30345e}.st17{fill:#40407c}.st17,.st74,.st78,.st79,.st80,.st81{fill-rule:evenodd;clip-rule:evenodd}.st74{opacity:.2563;fill:#fff;enable-background:new}.st78,.st79,.st80,.st81{fill:#555069}.st79,.st80,.st81{fill:#fff}.st80,.st81{fill:#afafb1}.st81{fill:#d3d3d3}</style><linearGradient id="SVGID_1_" x1="475.542" x2="521.716" y1="-384.547" y2="-384.547" gradientTransform="matrix(.763 .4367 0 1 -128.224 236.28)" gradientUnits="userSpaceOnUse"><stop offset="0" stop-color="#b4509c"/><stop offset="1" stop-color="#54b8c5"/></linearGradient><path fill="none" stroke="url(#SVGID_1_)" stroke-linecap="round" stroke-linejoin="round" stroke-miterlimit="10" stroke-width="5" d="m267.96 108.37-31.42-17.98V30.55l31.42 17.98z"/><path d="m267.96 108.03-31.42-17.98V30.21l31.42 17.98z" class="st2"/><path d="m244.05 47.67-1.5-.86-1.45-5.99 1.35.77.85 3.96.85-2.99 1.35.77-1.45 4.34zM249.2 49.96c-.41.26-.92.22-1.54-.13-.61-.35-1.13-.89-1.54-1.63-.41-.73-.62-1.49-.62-2.28 0-.78.21-1.31.62-1.57.41-.26.92-.22 1.54.13.61.35 1.13.89 1.54 1.63.41.73.62 1.49.62 2.28-.01.78-.21 1.3-.62 1.57zm-2.22-2.28c.18.35.4.6.68.76.28.16.51.17.68.02.18-.15.26-.4.26-.77s-.09-.72-.26-1.07c-.18-.35-.4-.6-.68-.76-.28-.16-.51-.17-.68-.02-.18.15-.26.4-.26.77-.01.37.08.73.26 1.07zM252.27 52.37l-1.19-.68v-3.8l-1.06-.6v-1.36l3.3 1.89v1.36l-1.05-.6v3.79zM254.94 53.9l-1.19-.68v-5.16l1.19.68v5.16zM259.37 56.43l-1.15-.66-1.45-3.45v2.62l-1.19-.68V49.1l1.23.7 1.37 3.23v-2.45l1.19.68v5.17zM261.96 58.01c-.61-.35-1.13-.89-1.54-1.61-.42-.73-.62-1.49-.62-2.29s.21-1.33.62-1.58c.42-.25.93-.2 1.54.15.43.25.79.58 1.08 1.01.29.42.5.87.65 1.33l-1 .1a2.32 2.32 0 0 0-.29-.62c-.13-.2-.27-.35-.44-.44-.28-.16-.51-.17-.69-.02-.18.15-.27.4-.27.77s.09.72.27 1.07c.18.35.41.6.69.77.11.06.22.11.34.13.12.02.21.02.27-.01v-.19l-.73-.42V54.8l1.92 1.1V58c-.48.42-1.08.42-1.8.01zM242.83 54.34l-1.25-.72V48.2l2.21 1.26c.47.27.83.65 1.1 1.16.26.51.39 1.02.39 1.56 0 .53-.13.89-.39 1.1-.26.2-.63.17-1.1-.09l-.96-.55v1.7zm.79-2.68c.11.06.2.08.27.05s.11-.12.11-.25c0-.14-.04-.27-.11-.38a.87.87 0 0 0-.27-.27l-.79-.45v.85l.79.45zM249.34 57.38c-.43.28-.97.23-1.62-.14-.65-.37-1.18-.94-1.62-1.71-.43-.77-.65-1.57-.65-2.39 0-.82.22-1.37.65-1.65.43-.28.97-.23 1.62.14s1.18.94 1.62 1.71c.43.77.65 1.57.65 2.39 0 .83-.21 1.38-.65 1.65zm-2.33-2.39c.18.37.42.63.72.8.29.17.53.17.72.02.18-.16.28-.42.28-.81 0-.39-.09-.76-.28-1.13-.18-.37-.42-.63-.72-.8-.29-.17-.53-.17-.72-.02-.18.15-.28.42-.28.81 0 .39.1.77.28 1.13zM254.91 61.26l-1.32-.75-.53-3.38-.53 2.77-1.32-.75-1.19-6.1 1.4.8.53 3.62.63-2.96.94.54.63 3.68.53-3.02 1.41.81-1.18 4.74zM259.5 63.88l-3.14-1.8v-5.43l3.14 1.8v1.43l-1.89-1.08v.54l1.84 1.05v1.43l-1.84-1.05v.59l1.89 1.08v1.44zM263.76 66.32l-1.43-.82-.57-2.03-.45-.26v1.71l-1.25-.72v-5.43l2.21 1.26c.47.27.83.65 1.1 1.16.26.51.39 1.02.39 1.56 0 .42-.07.73-.22.92-.15.19-.32.29-.52.3l.74 2.35zm-1.68-4.1c.12.07.21.09.29.06.08-.03.12-.11.12-.25s-.04-.26-.12-.38a.964.964 0 0 0-.29-.28l-.76-.44v.85l.76.44z" class="st3"/><linearGradient id="SVGID_00000062172260235618183020000007130610993154464641_" x1="507.943" x2="489.353" y1="-367.167" y2="-382.809" gradientTransform="matrix(.763 .4367 0 1 -128.224 236.28)" gradientUnits="userSpaceOnUse"><stop offset="0" stop-color="#c1489f"/><stop offset="1" stop-color="#55bac7"/></linearGradient><path fill="url(#SVGID_00000062172260235618183020000007130610993154464641_)" d="M252.25 66.51c-5.26-3.01-9.53.14-9.53 7.04s4.27 14.94 9.53 17.95 9.53-.14 9.53-7.04-4.27-14.94-9.53-17.95zm4.05 20.65c-.1.09-.25.07-.43-.03-.12-.07-.23-.19-.33-.34-.1-.15-.17-.33-.23-.52l-3.07-11.75-1.13 3.03.55.31c.32.18.58.67.58 1.09v.02c0 .41-.26.61-.58.43l-1.02-.58-1.47 3.95c-.05.13-.13.22-.23.25-.09.04-.21.02-.33-.05-.18-.1-.33-.26-.43-.46-.1-.2-.16-.42-.16-.66 0-.1.01-.19.04-.27l1.34-3.47-.57-.33c-.32-.18-.58-.67-.58-1.09v-.01c0-.41.26-.61.58-.43l1.06.61 1.4-3.65c.18-.43.45-.53.81-.33l.28.16c.35.2.63.62.81 1.25l3.22 12.06c.03.11.04.21.04.32.01.25-.05.4-.15.49z"/><path stroke="#000" stroke-linecap="round" stroke-linejoin="round" stroke-miterlimit="10" d="M44.88 129.31 22.3 117.02V82.9l127.69-67.93 22.4 9.23-3.18 21.99 7 8.56-7.55 4.29-7.45-4.6-6.4 12.46-4.93-2.96-16.98 15.4-8.85-5.49-7.6 14.83-9.07-5.33-6.49 14.16-10.09-7.99-6.07 12.37-13.44 7.89-9.07-6.18-12.6 9.36 2.21 12.4z"/><path d="M92.79 84.26c0 3.97-.56 7.64-1.66 10.99-1.11 3.35-2.61 6.27-4.49 8.74-1.88 2.47-3.98 4.36-6.3 5.68-2.33 1.32-4.44 1.82-6.32 1.47s-3.37-1.56-4.48-3.66c-1.1-2.1-1.66-5.12-1.66-9.07 0-3.97.55-7.63 1.66-10.99 1.1-3.35 2.6-6.26 4.48-8.73C75.9 76.22 78 74.32 80.34 73c2.32-1.32 4.42-1.81 6.3-1.48 1.88.33 3.38 1.54 4.49 3.64 1.11 2.09 1.66 5.13 1.66 9.1zm-7.15 4.06c0-2.14-.2-3.83-.61-5.07-.4-1.24-1-2.01-1.79-2.33-.79-.31-1.76-.14-2.91.51-1.15.65-2.12 1.58-2.91 2.79s-1.38 2.66-1.79 4.36c-.4 1.7-.61 3.62-.61 5.76 0 2.14.2 3.83.61 5.07.4 1.24 1 2.02 1.79 2.33.79.31 1.76.14 2.91-.51 1.15-.65 2.12-1.58 2.91-2.79s1.38-2.66 1.79-4.36c.41-1.7.61-3.62.61-5.76zM100.89 97.51l-7.55-31.4 7.75-4.4 3.5 19.97.2-.11 4.15-24.32 6.1-3.46 4.15 19.67.2-.11 3.5-24.01 7.75-4.4-7.54 39.96-6.65 3.78-4.35-17.47-.2.11-4.35 22.41-6.66 3.78zM132.9 79.34V43.65l18.45-10.48v7.81l-11.5 6.53v6.14l10.55-5.99v7.81l-10.55 5.99v6.13l11.45-6.5v7.81l-18.4 10.44zM60.92 86.08c-1.43-.24-3.09.19-4.99 1.26l-11.05 6.28v35.69l6.95-3.95v-10.6l3.85-2.18c1.95-1.11 3.66-2.58 5.12-4.42 1.46-1.84 2.6-3.93 3.41-6.26.81-2.33 1.22-4.78 1.22-7.33 0-2.53-.4-4.52-1.19-5.97-.79-1.44-1.89-2.28-3.32-2.52zm-3.21 15.5a8.14 8.14 0 0 1-1.34 2.48c-.58.73-1.28 1.33-2.09 1.79l-2.45 1.39v-9.83l2.45-1.39c.82-.46 1.52-.67 2.09-.6.58.06 1.03.36 1.34.91.31.55.47 1.33.47 2.36 0 1-.15 1.97-.47 2.89zM168.66 59.04l7.55-4.29L171 44.38c1.33-1.64 2.38-3.48 3.14-5.55.81-2.22 1.22-4.6 1.22-7.16 0-2.53-.4-4.48-1.19-5.84-.79-1.36-1.9-2.12-3.33-2.28-1.43-.16-3.09.31-4.99 1.39l-11.05 6.27V66.9l6.95-3.95V51.18l2.41-1.37 4.5 9.23zM161.76 35l2.45-1.39c.82-.46 1.52-.71 2.09-.73.58-.02 1.03.2 1.34.67.31.47.47 1.21.47 2.24 0 1.01-.16 1.92-.47 2.72-.31.81-.76 1.51-1.34 2.13-.58.61-1.28 1.16-2.09 1.62l-2.45 1.39V35z" class="st2"/><path fill="#30345e" stroke="#000" stroke-linecap="round" stroke-linejoin="round" stroke-miterlimit="10" d="m22.3 82.9 22.58 10.72 123.23-69.71 2.74-.36-20.86-8.58z"/><path d="m203.34 155-34.39-19.86v-34.4l34.39 19.86z" class="st6"/><path d="m203.34 155 34.4-19.86v-34.4l-34.4 19.86z" class="st5"/><path d="m203.47 120.71-34.52-19.93 34.27-19.97 34.52 19.93z" class="st7"/><path id="矩形_00000071533566136864949720000017614019122046767779_" d="M191.94 92.77c.68.38.56 1.12-.24 1.6l-7.14 4.22c-.81.48-2.08.56-2.75.17-.68-.38-.56-1.12.24-1.6l7.14-4.22c.81-.47 2.08-.55 2.75-.17z" class="st17"/><path id="矩形_00000148655270495133407650000016292293133908033928_" d="M180.06 99.67c.68.38.56 1.12-.24 1.6l-1.38.82c-.81.48-2.08.56-2.75.17-.68-.38-.56-1.12.24-1.6l1.38-.82c.86-.51 2.07-.55 2.75-.17z" class="st17"/><path d="m199.3 107.99-24.63-14.22V69.14l24.63 14.22z" class="st6"/><path d="m199.3 107.99 24.63-14.22V69.14L199.3 83.36z" class="st5"/><path d="m199.39 83.43-24.72-14.27 24.54-14.3 24.72 14.27z" class="st7"/><path id="矩形_00000067237531403813401990000007161575344428374456_" d="M191.14 63.43c.48.28.4.8-.17 1.15l-5.11 3.03c-.58.34-1.49.4-1.97.12s-.4-.8.17-1.15l5.11-3.03c.57-.34 1.48-.4 1.97-.12z" class="st17"/><path id="矩形_00000172439455273169900730000003788602527012485021_" d="M182.62 68.37c.48.28.4.8-.17 1.15l-.99.59c-.58.34-1.49.4-1.97.12s-.4-.8.17-1.15l.99-.59c.62-.37 1.49-.4 1.97-.12z" class="st17"/><path d="m245.17 159.61-24.63-14.22v-24.63l24.63 14.22z" class="st6"/><path d="m245.17 159.61 24.63-14.22v-24.63l-24.63 14.22z" class="st5"/><path d="m245.26 135.05-24.72-14.27 24.54-14.3 24.72 14.27z" class="st7"/><path id="矩形_00000116923982106843508210000010645689925394138284_" d="M237.01 115.05c.48.28.4.8-.17 1.15l-5.11 3.03c-.58.34-1.49.4-1.97.12s-.4-.8.17-1.15l5.11-3.03c.57-.34 1.48-.4 1.97-.12z" class="st17"/><path id="矩形_00000116227473572927087900000008942256424761030057_" d="M228.5 119.99c.48.28.4.8-.17 1.15l-.99.59c-.58.34-1.49.4-1.97.12s-.4-.8.17-1.15l.99-.59c.61-.36 1.48-.4 1.97-.12z" class="st17"/><path d="m56.08 234.01-24.63-14.22v-24.63l24.63 14.22z" class="st6"/><path d="m56.08 234.01 24.63-14.22v-24.63l-24.63 14.22z" class="st5"/><path d="m56.17 209.46-24.72-14.28L56 180.88l24.72 14.28z" class="st7"/><path id="矩形_00000170982840724012628400000017603476856356239242_" d="M47.92 189.45c.48.28.4.8-.17 1.15l-5.11 3.03c-.58.34-1.49.4-1.97.12s-.4-.8.17-1.15l5.11-3.03c.58-.34 1.49-.39 1.97-.12z" class="st17"/><path id="矩形_00000034789922945337747170000004786810676651890076_" d="M39.41 194.39c.48.28.4.8-.17 1.15l-.99.59c-.58.34-1.49.4-1.97.12s-.4-.8.17-1.15l.99-.59c.62-.36 1.49-.39 1.97-.12z" class="st17"/><path d="m58.18 202.25-24.63-14.22V163.4l24.63 14.22z" class="st6"/><path d="m58.18 202.25 24.63-14.22V163.4l-24.63 14.22z" class="st5"/><path d="m58.27 177.7-24.72-14.27 24.54-14.3 24.72 14.27z" class="st7"/><path id="矩形_00000103233851201207027030000016206408251759671182_" d="M50.02 157.69c.48.28.4.8-.17 1.15l-5.11 3.03c-.58.34-1.49.4-1.97.12s-.4-.8.17-1.15l5.11-3.03c.57-.33 1.48-.39 1.97-.12z" class="st17"/><path id="矩形_00000119098720750697630430000017452137009090544825_" d="M41.51 162.63c.48.28.4.8-.17 1.15l-.99.59c-.58.34-1.49.4-1.97.12s-.4-.8.17-1.15l.99-.59c.61-.36 1.48-.39 1.97-.12z" class="st17"/><path id="矩形_00000009591785655471828430000014275214618500428440_" d="M175.9 186.22c.62 0 1.15.76 1.15 1.64v1.52c0 .88-.53 1.64-1.15 1.64-.62 0-1.15-.76-1.15-1.64v-1.52c0-.94.53-1.64 1.15-1.64z" class="st74"/><radialGradient id="SVGID_00000063606314922835530020000011660783084321565117_" cx="144.356" cy="220.347" r="29.158" gradientTransform="matrix(1 0 0 .5898 0 90.388)" gradientUnits="userSpaceOnUse"><stop offset="0"/><stop offset="1" stop-color="#0d101d" stop-opacity="0"/></radialGradient><path fill="url(#SVGID_00000063606314922835530020000011660783084321565117_)" d="M169.35 206.27c-13.68-7.9-35.96-8-49.77-.23s-13.91 20.48-.23 28.37c13.68 7.9 35.96 8 49.77.23 13.81-7.77 13.91-20.47.23-28.37z" opacity=".67"/><path fill="#3fa9bd" d="M182.86 170.25v-49.28c0-.23.02-.45.02-.68 0-22.91-18.57-41.48-41.48-41.48-22.91 0-41.48 18.57-41.48 41.48 0 .36.02.72.03 1.07v44.66h-.03v22.67a5.15 5.15 0 1 0 10.3 0v-.83c.56.36 1.13.72 1.74 1.07 1.83 1.06 3.79 1.99 5.85 2.81v8.2a5.15 5.15 0 1 0 10.3 0v-5.23c2.95.57 5.99.96 9.06 1.14v12.59c0 2.84 2.3 5.15 5.15 5.15s5.15-2.31 5.15-5.15v-12.7c3.39-.28 6.73-.8 9.93-1.55v6.36c0 2.84 2.3 5.15 5.15 5.15s5.15-2.31 5.15-5.15v-9.87c1-.47 1.97-.96 2.91-1.49.7-.39 1.35-.8 1.99-1.21v.71a5.15 5.15 0 1 0 10.3 0v-18.45h-.04z"/><radialGradient id="SVGID_00000146479802604260267460000005736347643373221565_" cx="166.078" cy="96.227" r="106.685" gradientUnits="userSpaceOnUse"><stop offset=".012" stop-color="#dd78ce"/><stop offset=".494" stop-color="#a7589a"/><stop offset=".583" stop-color="#a0619e"/><stop offset=".727" stop-color="#8e79a8"/><stop offset=".908" stop-color="#709fb9"/><stop offset="1" stop-color="#5eb6c3"/></radialGradient><path fill="url(#SVGID_00000146479802604260267460000005736347643373221565_)" d="M182.86 170.25v-49.28c0-.23.02-.45.02-.68 0-22.91-18.57-41.48-41.48-41.48-22.91 0-41.48 18.57-41.48 41.48 0 .36.02.72.03 1.07v44.66h-.03v22.67a5.15 5.15 0 1 0 10.3 0v-.83c.56.36 1.13.72 1.74 1.07 1.83 1.06 3.79 1.99 5.85 2.81v8.2a5.15 5.15 0 1 0 10.3 0v-5.23c2.95.57 5.99.96 9.06 1.14v12.59c0 2.84 2.3 5.15 5.15 5.15s5.15-2.31 5.15-5.15v-12.7c3.39-.28 6.73-.8 9.93-1.55v6.36c0 2.84 2.3 5.15 5.15 5.15s5.15-2.31 5.15-5.15v-9.87c1-.47 1.97-.96 2.91-1.49.7-.39 1.35-.8 1.99-1.21v.71a5.15 5.15 0 1 0 10.3 0v-18.45h-.04z"/><path id="矩形_00000087397578957614146820000003355207264758135954_" d="M103.81 156.4c1.12 0 2.09 1.38 2.09 2.99v14.25c0 1.61-.96 2.99-2.09 2.99-1.12 0-2.09-1.38-2.09-2.99v-14.25c0-1.61.96-2.99 2.09-2.99z" class="st74"/><path id="矩形_00000047754894176421212220000012458375927516645053_" d="M165.11 93.31c1.37-1.02 3.68-.37 5.02 1.41l2.29 3.06c1.34 1.78 1.31 4.19-.06 5.22-1.37 1.02-3.68.37-5.02-1.41l-2.29-3.06c-1.43-1.91-1.31-4.19.06-5.22z" class="st74"/><path id="矩形_00000157990403674674158700000006686390421407291574_" d="M121.2 192.99c1.12 0 2.09 1.38 2.09 2.99v2.76c0 1.61-.96 2.99-2.09 2.99-1.12 0-2.09-1.38-2.09-2.99v-2.76c.01-1.73.97-2.99 2.09-2.99z" class="st74"/><path id="矩形_00000044871261895847708770000002735913274861412226_" d="M103.81 181.85c1.12 0 2.09 1.38 2.09 2.99v2.76c0 1.61-.96 2.99-2.09 2.99-1.12 0-2.09-1.38-2.09-2.99v-2.76c0-1.72.96-2.99 2.09-2.99z" class="st74"/><path id="矩形_00000043416485415560851790000010022625893806274693_" d="M141.39 201.73c1.12 0 2.09 1.38 2.09 2.99v2.76c0 1.61-.96 2.99-2.09 2.99-1.12 0-2.09-1.38-2.09-2.99v-2.76c.01-1.73.97-2.99 2.09-2.99z" class="st74"/><path id="矩形_00000049191009262218111110000014936761869242403253_" d="M161.09 196.39c.89 0 1.66 1.1 1.66 2.37v2.19c0 1.28-.76 2.37-1.66 2.37-.89 0-1.66-1.1-1.66-2.37v-2.19c.01-1.37.77-2.37 1.66-2.37z" class="st74"/><ellipse cx="149.12" cy="134.31" class="st79" rx="11.56" ry="6.81" transform="rotate(-65.298 149.125 134.31)"/><ellipse cx="171.23" cy="126.16" class="st79" rx="11.56" ry="6.81" transform="rotate(-65.298 171.24 126.164)"/><path id="形状结合_00000052800771220668392550000012347782312995224733_" d="M152.02 123.11c3.6-1.88 6.46 1.24 6.4 6.88 0 .2 0 .4-.01.6l-.01.6c.06-5.74-2.71-9-6.24-7.16s-6.4 7.94-6.46 13.78c-.01 1.11.06 2.17.28 3.06-.38-1.1-.6-2.49-.58-4 .07-5.74 3.02-11.89 6.62-13.76z" class="st80"/><path id="形状结合_00000167383969439905033100000013440319992287430529_" d="M152.04 121.9c4-2.08 7.23 1.34 7.17 7.68-.07 6.34-3.41 13.2-7.41 15.28s-7.23-1.34-7.17-7.68c.07-6.35 3.33-13.16 7.41-15.28zm-.02 1.21c-3.6 1.88-6.55 8.02-6.61 13.66-.06 5.64 2.79 8.76 6.4 6.88 3.6-1.88 6.55-8.02 6.61-13.66.06-5.64-2.87-8.72-6.4-6.88z" class="st81"/><path id="形状结合_00000091012564269628090270000016207065571347968438_" d="M173.76 114.96c3.6-1.88 6.46 1.24 6.4 6.88 0 .2 0 .4-.01.6l-.01.6c.06-5.74-2.71-9-6.24-7.16-3.53 1.84-6.4 7.94-6.46 13.78-.01 1.11.06 2.17.28 3.06-.38-1.1-.6-2.49-.58-4 .06-5.74 3.01-11.88 6.62-13.76z" class="st80"/><path id="形状结合_00000089533955622365780390000008932183258459172017_" d="M173.77 113.75c4-2.08 7.23 1.34 7.17 7.68-.07 6.34-3.41 13.2-7.41 15.28s-7.23-1.34-7.17-7.68c.07-6.34 3.33-13.16 7.41-15.28zm-.01 1.21c-3.6 1.88-6.55 8.02-6.61 13.66-.06 5.64 2.79 8.76 6.4 6.88 3.6-1.88 6.55-8.02 6.61-13.66.05-5.64-2.88-8.72-6.4-6.88z" class="st81"/><path id="椭圆形_00000124162552881930764260000009442055162140381825_" d="M162.57 152.15c2.56-1.41 4.5-5.07 4.5-6.88 0-.72-.35-1.18-.87-.97-.82.3-2.04 1.56-3.61 2.42-1.46.8-2.39.81-3.5 1.42-1.17.64-1.11 2.27-.94 2.83.4 1.58 1.8 2.62 4.42 1.18z" class="st78"/><path id="椭圆形_00000134223282835839614540000012754417125015225990_" d="M164.27 152.93c2.62-1.44 4.55-4.89 4.56-6.63 0-.65-.35-1.04-.87-.82-.82.3-2.1 1.59-3.67 2.45-1.52.83-2.39.81-3.55 1.45-1.17.64-1.11 2.2-.94 2.68.39 1.45 1.85 2.31 4.47.87z" class="st79"/><ellipse cx="154.53" cy="130.38" class="st78" rx="4.69" ry="2.76" transform="rotate(-65.298 154.536 130.38)"/><ellipse cx="175.89" cy="121.95" class="st78" rx="4.69" ry="2.76" transform="rotate(-65.298 175.897 121.948)"/></svg>