<svg xmlns="http://www.w3.org/2000/svg" xml:space="preserve" id="Слой_1" x="0" y="0" version="1.1" viewBox="0 0 290 269.62"><style>.st2{fill:#0d101d;stroke:#000;stroke-linecap:round;stroke-linejoin:round;stroke-miterlimit:10}.st3{fill:#30345e}.st5{fill:#0d101d}.st5,.st6,.st7{fill-rule:evenodd;clip-rule:evenodd;stroke:#000;stroke-linecap:round;stroke-linejoin:round;stroke-miterlimit:10}.st7{fill:#30345e}.st17{fill:#40407c}.st17,.st74,.st78,.st79,.st80,.st81{fill-rule:evenodd;clip-rule:evenodd}.st74{opacity:.2563;fill:#fff;enable-background:new}.st78,.st79,.st80,.st81{fill:#555069}.st79,.st80,.st81{fill:#fff}.st80,.st81{fill:#afafb1}.st81{fill:#d3d3d3}</style><path stroke="#000" stroke-linecap="round" stroke-linejoin="round" stroke-miterlimit="10" d="m35.08 119.62-22.57-12.29V73.21L140.19 5.29l22.4 9.23-3.18 21.99 7.01 8.56-7.56 4.28-7.45-4.59-6.4 12.46-4.93-2.97-16.97 15.4-8.86-5.48-7.6 14.82-9.07-5.32-6.48 14.15L81 79.84l-6.06 12.37-13.45 7.89-9.07-6.18-12.6 9.36 2.21 12.4z"/><path d="M82.99 74.58c0 3.97-.56 7.64-1.66 10.99-1.11 3.35-2.61 6.27-4.49 8.74-1.88 2.47-3.98 4.36-6.3 5.68-2.33 1.32-4.44 1.82-6.32 1.47s-3.37-1.56-4.48-3.66c-1.1-2.1-1.66-5.12-1.66-9.07 0-3.97.55-7.63 1.66-10.99 1.1-3.35 2.6-6.26 4.48-8.73 1.88-2.47 3.99-4.36 6.32-5.69 2.32-1.32 4.42-1.81 6.3-1.48 1.88.33 3.38 1.54 4.49 3.64 1.11 2.09 1.66 5.12 1.66 9.1zm-7.15 4.06c0-2.14-.2-3.83-.61-5.07-.4-1.24-1-2.01-1.79-2.33-.79-.31-1.76-.14-2.91.51-1.15.65-2.12 1.58-2.91 2.79s-1.38 2.66-1.79 4.36c-.4 1.7-.61 3.62-.61 5.76 0 2.14.2 3.83.61 5.07.4 1.24 1 2.02 1.79 2.33.79.31 1.76.14 2.91-.51 1.15-.65 2.12-1.58 2.91-2.79s1.38-2.66 1.79-4.36c.41-1.7.61-3.62.61-5.76zM91.1 87.82l-7.55-31.4 7.75-4.4 3.5 19.97.2-.11 4.15-24.32 6.1-3.46 4.15 19.67.2-.11 3.5-24.01 7.75-4.4-7.55 39.98-6.65 3.78-4.35-17.47-.2.11-4.35 22.41-6.65 3.76zM123.11 69.65V33.96l18.45-10.48v7.81l-11.5 6.53v6.14l10.55-5.99v7.81l-10.55 5.99v6.13l11.45-6.5v7.81l-18.4 10.44zM51.12 76.39c-1.43-.24-3.09.19-4.99 1.26l-11.05 6.28v35.69l6.95-3.95v-10.6l3.85-2.18c1.95-1.11 3.66-2.58 5.12-4.42 1.46-1.84 2.6-3.93 3.41-6.26.81-2.33 1.22-4.78 1.22-7.33 0-2.53-.4-4.52-1.19-5.97-.78-1.44-1.89-2.28-3.32-2.52zm-3.2 15.5a8.14 8.14 0 0 1-1.34 2.48c-.58.73-1.28 1.33-2.1 1.79l-2.45 1.39v-9.83l2.45-1.39c.82-.46 1.52-.67 2.09-.6.58.06 1.03.36 1.34.91.31.55.47 1.33.47 2.36 0 1.01-.15 1.97-.46 2.89zM158.86 49.35l7.55-4.29-5.21-10.37c1.33-1.64 2.38-3.48 3.14-5.55.81-2.22 1.22-4.6 1.22-7.16 0-2.53-.4-4.48-1.19-5.84-.79-1.36-1.9-2.12-3.33-2.28s-3.09.31-4.99 1.39L145 21.52v35.69l6.95-3.95V41.49l2.41-1.37 4.5 9.23zm-6.9-24.03 2.45-1.39c.82-.46 1.52-.71 2.09-.73.58-.02 1.03.2 1.34.67.31.47.47 1.21.47 2.24 0 1.01-.16 1.92-.47 2.72-.31.81-.76 1.51-1.34 2.13-.58.61-1.28 1.16-2.09 1.62l-2.45 1.39v-8.65z" class="st2"/><path fill="#30345e" stroke="#000" stroke-linecap="round" stroke-linejoin="round" stroke-miterlimit="10" d="m12.51 73.21 22.57 10.72 123.23-69.7 2.74-.36-20.86-8.58z"/><path d="m259.79 144.67-94.23-54.32V55.96l94.23 54.32z" class="st5"/><path d="m259.79 144.67 17.25-9.04v-34.39l-17.25 9.04z" class="st6"/><path d="m259.91 110.38-94.35-54.39 17.13-9.15 94.36 54.39z" class="st7"/><path d="M172.08 84.42V67.11l5.4 3.05c1.04.59 1.92 1.34 2.65 2.25.73.91 1.29 1.92 1.68 3.02.39 1.1.58 2.22.58 3.37s-.2 2.05-.59 2.71c-.39.66-.96 1.02-1.7 1.09-.74.07-1.64-.19-2.69-.78l-3.44-1.95v-2.93l2.98 1.68c.56.31 1.02.45 1.38.41.36-.04.64-.23.82-.56.18-.34.27-.79.27-1.35 0-.58-.09-1.13-.27-1.66-.18-.53-.45-1.02-.82-1.47a4.94 4.94 0 0 0-1.39-1.15l-1.95-1.1v14.32l-2.91-1.64zM184.23 91.28V78.3l2.76 1.56v2.26l.11.06c.19-.7.5-1.13.94-1.3.44-.16.95-.09 1.52.24.14.08.3.18.46.29.17.12.31.23.44.34v3.19c-.13-.13-.32-.28-.56-.45-.24-.17-.45-.32-.65-.43-.42-.24-.79-.33-1.12-.29-.33.04-.59.21-.78.51-.19.3-.28.71-.28 1.24v7.34l-2.84-1.58zM196.09 98.23a8.769 8.769 0 0 1-2.69-2.36c-.76-.99-1.34-2.1-1.75-3.34-.41-1.24-.61-2.52-.61-3.85 0-1.34.2-2.4.61-3.17s.99-1.23 1.75-1.36c.76-.13 1.65.09 2.69.68 1.04.59 1.94 1.38 2.69 2.36.76.99 1.34 2.1 1.75 3.34.41 1.24.62 2.53.62 3.87 0 1.33-.2 2.38-.62 3.15-.41.77-.99 1.23-1.75 1.36-.75.14-1.65-.09-2.69-.68zm.01-2.78c.47.27.87.32 1.18.16.32-.16.56-.49.72-.99.16-.5.24-1.13.24-1.88s-.08-1.47-.24-2.16c-.16-.68-.4-1.29-.72-1.81-.32-.52-.71-.92-1.18-1.18-.48-.27-.88-.32-1.2-.16-.32.16-.57.49-.73.99s-.24 1.13-.24 1.88c0 .76.08 1.47.24 2.16.16.68.41 1.29.73 1.81.33.52.73.91 1.2 1.18zM203.01 106.76V88.91l2.81 1.59v2.18l.13.07c.12-.28.31-.53.54-.76.24-.23.55-.36.94-.38.39-.03.87.12 1.44.45.75.42 1.44 1.06 2.07 1.91.63.85 1.14 1.88 1.52 3.08.38 1.2.57 2.55.57 4.04 0 1.45-.18 2.56-.55 3.35-.37.79-.87 1.26-1.5 1.41-.63.15-1.34.01-2.12-.43a5.27 5.27 0 0 1-1.41-1.14c-.39-.45-.7-.92-.95-1.41a8.98 8.98 0 0 1-.56-1.39l-.09-.05v6.95l-2.84-1.62zm2.78-9.79c0 .77.08 1.49.25 2.16.17.67.41 1.26.74 1.75.32.5.71.88 1.17 1.14.46.26.86.32 1.18.18.32-.14.56-.46.73-.94.17-.48.25-1.1.25-1.86 0-.75-.08-1.45-.25-2.12-.17-.66-.41-1.25-.73-1.75s-.72-.89-1.18-1.15c-.46-.26-.86-.33-1.17-.2-.32.13-.56.43-.73.9-.17.5-.26 1.12-.26 1.89zM219.56 111.49a8.769 8.769 0 0 1-2.69-2.36c-.76-.99-1.34-2.1-1.75-3.34-.41-1.24-.61-2.52-.61-3.85 0-1.34.2-2.4.61-3.17s.99-1.23 1.75-1.36c.76-.13 1.65.09 2.69.68 1.04.59 1.94 1.38 2.69 2.36.76.99 1.34 2.1 1.75 3.34.41 1.24.62 2.53.62 3.87 0 1.33-.2 2.38-.62 3.15-.41.77-.99 1.23-1.75 1.36-.75.14-1.65-.09-2.69-.68zm.01-2.78c.47.27.87.32 1.18.16.32-.16.56-.49.72-.99s.24-1.13.24-1.88-.08-1.47-.24-2.16c-.16-.68-.4-1.29-.72-1.81-.32-.52-.71-.92-1.18-1.18-.48-.27-.88-.32-1.2-.16-.32.16-.57.49-.73.99-.16.5-.24 1.13-.24 1.88 0 .76.08 1.47.24 2.16.16.68.41 1.29.73 1.81s.72.91 1.2 1.18zM235.02 110.7l-2.61-1.27a3.03 3.03 0 0 0-.29-.93c-.15-.31-.34-.6-.58-.88-.24-.27-.52-.5-.85-.69-.44-.25-.81-.34-1.12-.28-.3.06-.45.29-.45.68 0 .31.1.63.29.95.2.33.53.69 1.01 1.08l1.86 1.52c1 .82 1.74 1.66 2.23 2.51.49.85.74 1.75.74 2.68 0 .85-.2 1.48-.59 1.9-.39.42-.93.61-1.62.59-.69-.03-1.47-.3-2.36-.8-1.36-.77-2.44-1.74-3.25-2.91-.8-1.17-1.28-2.42-1.41-3.74l2.8 1.4c.08.57.29 1.09.61 1.54.33.46.74.83 1.25 1.12.5.28.9.39 1.21.31.3-.07.46-.3.46-.69 0-.33-.11-.66-.33-.99-.21-.33-.54-.68-.99-1.04l-1.78-1.45c-1-.82-1.75-1.68-2.24-2.58-.49-.9-.73-1.84-.73-2.8 0-.83.18-1.45.54-1.85.36-.4.86-.58 1.52-.54.65.04 1.42.31 2.3.81 1.3.73 2.32 1.66 3.07 2.77.75 1.12 1.19 2.31 1.31 3.58zM239.99 123.03c-.66-.37-1.24-.85-1.75-1.43a6.67 6.67 0 0 1-1.21-1.98c-.3-.74-.44-1.54-.44-2.39 0-.72.1-1.27.31-1.64.21-.37.49-.6.86-.7.36-.09.77-.09 1.24.02.46.11.95.28 1.45.5.6.26 1.08.46 1.44.59.36.14.63.18.8.13.17-.05.25-.21.25-.49v-.05a2.8 2.8 0 0 0-.4-1.47c-.27-.44-.64-.8-1.13-1.08-.51-.29-.92-.38-1.22-.26-.3.11-.5.36-.6.73l-2.64-1.76c.13-.71.4-1.25.79-1.6.39-.36.9-.51 1.52-.48.62.04 1.34.29 2.16.75.57.32 1.12.72 1.64 1.18.52.46.99.99 1.4 1.57.41.59.73 1.22.97 1.91s.35 1.42.35 2.19v8.75l-2.7-1.53v-1.8l-.08-.05c-.17.31-.39.54-.66.69-.28.15-.61.2-1 .16-.4-.01-.85-.18-1.35-.46zm.81-2.03c.42.24.79.34 1.11.31.32-.03.57-.17.76-.43.18-.26.27-.61.27-1.07v-1.38a.89.89 0 0 1-.36-.01c-.15-.03-.33-.07-.52-.13s-.38-.13-.58-.2c-.19-.07-.37-.14-.52-.2-.33-.13-.63-.19-.88-.2-.25-.01-.44.07-.58.22-.14.15-.21.39-.21.73 0 .49.14.94.43 1.36.28.42.64.75 1.08 1zM250.83 111.6v17.31l-2.85-1.61v-17.31l2.85 1.61z" class="st3"/><path d="m52.37 254.59-34.4-19.86v-34.39l34.4 19.86z" class="st6"/><path d="m52.37 254.59 34.39-19.86v-34.39L52.37 220.2z" class="st5"/><path d="m52.49 220.3-34.52-19.92 34.27-19.97 34.52 19.93z" class="st7"/><path id="矩形_00000062193488453707849460000011629249250642820777_" d="M40.97 192.37c.68.38.56 1.12-.24 1.6l-7.14 4.22c-.81.48-2.08.56-2.75.17-.68-.38-.56-1.12.24-1.6l7.14-4.22c.8-.48 2.07-.56 2.75-.17z" class="st17"/><path id="矩形_00000168831383005071935920000010126382125523481513_" d="M29.08 199.27c.68.38.56 1.12-.24 1.6l-1.38.82c-.81.48-2.08.56-2.75.17-.68-.38-.56-1.12.24-1.6l1.38-.82c.86-.51 2.08-.56 2.75-.17z" class="st17"/><path d="m48.32 207.58-24.63-14.22v-24.63l24.63 14.22z" class="st6"/><path d="m48.32 207.58 24.63-14.22v-24.63l-24.63 14.22z" class="st5"/><path d="m48.41 183.03-24.72-14.27 24.54-14.3 24.72 14.27z" class="st7"/><path id="矩形_00000029737896903738328960000011706632617235280803_" d="M40.16 163.02c.48.28.4.8-.17 1.15l-5.11 3.03c-.58.34-1.49.4-1.97.12s-.4-.8.17-1.15l5.11-3.03c.57-.34 1.48-.39 1.97-.12z" class="st17"/><path id="矩形_00000044892328560733399200000011841837859248882821_" d="M31.65 167.96c.48.28.4.8-.17 1.15l-.99.59c-.58.34-1.49.4-1.97.12s-.4-.8.17-1.15l.99-.59c.61-.36 1.48-.39 1.97-.12z" class="st17"/><path d="m101.78 259.96-24.63-14.22v-24.63l24.63 14.22z" class="st6"/><path d="m101.78 259.96 24.63-14.22v-24.63l-24.63 14.22z" class="st5"/><path d="m101.87 235.4-24.72-14.27 24.54-14.3 24.72 14.27z" class="st7"/><path id="矩形_00000088855608494952398400000002311391179745583034_" d="M93.61 215.4c.48.28.4.8-.17 1.15l-5.11 3.03c-.58.34-1.49.4-1.97.12s-.4-.8.17-1.15l5.11-3.03c.58-.34 1.49-.4 1.97-.12z" class="st17"/><path id="矩形_00000026872475116352295180000014355490184569024951_" d="M85.1 220.34c.48.28.4.8-.17 1.15l-.99.59c-.58.34-1.49.4-1.97.12s-.4-.8.17-1.15l.99-.59c.62-.37 1.49-.4 1.97-.12z" class="st17"/><path d="m216.96 206.97-24.63-14.22v-24.63l24.63 14.22z" class="st6"/><path d="m216.96 206.97 24.63-14.22v-24.63l-24.63 14.22z" class="st5"/><path d="m217.05 182.42-24.72-14.28 24.54-14.29 24.72 14.27z" class="st7"/><path id="矩形_00000016793934877494626370000010979423684722922918_" d="M208.8 162.41h0c.48.28.4.8-.17 1.15l-5.11 3.03c-.58.34-1.49.4-1.97.12h0c-.48-.28-.4-.8.17-1.15l5.11-3.03c.57-.34 1.48-.39 1.97-.12z" class="st5"/><path id="矩形_00000002377005516393720360000012452935165688563900_" d="M200.29 167.35h0c.48.28.4.8-.17 1.15l-.99.59c-.58.34-1.49.4-1.97.12h0c-.48-.28-.4-.8.17-1.15l.99-.59c.61-.36 1.48-.39 1.97-.12z" class="st5"/><path d="m208.99 178.96-24.63-14.22v-24.63l24.63 14.22z" class="st6"/><path d="m208.99 178.96 24.63-14.22v-24.63l-24.63 14.22z" class="st5"/><path d="m209.08 154.4-24.72-14.27 24.54-14.3 24.72 14.28z" class="st7"/><path id="矩形_00000056408653773368098780000010049657871872445071_" d="M200.82 134.4c.48.28.4.8-.17 1.15l-5.11 3.03c-.58.34-1.49.4-1.97.12s-.4-.8.17-1.15l5.11-3.03c.58-.34 1.49-.4 1.97-.12z" class="st17"/><path id="矩形_00000174590037673770117120000007064794268084279994_" d="M192.31 139.34c.48.28.4.8-.17 1.15l-.99.59c-.58.34-1.49.4-1.97.12s-.4-.8.17-1.15l.99-.59c.62-.36 1.49-.4 1.97-.12z" class="st17"/><path id="矩形_00000111165066186619097810000014031179276451376801_" d="M171.78 193.2c.62 0 1.15.76 1.15 1.64v1.52c0 .88-.53 1.64-1.15 1.64-.62 0-1.15-.76-1.15-1.64v-1.52c.01-.95.54-1.64 1.15-1.64z" class="st74"/><radialGradient id="SVGID_1_" cx="140.242" cy="227.322" r="29.158" gradientTransform="matrix(1 0 0 .5898 0 93.25)" gradientUnits="userSpaceOnUse"><stop offset="0"/><stop offset="1" stop-color="#0d101d" stop-opacity="0"/></radialGradient><path fill="url(#SVGID_1_)" d="M165.24 213.25c-13.68-7.9-35.96-8-49.77-.23-13.81 7.77-13.91 20.48-.23 28.37 13.68 7.9 35.96 8 49.77.23 13.81-7.77 13.91-20.47.23-28.37z" opacity=".67"/><path fill="#3fa9bd" d="M178.74 177.22v-49.28c0-.23.02-.45.02-.68 0-22.91-18.57-41.48-41.48-41.48-22.91 0-41.48 18.57-41.48 41.48 0 .36.02.72.03 1.07V173h-.03v22.67a5.15 5.15 0 1 0 10.3 0v-.83c.56.36 1.13.72 1.74 1.07 1.83 1.06 3.79 1.99 5.85 2.81v8.2c0 2.84 2.3 5.15 5.15 5.15s5.15-2.31 5.15-5.15v-5.23c2.95.57 5.99.96 9.06 1.14v12.59a5.15 5.15 0 1 0 10.3 0v-12.7c3.39-.28 6.73-.8 9.93-1.55v6.36a5.15 5.15 0 1 0 10.3 0v-9.87c1-.47 1.97-.96 2.91-1.49.7-.39 1.35-.8 1.99-1.21v.71c0 2.84 2.3 5.15 5.15 5.15s5.15-2.31 5.15-5.15v-18.45h-.04z"/><radialGradient id="SVGID_00000109011044990689914490000010079692356803026585_" cx="161.964" cy="103.202" r="106.685" gradientUnits="userSpaceOnUse"><stop offset=".012" stop-color="#dd78ce"/><stop offset=".494" stop-color="#a7589a"/><stop offset=".583" stop-color="#a0619e"/><stop offset=".727" stop-color="#8e79a8"/><stop offset=".908" stop-color="#709fb9"/><stop offset="1" stop-color="#5eb6c3"/></radialGradient><path fill="url(#SVGID_00000109011044990689914490000010079692356803026585_)" d="M178.74 177.22v-49.28c0-.23.02-.45.02-.68 0-22.91-18.57-41.48-41.48-41.48-22.91 0-41.48 18.57-41.48 41.48 0 .36.02.72.03 1.07V173h-.03v22.67a5.15 5.15 0 1 0 10.3 0v-.83c.56.36 1.13.72 1.74 1.07 1.83 1.06 3.79 1.99 5.85 2.81v8.2c0 2.84 2.3 5.15 5.15 5.15s5.15-2.31 5.15-5.15v-5.23c2.95.57 5.99.96 9.06 1.14v12.59a5.15 5.15 0 1 0 10.3 0v-12.7c3.39-.28 6.73-.8 9.93-1.55v6.36a5.15 5.15 0 1 0 10.3 0v-9.87c1-.47 1.97-.96 2.91-1.49.7-.39 1.35-.8 1.99-1.21v.71c0 2.84 2.3 5.15 5.15 5.15s5.15-2.31 5.15-5.15v-18.45h-.04z"/><path id="矩形_00000018199816337412311470000010228926270541777058_" d="M99.69 163.38c1.12 0 2.09 1.38 2.09 2.99v14.25c0 1.61-.96 2.99-2.09 2.99-1.12 0-2.09-1.38-2.09-2.99v-14.25c.01-1.61.97-2.99 2.09-2.99z" class="st74"/><path id="矩形_00000182490506715016386110000013570562431077265281_" d="M160.99 100.29c1.37-1.02 3.68-.37 5.02 1.41l2.29 3.06c1.34 1.78 1.31 4.19-.06 5.22-1.37 1.02-3.68.37-5.02-1.41l-2.29-3.06c-1.43-1.92-1.3-4.2.06-5.22z" class="st74"/><path id="矩形_00000042714760272338562390000001468755523795091616_" d="M117.09 199.96c1.12 0 2.09 1.38 2.09 2.99v2.76c0 1.61-.96 2.99-2.09 2.99-1.12 0-2.09-1.38-2.09-2.99v-2.76c0-1.72.97-2.99 2.09-2.99z" class="st74"/><path id="矩形_00000041261529432725137960000014277379438218197635_" d="M99.69 188.83c1.12 0 2.09 1.38 2.09 2.99v2.76c0 1.61-.96 2.99-2.09 2.99-1.12 0-2.09-1.38-2.09-2.99v-2.76c.01-1.73.97-2.99 2.09-2.99z" class="st74"/><path id="矩形_00000060030739916720626050000001491127627643860864_" d="M137.28 208.7c1.12 0 2.09 1.38 2.09 2.99v2.76c0 1.61-.96 2.99-2.09 2.99-1.12 0-2.09-1.38-2.09-2.99v-2.76c0-1.72.97-2.99 2.09-2.99z" class="st74"/><path id="矩形_00000100363497331252533760000001511731097028983992_" d="M156.98 203.36c.89 0 1.66 1.1 1.66 2.37v2.19c0 1.28-.76 2.37-1.66 2.37-.89 0-1.66-1.1-1.66-2.37v-2.19c0-1.36.77-2.37 1.66-2.37z" class="st74"/><ellipse cx="145" cy="141.28" class="st79" rx="11.56" ry="6.81" transform="rotate(-65.298 145.012 141.284)"/><ellipse cx="167.12" cy="133.14" class="st79" rx="11.56" ry="6.81" transform="rotate(-65.298 167.127 133.14)"/><path id="形状结合_00000172434754980247320320000016621056142883029674_" d="M147.91 130.08c3.6-1.88 6.46 1.24 6.4 6.88 0 .2 0 .4-.01.6l-.01.6c.06-5.74-2.71-9-6.24-7.16-3.53 1.84-6.4 7.94-6.46 13.78-.01 1.11.06 2.17.28 3.06-.38-1.1-.6-2.49-.58-4 .07-5.74 3.02-11.88 6.62-13.76z" class="st80"/><path id="形状结合_00000150065953949367950270000005978581259847636108_" d="M147.92 128.87c4-2.08 7.23 1.34 7.17 7.68-.07 6.34-3.41 13.2-7.41 15.28s-7.23-1.34-7.17-7.68c.07-6.34 3.34-13.15 7.41-15.28zm-.01 1.21c-3.6 1.88-6.55 8.02-6.61 13.66-.06 5.64 2.79 8.76 6.4 6.88 3.6-1.88 6.55-8.02 6.61-13.66.06-5.64-2.87-8.72-6.4-6.88z" class="st81"/><path id="形状结合_00000016796317965012599370000015568424096639935935_" d="M169.64 121.93c3.6-1.88 6.46 1.24 6.4 6.88 0 .2 0 .4-.01.6l-.01.6c.06-5.74-2.71-9-6.24-7.16-3.53 1.84-6.4 7.94-6.46 13.78-.01 1.11.06 2.17.28 3.06-.38-1.1-.6-2.49-.58-4 .07-5.73 3.02-11.88 6.62-13.76z" class="st80"/><path id="形状结合_00000173860080260846260080000002816401464700022678_" d="M169.66 120.73c4-2.08 7.23 1.34 7.17 7.68-.07 6.34-3.41 13.2-7.41 15.28s-7.23-1.34-7.17-7.68c.06-6.35 3.33-13.16 7.41-15.28zm-.02 1.2c-3.6 1.88-6.55 8.02-6.61 13.66-.06 5.64 2.79 8.76 6.4 6.88 3.6-1.88 6.55-8.02 6.61-13.66.06-5.63-2.87-8.71-6.4-6.88z" class="st81"/><path id="椭圆形_00000127761826024119752700000010687660588963473538_" d="M158.46 159.12c2.56-1.41 4.5-5.07 4.5-6.88 0-.72-.35-1.18-.87-.97-.82.3-2.04 1.56-3.61 2.42-1.46.8-2.39.81-3.5 1.42-1.17.64-1.11 2.27-.94 2.83.4 1.58 1.79 2.62 4.42 1.18z" class="st78"/><path id="椭圆形_00000053530679036469360350000005338087101569648058_" d="M160.16 159.9c2.62-1.44 4.55-4.89 4.56-6.63 0-.65-.35-1.04-.87-.82-.82.3-2.1 1.59-3.67 2.45-1.52.83-2.39.81-3.55 1.45-1.17.64-1.11 2.2-.94 2.68.39 1.45 1.84 2.32 4.47.87z" class="st79"/><ellipse cx="150.41" cy="137.36" class="st78" rx="4.69" ry="2.76" transform="rotate(-65.298 150.422 137.355)"/><ellipse cx="171.78" cy="128.92" class="st78" rx="4.69" ry="2.76" transform="rotate(-65.298 171.783 128.923)"/></svg>