<svg xmlns="http://www.w3.org/2000/svg" xml:space="preserve" id="Слой_1" x="0" y="0" version="1.1" viewBox="0 0 290 269.62"><style>.st2{fill:#1d1d1b}.st6{fill-rule:evenodd;clip-rule:evenodd;fill:#fff;stroke:#111422}.st14,.st6,.st7,.st8{stroke-linecap:round;stroke-linejoin:round;stroke-miterlimit:10}.st7{fill-rule:evenodd;clip-rule:evenodd;fill:#c6c3d1;stroke:#101320}.st14,.st8{stroke:#111422}.st8{fill-rule:evenodd;clip-rule:evenodd;fill:#ecf0fc}.st14{fill:#fff}.st41{opacity:.2563;enable-background:new}.st202,.st41,.st42,.st76,.st77{fill-rule:evenodd;clip-rule:evenodd;fill:#fff}.st202,.st76,.st77{fill:#afafb1}.st202,.st77{fill:#d3d3d3}.st202{fill:#555069}</style><path fill="#c6c3d1" stroke="#101320" stroke-linecap="round" stroke-linejoin="round" stroke-miterlimit="10" d="M34.29 137.98 15.04 127.5V98.4l108.89-57.92 19.1 7.87-2.71 18.75 5.97 7.3-6.44 3.66-6.35-3.93-5.46 10.63-4.21-2.52-14.47 13.13-7.56-4.68-6.48 12.64-7.73-4.54-5.53 12.07-8.61-6.81-5.17 10.55-11.47 6.73-7.73-5.27-10.75 7.98 1.89 10.58z"/><path d="M75.15 99.57c0 3.39-.47 6.51-1.42 9.37-.95 2.86-2.22 5.34-3.83 7.45-1.61 2.11-3.4 3.72-5.38 4.84-1.99 1.13-3.79 1.55-5.39 1.25-1.6-.29-2.87-1.33-3.82-3.12-.94-1.79-1.41-4.37-1.41-7.74 0-3.39.47-6.51 1.41-9.37.94-2.86 2.21-5.34 3.82-7.44 1.6-2.1 3.4-3.72 5.39-4.85 1.98-1.12 3.77-1.54 5.38-1.26 1.61.28 2.88 1.32 3.83 3.1.95 1.79 1.42 4.38 1.42 7.77zm-6.1 3.46c0-1.82-.17-3.26-.52-4.32-.35-1.06-.85-1.72-1.52-1.99s-1.5-.12-2.48.44-1.81 1.35-2.48 2.38c-.67 1.03-1.18 2.27-1.52 3.72-.34 1.45-.52 3.09-.52 4.91 0 1.82.17 3.26.52 4.32.35 1.06.85 1.72 1.52 1.99s1.5.12 2.48-.44 1.81-1.35 2.48-2.38c.67-1.03 1.18-2.27 1.52-3.72.35-1.45.52-3.09.52-4.91zM82.06 110.86l-6.44-26.78 6.61-3.75 2.99 17.03.17-.1 3.54-20.74 5.2-2.95 3.54 16.77.17-.1 2.99-20.48 6.61-3.75-6.44 34.1-5.67 3.22-3.71-14.9-.17.1-3.71 19.11-5.68 3.22zM109.36 95.37V64.93L125.09 56v6.66l-9.81 5.57v5.23l9-5.11V75l-9 5.11v5.23l9.77-5.54v6.66l-15.69 8.91zM47.97 101.12c-1.22-.2-2.63.16-4.25 1.08l-9.43 5.35v30.44l5.93-3.37v-9.04l3.28-1.86c1.66-.95 3.12-2.2 4.37-3.77 1.25-1.57 2.22-3.35 2.91-5.34a18.93 18.93 0 0 0 1.04-6.25c0-2.16-.34-3.85-1.01-5.09-.68-1.23-1.62-1.95-2.84-2.15zm-2.73 13.21a7.16 7.16 0 0 1-1.14 2.11c-.49.62-1.09 1.13-1.79 1.53l-2.09 1.19v-8.38l2.09-1.19c.7-.4 1.29-.57 1.79-.51.49.05.87.31 1.14.78.27.47.4 1.14.4 2.01-.01.85-.14 1.68-.4 2.46zM139.85 78.06l6.44-3.66-4.44-8.84c1.13-1.4 2.03-2.97 2.68-4.73.69-1.89 1.04-3.93 1.04-6.1 0-2.16-.34-3.82-1.01-4.98-.68-1.16-1.62-1.81-2.84-1.94-1.22-.13-2.63.26-4.25 1.18l-9.43 5.35v30.44l5.93-3.37V71.35l2.05-1.17 3.83 7.88zm-5.89-20.5 2.09-1.19c.7-.4 1.29-.6 1.79-.62.49-.02.87.17 1.14.57.27.4.4 1.03.4 1.91 0 .86-.13 1.64-.4 2.32-.27.69-.65 1.29-1.14 1.81-.49.52-1.09.99-1.79 1.38l-2.09 1.19v-7.37z" class="st14"/><path fill="#ecf0fc" stroke="#111422" stroke-linecap="round" stroke-linejoin="round" stroke-miterlimit="10" d="m15.04 98.4 19.25 9.14L139.38 48.1l2.34-.31-17.79-7.31z"/><path d="m196.86 185.72-34.39-19.86v-34.39l34.39 19.86z" class="st7"/><path d="m196.86 185.72 34.4-19.86v-34.39l-34.4 19.86z" class="st6"/><path d="m196.99 151.43-34.52-19.93 34.27-19.96 34.52 19.93z" class="st8"/><path id="矩形_00000137117200955426548680000013108629234316996238_" d="M185.46 123.5c.68.38.56 1.12-.24 1.6l-7.14 4.22c-.81.48-2.08.56-2.75.17-.68-.38-.56-1.12.24-1.6l7.14-4.22c.81-.48 2.08-.56 2.75-.17z" class="st41"/><path id="矩形_00000169553069112555143310000006278186160044640942_" d="M173.58 130.4c.68.38.56 1.12-.24 1.6l-1.38.82c-.81.48-2.08.56-2.75.17-.68-.38-.56-1.12.24-1.6l1.38-.82c.86-.51 2.07-.56 2.75-.17z" class="st41"/><path d="m192.82 138.71-24.63-14.22V99.86l24.63 14.22z" class="st7"/><path d="m192.82 138.71 24.63-14.22V99.86l-24.63 14.22z" class="st6"/><path d="m192.91 114.16-24.72-14.27 24.54-14.3 24.72 14.27z" class="st8"/><path id="矩形_00000098189406808173739120000011512460220465586313_" d="M184.65 94.15c.48.28.4.8-.17 1.15l-5.11 3.03c-.58.34-1.49.4-1.97.12s-.4-.8.17-1.15l5.11-3.03c.58-.34 1.49-.39 1.97-.12z" class="st41"/><path id="矩形_00000157275151695673733980000001888444963621641387_" d="M176.14 99.09c.48.28.4.8-.17 1.15l-.99.59c-.58.34-1.49.4-1.97.12s-.4-.8.17-1.15l.99-.59c.62-.36 1.49-.39 1.97-.12z" class="st41"/><path d="m82.59 80.06-13.76-7.95V19.49l13.76 7.95z" class="st7"/><path d="m82.59 80.06 13.76-7.95V19.49l-13.76 7.95z" class="st6"/><path d="m82.64 27.48-13.81-7.97 13.71-7.99 13.81 7.97z" class="st8"/><path id="矩形_00000122694011154732022000000005445591957078414223_" d="M78.03 16.3c.27.15.23.45-.1.64l-2.86 1.69c-.32.19-.83.22-1.1.07-.27-.15-.23-.45.1-.64l2.86-1.69c.32-.19.83-.22 1.1-.07z" class="st41"/><path id="矩形_00000168813939253894730090000003749328577403602106_" d="M73.27 19.06c.27.15.23.45-.1.64l-.55.33c-.32.19-.83.22-1.1.07-.27-.15-.23-.45.1-.64l.55-.33c.35-.2.83-.22 1.1-.07z" class="st41"/><path d="m68.9 88.04-13.76-7.95V38.83l13.76 7.94z" class="st7"/><path d="m68.9 88.04 13.76-7.95V38.83L68.9 46.77z" class="st6"/><path d="m68.95 46.82-13.81-7.98 13.71-7.99 13.81 7.98z" class="st8"/><path id="矩形_00000060712384329144759220000010597096200675168910_" d="M64.34 35.64c.27.15.23.45-.1.64l-2.86 1.69c-.32.19-.83.22-1.1.07-.27-.15-.23-.45.1-.64l2.86-1.69c.32-.19.82-.22 1.1-.07z" class="st41"/><path id="矩形_00000103979601520637086100000015979036520014002874_" d="M59.58 38.4c.27.15.23.45-.1.64l-.55.33c-.32.19-.83.22-1.1.07-.27-.15-.23-.45.1-.64l.55-.33c.34-.21.83-.22 1.1-.07z" class="st41"/><path d="m55.14 96.02-13.76-7.94V59.37l13.76 7.94z" class="st7"/><path d="m55.14 96.02 13.76-7.94V59.37l-13.76 7.94z" class="st6"/><path d="m55.19 67.36-13.81-7.98 13.71-7.99 13.81 7.98z" class="st8"/><path id="矩形_00000074438447225999477790000017572539516493140364_" d="M50.58 56.18c.27.15.23.45-.1.64l-2.86 1.69c-.32.19-.83.22-1.1.07-.27-.15-.23-.45.1-.64l2.86-1.69c.32-.19.82-.22 1.1-.07z" class="st41"/><path id="矩形_00000022538750193101211660000001025185107531595401_" d="M45.82 58.94c.27.15.23.45-.1.64l-.55.33c-.32.19-.83.22-1.1.07-.27-.15-.23-.45.1-.64l.55-.33c.34-.21.83-.22 1.1-.07z" class="st41"/><path id="矩形_00000011716901837464827050000006859658932143539359_" d="M176.79 209.17c.62 0 1.15.76 1.15 1.64v1.52c0 .88-.53 1.64-1.15 1.64-.62 0-1.15-.76-1.15-1.64v-1.52c0-.94.53-1.64 1.15-1.64z" class="st41"/><radialGradient id="SVGID_1_" cx="142.501" cy="236.551" r="29.158" gradientTransform="matrix(1 0 0 .5898 0 97.035)" gradientUnits="userSpaceOnUse"><stop offset="0" stop-color="#b8b3d4"/><stop offset=".346" stop-color="#bab6d6" stop-opacity=".654"/><stop offset=".606" stop-color="#c2c0da" stop-opacity=".394"/><stop offset=".838" stop-color="#d0d0e3" stop-opacity=".162"/><stop offset="1" stop-color="#dde0eb" stop-opacity="0"/></radialGradient><path fill="url(#SVGID_1_)" d="M167.5 222.48c-13.68-7.9-35.96-8-49.77-.23s-13.91 20.48-.23 28.37 35.96 8 49.77.23c13.8-7.77 13.91-20.48.23-28.37z" opacity=".67"/><path fill="#3fa9bd" d="M183.75 193.2v-49.28c0-.23.02-.45.02-.68 0-22.91-18.57-41.48-41.48-41.48-22.91 0-41.48 18.57-41.48 41.48 0 .36.02.72.03 1.07v44.66h-.03v22.67a5.15 5.15 0 1 0 10.3 0v-.83c.56.36 1.13.72 1.74 1.07 1.83 1.06 3.79 1.99 5.85 2.81v8.2a5.15 5.15 0 1 0 10.3 0v-5.23c2.95.57 5.99.96 9.06 1.14v12.59c0 2.84 2.3 5.15 5.15 5.15s5.15-2.31 5.15-5.15v-12.7c3.39-.28 6.73-.8 9.93-1.55v6.36c0 2.84 2.3 5.15 5.15 5.15s5.15-2.31 5.15-5.15v-9.87c1-.47 1.97-.96 2.91-1.49.7-.39 1.35-.8 1.99-1.21v.71a5.15 5.15 0 1 0 10.3 0V193.2h-.04z"/><radialGradient id="SVGID_00000134950985081133959600000006941461086412754361_" cx="166.967" cy="119.176" r="106.685" gradientUnits="userSpaceOnUse"><stop offset=".012" stop-color="#dd78ce"/><stop offset=".494" stop-color="#a7589a"/><stop offset=".583" stop-color="#a0619e"/><stop offset=".727" stop-color="#8e79a8"/><stop offset=".908" stop-color="#709fb9"/><stop offset="1" stop-color="#5eb6c3"/></radialGradient><path fill="url(#SVGID_00000134950985081133959600000006941461086412754361_)" d="M183.75 193.2v-49.28c0-.23.02-.45.02-.68 0-22.91-18.57-41.48-41.48-41.48-22.91 0-41.48 18.57-41.48 41.48 0 .36.02.72.03 1.07v44.66h-.03v22.67a5.15 5.15 0 1 0 10.3 0v-.83c.56.36 1.13.72 1.74 1.07 1.83 1.06 3.79 1.99 5.85 2.81v8.2a5.15 5.15 0 1 0 10.3 0v-5.23c2.95.57 5.99.96 9.06 1.14v12.59c0 2.84 2.3 5.15 5.15 5.15s5.15-2.31 5.15-5.15v-12.7c3.39-.28 6.73-.8 9.93-1.55v6.36c0 2.84 2.3 5.15 5.15 5.15s5.15-2.31 5.15-5.15v-9.87c1-.47 1.97-.96 2.91-1.49.7-.39 1.35-.8 1.99-1.21v.71a5.15 5.15 0 1 0 10.3 0V193.2h-.04z"/><path id="矩形_00000054232182572150679940000012834789542538914464_" d="M104.69 179.35c1.12 0 2.09 1.38 2.09 2.99v14.25c0 1.61-.96 2.99-2.09 2.99-1.12 0-2.09-1.38-2.09-2.99v-14.25c.01-1.61.97-2.99 2.09-2.99z" class="st41"/><path id="矩形_00000181788578954468165210000015297769014124527039_" d="M166 116.26c1.37-1.02 3.68-.37 5.02 1.41l2.29 3.06c1.34 1.78 1.31 4.19-.06 5.22-1.37 1.02-3.68.37-5.02-1.41l-2.29-3.06c-1.43-1.91-1.31-4.19.06-5.22z" class="st41"/><path id="矩形_00000151530879621131070400000002743566583721137314_" d="M122.09 215.94c1.12 0 2.09 1.38 2.09 2.99v2.76c0 1.61-.96 2.99-2.09 2.99-1.12 0-2.09-1.38-2.09-2.99v-2.76c.01-1.73.97-2.99 2.09-2.99z" class="st41"/><path id="矩形_00000067228135334221919590000006155008346019231414_" d="M104.69 204.8c1.12 0 2.09 1.38 2.09 2.99v2.76c0 1.61-.96 2.99-2.09 2.99-1.12 0-2.09-1.38-2.09-2.99v-2.76c.01-1.72.97-2.99 2.09-2.99z" class="st41"/><path id="矩形_00000175285314692798393540000017654158573411484034_" d="M142.28 224.68c1.12 0 2.09 1.38 2.09 2.99v2.76c0 1.61-.96 2.99-2.09 2.99-1.12 0-2.09-1.38-2.09-2.99v-2.76c.01-1.73.97-2.99 2.09-2.99z" class="st41"/><path id="矩形_00000148650757968472093780000001307814519242463396_" d="M161.98 219.34c.89 0 1.66 1.1 1.66 2.37v2.19c0 1.28-.76 2.37-1.66 2.37-.89 0-1.66-1.1-1.66-2.37v-2.19c.01-1.37.77-2.37 1.66-2.37z" class="st41"/><ellipse cx="147.91" cy="139.08" class="st42" rx="9.1" ry="9.5" transform="rotate(-34.547 147.897 139.07)"/><path id="形状结合_00000145766146941575165550000004663671156432750256_" d="M146.71 129.11c-4.24-.18-7.66 3.98-7.66 9.22v1.12c0-5.33 3.33-9.59 7.48-9.42s7.46 4.61 7.46 10.04c0 1.03-.09 2.05-.37 2.98.46-1.2.74-2.59.74-3.99 0-5.32-3.4-9.77-7.65-9.95z" class="st76"/><path id="形状结合_00000127004983659257810400000009229662138967035788_" d="M155.28 139.01c-.01 5.89-3.88 10.5-8.58 10.31-4.7-.2-8.57-5.13-8.57-11.02.01-5.89 3.88-10.5 8.58-10.31 4.8.2 8.58 5.13 8.57 11.02zm-16.23-.67c0 5.24 3.4 9.68 7.64 9.86 4.24.18 7.66-3.98 7.66-9.22s-3.4-9.68-7.64-9.86c-4.14-.18-7.65 3.98-7.66 9.22z" class="st77"/><ellipse cx="117.2" cy="137.7" class="st42" rx="9.1" ry="9.5" transform="rotate(-34.547 117.183 137.69)"/><path id="形状结合_00000140730271010608947800000012837063814691421335_" d="M116.2 127.74c-4.24-.18-7.66 3.98-7.66 9.22v1.12c0-5.33 3.33-9.59 7.48-9.42 4.15.17 7.46 4.61 7.46 10.04 0 1.03-.09 2.05-.37 2.98.46-1.2.74-2.59.74-3.99 0-5.33-3.41-9.77-7.65-9.95z" class="st76"/><path id="形状结合_00000062169215708138514720000004042921246138038920_" d="M124.77 137.64c-.01 5.89-3.88 10.5-8.58 10.31s-8.57-5.13-8.57-11.02c.01-5.89 3.88-10.5 8.58-10.31 4.8.2 8.57 5.13 8.57 11.02zm-16.23-.67c0 5.24 3.4 9.68 7.64 9.86 4.24.18 7.66-3.98 7.66-9.22s-3.4-9.68-7.64-9.86c-4.15-.18-7.66 3.98-7.66 9.22z" class="st77"/><ellipse cx="131.83" cy="159.13" class="st202" rx="3.94" ry="4.12" transform="rotate(-34.547 131.82 159.116)"/><ellipse cx="130.06" cy="157.37" class="st42" rx="3.23" ry="3.37" transform="rotate(-34.547 130.043 157.355)"/><circle cx="142.5" cy="134.36" r="3.77" class="st202"/><circle cx="113.6" cy="132.48" r="3.77" class="st202"/><path d="m266.04 127.31-94.23-54.32V38.6l94.23 54.32z" class="st6"/><path d="m266.04 127.31 17.26-9.04V83.88l-17.26 9.04z" class="st7"/><path d="m266.17 93.02-94.36-54.39 17.14-9.15 94.35 54.39z" class="st8"/><path d="M178.34 67.06V49.75l5.4 3.05c1.04.59 1.92 1.34 2.65 2.25.73.91 1.29 1.92 1.68 3.02.39 1.1.58 2.22.58 3.37s-.2 2.05-.59 2.71c-.39.66-.96 1.02-1.7 1.09-.74.07-1.64-.19-2.69-.78l-3.44-1.95v-2.93l2.98 1.68c.56.31 1.02.45 1.38.41.36-.04.64-.23.82-.56.18-.34.27-.79.27-1.35 0-.58-.09-1.13-.27-1.66-.18-.53-.45-1.02-.82-1.47a4.94 4.94 0 0 0-1.39-1.15l-1.95-1.1V68.7l-2.91-1.64zM190.49 73.92V60.94l2.76 1.56v2.26l.11.06c.19-.7.5-1.13.94-1.3.44-.16.95-.09 1.52.24.14.08.3.18.46.29.17.12.31.23.44.34v3.19c-.13-.13-.32-.28-.56-.45-.24-.17-.45-.32-.65-.43-.42-.24-.79-.33-1.12-.29-.33.04-.59.21-.78.51s-.28.71-.28 1.24v7.34l-2.84-1.58zM202.34 80.87a8.769 8.769 0 0 1-2.69-2.36c-.76-.99-1.34-2.1-1.75-3.34-.41-1.24-.61-2.52-.61-3.85 0-1.34.2-2.4.61-3.17s.99-1.23 1.75-1.36c.76-.13 1.65.09 2.69.68 1.04.59 1.94 1.38 2.69 2.36.76.99 1.34 2.1 1.75 3.34.41 1.24.62 2.53.62 3.87 0 1.33-.2 2.38-.62 3.15-.41.77-.99 1.23-1.75 1.36-.75.14-1.65-.09-2.69-.68zm.02-2.78c.47.27.87.32 1.18.16.32-.16.56-.49.72-.99.16-.5.24-1.13.24-1.88s-.08-1.47-.24-2.16-.4-1.29-.72-1.81c-.32-.52-.71-.92-1.18-1.18-.48-.27-.88-.32-1.2-.16-.32.16-.57.49-.73.99s-.24 1.13-.24 1.88.08 1.47.24 2.16c.16.68.41 1.29.73 1.81s.72.91 1.2 1.18zM209.26 89.39V71.55l2.81 1.59v2.18l.13.07c.12-.28.31-.53.54-.76.24-.23.55-.36.94-.38.39-.03.87.12 1.44.45.75.42 1.44 1.06 2.07 1.91.63.85 1.14 1.88 1.52 3.08.38 1.2.57 2.55.57 4.04 0 1.45-.18 2.56-.55 3.35-.37.79-.87 1.26-1.5 1.41-.63.15-1.34.01-2.12-.43a5.27 5.27 0 0 1-1.41-1.14c-.39-.45-.7-.92-.95-1.41a8.98 8.98 0 0 1-.56-1.39l-.09-.05V91l-2.84-1.61zm2.79-9.78c0 .77.08 1.49.25 2.16.17.67.41 1.26.74 1.75.32.5.71.88 1.17 1.14.46.26.86.32 1.18.18.32-.14.56-.46.73-.94.17-.48.25-1.1.25-1.86 0-.75-.08-1.45-.25-2.12-.17-.66-.41-1.25-.73-1.75s-.72-.89-1.18-1.15c-.46-.26-.86-.33-1.17-.2-.32.13-.56.43-.73.9-.18.5-.26 1.12-.26 1.89zM225.81 94.13a8.769 8.769 0 0 1-2.69-2.36c-.76-.99-1.34-2.1-1.75-3.34-.41-1.24-.61-2.52-.61-3.85 0-1.34.2-2.4.61-3.17s.99-1.23 1.75-1.36c.76-.13 1.65.09 2.69.68 1.04.59 1.94 1.38 2.69 2.36s1.34 2.1 1.75 3.34c.41 1.24.62 2.53.62 3.87 0 1.33-.2 2.38-.62 3.15-.41.77-.99 1.23-1.75 1.36-.75.14-1.65-.09-2.69-.68zm.02-2.78c.47.27.87.32 1.18.16.32-.16.56-.49.72-.99s.24-1.13.24-1.88-.08-1.47-.24-2.16c-.16-.68-.4-1.29-.72-1.81s-.71-.92-1.18-1.18c-.48-.27-.88-.32-1.2-.16-.32.16-.57.49-.73.99-.16.5-.24 1.13-.24 1.88 0 .76.08 1.47.24 2.16.16.68.41 1.29.73 1.81s.72.91 1.2 1.18zM241.28 93.34l-2.61-1.27a3.03 3.03 0 0 0-.29-.93c-.15-.31-.34-.6-.58-.88-.24-.27-.52-.5-.85-.69-.44-.25-.81-.34-1.12-.28-.3.06-.45.29-.45.68 0 .31.1.63.29.95.2.33.53.69 1.01 1.08l1.86 1.52c1 .82 1.74 1.66 2.23 2.51.49.85.74 1.75.74 2.68 0 .85-.2 1.48-.59 1.9-.39.42-.93.61-1.62.59-.68-.03-1.47-.3-2.36-.8-1.36-.77-2.44-1.74-3.25-2.91-.8-1.17-1.28-2.42-1.41-3.74l2.8 1.4c.08.57.29 1.09.61 1.54.33.46.74.83 1.25 1.12.5.28.9.39 1.21.31.3-.07.46-.3.46-.69 0-.33-.11-.66-.33-.99-.21-.33-.54-.68-.99-1.04l-1.78-1.45c-1-.82-1.75-1.68-2.24-2.58-.49-.9-.73-1.84-.73-2.8 0-.83.18-1.45.54-1.85.36-.4.86-.58 1.52-.54.65.04 1.42.31 2.3.81 1.3.73 2.32 1.66 3.07 2.77.75 1.12 1.18 2.31 1.31 3.58zM246.24 105.66c-.66-.37-1.24-.85-1.75-1.43a6.67 6.67 0 0 1-1.21-1.98c-.3-.74-.44-1.54-.44-2.39 0-.72.1-1.27.31-1.64.21-.37.49-.6.86-.7.36-.09.77-.09 1.24.02.46.11.95.28 1.45.5.6.26 1.08.46 1.44.59.36.14.63.18.8.13.17-.05.25-.21.25-.49v-.05a2.8 2.8 0 0 0-.4-1.47c-.27-.44-.64-.8-1.13-1.08-.51-.29-.92-.38-1.22-.26-.3.11-.5.36-.6.73l-2.64-1.76c.13-.71.4-1.25.79-1.6.39-.36.9-.51 1.52-.48.62.04 1.34.29 2.16.75.57.32 1.12.72 1.64 1.18.52.46.99.99 1.4 1.57.41.59.73 1.22.97 1.91s.35 1.42.35 2.19v8.75l-2.7-1.53v-1.8l-.08-.05c-.17.31-.39.54-.66.69-.28.15-.61.2-1 .16-.39 0-.84-.17-1.35-.46zm.82-2.02c.42.24.79.34 1.11.31.32-.03.57-.17.76-.43.18-.26.27-.61.27-1.07v-1.38a.89.89 0 0 1-.36-.01c-.15-.03-.33-.07-.52-.13s-.38-.13-.58-.2c-.19-.07-.37-.14-.52-.2-.33-.13-.63-.19-.88-.2-.25-.01-.44.07-.58.22-.14.15-.21.39-.21.73 0 .49.14.94.43 1.36.28.42.64.75 1.08 1zM257.09 94.24v17.31l-2.85-1.61V92.63l2.85 1.61z"/><linearGradient id="SVGID_00000120517060607134591700000016452180407106368947_" x1="392.435" x2="442.173" y1="808.769" y2="808.769" gradientTransform="matrix(.7491 -.4602 0 1 -247.638 -454.219)" gradientUnits="userSpaceOnUse"><stop offset="0" stop-color="#b4509c"/><stop offset="1" stop-color="#54b8c5"/></linearGradient><path fill="none" stroke="url(#SVGID_00000120517060607134591700000016452180407106368947_)" stroke-miterlimit="10" stroke-width="5" d="M81.72 184.72 48.2 205.31v-65.03l33.52-20.59z"/><path fill="#fff" stroke="#1d1d1b" stroke-linecap="round" stroke-linejoin="round" stroke-miterlimit="10" d="M81.72 184.35 48.2 204.94v-65.03l33.52-20.59z"/><path d="m56.21 149.29-1.6.98-1.55-4.66 1.44-.89.91 3.22.91-4.33 1.44-.89-1.55 6.57zM61.7 145.21c-.44.81-.99 1.42-1.64 1.82s-1.2.47-1.64.2c-.44-.27-.66-.83-.66-1.68s.22-1.68.66-2.49c.44-.81.99-1.42 1.64-1.82s1.2-.47 1.64-.2c.44.27.66.83.66 1.68s-.22 1.68-.66 2.49zm-2.37.36c.19.15.43.14.73-.04.3-.18.54-.47.73-.85.19-.38.28-.77.28-1.17 0-.4-.09-.67-.28-.83-.19-.15-.43-.14-.73.04-.3.18-.54.47-.73.85-.19.38-.28.77-.28 1.17 0 .4.1.68.28.83zM64.99 143.9l-1.27.78v-4.13l-1.13.69v-1.48l3.52-2.16v1.48l-1.12.69v4.13zM67.83 142.15l-1.27.78v-5.61l1.27-.78v5.61zM72.56 139.25l-1.22.75-1.55-1.89v2.84l-1.27.78v-5.61l1.31-.8 1.46 1.76v-2.66l1.27-.78v5.61zM75.32 137.65c-.66.4-1.2.47-1.65.22-.44-.26-.66-.82-.66-1.7 0-.87.22-1.71.66-2.51.44-.8.99-1.4 1.65-1.81.46-.28.85-.38 1.16-.29.31.09.54.3.69.62l-1.07 1.39a.537.537 0 0 0-.31-.3c-.14-.05-.29-.03-.47.08-.3.19-.55.47-.74.86-.19.39-.28.78-.28 1.17 0 .4.09.67.28.83.19.15.43.14.74-.05.12-.07.24-.17.37-.3.13-.13.22-.25.29-.35v-.2l-.78.48v-1.48l2.05-1.26v2.3c-.52 1.06-1.16 1.83-1.93 2.3zM54.91 158.1l-1.34.82v-5.9l2.36-1.45c.5-.31.89-.35 1.17-.14.28.21.42.61.42 1.19 0 .57-.14 1.14-.42 1.69-.28.56-.67.99-1.17 1.3l-1.02.63v1.86zm.85-3.93c.12-.07.22-.17.29-.3.08-.13.11-.26.11-.41 0-.15-.04-.25-.11-.28-.08-.03-.17-.01-.29.06l-.85.52v.93l.85-.52zM61.86 153.09c-.46.85-1.04 1.49-1.72 1.91-.69.42-1.26.49-1.72.21-.46-.29-.69-.88-.69-1.77 0-.9.23-1.77.69-2.62.46-.85 1.04-1.49 1.72-1.91.69-.42 1.26-.49 1.72-.21.46.29.69.88.69 1.77s-.23 1.77-.69 2.62zm-2.49.38c.2.16.45.15.76-.05.31-.19.57-.49.76-.89.2-.4.29-.81.29-1.23 0-.42-.1-.71-.29-.87-.2-.16-.45-.15-.76.05-.31.19-.57.49-.76.89-.2.4-.29.81-.29 1.23 0 .42.09.71.29.87zM67.8 150.19l-1.4.86-.57-2.99-.57 3.69-1.4.86-1.26-5.12 1.5-.92.57 3.26.67-4.02 1.01-.62.67 3.2.56-3.95 1.5-.92-1.28 6.67zM72.7 147.18l-3.35 2.06v-5.9l3.35-2.06v1.56l-2.01 1.24v.58l1.97-1.21v1.56l-1.97 1.21v.65l2.01-1.24v1.55zM77.24 144.38l-1.52.94-.61-1.48-.48.3V146l-1.34.82v-5.9l2.36-1.45c.5-.31.89-.35 1.17-.14.28.21.42.61.42 1.19 0 .46-.08.88-.23 1.28-.16.39-.34.72-.56 1l.79 1.58zm-1.8-2.3c.12-.08.23-.18.31-.31.08-.13.13-.27.13-.43 0-.15-.04-.23-.13-.26-.08-.03-.19 0-.31.07l-.81.5v.93l.81-.5z" class="st2"/><linearGradient id="SVGID_00000143607053569380616240000007233820592520797593_" x1="427.425" x2="407.226" y1="827.652" y2="810.657" gradientTransform="matrix(.7491 -.4602 0 1 -247.638 -454.219)" gradientUnits="userSpaceOnUse"><stop offset="0" stop-color="#c1489f"/><stop offset="1" stop-color="#55bac7"/></linearGradient><path fill="url(#SVGID_00000143607053569380616240000007233820592520797593_)" d="M64.96 159.29c-5.61 3.45-10.17 12.33-10.17 19.82s4.55 10.78 10.17 7.33c5.61-3.45 10.17-12.32 10.17-19.82s-4.56-10.78-10.17-7.33zm4.32 17.26c-.11.23-.26.4-.46.52-.13.08-.25.1-.36.06-.11-.03-.18-.13-.25-.27l-3.27-8.85-1.2 4.73.58-.36c.34-.21.62-.01.62.44v.02c0 .45-.28.99-.62 1.2l-1.09.67-1.57 6.17c-.06.21-.14.4-.25.57-.1.16-.23.29-.36.38-.19.12-.35.14-.46.05s-.17-.26-.17-.51c0-.11.01-.22.04-.34l1.43-5.49-.61.37c-.34.21-.62.01-.62-.44v-.01c0-.45.28-.99.62-1.2l1.13-.7 1.49-5.75c.19-.69.48-1.15.86-1.39l.3-.19c.38-.23.67-.13.86.33l3.44 8.99c.03.08.04.18.04.29.05.25-.01.49-.12.71z"/><path d="m231.92 195.57-24.64-14.22v-24.63l24.64 14.22z" class="st7"/><path d="m231.92 195.57 24.63-14.22v-24.63l-24.63 14.22z" class="st6"/><path d="m232 171.01-24.72-14.27 24.55-14.3 24.72 14.28z" class="st8"/><path id="矩形_00000098204372111107834770000015646015447272258184_" d="M223.75 151.01c.48.28.4.8-.17 1.15l-5.11 3.03c-.58.34-1.49.4-1.97.12s-.4-.8.17-1.15l5.11-3.03c.58-.34 1.49-.4 1.97-.12z" class="st41"/><path id="矩形_00000025403605312783784040000016904699431647022218_" d="M215.24 155.95c.48.28.4.8-.17 1.15l-.99.59c-.58.34-1.49.4-1.97.12s-.4-.8.17-1.15l.99-.59c.62-.36 1.49-.4 1.97-.12z" class="st41"/><path d="m52.65 260.57-24.64-14.22v-24.63l24.64 14.22z" class="st7"/><path d="m52.65 260.57 24.63-14.22v-24.63l-24.63 14.22z" class="st6"/><path d="m52.73 236.02-24.72-14.27 24.55-14.3 24.72 14.27z" class="st8"/><path id="矩形_00000117649330528318197960000013226699253584129702_" d="M44.48 216.01c.48.28.4.8-.17 1.15l-5.11 3.03c-.58.34-1.49.4-1.97.12s-.4-.8.17-1.15l5.11-3.03c.58-.34 1.49-.39 1.97-.12z" class="st41"/><path id="矩形_00000005965904495616196920000016444588211959717797_" d="M35.97 220.95c.48.28.4.8-.17 1.15l-.99.59c-.58.34-1.49.4-1.97.12s-.4-.8.17-1.15l.99-.59c.62-.36 1.49-.39 1.97-.12z" class="st41"/><path d="M96.73 263.07 72.1 248.85v-24.63l24.63 14.22z" class="st7"/><path d="m96.73 263.07 24.63-14.22v-24.63l-24.63 14.22z" class="st6"/><path d="M96.82 238.51 72.1 224.24l24.54-14.3 24.72 14.27z" class="st8"/><path id="矩形_00000140722521983819098230000018417858482779818929_" d="M88.57 218.51c.48.28.4.8-.17 1.15l-5.11 3.03c-.58.34-1.49.4-1.97.12s-.4-.8.17-1.15l5.11-3.03c.57-.34 1.48-.4 1.97-.12z" class="st41"/><path id="矩形_00000114792118797483258940000016253436519173136525_" d="M80.06 223.45c.48.28.4.8-.17 1.15l-.99.59c-.58.34-1.49.4-1.97.12s-.4-.8.17-1.15l.99-.59c.61-.37 1.48-.4 1.97-.12z" class="st41"/></svg>