<svg xmlns="http://www.w3.org/2000/svg" xml:space="preserve" id="Слой_1" x="0" y="0" version="1.1" viewBox="0 0 102.49 176.47"><style>.st77,.st81,.st82,.st83,.st84{fill-rule:evenodd;clip-rule:evenodd}.st77{opacity:.2563;fill:#fff;enable-background:new}.st81,.st82,.st83,.st84{fill:#555069}.st82,.st83,.st84{fill:#fff}.st83,.st84{fill:#afafb1}.st84{fill:#d3d3d3}</style><path id="矩形_00000045586298416418000230000017370680493783490717_" d="M84.03 114.85c.62 0 1.15.76 1.15 1.64V118c0 .88-.53 1.64-1.15 1.64-.62 0-1.15-.76-1.15-1.64v-1.52c.01-.94.54-1.63 1.15-1.63z" class="st77"/><radialGradient id="SVGID_1_" cx="52.492" cy="148.973" r="29.158" gradientTransform="matrix(1 0 0 .5898 0 61.11)" gradientUnits="userSpaceOnUse"><stop offset="0" stop-color="#06070c"/><stop offset="1" stop-color="#0d101d" stop-opacity="0"/></radialGradient><path fill="url(#SVGID_1_)" d="M77.49 134.9c-13.68-7.9-35.96-8-49.77-.23-13.81 7.77-13.91 20.48-.23 28.37s35.96 8 49.77.23c13.81-7.77 13.91-20.47.23-28.37z" opacity=".67"/><path fill="#3fa9bd" d="M91 98.87V49.59c0-.23.02-.45.02-.68C91.01 26 72.44 7.43 49.53 7.43 26.62 7.43 8.05 26 8.05 48.91c0 .36.02.72.03 1.07v44.66h-.03v22.67c0 2.84 2.3 5.15 5.15 5.15s5.15-2.31 5.15-5.15v-.83c.56.36 1.13.72 1.74 1.07 1.83 1.06 3.79 1.99 5.85 2.81v8.2c0 2.84 2.3 5.15 5.15 5.15s5.15-2.31 5.15-5.15v-5.23c2.95.57 5.99.96 9.06 1.14v12.59a5.15 5.15 0 1 0 10.3 0v-12.7c3.39-.28 6.73-.8 9.93-1.55v6.36c0 2.84 2.3 5.15 5.15 5.15s5.15-2.31 5.15-5.15v-9.87c1-.47 1.97-.96 2.91-1.49.7-.39 1.35-.8 1.99-1.21v.71c0 2.84 2.3 5.15 5.15 5.15s5.15-2.31 5.15-5.15V98.87H91z"/><radialGradient id="SVGID_00000006678998266510209780000017248190590914293403_" cx="74.215" cy="24.853" r="106.685" gradientUnits="userSpaceOnUse"><stop offset=".012" stop-color="#dd78ce"/><stop offset=".494" stop-color="#a7589a"/><stop offset=".583" stop-color="#a0619e"/><stop offset=".727" stop-color="#8e79a8"/><stop offset=".908" stop-color="#709fb9"/><stop offset="1" stop-color="#5eb6c3"/></radialGradient><path fill="url(#SVGID_00000006678998266510209780000017248190590914293403_)" d="M91 98.87V49.59c0-.23.02-.45.02-.68C91.01 26 72.44 7.43 49.53 7.43 26.62 7.43 8.05 26 8.05 48.91c0 .36.02.72.03 1.07v44.66h-.03v22.67c0 2.84 2.3 5.15 5.15 5.15s5.15-2.31 5.15-5.15v-.83c.56.36 1.13.72 1.74 1.07 1.83 1.06 3.79 1.99 5.85 2.81v8.2c0 2.84 2.3 5.15 5.15 5.15s5.15-2.31 5.15-5.15v-5.23c2.95.57 5.99.96 9.06 1.14v12.59a5.15 5.15 0 1 0 10.3 0v-12.7c3.39-.28 6.73-.8 9.93-1.55v6.36c0 2.84 2.3 5.15 5.15 5.15s5.15-2.31 5.15-5.15v-9.87c1-.47 1.97-.96 2.91-1.49.7-.39 1.35-.8 1.99-1.21v.71c0 2.84 2.3 5.15 5.15 5.15s5.15-2.31 5.15-5.15V98.87H91z"/><path id="矩形_00000077291345030413022200000003670065480741901729_" d="M11.94 85.03c1.12 0 2.09 1.38 2.09 2.99v14.25c0 1.61-.96 2.99-2.09 2.99-1.12 0-2.09-1.38-2.09-2.99V88.02c.01-1.61.97-2.99 2.09-2.99z" class="st77"/><path id="矩形_00000074414893837899514210000013743640106675316138_" d="M73.24 21.94c1.37-1.02 3.68-.37 5.02 1.41l2.29 3.06c1.34 1.78 1.31 4.19-.06 5.22-1.37 1.02-3.68.37-5.02-1.41l-2.29-3.06c-1.43-1.92-1.3-4.2.06-5.22z" class="st77"/><path id="矩形_00000023991752765033559500000016878784520167595906_" d="M29.34 121.62c1.12 0 2.09 1.38 2.09 2.99v2.76c0 1.61-.96 2.99-2.09 2.99-1.12 0-2.09-1.38-2.09-2.99v-2.76c0-1.73.97-2.99 2.09-2.99z" class="st77"/><path id="矩形_00000036234826351995171350000014783520297306748325_" d="M11.94 110.91c1.12 0 2.09 1.38 2.09 2.99v2.76c0 1.61-.96 2.99-2.09 2.99-1.12 0-2.09-1.38-2.09-2.99v-2.76c.01-1.73.97-2.99 2.09-2.99z" class="st77"/><path id="矩形_00000032632707419733317290000000013315064263611071_" d="M49.53 130.36c1.12 0 2.09 1.38 2.09 2.99v2.76c0 1.61-.96 2.99-2.09 2.99-1.12 0-2.09-1.38-2.09-2.99v-2.76c0-1.73.97-2.99 2.09-2.99z" class="st77"/><path id="矩形_00000146492750180661712700000012320554428455487410_" d="M69.23 125.01c.89 0 1.66 1.1 1.66 2.37v2.19c0 1.28-.76 2.37-1.66 2.37-.89 0-1.66-1.1-1.66-2.37v-2.19c.01-1.36.77-2.37 1.66-2.37z" class="st77"/><path id="椭圆形_00000073701578692889780240000014145872759484144558_" d="M61.4 71.4c4.06-.17 7.1-3.66 7.09-6 0-.94-.55-1.75-1.38-1.81-1.29-.13-3.23.7-5.72.8-2.31.1-3.78-.5-5.53-.42-1.84.08-1.75 2.22-1.47 3.06.65 2.29 2.86 4.54 7.01 4.37z" class="st81"/><path id="椭圆形_00000124127355450496845530000007075517129516056214_" d="M61.49 69.43c4.15-.17 7.19-3.38 7.19-5.63 0-.84-.55-1.57-1.38-1.63-1.29-.13-3.32.7-5.81.8-2.4.1-3.78-.5-5.62-.43s-1.75 2.13-1.48 2.87c.65 2.13 2.95 4.19 7.1 4.02z" class="st82"/><ellipse cx="44.46" cy="47.93" class="st82" rx="9.5" ry="9.1" transform="rotate(-55.453 44.457 47.927)"/><path id="形状结合_00000070822868806202561940000004709966493312669365_" d="M45.65 37.96c4.24-.18 7.66 3.98 7.66 9.22v1.12c0-5.33-3.33-9.59-7.48-9.42-4.15.17-7.46 4.61-7.46 10.04 0 1.03.09 2.05.37 2.98-.46-1.2-.74-2.59-.74-3.99.01-5.33 3.41-9.77 7.65-9.95z" class="st83"/><path id="形状结合_00000072256896100133805620000015312286573304522628_" d="M45.65 36.84c4.7-.2 8.58 4.41 8.58 10.31s-3.86 10.83-8.57 11.02c-4.7.2-8.58-4.41-8.58-10.31s3.78-10.82 8.57-11.02zm0 1.12c-4.24.18-7.65 4.62-7.64 9.86 0 5.24 3.42 9.4 7.66 9.22s7.65-4.62 7.64-9.86c0-5.23-3.51-9.39-7.66-9.22z" class="st84"/><ellipse cx="75.17" cy="46.55" class="st82" rx="9.5" ry="9.1" transform="rotate(-55.453 75.173 46.547)"/><path id="形状结合_00000079452856215568307050000012959924172823592081_" d="M76.17 36.59c4.24-.18 7.66 3.98 7.66 9.22v1.12c0-5.33-3.33-9.59-7.48-9.42-4.15.17-7.46 4.61-7.46 10.04 0 1.03.09 2.05.37 2.98-.46-1.2-.74-2.59-.74-3.99 0-5.33 3.41-9.77 7.65-9.95z" class="st83"/><path id="形状结合_00000121270597695896635990000004707824152319065995_" d="M76.17 35.47c4.7-.2 8.58 4.41 8.58 10.31S80.89 56.6 76.19 56.8c-4.7.2-8.58-4.41-8.58-10.31s3.76-10.82 8.56-11.02zm0 1.12c-4.24.18-7.65 4.62-7.64 9.86 0 5.24 3.42 9.4 7.66 9.22 4.24-.18 7.65-4.62 7.64-9.86-.01-5.23-3.51-9.39-7.66-9.22z" class="st84"/><circle cx="49.43" cy="45.79" r="3.77" class="st81"/><circle cx="79.97" cy="44.66" r="3.77" class="st81"/></svg>