<svg xmlns="http://www.w3.org/2000/svg" fill="none" viewBox="0 0 57 112"><g clip-path="url(#a)"><path fill="#fff" fill-rule="evenodd" d="M52.205 74.445c.426 0 .79.527.79 1.137v1.053c0 .61-.364 1.136-.79 1.136-.426 0-.79-.526-.79-1.136v-1.053c0-.659.364-1.137.79-1.137Z" clip-rule="evenodd" opacity=".26"/><path fill="url(#b)" d="M54.708 98.156c.021-7.678-10.785-13.933-24.137-13.97C17.22 84.148 6.38 90.342 6.357 98.02c-.02 7.678 10.785 13.932 24.137 13.97 13.352.037 24.193-6.156 24.214-13.834Z" opacity=".67"/><path fill="#3FA9BD" d="M56.986 63.37V29.218c0-.16.014-.312.014-.471C57 12.87 44.236 0 28.497 0 12.757 0 0 12.87 0 28.747c0 .25.014.499.02.741v30.95H0V76.15c0 1.968 1.58 3.569 3.538 3.569 1.958 0 3.538-1.601 3.538-3.57v-.575c.385.25.776.5 1.195.742a30.455 30.455 0 0 0 4.02 1.947v5.683c0 1.969 1.58 3.57 3.537 3.57 1.958 0 3.538-1.602 3.538-3.57v-3.624a47.16 47.16 0 0 0 6.225.79v8.725c0 1.968 1.58 3.57 3.538 3.57 1.957 0 3.538-1.602 3.538-3.57v-8.801a46.54 46.54 0 0 0 6.822-1.075v4.408c0 1.968 1.58 3.57 3.538 3.57 1.957 0 3.538-1.602 3.538-3.57v-6.84a30.266 30.266 0 0 0 1.999-1.033c.48-.27.927-.554 1.367-.838v.492c0 1.968 1.58 3.569 3.538 3.569 1.958 0 3.538-1.601 3.538-3.57V63.364h-.014l-.007.007Z"/><path fill="url(#c)" d="M56.986 63.37V29.218c0-.16.014-.312.014-.471C57 12.87 44.236 0 28.497 0 12.757 0 0 12.87 0 28.747c0 .25.014.499.02.741v30.95H0V76.15c0 1.968 1.58 3.569 3.538 3.569 1.958 0 3.538-1.601 3.538-3.57v-.575c.385.25.776.5 1.195.742a30.455 30.455 0 0 0 4.02 1.947v5.683c0 1.969 1.58 3.57 3.537 3.57 1.958 0 3.538-1.602 3.538-3.57v-3.624a47.16 47.16 0 0 0 6.225.79v8.725c0 1.968 1.58 3.57 3.538 3.57 1.957 0 3.538-1.602 3.538-3.57v-8.801a46.54 46.54 0 0 0 6.822-1.075v4.408c0 1.968 1.58 3.57 3.538 3.57 1.957 0 3.538-1.602 3.538-3.57v-6.84a30.266 30.266 0 0 0 1.999-1.033c.48-.27.927-.554 1.367-.838v.492c0 1.968 1.58 3.569 3.538 3.569 1.958 0 3.538-1.601 3.538-3.57V63.364h-.014l-.007.007Z"/><path fill="#fff" fill-rule="evenodd" d="M2.68 53.779c.769 0 1.435.956 1.435 2.072v9.876c0 1.115-.66 2.072-1.436 2.072-.77 0-1.436-.957-1.436-2.072V55.85c0-1.116.66-2.072 1.436-2.072ZM44.792 10.056c.941-.707 2.528-.257 3.449.977l1.573 2.12c.92 1.234.9 2.904-.041 3.618-.942.707-2.528.257-3.449-.977l-1.573-2.12c-.983-1.324-.9-2.904.041-3.618ZM14.626 79.13c.77 0 1.436.956 1.436 2.072v1.913c0 1.115-.66 2.072-1.436 2.072-.77 0-1.436-.957-1.436-2.072v-1.913c0-1.192.66-2.072 1.436-2.072ZM28.497 85.187c.769 0 1.435.956 1.435 2.072v1.913c0 1.115-.66 2.072-1.435 2.072-.77 0-1.436-.957-1.436-2.072v-1.913c0-1.192.66-2.072 1.436-2.072ZM42.03 81.486c.612 0 1.14.762 1.14 1.643v1.517c0 .887-.521 1.643-1.14 1.643-.611 0-1.14-.763-1.14-1.643V83.13c0-.95.522-1.643 1.14-1.643Z" clip-rule="evenodd" opacity=".26"/><path fill="#555069" fill-rule="evenodd" d="M36.658 44.333c2.79-.118 4.878-2.536 4.87-4.158 0-.652-.377-1.213-.947-1.255-.886-.09-2.22.486-3.93.555-1.587.07-2.597-.347-3.799-.291-1.264.055-1.202 1.538-1.01 2.12.447 1.601 1.965 3.16 4.816 3.043v-.014Z" clip-rule="evenodd"/><path fill="#fff" fill-rule="evenodd" d="M36.713 42.968c2.851-.118 4.94-2.343 4.94-3.902 0-.582-.378-1.088-.948-1.13-.887-.09-2.281.485-3.992.555-1.649.069-2.597-.347-3.86-.298-1.265.055-1.203 1.476-1.018 1.989.447 1.476 2.027 2.897 4.878 2.779v.007Z" clip-rule="evenodd"/><path fill="#fff" d="M30.166 31.637c2.044-2.995 1.395-7.024-1.449-9-2.844-1.974-6.806-1.147-8.85 1.848-2.044 2.996-1.395 7.025 1.45 9 2.843 1.974 6.806 1.147 8.85-1.848Z"/><path fill="#AFAFB1" fill-rule="evenodd" d="M25.838 21.158c2.913-.125 5.262 2.758 5.262 6.39v.776c0-3.694-2.288-6.646-5.139-6.528-2.85.118-5.124 3.195-5.124 6.958 0 .714.061 1.42.254 2.065a7.903 7.903 0 0 1-.509-2.765c0-3.694 2.336-6.778 5.249-6.896h.007Z" clip-rule="evenodd"/><path fill="#D3D3D3" fill-rule="evenodd" d="M25.838 20.382c3.229-.139 5.894 3.056 5.894 7.145 0 4.082-2.652 7.505-5.887 7.637-3.23.139-5.895-3.056-5.895-7.145 0-4.082 2.59-7.498 5.888-7.637Zm0 .776c-2.913.125-5.256 3.202-5.249 6.833.007 3.632 2.35 6.515 5.263 6.39 2.912-.125 5.255-3.202 5.248-6.833 0-3.632-2.411-6.515-5.262-6.39Z" clip-rule="evenodd"/><path fill="#fff" d="M51.265 30.682c2.044-2.995 1.395-7.024-1.45-8.999-2.843-1.974-6.806-1.147-8.85 1.848-2.043 2.995-1.394 7.024 1.45 8.999 2.844 1.975 6.806 1.147 8.85-1.848Z"/><path fill="#AFAFB1" fill-rule="evenodd" d="M46.798 20.209c2.913-.125 5.263 2.758 5.263 6.39v.776c0-3.694-2.288-6.646-5.14-6.529-2.85.118-5.124 3.195-5.124 6.958 0 .714.062 1.421.254 2.066a7.905 7.905 0 0 1-.508-2.766c0-3.694 2.336-6.777 5.248-6.895h.007Z" clip-rule="evenodd"/><path fill="#D3D3D3" fill-rule="evenodd" d="M46.798 19.433c3.23-.139 5.895 3.056 5.895 7.145 0 4.082-2.652 7.505-5.888 7.637-3.236.131-5.894-3.056-5.894-7.145 0-4.09 2.59-7.499 5.887-7.637Zm0 .776c-2.913.125-5.255 3.201-5.248 6.833.006 3.631 2.35 6.514 5.262 6.39 2.913-.125 5.255-3.202 5.249-6.834 0-3.631-2.412-6.514-5.263-6.39Z" clip-rule="evenodd"/><path fill="#555069" d="M28.428 29.197c1.43 0 2.59-1.17 2.59-2.613 0-1.442-1.16-2.612-2.59-2.612s-2.59 1.17-2.59 2.612c0 1.444 1.16 2.613 2.59 2.613ZM49.416 28.414c1.43 0 2.59-1.17 2.59-2.613 0-1.442-1.16-2.612-2.59-2.612s-2.59 1.17-2.59 2.612c0 1.443 1.16 2.613 2.59 2.613Z"/></g><defs><radialGradient id="b" cx="0" cy="0" r="1" gradientTransform="matrix(20.0328 0 0 11.9231 30.535 98.112)" gradientUnits="userSpaceOnUse"><stop stop-color="#B8B3D4"/><stop offset=".19" stop-color="#B8B3D4" stop-opacity=".99"/><stop offset=".33" stop-color="#BAB5D5" stop-opacity=".94"/><stop offset=".46" stop-color="#BDB9D7" stop-opacity=".86"/><stop offset=".57" stop-color="#C1BDD9" stop-opacity=".76"/><stop offset=".69" stop-color="#C6C4DC" stop-opacity=".62"/><stop offset=".79" stop-color="#CCCBE0" stop-opacity=".44"/><stop offset=".9" stop-color="#D4D5E5" stop-opacity=".24"/><stop offset="1" stop-color="#DDE0EB" stop-opacity="0"/></radialGradient><radialGradient id="c" cx="0" cy="0" r="1" gradientTransform="matrix(73.2955 0 0 73.939 45.459 12.072)" gradientUnits="userSpaceOnUse"><stop offset=".01" stop-color="#DD78CE"/><stop offset=".49" stop-color="#A7589A"/><stop offset=".58" stop-color="#A0609D"/><stop offset=".73" stop-color="#8D78A8"/><stop offset=".91" stop-color="#6F9FB9"/><stop offset="1" stop-color="#5EB6C3"/></radialGradient><clipPath id="a"><path fill="#fff" d="M0 0h57v112H0z"/></clipPath></defs></svg>