<svg xmlns="http://www.w3.org/2000/svg" xml:space="preserve" id="Слой_1" x="0" y="0" version="1.1" viewBox="0 0 290 269.62"><style>.st5{fill:#0d101d}.st5,.st6,.st7{fill-rule:evenodd;clip-rule:evenodd;stroke:#000;stroke-linecap:round;stroke-linejoin:round;stroke-miterlimit:10}.st7{fill:#30345e}.st17{fill:#40407c}.st17,.st74,.st78,.st79,.st80,.st81{fill-rule:evenodd;clip-rule:evenodd}.st74{opacity:.2563;fill:#fff;enable-background:new}.st78,.st79,.st80,.st81{fill:#555069}.st79,.st80,.st81{fill:#fff}.st80,.st81{fill:#afafb1}.st81{fill:#d3d3d3}</style><path d="m227.28 155.34-32.72-18.89v-32.72l32.72 18.89z" class="st6"/><path d="M227.28 155.34 260 136.45v-32.72l-32.72 18.89z" class="st5"/><path d="m227.4 122.72-32.84-18.96 32.6-18.99L260 103.73z" class="st7"/><path id="矩形_00000173142302042498591340000002509436359324880808_" d="M216.43 96.15h0c.64.37.54 1.07-.23 1.52l-6.79 4.02c-.77.45-1.98.53-2.62.16h0c-.64-.37-.54-1.07.23-1.52l6.79-4.02c.77-.45 1.98-.53 2.62-.16z" class="st5"/><path id="矩形_00000011019301423703815910000010677439638491895713_" d="M205.13 102.71h0c.64.37.54 1.07-.23 1.52l-1.31.78c-.77.45-1.98.53-2.62.16h0c-.64-.37-.54-1.07.23-1.52l1.31-.78c.82-.48 1.97-.53 2.62-.16z" class="st5"/><linearGradient id="SVGID_1_" x1="148.77" x2="161.826" y1="722.099" y2="745.6" gradientTransform="matrix(1.0913 -.6143 0 1 75.771 -509.899)" gradientUnits="userSpaceOnUse"><stop offset="0" stop-color="#a85699"/><stop offset="1" stop-color="#5db6c3"/></linearGradient><path fill="url(#SVGID_1_)" d="M241.64 134.64v-.5c0-1.14.07-2.09.22-2.84.14-.76.36-1.42.64-1.99.28-.57.63-1.13 1.04-1.7.35-.49.67-.95.95-1.37.28-.43.5-.84.66-1.23.16-.4.24-.79.24-1.17 0-.35-.07-.61-.2-.8a.692.692 0 0 0-.54-.31c-.23-.02-.48.05-.75.21-.3.17-.57.41-.82.72s-.45.67-.61 1.05c-.15.39-.23.78-.23 1.18l-4.24 2.39c.01-1.52.29-2.91.83-4.17.54-1.25 1.26-2.35 2.15-3.3.89-.95 1.88-1.72 2.95-2.33 1.18-.67 2.24-1.04 3.17-1.14.93-.09 1.66.15 2.2.71.54.56.8 1.5.8 2.79 0 .83-.11 1.63-.34 2.39-.23.76-.55 1.49-.95 2.2-.41.71-.88 1.41-1.42 2.11-.4.51-.73 1-1 1.46-.27.46-.48.92-.61 1.39-.14.47-.21.98-.21 1.53v.5l-3.93 2.22zm2.13 5.53c-.56.31-1.04.34-1.43.07-.4-.27-.59-.75-.59-1.46 0-.68.19-1.38.59-2.09.4-.71.88-1.22 1.43-1.54.53-.3 1-.32 1.41-.06.41.26.61.73.62 1.41 0 .47-.1.95-.29 1.44-.19.49-.44.93-.74 1.33-.31.4-.64.7-1 .9z"/><path d="m65.48 163.63-44.61-25.75V93.27l44.61 25.76z" class="st6"/><path d="m65.48 163.63 44.6-25.75V93.27l-44.6 25.76z" class="st5"/><path d="M65.64 119.16 20.87 93.32l44.45-25.9 44.77 25.85z" class="st7"/><path id="矩形_00000055686028866258400310000003571620655678377364_" d="M50.7 82.93c.88.5.73 1.46-.31 2.08l-9.26 5.48c-1.05.62-2.69.72-3.57.22-.88-.5-.73-1.46.31-2.08l9.26-5.48c1.04-.61 2.69-.71 3.57-.22z" class="st17"/><path id="矩形_00000106148848693082746100000002695710948074532005_" d="M35.28 91.88c.88.5.73 1.46-.31 2.08l-1.79 1.06c-1.05.62-2.69.72-3.57.22-.88-.5-.73-1.46.31-2.08l1.79-1.06c1.12-.66 2.69-.72 3.57-.22z" class="st17"/><linearGradient id="SVGID_00000133489731097131653430000012593863081428707223_" x1="4.113" x2="21.913" y1="628.991" y2="661.03" gradientTransform="matrix(1.0913 -.6143 0 1 75.771 -509.899)" gradientUnits="userSpaceOnUse"><stop offset="0" stop-color="#a85699"/><stop offset="1" stop-color="#5db6c3"/></linearGradient><path fill="url(#SVGID_00000133489731097131653430000012593863081428707223_)" d="M85.06 135.41v-.68c0-1.55.1-2.84.29-3.88.2-1.03.49-1.94.87-2.71s.85-1.55 1.41-2.31c.48-.67.91-1.29 1.29-1.87.38-.58.68-1.14.9-1.68.22-.54.33-1.07.33-1.6 0-.47-.09-.83-.27-1.09a.933.933 0 0 0-.73-.42c-.31-.02-.65.07-1.03.28-.41.23-.78.56-1.12.99-.34.43-.62.91-.82 1.44-.21.53-.31 1.07-.31 1.61l-5.78 3.26c.01-2.08.39-3.97 1.13-5.68.74-1.71 1.72-3.21 2.94-4.5s2.56-2.35 4.02-3.17c1.61-.91 3.05-1.42 4.31-1.55 1.26-.12 2.26.2 2.99.97.73.77 1.1 2.04 1.1 3.81 0 1.14-.16 2.23-.47 3.26-.31 1.04-.75 2.04-1.3 3-.55.97-1.2 1.92-1.94 2.88-.54.7-1 1.36-1.37 1.99-.37.63-.65 1.26-.84 1.9-.19.64-.28 1.33-.28 2.08v.68l-5.32 2.99zm2.91 7.54c-.76.43-1.41.46-1.95.1s-.81-1.03-.8-1.99c-.01-.93.26-1.88.8-2.85.54-.97 1.19-1.67 1.95-2.1.72-.41 1.36-.43 1.92-.08.55.35.84.99.84 1.93-.01.64-.14 1.3-.4 1.97-.26.67-.6 1.27-1.01 1.81-.42.53-.87.93-1.35 1.21z"/><path d="m200.15 111.33-41.37-23.88V46.08l41.37 23.88z" class="st6"/><path d="m200.15 111.33 41.37-23.88V46.08l-41.37 23.88z" class="st5"/><path d="m200.3 70.09-41.52-23.97L200 22.1l41.52 23.97z" class="st7"/><path id="矩形_00000068659436656497742720000015302935922789669523_" d="M186.43 36.49c.81.46.68 1.35-.29 1.93l-8.59 5.08c-.97.57-2.5.67-3.31.21-.81-.46-.68-1.35.29-1.93l8.59-5.08c.97-.58 2.5-.68 3.31-.21z" class="st17"/><path id="矩形_00000084493643815463823480000015693075378324080045_" d="M172.14 44.78c.81.46.68 1.35-.29 1.93l-1.66.98c-.97.57-2.5.67-3.31.21-.81-.46-.68-1.35.29-1.93l1.66-.98c1.04-.61 2.5-.67 3.31-.21z" class="st17"/><linearGradient id="SVGID_00000080200575684235426580000004232427551777274508_" x1="173.715" x2="187.697" y1="-656.77" y2="-631.602" gradientTransform="matrix(1 .5484 0 1 0 624.884)" gradientUnits="userSpaceOnUse"><stop offset="0" stop-color="#a85699"/><stop offset="1" stop-color="#5db6c3"/></linearGradient><path fill="url(#SVGID_00000080200575684235426580000004232427551777274508_)" d="M176.7 81.91v-.52c0-1.18.08-2.07.25-2.67.16-.6.41-1.01.73-1.24.32-.23.72-.37 1.19-.42.41-.05.77-.11 1.09-.2.32-.08.58-.22.76-.42.19-.2.28-.5.28-.9 0-.36-.08-.72-.23-1.09s-.36-.7-.62-1.02c-.26-.31-.55-.57-.87-.76-.34-.21-.66-.32-.95-.32-.29 0-.52.1-.7.31-.17.21-.26.52-.26.93l-4.88-3.02c.01-1.57.33-2.65.95-3.25.62-.6 1.45-.81 2.48-.64 1.03.17 2.16.64 3.39 1.4 1.36.84 2.57 1.81 3.64 2.92 1.07 1.11 1.91 2.3 2.53 3.58.62 1.28.92 2.59.92 3.94 0 .87-.13 1.55-.4 2.04-.26.49-.63.84-1.1 1.05-.47.21-1.01.33-1.63.35-.46.02-.84.09-1.15.22-.31.13-.55.34-.71.65-.16.31-.24.75-.24 1.32v.52l-4.47-2.76zm2.45 8.49c-.64-.4-1.19-.99-1.65-1.78-.46-.79-.68-1.55-.68-2.28-.01-.71.22-1.18.68-1.41.46-.22 1.01-.14 1.65.26.61.38 1.15.96 1.62 1.76.47.79.7 1.55.71 2.26-.01.48-.12.86-.34 1.12-.22.26-.5.4-.85.42-.35.02-.73-.09-1.14-.35z"/><path id="矩形_00000173147354944887975950000002223834969705142672_" d="M180.34 201.11c.62 0 1.15.76 1.15 1.64v1.52c0 .88-.53 1.64-1.15 1.64-.62 0-1.15-.76-1.15-1.64v-1.52c.01-.94.54-1.64 1.15-1.64z" class="st74"/><radialGradient id="SVGID_00000174599199228953329070000011503630349621953705_" cx="148.801" cy="235.237" r="29.158" gradientTransform="matrix(1 0 0 .5898 0 96.496)" gradientUnits="userSpaceOnUse"><stop offset="0"/><stop offset="1" stop-color="#0d101d" stop-opacity="0"/></radialGradient><path fill="url(#SVGID_00000174599199228953329070000011503630349621953705_)" d="M173.8 221.16c-13.68-7.9-35.96-8-49.77-.23-13.81 7.77-13.91 20.48-.23 28.37 13.68 7.9 35.96 8 49.77.23 13.8-7.77 13.91-20.47.23-28.37z" opacity=".67"/><path fill="#3fa9bd" d="M187.3 185.14v-49.28c0-.23.02-.45.02-.68 0-22.91-18.57-41.48-41.48-41.48-22.91 0-41.48 18.57-41.48 41.48 0 .36.02.72.03 1.07v44.66h-.03v22.67a5.15 5.15 0 1 0 10.3 0v-.83c.56.36 1.13.72 1.74 1.07 1.83 1.06 3.79 1.99 5.85 2.81v8.2c0 2.84 2.3 5.15 5.15 5.15s5.15-2.31 5.15-5.15v-5.23c2.95.57 5.99.96 9.06 1.14v12.59a5.15 5.15 0 1 0 10.3 0v-12.7c3.39-.28 6.73-.8 9.93-1.55v6.36a5.15 5.15 0 1 0 10.3 0v-9.87c1-.47 1.97-.96 2.91-1.49.7-.39 1.35-.8 1.99-1.21v.71c0 2.84 2.3 5.15 5.15 5.15s5.15-2.31 5.15-5.15v-18.45h-.04z"/><radialGradient id="SVGID_00000171000442280568697030000017507417578604298886_" cx="170.524" cy="111.116" r="106.685" gradientUnits="userSpaceOnUse"><stop offset=".012" stop-color="#dd78ce"/><stop offset=".494" stop-color="#a7589a"/><stop offset=".583" stop-color="#a0619e"/><stop offset=".727" stop-color="#8e79a8"/><stop offset=".908" stop-color="#709fb9"/><stop offset="1" stop-color="#5eb6c3"/></radialGradient><path fill="url(#SVGID_00000171000442280568697030000017507417578604298886_)" d="M187.3 185.14v-49.28c0-.23.02-.45.02-.68 0-22.91-18.57-41.48-41.48-41.48-22.91 0-41.48 18.57-41.48 41.48 0 .36.02.72.03 1.07v44.66h-.03v22.67a5.15 5.15 0 1 0 10.3 0v-.83c.56.36 1.13.72 1.74 1.07 1.83 1.06 3.79 1.99 5.85 2.81v8.2c0 2.84 2.3 5.15 5.15 5.15s5.15-2.31 5.15-5.15v-5.23c2.95.57 5.99.96 9.06 1.14v12.59a5.15 5.15 0 1 0 10.3 0v-12.7c3.39-.28 6.73-.8 9.93-1.55v6.36a5.15 5.15 0 1 0 10.3 0v-9.87c1-.47 1.97-.96 2.91-1.49.7-.39 1.35-.8 1.99-1.21v.71c0 2.84 2.3 5.15 5.15 5.15s5.15-2.31 5.15-5.15v-18.45h-.04z"/><path id="矩形_00000136395278592949185650000008499221514747198138_" d="M108.25 171.29c1.12 0 2.09 1.38 2.09 2.99v14.25c0 1.61-.96 2.99-2.09 2.99-1.12 0-2.09-1.38-2.09-2.99v-14.25c0-1.61.97-2.99 2.09-2.99z" class="st74"/><path id="矩形_00000156586595579281373330000005542629483788272025_" d="M169.55 108.2c1.37-1.02 3.68-.37 5.02 1.41l2.29 3.06c1.34 1.78 1.31 4.19-.06 5.22-1.37 1.02-3.68.37-5.02-1.41l-2.29-3.06c-1.43-1.91-1.3-4.19.06-5.22z" class="st74"/><path id="矩形_00000116950538700235826320000011458775821938664091_" d="M125.65 207.88c1.12 0 2.09 1.38 2.09 2.99v2.76c0 1.61-.96 2.99-2.09 2.99-1.12 0-2.09-1.38-2.09-2.99v-2.76c0-1.73.97-2.99 2.09-2.99z" class="st74"/><path id="矩形_00000085215862346074228140000000492155504781656454_" d="M108 197.08c1.12 0 2.09 1.38 2.09 2.99v2.76c0 1.61-.96 2.99-2.09 2.99-1.12 0-2.09-1.38-2.09-2.99v-2.76c.01-1.73.97-2.99 2.09-2.99z" class="st74"/><path id="矩形_00000123399562552534201720000017867423796698741909_" d="M145.84 216.62c1.12 0 2.09 1.38 2.09 2.99v2.76c0 1.61-.96 2.99-2.09 2.99-1.12 0-2.09-1.38-2.09-2.99v-2.76c0-1.73.96-2.99 2.09-2.99z" class="st74"/><path id="矩形_00000073719983026583272140000000722224039571209869_" d="M165.54 211.28c.89 0 1.66 1.1 1.66 2.37v2.19c0 1.28-.76 2.37-1.66 2.37-.89 0-1.66-1.1-1.66-2.37v-2.19c0-1.37.77-2.37 1.66-2.37z" class="st74"/><path id="椭圆形_00000125590360586592859510000005436633152144954294_" d="M155.85 166.16c4.06-.17 7.1-3.66 7.09-6 0-.94-.55-1.75-1.38-1.81-1.29-.13-3.23.7-5.72.8-2.31.1-3.78-.5-5.53-.42-1.84.08-1.75 2.22-1.47 3.06.64 2.3 2.86 4.54 7.01 4.37z" class="st78"/><path id="椭圆形_00000156567901410790993280000007831377007008321679_" d="M155.94 164.19c4.15-.17 7.19-3.38 7.19-5.63 0-.84-.55-1.57-1.38-1.63-1.29-.13-3.32.7-5.81.8-2.4.1-3.78-.5-5.62-.43-1.84.08-1.75 2.13-1.48 2.87.64 2.13 2.95 4.19 7.1 4.02z" class="st79"/><ellipse cx="138.9" cy="142.69" class="st79" rx="9.5" ry="9.1" transform="rotate(-55.453 138.902 142.69)"/><path id="形状结合_00000078011490706883037260000007128297795283098044_" d="M140.1 132.73c4.24-.18 7.66 3.98 7.66 9.22v1.12c0-5.33-3.33-9.59-7.48-9.42s-7.46 4.61-7.46 10.04c0 1.03.09 2.05.37 2.98-.46-1.2-.74-2.59-.74-3.99 0-5.33 3.41-9.78 7.65-9.95z" class="st80"/><path id="形状结合_00000120533629710724120620000011986902801548415377_" d="M140.1 131.6c4.7-.2 8.58 4.41 8.58 10.31.01 5.89-3.86 10.83-8.57 11.02-4.7.2-8.58-4.41-8.58-10.31s3.77-10.82 8.57-11.02zm0 1.13c-4.24.18-7.65 4.62-7.64 9.86 0 5.24 3.42 9.4 7.66 9.22 4.24-.18 7.65-4.62 7.64-9.86 0-5.24-3.51-9.4-7.66-9.22z" class="st81"/><ellipse cx="169.62" cy="141.31" class="st79" rx="9.5" ry="9.1" transform="rotate(-55.453 169.619 141.31)"/><path id="形状结合_00000147919871952595652860000001221443169029176504_" d="M170.61 131.36c4.24-.18 7.66 3.98 7.66 9.22v1.12c0-5.33-3.33-9.59-7.48-9.42-4.15.17-7.46 4.61-7.46 10.04 0 1.03.09 2.05.37 2.98-.46-1.2-.74-2.59-.74-3.99 0-5.33 3.41-9.78 7.65-9.95z" class="st80"/><path id="形状结合_00000002350716088040571940000009750341150204652970_" d="M170.61 130.23c4.7-.2 8.58 4.41 8.58 10.31.01 5.89-3.86 10.83-8.57 11.02-4.7.2-8.58-4.41-8.58-10.31 0-5.89 3.78-10.82 8.57-11.02zm0 1.13c-4.24.18-7.65 4.62-7.64 9.86 0 5.24 3.42 9.4 7.66 9.22 4.24-.18 7.65-4.62 7.64-9.86 0-5.24-3.51-9.4-7.66-9.22z" class="st81"/><circle cx="138.9" cy="142.69" r="3.77" class="st78"/><circle cx="169.45" cy="141.57" r="3.77" class="st78"/></svg>