<svg xmlns="http://www.w3.org/2000/svg" xml:space="preserve" id="Слой_1" x="0" y="0" version="1.1" viewBox="0 0 290 269.62"><style>.st3{fill:#30345e}.st5{fill-rule:evenodd;clip-rule:evenodd;fill:#0d101d}.st5,.st6,.st7{stroke:#000;stroke-linecap:round;stroke-linejoin:round;stroke-miterlimit:10}.st6{fill-rule:evenodd;clip-rule:evenodd}.st7{fill:#30345e}.st7,.st74,.st78,.st79,.st80,.st81{fill-rule:evenodd;clip-rule:evenodd}.st74{opacity:.2563;fill:#fff;enable-background:new}.st78,.st79,.st80,.st81{fill:#555069}.st79,.st80,.st81{fill:#fff}.st80,.st81{fill:#afafb1}.st81{fill:#d3d3d3}</style><path d="m180.82 174-44.53-25.76v-34.39l44.53 25.75z" class="st5"/><path d="m180.82 174 17.26-9.04v-34.4l-17.26 9.04z" class="st6"/><path d="m180.94 139.71-44.65-25.83 17.13-9.15 44.66 25.83z" class="st7"/><path d="m230.52 202.8-44.53-25.76v-34.39l44.53 25.75z" class="st5"/><path d="m230.52 202.8 17.26-9.04v-34.4l-17.26 9.04z" class="st6"/><path d="m230.64 168.51-44.65-25.83 17.13-9.15 44.66 25.83z" class="st7"/><path d="m230.52 159.7-94.23-54.32V70.99l94.23 54.32z" class="st5"/><linearGradient id="SVGID_1_" x1="230.017" x2="248.275" y1="137.985" y2="137.985" gradientUnits="userSpaceOnUse"><stop offset="0" stop-color="#111422"/><stop offset="1" stop-color="#111422"/></linearGradient><path fill="#4aa089" fill-rule="evenodd" stroke="url(#SVGID_1_)" stroke-linecap="round" stroke-linejoin="round" stroke-miterlimit="10" d="m230.52 159.7 17.26-9.04v-34.39l-17.26 9.04z" clip-rule="evenodd"/><path d="m230.64 125.41-94.35-54.39 17.13-9.15 94.36 54.39z" class="st7"/><path d="m230.52 115.94-94.23-54.32V27.23l94.23 54.32z" class="st5"/><path d="m230.52 115.94 17.26-9.04V72.51l-17.26 9.04z" class="st6"/><path d="m230.64 81.65-94.35-54.39 17.13-9.15 94.36 54.39z" class="st7"/><path d="m225.04 135.16-81.38-46.79v-5.59l81.38 46.79z" class="st6"/><path d="M224.91 134.23 144.55 87.9l-.01-4.63 80.36 46.33z" class="st7"/><path fill="#1ad4b3" fill-rule="evenodd" d="m201.81 120.33-56.78-32.6-.01-3.62 56.78 32.71z" clip-rule="evenodd"/><path d="m225.04 146.51-81.38-46.79v-5.58l81.38 46.79z" class="st6"/><path d="m224.91 145.58-80.36-46.33-.01-4.63 80.36 46.33z" class="st7"/><path fill="#fc4f83" fill-rule="evenodd" d="m176.77 117.28-31.74-18.19-.01-3.62 31.75 18.3z" clip-rule="evenodd"/><path d="M142.82 55.69V38.38l5.4 3.05c1.04.59 1.92 1.34 2.65 2.25.73.91 1.29 1.92 1.68 3.02.39 1.1.58 2.22.58 3.37s-.2 2.05-.59 2.71c-.39.66-.96 1.02-1.7 1.09-.74.07-1.64-.19-2.69-.78l-3.44-1.95v-2.93l2.98 1.68c.56.31 1.02.45 1.38.41.36-.04.64-.23.82-.56.18-.34.27-.79.27-1.35 0-.58-.09-1.13-.27-1.66-.18-.53-.45-1.02-.82-1.47a4.94 4.94 0 0 0-1.39-1.15l-1.95-1.1v14.32l-2.91-1.64zM154.96 62.55V49.57l2.76 1.56v2.26l.11.06c.19-.7.5-1.13.94-1.3.44-.16.95-.09 1.52.24.14.08.3.18.46.29.17.12.31.23.44.34v3.19c-.13-.13-.32-.28-.56-.45-.24-.17-.45-.32-.65-.43-.42-.24-.79-.33-1.12-.29-.33.04-.59.21-.78.51-.19.3-.28.71-.28 1.24v7.34l-2.84-1.58zM166.82 69.5a8.769 8.769 0 0 1-2.69-2.36c-.76-.99-1.34-2.1-1.75-3.34-.41-1.24-.61-2.52-.61-3.85 0-1.34.2-2.4.61-3.17s.99-1.23 1.75-1.36c.76-.13 1.65.09 2.69.68s1.94 1.38 2.69 2.36c.76.99 1.34 2.1 1.75 3.34.41 1.24.62 2.53.62 3.87 0 1.33-.2 2.38-.62 3.15-.41.77-.99 1.23-1.75 1.36-.75.14-1.65-.09-2.69-.68zm.02-2.78c.47.27.87.32 1.18.16.32-.16.56-.49.72-.99.16-.5.24-1.13.24-1.88s-.08-1.47-.24-2.16c-.16-.68-.4-1.29-.72-1.81-.32-.52-.71-.92-1.18-1.18-.48-.27-.88-.32-1.2-.16-.32.16-.57.49-.73.99-.16.5-.24 1.13-.24 1.88s.08 1.47.24 2.16.41 1.29.73 1.81.72.91 1.2 1.18zM173.74 78.03V60.18l2.81 1.59v2.18l.13.07c.12-.28.31-.53.54-.76.24-.23.55-.36.94-.38.39-.03.87.12 1.44.45.75.42 1.44 1.06 2.07 1.91.63.85 1.14 1.88 1.52 3.08.38 1.2.57 2.55.57 4.04 0 1.45-.18 2.56-.55 3.35-.37.79-.87 1.26-1.5 1.41-.63.15-1.34.01-2.12-.43a5.27 5.27 0 0 1-1.41-1.14c-.39-.45-.7-.92-.95-1.41a8.98 8.98 0 0 1-.56-1.39l-.09-.05v6.95l-2.84-1.62zm2.79-9.79c0 .77.08 1.49.25 2.16.17.67.41 1.26.74 1.75.32.5.71.88 1.17 1.14.46.26.86.32 1.18.18.32-.14.56-.46.73-.94.17-.48.25-1.1.25-1.86 0-.75-.08-1.45-.25-2.12-.17-.66-.41-1.25-.73-1.75s-.72-.89-1.18-1.15c-.46-.26-.86-.33-1.17-.2s-.56.43-.73.9c-.18.5-.26 1.12-.26 1.89zM190.29 82.76a8.769 8.769 0 0 1-2.69-2.36c-.76-.99-1.34-2.1-1.75-3.34-.41-1.24-.61-2.52-.61-3.85 0-1.34.2-2.4.61-3.17s.99-1.23 1.75-1.36c.76-.13 1.65.09 2.69.68 1.04.59 1.94 1.38 2.69 2.36s1.34 2.1 1.75 3.34c.41 1.24.62 2.53.62 3.87 0 1.33-.2 2.38-.62 3.15-.41.77-.99 1.23-1.75 1.36-.75.14-1.65-.09-2.69-.68zm.01-2.78c.47.27.87.32 1.18.16.32-.16.56-.49.72-.99.16-.5.24-1.13.24-1.88s-.08-1.47-.24-2.16c-.16-.68-.4-1.29-.72-1.81-.32-.52-.71-.92-1.18-1.18-.48-.27-.88-.32-1.2-.16-.32.16-.57.49-.73.99s-.24 1.13-.24 1.88c0 .76.08 1.47.24 2.16.16.68.41 1.29.73 1.81.33.52.73.91 1.2 1.18zM205.75 81.97l-2.61-1.27a3.03 3.03 0 0 0-.29-.93c-.15-.31-.34-.6-.58-.88-.24-.27-.52-.5-.85-.69-.44-.25-.81-.34-1.12-.28-.3.06-.45.29-.45.68 0 .31.1.63.29.95.2.33.53.69 1.01 1.08l1.86 1.52c1 .82 1.74 1.66 2.23 2.51.49.85.74 1.75.74 2.68 0 .85-.2 1.48-.59 1.9-.39.42-.93.61-1.62.59-.69-.03-1.47-.3-2.36-.8-1.36-.77-2.44-1.74-3.25-2.91-.8-1.17-1.28-2.42-1.41-3.74l2.8 1.4c.08.57.29 1.09.61 1.54.33.46.74.83 1.25 1.12.5.28.9.39 1.21.31.3-.07.46-.3.46-.69 0-.33-.11-.66-.33-.99-.21-.33-.54-.68-.99-1.04L200 82.59c-1-.82-1.75-1.68-2.24-2.58-.49-.9-.73-1.84-.73-2.8 0-.83.18-1.45.54-1.85.36-.4.86-.58 1.52-.54.65.04 1.42.31 2.3.81 1.3.73 2.32 1.66 3.07 2.77.73 1.11 1.17 2.3 1.29 3.57zM210.72 94.29c-.66-.37-1.24-.85-1.75-1.43a6.67 6.67 0 0 1-1.21-1.98c-.3-.74-.44-1.54-.44-2.39 0-.72.1-1.27.31-1.64.21-.37.49-.6.86-.7.36-.09.77-.09 1.24.02.46.11.95.28 1.45.5.6.26 1.08.46 1.44.59.36.14.63.18.8.13.17-.05.25-.21.25-.49v-.05a2.8 2.8 0 0 0-.4-1.47c-.27-.44-.64-.8-1.13-1.08-.51-.29-.92-.38-1.22-.26-.3.11-.5.36-.6.73l-2.64-1.76c.13-.71.4-1.25.79-1.6.39-.36.9-.51 1.52-.48.62.04 1.34.29 2.16.75.57.32 1.12.72 1.64 1.18.52.46.99.99 1.4 1.57.41.59.73 1.22.97 1.91s.35 1.42.35 2.19v8.75l-2.7-1.53v-1.8l-.08-.05c-.17.31-.39.54-.66.69-.28.15-.61.2-1 .16-.4 0-.84-.17-1.35-.46zm.81-2.02c.42.24.79.34 1.11.31.32-.03.57-.17.76-.43.18-.26.27-.61.27-1.07V89.7a.89.89 0 0 1-.36-.01c-.15-.03-.33-.07-.52-.13s-.38-.13-.58-.2c-.19-.07-.37-.14-.52-.2-.33-.13-.63-.19-.88-.2-.25-.01-.44.07-.58.22-.14.15-.21.39-.21.73 0 .49.14.94.43 1.36.29.42.65.75 1.08 1zM221.56 82.87v17.31l-2.85-1.61V81.26l2.85 1.61zM197.65 160.9l1.83 8.29.07.04 1.83-6.22 1.77 1-2.6 8.08-2.06-1.16-2.61-11.02 1.77.99zM205.94 175.27c-.57-.32-1.07-.76-1.49-1.3s-.74-1.16-.96-1.84c-.23-.68-.34-1.39-.34-2.12 0-.74.11-1.32.34-1.75.23-.43.55-.68.96-.75.42-.07.91.05 1.49.38.57.32 1.07.76 1.48 1.3.42.55.74 1.16.97 1.84.23.68.34 1.39.34 2.13 0 .73-.11 1.31-.34 1.74s-.55.68-.97.75c-.41.07-.9-.06-1.48-.38zm.01-1.54c.26.15.48.18.65.09s.31-.27.4-.55c.09-.28.13-.62.13-1.04 0-.42-.04-.81-.13-1.19s-.22-.71-.4-1a1.69 1.69 0 0 0-.65-.65c-.26-.15-.48-.18-.66-.09-.18.09-.31.27-.4.55-.09.28-.13.62-.13 1.04 0 .42.04.81.13 1.19.09.38.22.71.4 1 .18.29.4.51.66.65zM212.77 171.83v1.49l-3.41-1.93v-1.49l3.41 1.93zm-2.64-3.21 1.57.89v6.68c0 .18.02.34.07.46.04.13.11.23.19.32s.17.16.28.22c.07.04.15.07.22.1s.13.04.17.06l.25 1.62c-.08-.01-.19-.04-.33-.08s-.32-.11-.52-.22c-.38-.2-.71-.45-.99-.75-.28-.31-.51-.66-.66-1.05-.16-.4-.23-.83-.23-1.3v-6.95zM216.32 181.13c-.58-.33-1.08-.76-1.5-1.3-.42-.54-.74-1.14-.97-1.82-.23-.68-.34-1.4-.34-2.15 0-.74.11-1.32.34-1.75.23-.43.55-.68.96-.76.41-.08.9.04 1.45.35.37.21.72.48 1.05.82.32.33.61.72.85 1.16.24.44.43.92.57 1.46.14.53.2 1.1.2 1.71v.55l-4.79-2.7v-1.23l3.31 1.87c0-.29-.05-.57-.15-.84-.1-.28-.23-.53-.41-.75-.17-.22-.37-.4-.6-.53-.24-.13-.45-.18-.63-.15s-.33.14-.43.31-.16.4-.16.68v1.17c0 .35.05.69.16 1.01.1.32.25.6.44.85s.42.45.68.6c.17.1.33.16.48.18a.5.5 0 0 0 .37-.07c.1-.07.18-.17.24-.32l1.45.94c-.07.4-.22.7-.45.9-.23.2-.52.29-.88.27s-.77-.2-1.24-.46zM144.12 126.04l1.69 6.99.07.04 1.69-5.09.72.41-2.09 6-.71-.4-2.09-8.36.72.41zM153.7 135.04c0 .76-.11 1.35-.32 1.78s-.51.69-.89.77c-.38.09-.81-.01-1.29-.28s-.92-.67-1.29-1.18c-.38-.51-.67-1.1-.89-1.78-.22-.67-.32-1.39-.32-2.15s.11-1.35.32-1.78c.22-.43.51-.69.89-.77.38-.09.81.01 1.29.28s.92.67 1.29 1.18c.38.51.67 1.11.89 1.78s.32 1.39.32 2.15zm-.67-.38c0-.62-.08-1.19-.25-1.71-.16-.52-.38-.97-.66-1.35s-.59-.66-.93-.86c-.34-.19-.65-.26-.93-.2s-.5.26-.66.6c-.16.33-.25.81-.25 1.43 0 .62.08 1.19.25 1.71s.38.97.66 1.35.59.66.93.86c.34.19.66.26.93.2.28-.06.5-.26.66-.6s.25-.81.25-1.43zM154.31 132.57v-.77l4.26 2.41v.77l-1.79-1.01v6.41l-.69-.39v-6.41l-1.78-1.01zM160.32 135.19v7.18l-.69-.39v-7.18l.69.39zM166.2 138.51v7.18l-.67-.38-3.1-7.38-.06-.03v5.63l-.69-.39v-7.18l.67.38 3.11 7.4.06.03v-5.65l.68.39zM171.46 143.73a4.61 4.61 0 0 0-.59-1.45c-.14-.21-.29-.4-.46-.57-.17-.17-.36-.31-.57-.42-.34-.19-.64-.25-.92-.19s-.49.26-.66.6c-.16.33-.24.81-.24 1.44s.08 1.19.25 1.71c.16.52.39.97.67 1.35.28.38.6.67.95.87.33.18.61.26.86.22.25-.04.44-.18.58-.42.14-.25.21-.59.21-1.03l.21.18-1.71-.97v-.77l2.16 1.22v.77c0 .59-.1 1.05-.3 1.37s-.47.51-.82.55-.75-.06-1.2-.32c-.5-.28-.94-.68-1.32-1.2-.38-.51-.68-1.11-.89-1.78-.21-.67-.32-1.39-.32-2.14 0-.57.06-1.04.18-1.43.12-.38.29-.68.51-.87s.48-.29.79-.29.64.1 1 .31c.3.17.58.38.84.64s.49.55.7.87.38.67.51 1.03c.14.36.23.73.28 1.11l-.7-.39zM143.89 144.93v-7.18l1.92 1.08c.45.25.81.56 1.09.92s.49.75.63 1.17c.14.42.21.84.21 1.27s-.07.77-.2 1.04c-.14.27-.35.43-.63.47-.28.04-.65-.06-1.09-.31l-1.38-.78v-.77l1.35.77c.3.17.55.24.73.21.19-.03.32-.13.4-.31.08-.18.13-.41.13-.7s-.04-.57-.13-.84c-.08-.27-.22-.53-.41-.76-.19-.23-.43-.44-.74-.61l-1.21-.68v6.41l-.67-.4zM153.64 146.85c0 .76-.11 1.35-.32 1.78s-.51.69-.89.77c-.38.09-.81-.01-1.29-.28s-.92-.67-1.29-1.18c-.38-.51-.67-1.11-.89-1.78-.22-.67-.32-1.39-.32-2.15s.11-1.35.32-1.78c.22-.43.51-.69.89-.77.38-.08.81.01 1.29.28s.92.67 1.29 1.18c.38.51.67 1.1.89 1.78s.32 1.39.32 2.15zm-.66-.38c0-.62-.08-1.19-.25-1.71-.16-.52-.38-.97-.66-1.35a3.12 3.12 0 0 0-.93-.86c-.34-.19-.65-.26-.93-.2s-.5.26-.66.6-.25.81-.25 1.43c0 .62.08 1.19.25 1.71.16.52.38.97.66 1.35s.59.66.93.86c.34.19.66.26.93.2.28-.06.5-.26.66-.6.17-.33.25-.81.25-1.43zM155.83 151.67l-1.55-8.05.7.39 1.19 6.52.06.03 1.21-5.16.78.44 1.21 6.53.06.03 1.19-5.17.7.39-1.55 6.3-.71-.4-1.25-6.43-.04-.03-1.25 5.01-.75-.4zM162.21 155.28v-7.18l3.43 1.94v.77l-2.74-1.55v2.42l2.56 1.45v.77l-2.56-1.45v2.44l2.78 1.57v.77l-3.47-1.95zM166.88 157.91v-7.18l1.92 1.08c.44.25.81.55 1.09.9s.5.73.63 1.14c.14.41.21.82.21 1.25s-.07.76-.21 1.01a.75.75 0 0 1-.63.41c-.28.03-.64-.09-1.08-.33l-1.55-.88v-.79l1.53.87c.3.17.55.25.73.25a.46.46 0 0 0 .41-.25c.08-.16.13-.38.13-.67s-.04-.56-.13-.83c-.08-.26-.22-.51-.41-.73-.19-.22-.43-.42-.74-.6l-1.21-.68v6.41l-.69-.38zm2.67-1.71 1.4 4.01-.8-.45-1.38-4 .78.44z" class="st3"/><path id="矩形_00000169527028069309256470000001918891734398171815_" d="M137.17 192.37c.62 0 1.15.76 1.15 1.64v1.52c0 .88-.53 1.64-1.15 1.64-.62 0-1.15-.76-1.15-1.64v-1.52c0-.94.53-1.64 1.15-1.64z" class="st74"/><radialGradient id="SVGID_00000147177904216083817120000004837725538818950835_" cx="105.629" cy="226.5" r="29.158" gradientTransform="matrix(1 0 0 .5898 0 92.912)" gradientUnits="userSpaceOnUse"><stop offset="0"/><stop offset="1" stop-color="#0d101d" stop-opacity="0"/></radialGradient><path fill="url(#SVGID_00000147177904216083817120000004837725538818950835_)" d="M130.63 212.43c-13.68-7.9-35.96-8-49.77-.23-13.81 7.77-13.91 20.48-.23 28.37s35.96 8 49.77.23c13.8-7.77 13.91-20.48.23-28.37z" opacity=".67"/><path fill="#3fa9bd" d="M144.13 176.4v-49.28c0-.23.02-.45.02-.68 0-22.91-18.57-41.48-41.48-41.48-22.91 0-41.48 18.57-41.48 41.48 0 .36.02.72.03 1.07v44.66h-.03v22.67a5.15 5.15 0 1 0 10.3 0v-.83c.56.36 1.13.72 1.74 1.07 1.83 1.06 3.79 1.99 5.85 2.81v8.2a5.15 5.15 0 1 0 10.3 0v-5.23c2.95.57 5.99.96 9.06 1.14v12.59a5.15 5.15 0 1 0 10.3 0v-12.7c3.39-.28 6.73-.8 9.93-1.55v6.36a5.15 5.15 0 1 0 10.3 0v-9.87c1-.47 1.97-.96 2.91-1.49.7-.39 1.35-.8 1.99-1.21v.71a5.15 5.15 0 1 0 10.3 0V176.4h-.04z"/><radialGradient id="SVGID_00000167369052210799374550000011701733099923263157_" cx="127.351" cy="102.379" r="106.685" gradientUnits="userSpaceOnUse"><stop offset=".012" stop-color="#dd78ce"/><stop offset=".494" stop-color="#a7589a"/><stop offset=".583" stop-color="#a0619e"/><stop offset=".727" stop-color="#8e79a8"/><stop offset=".908" stop-color="#709fb9"/><stop offset="1" stop-color="#5eb6c3"/></radialGradient><path fill="url(#SVGID_00000167369052210799374550000011701733099923263157_)" d="M144.13 176.4v-49.28c0-.23.02-.45.02-.68 0-22.91-18.57-41.48-41.48-41.48-22.91 0-41.48 18.57-41.48 41.48 0 .36.02.72.03 1.07v44.66h-.03v22.67a5.15 5.15 0 1 0 10.3 0v-.83c.56.36 1.13.72 1.74 1.07 1.83 1.06 3.79 1.99 5.85 2.81v8.2a5.15 5.15 0 1 0 10.3 0v-5.23c2.95.57 5.99.96 9.06 1.14v12.59a5.15 5.15 0 1 0 10.3 0v-12.7c3.39-.28 6.73-.8 9.93-1.55v6.36a5.15 5.15 0 1 0 10.3 0v-9.87c1-.47 1.97-.96 2.91-1.49.7-.39 1.35-.8 1.99-1.21v.71a5.15 5.15 0 1 0 10.3 0V176.4h-.04z"/><path id="矩形_00000056392486459201434140000004309812413417487002_" d="M65.08 162.55c1.12 0 2.09 1.38 2.09 2.99v14.25c0 1.61-.96 2.99-2.09 2.99-1.12 0-2.09-1.38-2.09-2.99v-14.25c0-1.61.97-2.99 2.09-2.99z" class="st74"/><path id="矩形_00000047747777044377615860000013395766816638228397_" d="M126.38 99.47c1.37-1.02 3.68-.37 5.02 1.41l2.29 3.06c1.34 1.78 1.31 4.19-.06 5.22-1.37 1.02-3.68.37-5.02-1.41l-2.29-3.06c-1.43-1.92-1.31-4.2.06-5.22z" class="st74"/><path id="矩形_00000030450932265954866670000009175473427830551991_" d="M82.48 199.14c1.12 0 2.09 1.38 2.09 2.99v2.76c0 1.61-.96 2.99-2.09 2.99-1.12 0-2.09-1.38-2.09-2.99v-2.76c0-1.72.96-2.99 2.09-2.99z" class="st74"/><path id="矩形_00000155824922256934778980000015744956832866406788_" d="M65.08 187.42c1.12 0 2.09 1.38 2.09 2.99v2.76c0 1.61-.96 2.99-2.09 2.99-1.12 0-2.09-1.38-2.09-2.99v-2.76c0-1.72.97-2.99 2.09-2.99z" class="st74"/><path id="矩形_00000046334811197028129200000005292998605554792117_" d="M102.67 207.88c1.12 0 2.09 1.38 2.09 2.99v2.76c0 1.61-.96 2.99-2.09 2.99-1.12 0-2.09-1.38-2.09-2.99v-2.76c0-1.72.96-2.99 2.09-2.99z" class="st74"/><path id="矩形_00000175313800328074635670000005835987111743203992_" d="M122.37 202.54c.89 0 1.66 1.1 1.66 2.37v2.19c0 1.28-.76 2.37-1.66 2.37-.89 0-1.66-1.1-1.66-2.37v-2.19c0-1.37.77-2.37 1.66-2.37z" class="st74"/><path id="椭圆形_00000047059214400394731210000002573708868156606615_" d="M114.54 148.92c4.06-.17 7.1-3.66 7.09-6 0-.94-.55-1.75-1.38-1.81-1.29-.13-3.23.7-5.72.8-2.31.1-3.78-.5-5.53-.42-1.84.08-1.75 2.22-1.47 3.06.65 2.3 2.86 4.55 7.01 4.37z" class="st78"/><path id="椭圆形_00000139974931408218708560000010494312685410277540_" d="M114.63 146.95c4.15-.17 7.19-3.38 7.19-5.63 0-.84-.55-1.57-1.38-1.63-1.29-.13-3.32.7-5.81.8-2.4.1-3.78-.5-5.62-.43s-1.75 2.13-1.48 2.87c.64 2.14 2.95 4.19 7.1 4.02z" class="st79"/><ellipse cx="97.59" cy="125.45" class="st79" rx="9.5" ry="9.1" transform="rotate(-55.453 97.594 125.452)"/><path id="形状结合_00000158728764820681574220000015796503697865619883_" d="M98.79 115.49c4.24-.18 7.66 3.98 7.66 9.22v1.12c0-5.33-3.33-9.59-7.48-9.42-4.15.17-7.46 4.61-7.46 10.04 0 1.03.09 2.05.37 2.98-.46-1.2-.74-2.59-.74-3.99 0-5.33 3.41-9.77 7.65-9.95z" class="st80"/><path id="形状结合_00000085213417394875148850000007585934158884386975_" d="M98.79 114.37c4.7-.2 8.58 4.41 8.58 10.31.01 5.89-3.86 10.83-8.57 11.02-4.7.2-8.58-4.41-8.58-10.31s3.78-10.82 8.57-11.02zm0 1.12c-4.24.18-7.65 4.62-7.64 9.86 0 5.24 3.42 9.4 7.66 9.22 4.24-.18 7.65-4.62 7.64-9.86 0-5.24-3.51-9.39-7.66-9.22z" class="st81"/><ellipse cx="128.31" cy="124.07" class="st79" rx="9.5" ry="9.1" transform="rotate(-55.453 128.31 124.071)"/><path id="形状结合_00000088852681981484420430000016684762649850791348_" d="M129.3 114.12c4.24-.18 7.66 3.98 7.66 9.22v1.12c0-5.33-3.33-9.59-7.48-9.42-4.15.17-7.46 4.61-7.46 10.04 0 1.03.09 2.05.37 2.98-.46-1.2-.74-2.59-.74-3.99 0-5.33 3.41-9.78 7.65-9.95z" class="st80"/><path id="形状结合_00000139283552735497278200000002046098872691043508_" d="M129.3 112.99c4.7-.2 8.58 4.41 8.58 10.31s-3.86 10.83-8.57 11.02c-4.7.2-8.58-4.41-8.58-10.31 0-5.89 3.78-10.82 8.57-11.02zm0 1.13c-4.24.18-7.65 4.62-7.64 9.86 0 5.24 3.42 9.4 7.66 9.22 4.24-.18 7.65-4.62 7.64-9.86 0-5.24-3.51-9.4-7.66-9.22z" class="st81"/><circle cx="102.57" cy="123.32" r="3.77" class="st78"/><circle cx="133.11" cy="122.19" r="3.77" class="st78"/></svg>