<svg xmlns="http://www.w3.org/2000/svg" xml:space="preserve" id="Слой_1" x="0" y="0" version="1.1" viewBox="0 0 290 574.88"><style>.st2{fill:#0d101d;stroke:#000;stroke-linecap:round;stroke-linejoin:round;stroke-miterlimit:10}.st3{fill:#30345e}.st5{fill-rule:evenodd;clip-rule:evenodd;fill:#0d101d}.st5,.st6{stroke:#000;stroke-linecap:round;stroke-linejoin:round;stroke-miterlimit:10}.st17,.st53,.st6,.st7,.st8,.st9{fill-rule:evenodd;clip-rule:evenodd}.st7{fill:#30345e;stroke:#000;stroke-linecap:round;stroke-linejoin:round;stroke-miterlimit:10}.st17,.st53,.st8,.st9{fill:#1ad4b3}.st17,.st53,.st9{fill:#fc4f83}.st17,.st53{fill:#40407c}.st53{fill:#30345e}.st74{opacity:.2563;enable-background:new}.st74,.st79,.st80,.st81{fill-rule:evenodd;clip-rule:evenodd;fill:#fff}.st80,.st81{fill:#afafb1}.st81{fill:#d3d3d3}</style><linearGradient id="SVGID_1_" x1="1982.215" x2="2028.389" y1="-2900.955" y2="-2900.955" gradientTransform="matrix(.763 .4367 0 1 -1295.6 2387.422)" gradientUnits="userSpaceOnUse"><stop offset="0" stop-color="#b4509c"/><stop offset="1" stop-color="#54b8c5"/></linearGradient><path fill="none" stroke="url(#SVGID_1_)" stroke-linecap="round" stroke-linejoin="round" stroke-miterlimit="10" stroke-width="5" d="m250.23 401-31.41-17.98v-59.85l31.41 17.98z"/><path d="m250.23 400.66-31.41-17.98v-59.85l31.41 17.98z" class="st2"/><path d="m226.33 340.29-1.5-.86-1.45-5.99 1.35.77.85 3.96.85-2.99 1.35.77-1.45 4.34zM231.47 342.58c-.41.26-.92.22-1.54-.13-.61-.35-1.13-.89-1.54-1.63-.41-.73-.62-1.49-.62-2.28 0-.78.21-1.31.62-1.57.41-.26.92-.22 1.54.13s1.13.89 1.54 1.63c.41.73.62 1.49.62 2.28 0 .78-.21 1.31-.62 1.57zm-2.22-2.27c.18.35.4.6.68.76.28.16.51.17.68.02.18-.15.26-.4.26-.77s-.09-.72-.26-1.07c-.18-.35-.4-.6-.68-.76-.28-.16-.51-.17-.68-.02-.18.15-.26.4-.26.77 0 .36.09.72.26 1.07zM234.55 345l-1.19-.68v-3.8l-1.06-.6v-1.36l3.3 1.89v1.36l-1.05-.6V345zM237.22 346.52l-1.19-.68v-5.16l1.19.68v5.16zM241.65 349.06l-1.15-.66-1.45-3.45v2.62l-1.19-.68v-5.16l1.23.7 1.37 3.23v-2.45l1.19.68v5.17zM244.24 350.63c-.61-.35-1.13-.89-1.54-1.61-.42-.73-.62-1.49-.62-2.29s.21-1.33.62-1.58c.42-.25.93-.2 1.54.15.43.25.79.58 1.08 1.01.29.42.5.87.65 1.33l-1 .1a2.32 2.32 0 0 0-.29-.62c-.13-.2-.27-.35-.44-.44-.28-.16-.51-.17-.69-.02-.18.15-.27.4-.27.77s.09.72.27 1.07c.18.35.41.6.69.77.11.06.22.11.34.13.12.02.21.02.27-.01v-.19l-.73-.42v-1.36l1.92 1.1v2.11c-.48.41-1.08.42-1.8 0zM225.11 346.97l-1.25-.72v-5.43l2.21 1.26c.47.27.83.65 1.1 1.16.26.51.39 1.02.39 1.56 0 .53-.13.89-.39 1.1-.26.2-.63.17-1.1-.09l-.96-.55v1.71zm.79-2.69c.11.06.2.08.27.05s.11-.12.11-.25c0-.14-.04-.27-.11-.38a.87.87 0 0 0-.27-.27l-.79-.45v.85l.79.45zM231.62 350.01c-.43.28-.97.23-1.62-.14-.65-.37-1.18-.94-1.62-1.71-.43-.77-.65-1.57-.65-2.39 0-.82.22-1.37.65-1.65.43-.28.97-.23 1.62.14.65.37 1.18.94 1.62 1.71.43.77.65 1.57.65 2.39 0 .82-.22 1.37-.65 1.65zm-2.33-2.39c.18.37.42.63.72.8.29.17.53.17.72.02.18-.16.28-.42.28-.81 0-.39-.09-.76-.28-1.13-.18-.37-.42-.63-.72-.8-.29-.17-.53-.17-.72-.02-.18.15-.28.42-.28.81 0 .39.09.76.28 1.13zM237.19 353.88l-1.32-.75-.53-3.38-.53 2.77-1.32-.75-1.19-6.1 1.4.8.53 3.62.63-2.96.94.54.63 3.68.53-3.02 1.41.81-1.18 4.74zM241.78 356.51l-3.14-1.8v-5.43l3.14 1.8v1.43l-1.89-1.08v.54l1.84 1.05v1.43l-1.84-1.05v.6l1.89 1.08v1.43zM246.04 358.95l-1.43-.82-.57-2.03-.45-.26v1.71l-1.25-.72v-5.43l2.21 1.26c.47.27.83.65 1.1 1.16.26.51.39 1.02.39 1.56 0 .42-.07.73-.22.92-.15.19-.32.29-.52.3l.74 2.35zm-1.69-4.11c.12.07.21.09.29.06.08-.03.12-.11.12-.25s-.04-.26-.12-.38a.964.964 0 0 0-.29-.28l-.76-.44v.85l.76.44z" class="st3"/><linearGradient id="SVGID_00000050652350641939389050000004349423647819531939_" x1="2014.617" x2="1996.027" y1="-2883.576" y2="-2899.218" gradientTransform="matrix(.763 .4367 0 1 -1295.6 2387.422)" gradientUnits="userSpaceOnUse"><stop offset="0" stop-color="#c1489f"/><stop offset="1" stop-color="#55bac7"/></linearGradient><path fill="url(#SVGID_00000050652350641939389050000004349423647819531939_)" d="M234.53 359.13c-5.26-3.01-9.53.14-9.53 7.04s4.27 14.94 9.53 17.95 9.53-.14 9.53-7.04-4.27-14.94-9.53-17.95zm4.05 20.65c-.1.09-.25.07-.43-.03-.12-.07-.23-.19-.33-.34-.1-.15-.17-.33-.23-.52l-3.07-11.75-1.13 3.03.55.31c.32.18.58.67.58 1.09v.02c0 .41-.26.61-.58.43l-1.02-.58-1.47 3.95c-.05.13-.13.22-.23.25-.09.04-.21.02-.33-.05-.18-.1-.33-.26-.43-.46-.1-.2-.16-.42-.16-.66 0-.1.01-.19.04-.27l1.34-3.47-.57-.33c-.32-.18-.58-.67-.58-1.09v-.01c0-.41.26-.61.58-.43l1.06.61 1.4-3.65c.18-.43.45-.53.81-.33l.28.16c.35.2.63.62.81 1.25l3.22 12.06c.03.11.04.21.04.32.01.25-.05.41-.15.49z"/><path d="M154.65 145.58 37.3 212.62v62.75l117.35-67.04z" class="st5"/><path fill="#cb3d61" fill-rule="evenodd" stroke="#000" stroke-linecap="round" stroke-linejoin="round" stroke-miterlimit="10" d="m21.92 203.92 15.38 8.32v63.13l-15.38-8.32z" clip-rule="evenodd"/><path d="m154.65 145.58-16.53-8.73-116.2 67.07 15.38 8.32z" class="st7"/><path d="m146.36 176.33-98.09 57.16v-7.68l98.09-57.16z" class="st6"/><path d="m145.53 175.67-96.65 56.44-.01-6.36 96.65-56.44z" class="st5"/><path d="m118.36 190.87-69.85 40.92v-5.23l69.84-40.75z" class="st8"/><path d="m146.36 191.96-98.09 57.16v-7.68l98.09-57.16z" class="st6"/><path d="m145.53 191.4-97.26 56.71-.01-6.36 97.26-56.71z" class="st5"/><path d="m139.77 194.22-91.28 53.15-.01-5.14 91.28-53.16z" class="st9"/><path d="M154.65 70.92 37.3 137.96v62.75l117.35-67.04z" class="st5"/><linearGradient id="SVGID_00000002345875112316600270000017459395471257080984_" x1="21.419" x2="37.797" y1="164.986" y2="164.986" gradientUnits="userSpaceOnUse"><stop offset="0" stop-color="#111422"/><stop offset="1" stop-color="#111422"/></linearGradient><path fill="#4aa089" fill-rule="evenodd" stroke="url(#SVGID_00000002345875112316600270000017459395471257080984_)" stroke-linecap="round" stroke-linejoin="round" stroke-miterlimit="10" d="m21.92 129.26 15.38 8.32v63.13l-15.38-8.32z" clip-rule="evenodd"/><path d="m154.65 70.92-16.53-8.73-116.2 67.07 15.38 8.32z" class="st7"/><path d="m146.36 101.67-98.09 57.16v-7.68l98.09-57.16z" class="st6"/><path d="m145.53 101.01-96.65 56.44-.01-6.36 96.65-56.44z" class="st5"/><path d="m118.36 116.21-69.85 40.92v-5.23l69.84-40.75z" class="st8"/><path d="m146.36 117.3-98.09 57.16v-7.68l98.09-57.16z" class="st6"/><path d="m145.53 116.74-97.26 56.71-.01-6.36 97.26-56.71z" class="st5"/><path d="m88.19 149.49-39.7 23.22-.01-5.14 39.7-23.23z" class="st9"/><path d="m206.39 483.4-17.63-10.18v-17.63l17.63 10.18z" class="st6"/><path d="m206.39 483.4 17.63-10.18v-17.63l-17.63 10.18z" class="st5"/><path d="m206.46 465.82-17.7-10.21 17.57-10.24 17.69 10.22z" class="st7"/><path id="矩形_00000134223625201386197550000013592830043926214535_" d="M200.55 451.51c.35.2.29.58-.12.82l-3.66 2.17c-.41.24-1.06.29-1.41.09-.35-.2-.29-.58.12-.82l3.66-2.17c.41-.25 1.06-.29 1.41-.09z" class="st17"/><path id="矩形_00000092415190126928752520000007818981323842384034_" d="M194.46 455.04c.35.2.29.58-.12.82l-.71.42c-.41.24-1.06.29-1.41.09-.35-.2-.29-.58.12-.82l.71-.42c.44-.26 1.06-.29 1.41-.09z" class="st17"/><path d="m240.35 483.4-17.63-10.18v-17.63l17.63 10.18z" class="st6"/><path d="m240.35 483.4 17.63-10.18v-17.63l-17.63 10.18z" class="st5"/><path d="m240.42 465.82-17.7-10.21 17.57-10.24 17.7 10.22z" class="st7"/><path id="矩形_00000151531626959249068850000013261281787584998588_" d="M234.51 451.51c.35.2.29.58-.12.82l-3.66 2.17c-.41.24-1.06.29-1.41.09-.35-.2-.29-.58.12-.82l3.66-2.17c.41-.25 1.06-.29 1.41-.09z" class="st17"/><path id="矩形_00000107574555858713476850000007010650395926493605_" d="M228.42 455.04c.35.2.29.58-.12.82l-.71.42c-.41.24-1.06.29-1.41.09-.35-.2-.29-.58.12-.82l.71-.42c.44-.26 1.06-.29 1.41-.09z" class="st17"/><path d="m222.72 456.01-17.63-10.18V428.2l17.63 10.18z" class="st6"/><path d="m222.72 456.01 17.63-10.18V428.2l-17.63 10.18z" class="st5"/><path d="m222.79 438.43-17.7-10.21 17.57-10.24 17.69 10.22z" class="st7"/><path id="矩形_00000150785586514549414370000009254289365450042790_" d="M216.88 424.11c.35.2.29.58-.12.82l-3.66 2.17c-.41.24-1.06.29-1.41.09-.35-.2-.29-.58.12-.82l3.66-2.17c.41-.24 1.06-.28 1.41-.09z" class="st17"/><path id="矩形_00000043452159041316537820000009548250516351736765_" d="M210.79 427.65c.35.2.29.58-.12.82l-.71.42c-.41.24-1.06.29-1.41.09-.35-.2-.29-.58.12-.82l.71-.42c.44-.26 1.06-.29 1.41-.09z" class="st17"/><path d="m254.62 309.65-94.23-54.31v-34.4l94.23 54.32z" class="st5"/><path d="m254.62 309.65 17.26-9.04v-34.39l-17.26 9.04z" class="st6"/><path d="m254.74 275.37-94.35-54.39 17.13-9.15 94.36 54.39z" class="st7"/><path d="M166.92 249.4v-17.3l5.4 3.05c1.04.59 1.92 1.34 2.65 2.25.73.91 1.29 1.92 1.68 3.02.39 1.1.58 2.22.58 3.37s-.2 2.05-.59 2.71c-.39.66-.96 1.02-1.7 1.09-.74.07-1.64-.19-2.69-.78l-3.44-1.95v-2.93l2.98 1.68c.56.31 1.02.45 1.38.41.36-.04.64-.23.82-.56.18-.34.27-.79.27-1.35 0-.58-.09-1.13-.27-1.66-.18-.53-.45-1.02-.82-1.47a4.94 4.94 0 0 0-1.39-1.15l-1.95-1.1v14.32l-2.91-1.65zM179.06 256.27v-12.98l2.76 1.56v2.26l.11.06c.19-.7.5-1.13.94-1.3.44-.16.95-.09 1.52.24.14.08.3.18.46.29.17.12.31.23.44.34v3.19c-.13-.13-.32-.28-.56-.45-.24-.17-.45-.32-.65-.43-.42-.24-.79-.33-1.12-.29-.33.04-.59.21-.78.51-.19.3-.28.71-.28 1.24v7.34l-2.84-1.58zM190.92 263.22a8.769 8.769 0 0 1-2.69-2.36c-.76-.99-1.34-2.1-1.75-3.34-.41-1.24-.61-2.52-.61-3.85 0-1.34.2-2.4.61-3.17s.99-1.23 1.75-1.36c.76-.13 1.65.09 2.69.68 1.04.59 1.94 1.38 2.69 2.36.76.99 1.34 2.1 1.75 3.34.41 1.24.62 2.53.62 3.87 0 1.33-.2 2.38-.62 3.15-.41.77-.99 1.23-1.75 1.36-.75.13-1.65-.1-2.69-.68zm.01-2.78c.47.27.87.32 1.18.16.32-.16.56-.49.72-.99.16-.5.24-1.13.24-1.88s-.08-1.47-.24-2.16-.4-1.29-.72-1.81c-.32-.52-.71-.92-1.18-1.18-.48-.27-.88-.32-1.2-.16-.32.16-.57.49-.73.99-.16.5-.24 1.13-.24 1.88s.08 1.47.24 2.16c.16.68.41 1.29.73 1.81.33.51.73.91 1.2 1.18zM197.84 271.74v-17.85l2.81 1.59v2.18l.13.07c.12-.28.31-.53.54-.76.24-.23.55-.36.94-.38.39-.03.87.12 1.44.45.75.42 1.44 1.06 2.07 1.91.63.85 1.14 1.88 1.52 3.08.38 1.2.57 2.55.57 4.04 0 1.45-.18 2.56-.55 3.35-.37.79-.87 1.26-1.5 1.41-.63.15-1.34.01-2.12-.43a5.27 5.27 0 0 1-1.41-1.14c-.39-.45-.7-.92-.95-1.41a8.98 8.98 0 0 1-.56-1.39l-.09-.05v6.95l-2.84-1.62zm2.79-9.78c0 .77.08 1.49.25 2.16.17.67.41 1.26.74 1.75.32.5.71.88 1.17 1.14.46.26.86.32 1.18.18.32-.14.56-.46.73-.94.17-.48.25-1.1.25-1.86 0-.75-.08-1.45-.25-2.12-.17-.66-.41-1.25-.73-1.75s-.72-.89-1.18-1.15c-.46-.26-.86-.33-1.17-.2-.32.13-.56.43-.73.9-.18.49-.26 1.12-.26 1.89zM214.39 276.48a8.769 8.769 0 0 1-2.69-2.36c-.76-.99-1.34-2.1-1.75-3.34-.41-1.24-.61-2.52-.61-3.85 0-1.34.2-2.4.61-3.17s.99-1.23 1.75-1.36c.76-.13 1.65.09 2.69.68 1.04.59 1.94 1.38 2.69 2.36.76.99 1.34 2.1 1.75 3.34.41 1.24.62 2.53.62 3.87 0 1.33-.2 2.38-.62 3.15-.41.77-.99 1.23-1.75 1.36-.75.13-1.65-.1-2.69-.68zm.01-2.78c.47.27.87.32 1.18.16.32-.16.56-.49.72-.99.16-.5.24-1.13.24-1.88s-.08-1.47-.24-2.16c-.16-.68-.4-1.29-.72-1.81-.32-.52-.71-.92-1.18-1.18-.48-.27-.88-.32-1.2-.16-.32.16-.57.49-.73.99-.16.5-.24 1.13-.24 1.88 0 .76.08 1.47.24 2.16.16.68.41 1.29.73 1.81.33.51.73.91 1.2 1.18zM229.85 275.68l-2.61-1.27a3.03 3.03 0 0 0-.29-.93c-.15-.31-.34-.6-.58-.88-.24-.27-.52-.5-.85-.69-.44-.25-.81-.34-1.12-.28-.3.06-.45.29-.45.68 0 .31.1.63.29.95.2.33.53.69 1.01 1.08l1.86 1.52c1 .82 1.74 1.66 2.23 2.51.49.85.74 1.75.74 2.68 0 .85-.2 1.48-.59 1.9-.39.42-.93.61-1.62.59-.69-.03-1.47-.3-2.36-.8-1.36-.77-2.44-1.74-3.25-2.91-.8-1.17-1.28-2.42-1.41-3.74l2.8 1.4c.08.57.29 1.09.61 1.54.33.46.74.83 1.25 1.12.5.28.9.39 1.21.31.3-.07.46-.3.46-.69 0-.33-.11-.66-.33-.99-.21-.33-.54-.68-.99-1.04l-1.78-1.45c-1-.82-1.75-1.68-2.24-2.58-.49-.9-.73-1.84-.73-2.8 0-.83.18-1.45.54-1.85.36-.4.86-.58 1.52-.54.65.04 1.42.31 2.3.81 1.3.73 2.32 1.66 3.07 2.77.75 1.13 1.19 2.32 1.31 3.58zM234.82 288.01c-.66-.37-1.24-.85-1.75-1.43a6.67 6.67 0 0 1-1.21-1.98c-.3-.74-.44-1.54-.44-2.39 0-.72.1-1.27.31-1.64.21-.37.49-.6.86-.7.36-.09.77-.09 1.24.02.46.11.95.27 1.45.5.6.26 1.08.46 1.44.59.36.14.63.18.8.13.17-.05.25-.21.25-.49v-.05a2.8 2.8 0 0 0-.4-1.47c-.27-.44-.64-.8-1.13-1.08-.51-.29-.92-.38-1.22-.26-.3.11-.5.36-.6.73l-2.64-1.76c.13-.71.4-1.25.79-1.6.39-.36.9-.51 1.52-.48.62.04 1.34.29 2.16.75.57.32 1.12.72 1.64 1.18.52.46.99.99 1.4 1.57.41.59.73 1.22.97 1.91s.35 1.42.35 2.19V291l-2.7-1.53v-1.8l-.08-.05c-.17.31-.39.54-.66.69-.28.15-.61.2-1 .16-.4-.01-.84-.17-1.35-.46zm.81-2.03c.42.24.79.34 1.11.31.32-.03.57-.17.76-.43.18-.26.27-.61.27-1.07v-1.38a.89.89 0 0 1-.36-.01c-.15-.03-.33-.07-.52-.13s-.38-.13-.58-.2c-.19-.07-.37-.14-.52-.2-.33-.13-.63-.19-.88-.2-.25-.01-.44.07-.58.22-.14.15-.21.39-.21.73 0 .49.14.94.43 1.36.29.43.65.76 1.08 1zM245.66 276.59v17.31l-2.85-1.61v-17.31l2.85 1.61z" class="st3"/><path id="矩形_00000065760141120277721960000007407733692327023493_" d="M176.94 398.1c.62 0 1.15.76 1.15 1.64v1.52c0 .88-.53 1.64-1.15 1.64-.62 0-1.15-.76-1.15-1.64v-1.52c0-.94.53-1.64 1.15-1.64z" class="st74"/><radialGradient id="SVGID_00000022551337973116568560000016081156108169579914_" cx="145.398" cy="432.231" r="29.158" gradientTransform="matrix(1 0 0 .5898 0 177.304)" gradientUnits="userSpaceOnUse"><stop offset="0"/><stop offset="1" stop-color="#0d101d" stop-opacity="0"/></radialGradient><path fill="url(#SVGID_00000022551337973116568560000016081156108169579914_)" d="M170.4 418.16c-13.68-7.9-35.96-8-49.77-.23s-13.91 20.48-.23 28.37 35.96 8 49.77.23c13.8-7.77 13.9-20.48.23-28.37z" opacity=".67"/><path fill="#3fa9bd" d="M183.9 382.13v-49.28c0-.23.02-.45.02-.68 0-22.91-18.57-41.48-41.48-41.48-22.91 0-41.48 18.57-41.48 41.48 0 .36.02.72.03 1.07v44.66h-.03v22.67a5.15 5.15 0 1 0 10.3 0v-.83c.56.36 1.13.72 1.74 1.07 1.83 1.06 3.79 1.99 5.85 2.81v8.2c0 2.84 2.3 5.15 5.15 5.15s5.15-2.31 5.15-5.15v-5.23c2.95.57 5.99.96 9.06 1.14v12.59c0 2.84 2.3 5.15 5.15 5.15s5.15-2.31 5.15-5.15v-12.7c3.39-.28 6.73-.8 9.93-1.55v6.36c0 2.84 2.3 5.15 5.15 5.15s5.15-2.31 5.15-5.15v-9.87c1-.47 1.97-.96 2.91-1.49.7-.39 1.35-.8 1.99-1.21v.71a5.15 5.15 0 1 0 10.3 0v-18.45h-.04z"/><radialGradient id="SVGID_00000070806152377565201050000009008318490380649607_" cx="167.12" cy="308.11" r="106.685" gradientUnits="userSpaceOnUse"><stop offset=".012" stop-color="#dd78ce"/><stop offset=".494" stop-color="#a7589a"/><stop offset=".583" stop-color="#a0619e"/><stop offset=".727" stop-color="#8e79a8"/><stop offset=".908" stop-color="#709fb9"/><stop offset="1" stop-color="#5eb6c3"/></radialGradient><path fill="url(#SVGID_00000070806152377565201050000009008318490380649607_)" d="M183.9 382.13v-49.28c0-.23.02-.45.02-.68 0-22.91-18.57-41.48-41.48-41.48-22.91 0-41.48 18.57-41.48 41.48 0 .36.02.72.03 1.07v44.66h-.03v22.67a5.15 5.15 0 1 0 10.3 0v-.83c.56.36 1.13.72 1.74 1.07 1.83 1.06 3.79 1.99 5.85 2.81v8.2c0 2.84 2.3 5.15 5.15 5.15s5.15-2.31 5.15-5.15v-5.23c2.95.57 5.99.96 9.06 1.14v12.59c0 2.84 2.3 5.15 5.15 5.15s5.15-2.31 5.15-5.15v-12.7c3.39-.28 6.73-.8 9.93-1.55v6.36c0 2.84 2.3 5.15 5.15 5.15s5.15-2.31 5.15-5.15v-9.87c1-.47 1.97-.96 2.91-1.49.7-.39 1.35-.8 1.99-1.21v.71a5.15 5.15 0 1 0 10.3 0v-18.45h-.04z"/><path id="矩形_00000135662615516335853820000013503481338508305056_" d="M104.85 368.29c1.12 0 2.09 1.38 2.09 2.99v14.25c0 1.61-.96 2.99-2.09 2.99-1.12 0-2.09-1.38-2.09-2.99v-14.25c0-1.61.96-2.99 2.09-2.99z" class="st74"/><path id="矩形_00000096780912262939275280000004055985941155579037_" d="M166.15 305.2c1.37-1.02 3.68-.37 5.02 1.41l2.29 3.06c1.34 1.78 1.31 4.19-.06 5.22-1.37 1.02-3.68.37-5.02-1.41l-2.29-3.06c-1.43-1.92-1.31-4.2.06-5.22z" class="st74"/><path id="矩形_00000176028396065896742730000011228679040670641055_" d="M122.25 404.87c1.12 0 2.09 1.38 2.09 2.99v2.76c0 1.61-.96 2.99-2.09 2.99-1.12 0-2.09-1.38-2.09-2.99v-2.76c0-1.72.96-2.99 2.09-2.99z" class="st74"/><path id="矩形_00000149345473496445934800000010644015215004940459_" d="M104.85 393.16c1.12 0 2.09 1.38 2.09 2.99v2.76c0 1.61-.96 2.99-2.09 2.99-1.12 0-2.09-1.38-2.09-2.99v-2.76c0-1.73.96-2.99 2.09-2.99z" class="st74"/><path id="矩形_00000045613586500521864700000003423628338764778627_" d="M142.43 413.61c1.12 0 2.09 1.38 2.09 2.99v2.76c0 1.61-.96 2.99-2.09 2.99-1.12 0-2.09-1.38-2.09-2.99v-2.76c.01-1.72.97-2.99 2.09-2.99z" class="st74"/><path id="矩形_00000109023347188982839510000005334169241393400470_" d="M162.14 408.27c.89 0 1.66 1.1 1.66 2.37v2.19c0 1.28-.76 2.37-1.66 2.37-.89 0-1.66-1.1-1.66-2.37v-2.19c0-1.37.76-2.37 1.66-2.37z" class="st74"/><path id="椭圆形_00000010998484129393030280000008043876928667707833_" d="M144.56 347.3c4-.17 6.99-3.61 6.99-5.91 0-.92-.55-1.73-1.36-1.79-1.27-.13-3.18.69-5.63.79-2.27.09-3.72-.49-5.45-.42-1.82.08-1.72 2.19-1.45 3.01.63 2.28 2.81 4.49 6.9 4.32z" class="st53"/><path id="椭圆形_00000169531313214462736900000011981511527900954021_" d="M144.64 345.36c4.09-.17 7.08-3.33 7.08-5.54 0-.83-.54-1.54-1.36-1.6-1.27-.13-3.27.69-5.72.79-2.36.1-3.72-.49-5.54-.42-1.82.07-1.73 2.1-1.45 2.82.63 2.09 2.9 4.12 6.99 3.95z" class="st79"/><ellipse cx="127.87" cy="324.19" class="st79" rx="9.36" ry="8.96" transform="rotate(-55.453 127.87 324.184)"/><path id="形状结合_00000096023715732755453380000018182519851205011611_" d="M129.05 314.38c4.18-.17 7.54 3.92 7.55 9.08v1.1c0-5.25-3.28-9.44-7.36-9.27-4.09.17-7.35 4.54-7.35 9.89 0 1.01.09 2.02.37 2.93-.46-1.18-.73-2.55-.73-3.93-.02-5.25 3.34-9.63 7.52-9.8z" class="st80"/><path id="形状结合_00000087373516281432697200000010851721812422429583_" d="M129.04 313.27c4.63-.19 8.45 4.35 8.45 10.15.01 5.8-3.8 10.66-8.43 10.85-4.63.19-8.45-4.35-8.45-10.15-.01-5.8 3.71-10.65 8.43-10.85zm.01 1.11c-4.18.17-7.53 4.55-7.53 9.71 0 5.16 3.37 9.26 7.55 9.08 4.18-.17 7.53-4.55 7.53-9.71-.01-5.16-3.47-9.25-7.55-9.08z" class="st81"/><ellipse cx="158.12" cy="322.83" class="st79" rx="9.36" ry="8.96" transform="rotate(-55.453 158.119 322.825)"/><path id="形状结合_00000141435561444678269870000015106674988207610780_" d="M159.1 313.03c4.18-.17 7.54 3.92 7.55 9.08v1.1c0-5.25-3.28-9.44-7.36-9.27s-7.35 4.54-7.35 9.89c0 1.01.09 2.02.37 2.93-.46-1.18-.73-2.55-.73-3.93-.02-5.25 3.34-9.63 7.52-9.8z" class="st80"/><path id="形状结合_00000018205315481854030610000017478050138725086651_" d="M159.09 311.92c4.63-.19 8.45 4.35 8.45 10.15.01 5.8-3.8 10.66-8.43 10.85-4.63.19-8.45-4.35-8.45-10.15-.01-5.8 3.71-10.65 8.43-10.85zm.01 1.11c-4.18.17-7.53 4.55-7.53 9.71 0 5.16 3.37 9.26 7.55 9.08s7.53-4.55 7.53-9.71c-.01-5.16-3.47-9.26-7.55-9.08z" class="st81"/><circle cx="126.07" cy="321.8" r="3.71" class="st53"/><circle cx="156.15" cy="320.68" r="3.71" class="st53"/><path d="M62.34 323.93c-4.1 0-7.96-1.6-10.86-4.5-2.9-2.9-4.5-6.76-4.5-10.86s1.6-7.96 4.5-10.86l.18-.17 15.99-16c1.03-1.04 2.53-1.6 4.34-1.6.96 0 2.01.16 3.11.46 6.7 1.87 13.6 8.84 15.4 15.54.84 3.13.43 5.72-1.13 7.31l-.26.26-15.62 15.62-.28.3c-2.91 2.9-6.77 4.5-10.87 4.5z" class="st2"/><path fill="#5dc29d" d="M71.99 280.31c.93 0 1.94.15 3.01.45 6.58 1.84 13.38 8.69 15.14 15.28.8 3 .43 5.47-1.04 6.96l-.19.2-15.7 15.7-.09.1c-.06.06-.11.12-.18.18-2.83 2.83-6.6 4.39-10.6 4.39-4.01 0-7.77-1.56-10.6-4.39-2.83-2.83-4.39-6.6-4.39-10.6s1.56-7.77 4.39-10.6l.09-.09.09-.09 15.99-15.99c.96-.98 2.37-1.5 4.08-1.5m0-.74c-1.95 0-3.52.61-4.6 1.7l-15.99 16c-.06.06-.12.11-.18.18-6.14 6.14-6.14 16.11 0 22.25a15.69 15.69 0 0 0 11.12 4.61c4.03 0 8.05-1.54 11.12-4.61.1-.1.19-.2.28-.3l15.88-15.88c1.6-1.61 2.13-4.29 1.23-7.67-1.83-6.82-8.84-13.89-15.65-15.8-1.16-.32-2.23-.48-3.21-.48z"/><radialGradient id="SVGID_00000052096498637673089550000008807379609211776423_" cx="103.262" cy="-5120.014" r="36.046" gradientTransform="matrix(1 0 0 -1 0 -4846.757)" gradientUnits="userSpaceOnUse"><stop offset=".171" stop-color="#7cc7e6"/><stop offset=".542" stop-color="#5dc29d"/><stop offset=".665" stop-color="#5cbc9d"/><stop offset=".863" stop-color="#5ead9c"/><stop offset="1" stop-color="#649f9b"/></radialGradient><path fill="url(#SVGID_00000052096498637673089550000008807379609211776423_)" d="M105.36 287.78c.06-.06.12-.11.18-.18 6.14-6.14 6.14-16.11 0-22.25-6.14-6.14-16.11-6.14-22.25 0-.1.1-.19.2-.28.3l-15.88 15.88c-1.6 1.61-2.13 4.29-1.23 7.67 1.83 6.82 8.84 13.89 15.65 15.8 3.45.96 6.18.42 7.81-1.23l16-15.99z"/><radialGradient id="SVGID_00000144318066122662110050000013165198299086391184_" cx="231.516" cy="-5042.852" r="28.459" gradientTransform="matrix(1 0 0 -1 0 -4846.757)" gradientUnits="userSpaceOnUse"><stop offset="0" stop-color="#cedae8"/><stop offset=".542" stop-color="#e85c83"/><stop offset=".653" stop-color="#e05b82"/><stop offset=".831" stop-color="#ca5981"/><stop offset="1" stop-color="#b05680"/></radialGradient><path fill="url(#SVGID_00000144318066122662110050000013165198299086391184_)" d="M202.93 208.64c.05.07.09.14.14.21 4.94 7.15 14.74 8.94 21.89 4s8.94-14.74 4-21.89l-.24-.33-12.76-18.48c-1.3-1.86-3.84-2.87-7.32-2.59-7.04.57-15.25 6.19-18.36 12.56-1.57 3.22-1.53 6-.2 7.9l12.85 18.62z"/><path d="M196.48 192.59c-2.68 0-4.77-.88-5.89-2.48l-.25-.36-12.51-18.11-.24-.33c-4.81-6.97-3.06-16.56 3.91-21.37 2.58-1.78 5.59-2.72 8.72-2.72 5.06 0 9.79 2.48 12.66 6.63l.13.21 12.86 18.61c1.31 1.87 1.23 4.55-.23 7.53-3.05 6.25-11.15 11.79-18.05 12.35-.39.03-.76.04-1.11.04h0z" class="st2"/><path fill="#e85c83" d="M190.21 147.58c4.93 0 9.55 2.42 12.35 6.47l.07.1.07.11 12.85 18.61c1.23 1.76 1.14 4.3-.26 7.16-3 6.15-10.96 11.59-17.75 12.14-.36.03-.72.04-1.07.04-2.56 0-4.54-.82-5.59-2.32l-.16-.23-12.61-18.24-.08-.11c-.05-.07-.1-.13-.15-.2-2.28-3.3-3.13-7.28-2.41-11.22s2.93-7.36 6.23-9.64c2.52-1.75 5.46-2.67 8.51-2.67m0-.74c-3.08 0-6.2.9-8.93 2.79-7.15 4.94-8.94 14.74-4 21.89l.24.33 12.76 18.48c1.16 1.65 3.29 2.63 6.19 2.63.36 0 .74-.02 1.13-.05 7.04-.57 15.25-6.19 18.36-12.56 1.57-3.22 1.53-6 .2-7.9l-12.85-18.61c-.05-.07-.09-.14-.14-.21a15.756 15.756 0 0 0-12.96-6.79z"/></svg>