<svg xmlns="http://www.w3.org/2000/svg" xml:space="preserve" id="Слой_1" x="0" y="0" version="1.1" viewBox="0 0 290 269.62"><style>.st2{fill:#0d101d;stroke:#000;stroke-linecap:round;stroke-linejoin:round;stroke-miterlimit:10}.st3{fill:#30345e}.st5{fill:#0d101d;stroke:#000;stroke-linecap:round;stroke-linejoin:round;stroke-miterlimit:10}.st17,.st5,.st53,.st7{fill-rule:evenodd;clip-rule:evenodd}.st7{fill:#30345e;stroke:#000;stroke-linecap:round;stroke-linejoin:round;stroke-miterlimit:10}.st17,.st53{fill:#40407c}.st53{fill:#30345e}.st74{opacity:.2563;enable-background:new}.st131,.st132,.st135,.st136,.st74,.st79{fill-rule:evenodd;clip-rule:evenodd;fill:#fff}.st131,.st132,.st135,.st136{fill:#aeaeb0}.st132,.st135,.st136{fill:#d2d2d2}.st135,.st136{fill:#63d0b3}.st136{fill:#e85c83}</style><path d="M99.82 59.81 25.1 102.49v39.95l74.72-42.68z" class="st5"/><path fill="#cb3d61" fill-rule="evenodd" stroke="#000" stroke-linecap="round" stroke-linejoin="round" stroke-miterlimit="10" d="m15.31 96.95 9.79 5.3v40.19l-9.79-5.29z" clip-rule="evenodd"/><path d="M99.82 59.81 89.3 54.25l-73.99 42.7 9.79 5.3z" class="st7"/><path d="m94.54 79.38-62.45 36.4v-4.89l62.45-36.4z" class="st5"/><path d="M94.01 78.96 32.48 114.9l-.01-4.05 61.54-35.94z" class="st5"/><path d="m76.72 88.64-44.48 26.05v-3.33l44.47-25.94z" class="st135"/><path d="m94.54 89.34-62.45 36.39v-4.89l62.45-36.4z" class="st5"/><path d="m94.02 88.98-61.93 36.1v-4.04l61.92-36.11z" class="st5"/><path d="m90.35 90.77-58.12 33.85-.01-3.28L90.34 87.5z" class="st136"/><path d="M99.82 12.27 25.1 54.95V94.9l74.72-42.68z" class="st5"/><linearGradient id="SVGID_1_" x1="14.81" x2="25.6" y1="72.16" y2="72.16" gradientUnits="userSpaceOnUse"><stop offset="0" stop-color="#111422"/><stop offset="1" stop-color="#111422"/></linearGradient><path fill="#4aa089" fill-rule="evenodd" stroke="url(#SVGID_1_)" stroke-linecap="round" stroke-linejoin="round" stroke-miterlimit="10" d="m15.31 49.42 9.79 5.29V94.9l-9.79-5.29z" clip-rule="evenodd"/><path d="M99.82 12.27 89.3 6.71 15.31 49.42l9.79 5.29z" class="st7"/><path d="M94.54 31.85 32.09 68.24v-4.89l62.45-36.4z" class="st5"/><path d="M94.01 31.42 32.48 67.36l-.01-4.05 61.54-35.93z" class="st5"/><path d="M76.72 41.1 32.24 67.16v-3.33l44.47-25.95z" class="st135"/><path d="M94.54 41.8 32.09 78.2v-4.9l62.45-36.39z" class="st5"/><path d="M94.02 41.44 32.09 77.55V73.5l61.92-36.1z" class="st5"/><path d="M57.5 62.29 32.23 77.08l-.01-3.27L57.5 59.02z" class="st136"/><path d="m200.31 260.52-15.05-8.68v-15.05l15.05 8.69zM200.31 260.52l15.05-8.68v-15.05l-15.05 8.69z" class="st5"/><path d="m200.37 245.52-15.11-8.72 15-8.74 15.1 8.72z" class="st7"/><path id="矩形_00000042004051606574791380000008771440301722643088_" d="M195.33 233.3c.3.17.25.49-.11.7l-3.12 1.85c-.35.21-.91.24-1.2.08-.3-.17-.25-.49.11-.7l3.12-1.85c.34-.22.9-.25 1.2-.08z" class="st17"/><path id="矩形_00000070100527487689838170000011831450539835919251_" d="M190.12 236.32c.3.17.25.49-.11.7l-.6.36c-.35.21-.91.24-1.2.08-.3-.17-.25-.49.11-.7l.6-.36c.38-.23.91-.25 1.2-.08z" class="st17"/><path d="m229.3 260.52-15.05-8.68v-15.05l15.05 8.69zM229.3 260.52l15.05-8.68v-15.05l-15.05 8.69z" class="st5"/><path d="m229.36 245.52-15.11-8.72 15-8.74 15.1 8.72z" class="st7"/><path id="矩形_00000140711294385447934040000015095660068350400165_" d="M224.32 233.3c.3.17.25.49-.11.7l-3.12 1.85c-.35.21-.91.24-1.2.08-.3-.17-.25-.49.11-.7l3.12-1.85c.34-.22.9-.25 1.2-.08z" class="st17"/><path id="矩形_00000098213039326914801500000002529698565098785440_" d="M219.12 236.32c.3.17.25.49-.11.7l-.6.36c-.35.21-.91.24-1.2.08-.3-.17-.25-.49.11-.7l.6-.36c.37-.23.9-.25 1.2-.08z" class="st17"/><path d="m214.25 237.14-15.05-8.69v-15.04l15.05 8.68zM214.25 237.14l15.05-8.69v-15.04l-15.05 8.68z" class="st5"/><path d="m214.31 222.14-15.11-8.72 15-8.74 15.1 8.72z" class="st7"/><path id="矩形_00000092418080420685085240000004800107245259861929_" d="M209.27 209.92c.3.17.25.49-.11.7l-3.12 1.85c-.35.21-.91.24-1.2.08-.3-.17-.25-.49.11-.7l3.12-1.85c.34-.22.9-.25 1.2-.08z" class="st17"/><path id="矩形_00000033369326025964444050000001328355637824015547_" d="M204.07 212.94c.3.17.25.49-.11.7l-.6.36c-.35.21-.91.24-1.2.08-.3-.17-.25-.49.11-.7l.6-.36c.37-.23.9-.25 1.2-.08z" class="st17"/><path d="M38.44 190.6c-4.1 0-7.96-1.6-10.86-4.5s-4.5-6.76-4.5-10.86 1.6-7.96 4.5-10.86l.18-.17 15.99-16c1.03-1.04 2.53-1.6 4.34-1.6.96 0 2.01.16 3.11.46 6.7 1.87 13.6 8.84 15.4 15.54.84 3.13.43 5.72-1.13 7.31l-.26.26-15.62 15.62-.28.3c-2.91 2.9-6.77 4.5-10.87 4.5z" class="st2"/><path fill="#5dc29d" d="M48.09 146.98c.93 0 1.94.15 3.01.45 6.58 1.84 13.38 8.69 15.14 15.28.8 3 .43 5.47-1.04 6.96l-.19.2-15.7 15.7-.09.1c-.06.06-.11.12-.18.18-2.83 2.83-6.6 4.39-10.6 4.39-4.01 0-7.77-1.56-10.6-4.39s-4.39-6.6-4.39-10.6 1.56-7.77 4.39-10.6l.09-.09.09-.09 15.99-15.99c.96-.98 2.37-1.5 4.08-1.5m0-.74c-1.95 0-3.52.61-4.6 1.7l-15.99 16c-.06.06-.12.11-.18.18-6.14 6.14-6.14 16.11 0 22.25a15.69 15.69 0 0 0 11.12 4.61c4.03 0 8.05-1.54 11.12-4.61.1-.1.19-.2.28-.3l15.88-15.88c1.6-1.61 2.13-4.29 1.23-7.67-1.83-6.82-8.84-13.89-15.65-15.8-1.16-.32-2.23-.48-3.21-.48z"/><radialGradient id="SVGID_00000183959129148555595870000008587697357896059564_" cx="79.358" cy="-6377.181" r="36.046" gradientTransform="matrix(1 0 0 -1 0 -6237.25)" gradientUnits="userSpaceOnUse"><stop offset=".171" stop-color="#7cc7e6"/><stop offset=".542" stop-color="#5dc29d"/><stop offset=".665" stop-color="#5cbc9d"/><stop offset=".863" stop-color="#5ead9c"/><stop offset="1" stop-color="#649f9b"/></radialGradient><path fill="url(#SVGID_00000183959129148555595870000008587697357896059564_)" d="M81.46 154.45c.06-.06.12-.11.18-.18 6.14-6.14 6.14-16.11 0-22.25s-16.11-6.14-22.25 0c-.1.1-.19.2-.28.3L43.23 148.2c-1.6 1.61-2.13 4.29-1.23 7.67 1.83 6.82 8.84 13.89 15.65 15.8 3.45.96 6.18.42 7.81-1.23l16-15.99z"/><radialGradient id="SVGID_00000121238437038551557550000011177109970444993445_" cx="227.609" cy="-6301.519" r="28.459" gradientTransform="matrix(1 0 0 -1 0 -6237.25)" gradientUnits="userSpaceOnUse"><stop offset="0" stop-color="#cedae8"/><stop offset=".542" stop-color="#e85c83"/><stop offset=".653" stop-color="#e05b82"/><stop offset=".831" stop-color="#ca5981"/><stop offset="1" stop-color="#b05680"/></radialGradient><path fill="url(#SVGID_00000121238437038551557550000011177109970444993445_)" d="M199.02 76.81c.05.07.09.14.14.21 4.94 7.15 14.74 8.94 21.89 4s8.94-14.74 4-21.89l-.24-.33-12.76-18.48c-1.3-1.86-3.84-2.87-7.32-2.59-7.04.57-15.25 6.19-18.36 12.56-1.57 3.22-1.53 6-.2 7.9l12.85 18.62z"/><path d="M192.57 60.76c-2.68 0-4.77-.88-5.89-2.48l-.25-.36-12.51-18.11-.24-.33c-4.81-6.97-3.06-16.56 3.91-21.37 2.58-1.78 5.59-2.72 8.72-2.72 5.06 0 9.79 2.48 12.66 6.63l.13.21 12.86 18.61c1.31 1.87 1.23 4.55-.23 7.53-3.05 6.25-11.15 11.79-18.05 12.35-.39.03-.76.04-1.11.04h0z" class="st2"/><path fill="#e85c83" d="M186.3 15.75c4.93 0 9.55 2.42 12.35 6.47l.07.1.07.11 12.85 18.61c1.23 1.76 1.14 4.3-.26 7.16-3 6.15-10.96 11.59-17.75 12.14-.36.03-.72.04-1.07.04-2.56 0-4.54-.82-5.59-2.32l-.16-.23-12.61-18.24-.08-.11c-.05-.07-.1-.13-.15-.2-2.28-3.3-3.13-7.28-2.41-11.22s2.93-7.36 6.23-9.64c2.52-1.75 5.46-2.67 8.51-2.67m0-.74c-3.08 0-6.2.9-8.93 2.79-7.15 4.94-8.94 14.74-4 21.89l.24.33 12.76 18.48c1.16 1.65 3.29 2.63 6.19 2.63.36 0 .74-.02 1.13-.05 7.04-.57 15.25-6.19 18.36-12.56 1.57-3.22 1.53-6 .2-7.9L199.4 22.01c-.05-.07-.09-.14-.14-.21a15.756 15.756 0 0 0-12.96-6.79z"/><path d="m261.33 184.76-72.94-42.04v-26.63l72.94 42.05zM261.33 184.76l13.36-6.99v-26.63l-13.36 7z" class="st5"/><path d="m261.42 158.22-73.03-42.1 13.26-7.08 73.04 42.1z" class="st7"/><path d="M193.44 138.12v-13.4l4.18 2.36c.8.45 1.49 1.03 2.06 1.74.57.71 1 1.48 1.3 2.34.3.85.45 1.72.45 2.61s-.15 1.59-.46 2.1c-.3.51-.74.79-1.32.85-.57.06-1.27-.15-2.08-.61l-2.67-1.51v-2.27l2.3 1.3c.43.24.79.35 1.07.32.28-.03.49-.18.63-.43.14-.26.21-.61.21-1.05 0-.45-.07-.87-.21-1.29-.14-.41-.35-.79-.63-1.14s-.64-.64-1.08-.89l-1.51-.85v11.08l-2.24-1.26zM202.84 143.44v-10.05l2.14 1.21v1.75l.08.05c.15-.54.39-.88.73-1 .34-.13.73-.07 1.18.19.11.06.23.14.36.23s.24.18.34.26v2.47c-.1-.1-.25-.21-.43-.35-.18-.13-.35-.24-.5-.33-.33-.18-.61-.26-.87-.23-.25.03-.45.17-.6.4-.15.23-.22.55-.22.96v5.68l-2.21-1.24zM212.02 148.82c-.8-.45-1.5-1.06-2.08-1.83a8.695 8.695 0 0 1-1.35-2.58c-.32-.96-.48-1.95-.48-2.98 0-1.04.16-1.86.48-2.46.32-.6.77-.95 1.35-1.05.59-.1 1.28.07 2.08.53.8.45 1.5 1.06 2.08 1.83.58.76 1.04 1.63 1.35 2.58.32.96.48 1.96.48 2.99s-.16 1.84-.48 2.44c-.32.6-.77.95-1.35 1.05-.58.11-1.28-.07-2.08-.52zm.01-2.15c.37.21.67.25.92.12s.43-.38.56-.77.19-.87.19-1.46-.06-1.14-.19-1.67-.31-1-.56-1.4-.55-.71-.92-.92c-.37-.21-.68-.25-.93-.13s-.44.38-.56.77c-.13.39-.19.87-.19 1.46 0 .58.06 1.14.19 1.67s.31 1 .56 1.4c.25.41.56.72.93.93zM217.37 155.41V141.6l2.17 1.23v1.69l.1.06c.1-.22.24-.41.42-.59s.43-.28.72-.3c.3-.02.67.09 1.12.35.58.33 1.12.82 1.61 1.48s.88 1.45 1.18 2.38c.29.93.44 1.97.44 3.12 0 1.12-.14 1.99-.43 2.59-.28.61-.67.97-1.16 1.09s-1.03.01-1.64-.33a4.13 4.13 0 0 1-1.09-.88c-.3-.35-.54-.71-.73-1.09-.19-.38-.33-.74-.43-1.07l-.07-.04v5.38l-2.21-1.26zm2.16-7.57c0 .6.07 1.16.2 1.67.13.52.32.97.57 1.36s.55.68.91.88c.36.2.66.25.91.14s.44-.35.57-.73c.13-.37.19-.85.19-1.44 0-.58-.06-1.13-.19-1.64s-.32-.96-.56-1.35c-.25-.39-.55-.69-.92-.89-.36-.2-.66-.25-.91-.15s-.44.33-.57.7-.2.85-.2 1.45zM230.19 159.08c-.8-.45-1.5-1.06-2.08-1.83a8.695 8.695 0 0 1-1.35-2.58c-.32-.96-.48-1.95-.48-2.98 0-1.04.16-1.86.48-2.46.32-.6.77-.95 1.35-1.05.59-.1 1.28.07 2.08.53.8.45 1.5 1.06 2.08 1.83.58.76 1.04 1.63 1.35 2.58.32.96.48 1.96.48 2.99s-.16 1.84-.48 2.44c-.32.6-.77.95-1.35 1.05-.58.11-1.28-.06-2.08-.52zm.01-2.15c.37.21.67.25.92.12s.43-.38.56-.77.19-.87.19-1.46-.06-1.14-.19-1.67-.31-1-.56-1.4-.55-.71-.92-.92c-.37-.21-.68-.25-.93-.13s-.44.38-.56.77c-.13.39-.19.87-.19 1.46 0 .58.06 1.14.19 1.67s.31 1 .56 1.4c.25.41.56.72.93.93zM242.16 158.47l-2.02-.98c-.03-.24-.11-.48-.22-.72s-.26-.47-.45-.68a2.3 2.3 0 0 0-.66-.53c-.34-.19-.63-.27-.86-.22s-.35.22-.35.52c0 .24.08.49.23.74s.41.53.78.84l1.44 1.18c.77.64 1.35 1.29 1.73 1.94.38.66.57 1.35.57 2.08 0 .66-.15 1.15-.46 1.47-.31.32-.72.48-1.25.45-.53-.02-1.14-.23-1.83-.62-1.05-.6-1.89-1.35-2.51-2.25-.62-.91-.99-1.87-1.09-2.89l2.17 1.08c.06.44.22.84.48 1.19.25.35.58.64.97.86s.7.3.94.24.36-.23.36-.53c0-.26-.09-.51-.25-.77-.17-.26-.42-.53-.77-.81l-1.38-1.12c-.78-.64-1.35-1.3-1.73-2-.38-.7-.57-1.42-.57-2.17 0-.65.14-1.12.42-1.43s.67-.45 1.18-.42c.5.03 1.1.24 1.78.63 1 .57 1.8 1.28 2.37 2.15.54.87.88 1.79.98 2.77zM246 168.01c-.51-.29-.96-.66-1.36-1.1-.4-.45-.71-.96-.94-1.53-.23-.57-.34-1.19-.34-1.85 0-.56.08-.98.24-1.27.16-.29.38-.47.66-.54.28-.07.6-.07.96.02.36.08.73.21 1.13.39.46.2.84.35 1.12.46s.49.14.62.1c.13-.04.19-.16.19-.38v-.04c0-.41-.1-.79-.31-1.14-.21-.34-.5-.62-.87-.83-.4-.22-.71-.29-.95-.2-.23.09-.39.28-.47.56l-2.04-1.36c.1-.55.31-.97.61-1.24.3-.28.7-.4 1.18-.37s1.04.22 1.68.58c.44.25.87.55 1.27.91s.77.77 1.08 1.22c.32.45.57.95.75 1.48s.27 1.1.27 1.7v6.78l-2.09-1.18v-1.39l-.06-.04c-.13.24-.3.42-.51.54-.21.12-.47.16-.77.12-.31-.05-.66-.18-1.05-.4zm.63-1.57c.32.18.61.26.86.24.25-.02.44-.13.59-.33.14-.2.21-.48.21-.83v-1.07c-.07.02-.16.02-.28-.01-.12-.02-.25-.06-.4-.1l-.45-.15c-.15-.06-.28-.11-.4-.15-.26-.1-.48-.15-.68-.15-.19 0-.34.05-.45.17s-.16.31-.16.57c0 .38.11.73.33 1.05.21.31.49.57.83.76zM254.4 159.17v13.4l-2.21-1.25v-13.4l2.21 1.25z" class="st3"/><path id="矩形_00000031179434780768795990000018213924102911406484_" d="M174 197.39c.62 0 1.15.76 1.15 1.64v1.52c0 .88-.53 1.64-1.15 1.64-.62 0-1.15-.76-1.15-1.64v-1.52c0-.95.53-1.64 1.15-1.64z" class="st74"/><radialGradient id="SVGID_00000005256541124795357010000017397864251846129306_" cx="142.45" cy="-8930.547" r="29.158" gradientTransform="matrix(1 0 0 -.5898 0 -5035.727)" gradientUnits="userSpaceOnUse"><stop offset="0"/><stop offset="1" stop-color="#0d101d" stop-opacity="0"/></radialGradient><path fill="url(#SVGID_00000005256541124795357010000017397864251846129306_)" d="M167.45 217.44c-13.68-7.9-35.96-8-49.77-.23s-13.91 20.48-.23 28.37c13.68 7.9 35.96 8 49.77.23 13.81-7.77 13.91-20.47.23-28.37z" opacity=".67"/><path fill="#5ea6b9" d="M180.96 181.41v-49.28c0-.23.02-.45.02-.68 0-22.91-18.57-41.48-41.48-41.48s-41.48 18.57-41.48 41.48c0 .36.02.72.03 1.07v44.66h-.03v22.67a5.15 5.15 0 1 0 10.3 0v-.83c.56.36 1.13.72 1.74 1.07 1.83 1.06 3.79 1.99 5.85 2.81v8.2c0 2.84 2.3 5.15 5.15 5.15s5.15-2.31 5.15-5.15v-5.23c2.95.57 5.99.96 9.06 1.14v12.59c0 2.84 2.3 5.15 5.15 5.15s5.15-2.31 5.15-5.15v-12.7c3.39-.28 6.73-.8 9.93-1.55v6.36c0 2.84 2.3 5.15 5.15 5.15s5.15-2.31 5.15-5.15v-9.87c1-.47 1.97-.96 2.91-1.49.7-.39 1.35-.8 1.99-1.21v.71a5.15 5.15 0 1 0 10.3 0V181.4l-.04.01z"/><radialGradient id="SVGID_00000000942768731040926480000000856649775591137170_" cx="164.178" cy="-6344.642" r="106.685" gradientTransform="matrix(1 0 0 -1 0 -6237.25)" gradientUnits="userSpaceOnUse"><stop offset=".012" stop-color="#cf7dc9"/><stop offset=".494" stop-color="#9c5c96"/><stop offset=".583" stop-color="#96649a"/><stop offset=".727" stop-color="#8a7aa4"/><stop offset=".908" stop-color="#7a9db5"/><stop offset="1" stop-color="#74b3c0"/></radialGradient><path fill="url(#SVGID_00000000942768731040926480000000856649775591137170_)" d="M180.96 181.41v-49.28c0-.23.02-.45.02-.68 0-22.91-18.57-41.48-41.48-41.48s-41.48 18.57-41.48 41.48c0 .36.02.72.03 1.07v44.66h-.03v22.67a5.15 5.15 0 1 0 10.3 0v-.83c.56.36 1.13.72 1.74 1.07 1.83 1.06 3.79 1.99 5.85 2.81v8.2c0 2.84 2.3 5.15 5.15 5.15s5.15-2.31 5.15-5.15v-5.23c2.95.57 5.99.96 9.06 1.14v12.59c0 2.84 2.3 5.15 5.15 5.15s5.15-2.31 5.15-5.15v-12.7c3.39-.28 6.73-.8 9.93-1.55v6.36c0 2.84 2.3 5.15 5.15 5.15s5.15-2.31 5.15-5.15v-9.87c1-.47 1.97-.96 2.91-1.49.7-.39 1.35-.8 1.99-1.21v.71a5.15 5.15 0 1 0 10.3 0V181.4l-.04.01z"/><path id="矩形_00000098204464062688485750000015013192302783954343_" d="M101.91 167.57c1.12 0 2.09 1.38 2.09 2.99v14.25c0 1.61-.96 2.99-2.09 2.99-1.12 0-2.09-1.38-2.09-2.99v-14.25c0-1.61.96-2.99 2.09-2.99z" class="st74"/><path id="矩形_00000054982054549034475680000005697731505925596333_" d="M163.21 104.48c1.37-1.02 3.68-.37 5.02 1.41l2.29 3.06c1.34 1.78 1.31 4.19-.06 5.22-1.37 1.02-3.68.37-5.02-1.41l-2.29-3.06c-1.43-1.92-1.31-4.2.06-5.22z" class="st74"/><path id="矩形_00000134239507903386921720000009956294065218697148_" d="M119.3 204.15c1.12 0 2.09 1.38 2.09 2.99v2.76c0 1.61-.96 2.99-2.09 2.99-1.12 0-2.09-1.38-2.09-2.99v-2.76c.01-1.72.97-2.99 2.09-2.99z" class="st74"/><path id="矩形_00000094586983563316370030000017519609598535160757_" d="M101.91 192.44c1.12 0 2.09 1.38 2.09 2.99v2.76c0 1.61-.96 2.99-2.09 2.99-1.12 0-2.09-1.38-2.09-2.99v-2.76c0-1.73.96-2.99 2.09-2.99z" class="st74"/><path id="矩形_00000118392649868102102100000018003544543667304883_" d="M139.49 212.89c1.12 0 2.09 1.38 2.09 2.99v2.76c0 1.61-.96 2.99-2.09 2.99-1.12 0-2.09-1.38-2.09-2.99v-2.76c.01-1.72.97-2.99 2.09-2.99z" class="st74"/><path id="矩形_00000044175050395430329640000006210113453692143548_" d="M159.19 207.55c.89 0 1.66 1.1 1.66 2.37v2.19c0 1.28-.76 2.37-1.66 2.37-.89 0-1.66-1.1-1.66-2.37v-2.19c.01-1.36.77-2.37 1.66-2.37z" class="st74"/><path id="椭圆形_00000005243532944909538100000015332032379051664545_" d="M141.61 146.58c4-.17 6.99-3.61 6.99-5.91 0-.92-.55-1.73-1.36-1.79-1.27-.13-3.18.69-5.63.79-2.27.09-3.72-.49-5.45-.42-1.82.08-1.72 2.19-1.45 3.01.64 2.28 2.82 4.49 6.9 4.32z" class="st53"/><path id="椭圆形_00000137118396536968795320000012465565861435071882_" d="M141.7 144.64c4.09-.17 7.08-3.33 7.08-5.54 0-.83-.54-1.54-1.36-1.6-1.27-.13-3.27.69-5.72.79-2.36.1-3.72-.49-5.54-.42-1.82.07-1.73 2.1-1.45 2.82.63 2.09 2.9 4.12 6.99 3.95z" class="st79"/><ellipse cx="124.93" cy="123.48" class="st79" rx="9.36" ry="8.96" transform="rotate(-55.453 124.923 123.473)"/><path id="形状结合_00000122692838259956133130000005389084541346568121_" d="M126.1 113.66c4.18-.17 7.54 3.92 7.55 9.08v1.1c0-5.25-3.28-9.44-7.36-9.27s-7.35 4.54-7.35 9.89c0 1.01.09 2.02.37 2.93-.46-1.18-.73-2.55-.73-3.93-.01-5.25 3.35-9.63 7.52-9.8z" class="st131"/><path id="形状结合_00000074426230400218102780000011966512146023470218_" d="M126.1 112.55c4.63-.19 8.45 4.35 8.45 10.15.01 5.8-3.8 10.66-8.43 10.85-4.63.19-8.45-4.35-8.45-10.15-.01-5.8 3.71-10.65 8.43-10.85zm0 1.11c-4.18.17-7.53 4.55-7.53 9.71s3.37 9.26 7.55 9.08c4.18-.17 7.53-4.55 7.53-9.71-.01-5.16-3.46-9.25-7.55-9.08z" class="st132"/><ellipse cx="155.18" cy="122.12" class="st79" rx="9.36" ry="8.96" transform="rotate(-55.453 155.173 122.112)"/><path id="形状结合_00000037650997207525795140000017278747343643723648_" d="M156.15 112.31c4.18-.17 7.54 3.92 7.55 9.08v1.1c0-5.25-3.28-9.44-7.36-9.27-4.09.17-7.35 4.54-7.35 9.89 0 1.01.09 2.02.37 2.93-.46-1.18-.73-2.55-.73-3.93-.01-5.25 3.35-9.63 7.52-9.8z" class="st131"/><path id="形状结合_00000003821500672421883320000017777831567725899181_" d="M156.15 111.2c4.63-.19 8.45 4.35 8.45 10.15.01 5.8-3.8 10.66-8.43 10.85s-8.45-4.35-8.45-10.15c-.01-5.8 3.71-10.65 8.43-10.85zm0 1.11c-4.18.17-7.53 4.55-7.53 9.71 0 5.16 3.37 9.26 7.55 9.08 4.18-.17 7.53-4.55 7.53-9.71-.01-5.16-3.46-9.25-7.55-9.08z" class="st132"/><circle cx="123.13" cy="121.08" r="3.71" class="st53"/><circle cx="153.2" cy="119.97" r="3.71" class="st53"/><linearGradient id="SVGID_00000093141267807606464440000009111043212809295262_" x1="1462.239" x2="1499.114" y1="-4082.626" y2="-4082.626" gradientTransform="matrix(.763 .4367 0 -1 -881.522 -4612.879)" gradientUnits="userSpaceOnUse"><stop offset="0" stop-color="#a75698"/><stop offset="1" stop-color="#6fb5c2"/></linearGradient><path fill="none" stroke="url(#SVGID_00000093141267807606464440000009111043212809295262_)" stroke-linecap="round" stroke-linejoin="round" stroke-miterlimit="10" stroke-width="5" d="m260.44 146.51-24.32-13.92V86.27l24.32 13.91z"/><path d="m260.44 146.25-24.32-13.92V86l24.32 13.92z" class="st2"/><path d="m241.93 99.52-1.16-.66-1.12-4.64 1.05.6.66 3.07.66-2.31 1.05.6-1.14 3.34zM245.92 101.29c-.32.2-.72.17-1.19-.1-.48-.27-.87-.69-1.19-1.26s-.48-1.15-.48-1.76.16-1.01.48-1.22c.32-.2.72-.17 1.19.1.48.27.87.69 1.19 1.26s.48 1.15.48 1.76c-.01.61-.17 1.02-.48 1.22zm-1.72-1.76c.14.27.31.47.53.59.22.12.39.13.53.01.14-.11.2-.31.2-.6 0-.28-.07-.56-.2-.83-.14-.27-.31-.47-.53-.59-.22-.12-.39-.13-.53-.01-.14.11-.2.31-.2.6-.01.29.06.56.2.83zM248.3 103.16l-.92-.53v-2.94l-.82-.47v-1.05l2.55 1.46v1.05l-.81-.47v2.95zM250.36 104.34l-.92-.53v-4l.92.53v4zM253.79 106.3l-.89-.51-1.12-2.67v2.02l-.92-.53v-4l.95.54 1.06 2.5v-1.89l.92.53v4.01zM255.8 107.52c-.48-.27-.87-.69-1.2-1.25-.32-.56-.48-1.15-.48-1.78 0-.62.16-1.03.48-1.22s.72-.15 1.2.12c.34.19.61.45.84.78.22.33.39.67.5 1.03l-.78.08c-.05-.16-.12-.32-.22-.48-.1-.15-.21-.27-.34-.34-.22-.13-.4-.13-.53-.02-.14.11-.21.31-.21.6 0 .28.07.56.21.83.14.27.32.47.53.59.09.05.17.08.27.1.09.02.16.01.21-.01v-.14l-.57-.32v-1.05l1.49.85v1.64c-.38.31-.84.31-1.4-.01zM240.99 104.69l-.97-.56v-4.2l1.71.98c.36.21.64.51.85.9.2.39.31.79.31 1.2 0 .41-.1.69-.31.85-.2.16-.49.13-.85-.07l-.74-.42v1.32zm.61-2.08c.09.05.16.06.21.04.05-.03.08-.09.08-.2s-.03-.21-.08-.3a.53.53 0 0 0-.21-.21l-.61-.35v.66l.61.36zM246.03 107.04c-.33.21-.75.18-1.25-.11s-.92-.73-1.25-1.32c-.33-.6-.5-1.21-.5-1.85s.17-1.06.5-1.28c.33-.21.75-.18 1.25.11s.92.73 1.25 1.32c.33.6.5 1.21.5 1.85s-.17 1.07-.5 1.28zm-1.81-1.85c.14.28.33.49.55.62.23.13.41.14.55.02s.21-.33.21-.63-.07-.59-.21-.87c-.14-.28-.33-.49-.55-.62-.23-.13-.41-.14-.55-.02s-.21.33-.21.63.07.59.21.87zM250.34 110.04l-1.02-.58-.41-2.62-.41 2.14-1.02-.58-.92-4.72 1.09.62.41 2.81.49-2.29.73.42.49 2.85.41-2.34 1.09.62-.93 3.67zM253.89 112.07l-2.43-1.39v-4.2l2.43 1.39v1.11l-1.46-.84v.42l1.43.82v1.11l-1.43-.82v.46l1.46.84v1.1zM257.19 113.96l-1.11-.63-.44-1.58-.35-.2v1.32l-.97-.56v-4.2l1.71.98c.36.21.64.51.85.9.2.39.31.79.31 1.2 0 .33-.06.56-.17.71a.56.56 0 0 1-.41.23l.58 1.83zm-1.3-3.18c.09.05.16.07.23.04.06-.02.09-.09.09-.2 0-.1-.03-.2-.09-.29a.659.659 0 0 0-.23-.21l-.59-.34v.66l.59.34z" class="st3"/><linearGradient id="SVGID_00000150068441069569239010000000984055729952721802_" x1="1487.954" x2="1473.563" y1="-4096.086" y2="-4083.979" gradientTransform="matrix(.763 .4367 0 -1 -881.522 -4612.879)" gradientUnits="userSpaceOnUse"><stop offset="0" stop-color="#b2509a"/><stop offset="1" stop-color="#70b7c4"/></linearGradient><path fill="url(#SVGID_00000150068441069569239010000000984055729952721802_)" d="M248.28 114.1c-4.07-2.33-7.38.11-7.38 5.45s3.31 11.56 7.38 13.9c4.07 2.33 7.38-.1 7.38-5.45s-3.31-11.56-7.38-13.9zm3.14 15.99c-.08.07-.19.06-.33-.02a.915.915 0 0 1-.26-.26c-.08-.12-.13-.25-.18-.4l-2.37-9.09-.87 2.34.42.24c.25.14.45.52.45.84v.02c0 .32-.2.47-.45.33l-.79-.45-1.14 3.06c-.04.1-.1.17-.18.19-.07.03-.17.01-.26-.03-.14-.08-.25-.2-.33-.36s-.12-.32-.12-.51c0-.08.01-.15.03-.21l1.04-2.69-.44-.25c-.25-.14-.45-.52-.45-.84v-.01c0-.32.2-.47.45-.33l.82.47 1.08-2.82c.14-.33.35-.41.63-.25l.22.13c.27.16.48.48.63.97l2.5 9.34c.02.08.03.16.03.24-.01.16-.05.28-.13.35z"/></svg>