<svg xmlns="http://www.w3.org/2000/svg" xml:space="preserve" id="Слой_1" x="0" y="0" version="1.1" viewBox="0 0 290 269.62"><style>.st10,.st8,.st9{fill-rule:evenodd;clip-rule:evenodd;fill:#fff;stroke:#111422;stroke-linecap:round;stroke-linejoin:round;stroke-miterlimit:10}.st10,.st9{fill:#c6c3d1;stroke:#101320}.st10{fill:#ecf0fc;stroke:#111422}.st25{fill:#fff}.st43{opacity:.2563;enable-background:new}.st202,.st43,.st44,.st78,.st79{fill-rule:evenodd;clip-rule:evenodd;fill:#fff}.st202,.st78,.st79{fill:#afafb1}.st202,.st79{fill:#d3d3d3}.st202{fill:#555069}</style><path d="m98.29 163.62-25.55-14.75V51.16l25.55 14.76z" class="st9"/><path d="m98.29 163.62 25.55-14.75V51.16L98.29 65.92z" class="st8"/><path d="M98.39 66 72.74 51.19 98.2 36.36l25.65 14.8z" class="st10"/><path id="矩形_00000003074054916450373470000012735214480648251523_" d="M89.82 45.24c.5.29.42.83-.18 1.19l-5.3 3.14c-.6.35-1.54.41-2.05.13-.5-.29-.42-.83.18-1.19l5.3-3.14c.61-.35 1.55-.41 2.05-.13z" class="st43"/><path id="矩形_00000119096007271689225750000017846991055904850877_" d="M80.99 50.37c.5.29.42.83-.18 1.19l-1.03.61c-.6.35-1.54.41-2.05.13-.5-.29-.42-.83.18-1.19l1.03-.61c.65-.38 1.55-.42 2.05-.13z" class="st43"/><path d="m72.87 178.44-25.55-14.75V87.07l25.55 14.75z" class="st9"/><path d="m72.87 178.44 25.55-14.75V87.07l-25.55 14.75z" class="st8"/><path d="M72.96 101.9 47.32 87.09l25.46-14.83 25.64 14.81z" class="st10"/><path id="矩形_00000068641743930467734030000015078196603260938926_" d="M64.4 81.15c.5.29.42.83-.18 1.19l-5.3 3.14c-.6.35-1.54.41-2.05.13-.5-.29-.42-.83.18-1.19l5.3-3.14c.6-.36 1.55-.42 2.05-.13z" class="st43"/><path id="矩形_00000003104596976688821560000007274001796956006569_" d="M55.57 86.27c.5.29.42.83-.18 1.19l-1.03.61c-.6.35-1.54.41-2.05.13-.5-.29-.42-.83.18-1.19l1.03-.61c.65-.38 1.55-.41 2.05-.13z" class="st43"/><path d="m47.32 193.27-25.55-14.75v-53.31l25.55 14.75z" class="st9"/><path d="m47.32 193.27 25.55-14.75v-53.31l-25.55 14.75z" class="st8"/><path d="m47.41 140.04-25.64-14.8 25.46-14.84 25.64 14.81z" class="st10"/><path id="矩形_00000088839841125361987970000015573145813308004246_" d="M38.85 119.29c.5.29.42.83-.18 1.19l-5.3 3.14c-.6.35-1.54.41-2.05.13-.5-.29-.42-.83.18-1.19l5.3-3.14c.6-.36 1.55-.42 2.05-.13z" class="st43"/><path id="矩形_00000098191371240776243530000012353253353251091889_" d="M30.02 124.41c.5.29.42.83-.18 1.19l-1.03.61c-.6.35-1.54.41-2.05.13-.5-.29-.42-.83.18-1.19l1.03-.61c.65-.38 1.55-.41 2.05-.13z" class="st43"/><path d="m194.34 174.96-44.53-25.75v-34.4l44.53 25.76z" class="st8"/><path d="m194.34 174.96 17.26-9.04v-34.39l-17.26 9.04z" class="st9"/><path d="m194.46 140.68-44.65-25.83 17.13-9.15 44.66 25.83z" class="st10"/><path fill="#fc4f83" fill-rule="evenodd" stroke="#111422" stroke-linecap="round" stroke-linejoin="round" stroke-miterlimit="10" d="m244.04 203.76-44.53-25.75v-34.4l44.53 25.76z" clip-rule="evenodd"/><path fill="#ffcad7" fill-rule="evenodd" stroke="#111422" stroke-linecap="round" stroke-linejoin="round" stroke-miterlimit="10" d="m244.04 203.76 17.25-9.04v-34.39l-17.25 9.04z" clip-rule="evenodd"/><path d="m244.16 169.48-44.65-25.83 17.13-9.15 44.66 25.83z" class="st10"/><path d="m244.04 160.67-94.23-54.32V71.96l94.23 54.31z" class="st8"/><path d="m244.04 160.67 17.25-9.04v-34.4l-17.25 9.04z" class="st9"/><path d="m244.16 126.38-94.35-54.39 17.13-9.15 94.36 54.39z" class="st10"/><path d="m244.04 116.91-94.23-54.32V28.2l94.23 54.31z" class="st8"/><path d="m244.04 116.91 17.25-9.04v-34.4l-17.25 9.04z" class="st9"/><path d="m244.16 82.62-94.35-54.39 17.13-9.15 94.36 54.39z" class="st10"/><path d="m238.56 136.12-81.38-46.79v-5.58l81.38 46.79z" class="st9"/><path d="m238.43 135.19-80.36-46.33-.01-4.63 80.36 46.33z" class="st10"/><path fill="#1ad4b3" fill-rule="evenodd" d="M215.33 121.29 158.55 88.7l-.01-3.62 56.78 32.71z" clip-rule="evenodd"/><path d="m238.56 147.48-81.38-46.79v-5.58l81.38 46.78z" class="st9"/><path d="m238.43 146.55-80.36-46.33-.01-4.63 80.36 46.33z" class="st10"/><path fill="#fc4f83" fill-rule="evenodd" d="m237.95 145.63-79.4-45.58-.01-3.61 79.4 45.69z" clip-rule="evenodd"/><path d="M156.34 56.66V39.35l5.4 3.05c1.04.59 1.92 1.34 2.65 2.25.73.91 1.29 1.92 1.68 3.02.39 1.1.58 2.22.58 3.37s-.2 2.05-.59 2.71c-.39.66-.96 1.02-1.7 1.09-.74.07-1.64-.19-2.69-.78l-3.44-1.95v-2.93l2.98 1.68c.56.31 1.02.45 1.38.41.36-.04.64-.23.82-.56.18-.34.27-.79.27-1.35 0-.58-.09-1.13-.27-1.66-.18-.53-.45-1.02-.82-1.47a4.94 4.94 0 0 0-1.39-1.15l-1.95-1.1V58.3l-2.91-1.64zM168.48 63.52V50.54l2.76 1.56v2.26l.11.06c.19-.7.5-1.13.94-1.3.44-.16.95-.09 1.52.24.14.08.3.18.46.29.17.12.31.23.44.34v3.19c-.13-.13-.32-.28-.56-.45-.24-.17-.45-.32-.65-.43-.42-.24-.79-.33-1.12-.29-.33.04-.59.21-.78.51-.19.3-.28.71-.28 1.24v7.34l-2.84-1.58zM180.34 70.47a8.769 8.769 0 0 1-2.69-2.36c-.76-.99-1.34-2.1-1.75-3.34-.41-1.24-.61-2.52-.61-3.85 0-1.34.2-2.4.61-3.17s.99-1.23 1.75-1.36c.76-.13 1.65.09 2.69.68 1.04.59 1.94 1.38 2.69 2.36.76.99 1.34 2.1 1.75 3.34.41 1.24.62 2.53.62 3.87 0 1.33-.2 2.38-.62 3.15-.41.77-.99 1.23-1.75 1.36-.75.13-1.65-.09-2.69-.68zm.01-2.78c.47.27.87.32 1.18.16.32-.16.56-.49.72-.99.16-.5.24-1.13.24-1.88s-.08-1.47-.24-2.16c-.16-.68-.4-1.29-.72-1.81-.32-.52-.71-.92-1.18-1.18-.48-.27-.88-.32-1.2-.16-.32.16-.57.49-.73.99s-.24 1.13-.24 1.88c0 .76.08 1.47.24 2.16.16.68.41 1.29.73 1.81.33.51.73.91 1.2 1.18zM187.26 78.99V61.15l2.81 1.59v2.18l.13.07c.12-.28.31-.53.54-.76.24-.23.55-.36.94-.38.39-.03.87.12 1.44.45.75.42 1.44 1.06 2.07 1.91.63.85 1.14 1.88 1.52 3.08.38 1.2.57 2.55.57 4.04 0 1.45-.18 2.56-.55 3.35-.37.79-.87 1.26-1.5 1.41-.63.15-1.34.01-2.12-.43a5.27 5.27 0 0 1-1.41-1.14c-.39-.45-.7-.92-.95-1.41a8.98 8.98 0 0 1-.56-1.39l-.09-.05v6.95l-2.84-1.63zm2.78-9.78c0 .77.08 1.49.25 2.16.17.67.41 1.26.74 1.75.32.5.71.88 1.17 1.14.46.26.86.32 1.18.18.32-.14.56-.46.73-.94.17-.48.25-1.1.25-1.86 0-.75-.08-1.45-.25-2.12-.17-.66-.41-1.25-.73-1.75s-.72-.89-1.18-1.15c-.46-.26-.86-.33-1.17-.2-.32.13-.56.43-.73.9-.17.5-.26 1.12-.26 1.89zM203.81 83.73a8.769 8.769 0 0 1-2.69-2.36c-.76-.99-1.34-2.1-1.75-3.34-.41-1.24-.61-2.52-.61-3.85 0-1.34.2-2.4.61-3.17s.99-1.23 1.75-1.36c.76-.13 1.65.09 2.69.68 1.04.59 1.94 1.38 2.69 2.36.76.99 1.34 2.1 1.75 3.34.41 1.24.62 2.53.62 3.87 0 1.33-.2 2.38-.62 3.15-.41.77-.99 1.23-1.75 1.36-.75.13-1.65-.09-2.69-.68zm.01-2.78c.47.27.87.32 1.18.16.32-.16.56-.49.72-.99s.24-1.13.24-1.88-.08-1.47-.24-2.16c-.16-.68-.4-1.29-.72-1.81-.32-.52-.71-.92-1.18-1.18-.48-.27-.88-.32-1.2-.16-.32.16-.57.49-.73.99-.16.5-.24 1.13-.24 1.88 0 .76.08 1.47.24 2.16.16.68.41 1.29.73 1.81.33.51.73.91 1.2 1.18zM219.27 82.93l-2.61-1.27a3.03 3.03 0 0 0-.29-.93c-.15-.31-.34-.6-.58-.88-.24-.27-.52-.5-.85-.69-.44-.25-.81-.34-1.12-.28-.3.06-.45.29-.45.68 0 .31.1.63.29.95.2.33.53.69 1.01 1.08l1.86 1.52c1 .82 1.74 1.66 2.23 2.51.49.85.74 1.75.74 2.68 0 .85-.2 1.48-.59 1.9-.39.42-.93.61-1.62.59-.69-.03-1.47-.3-2.36-.8-1.36-.77-2.44-1.74-3.25-2.91-.8-1.17-1.28-2.42-1.41-3.74l2.8 1.4c.08.57.29 1.09.61 1.54.33.46.74.83 1.25 1.12.5.28.9.39 1.21.31.3-.07.46-.3.46-.69 0-.33-.11-.66-.33-.99-.21-.33-.54-.68-.99-1.04l-1.78-1.45c-1-.82-1.75-1.68-2.24-2.58-.49-.9-.73-1.84-.73-2.8 0-.83.18-1.45.54-1.85.36-.4.86-.58 1.52-.54.65.04 1.42.31 2.3.81 1.3.73 2.32 1.66 3.07 2.77.75 1.13 1.19 2.32 1.31 3.58zM224.24 95.26c-.66-.37-1.24-.85-1.75-1.43a6.67 6.67 0 0 1-1.21-1.98c-.3-.74-.44-1.54-.44-2.39 0-.72.1-1.27.31-1.64.21-.37.49-.6.86-.7.36-.09.77-.09 1.24.02.46.11.95.28 1.45.5.6.26 1.08.46 1.44.59.36.14.63.18.8.13.17-.05.25-.21.25-.49v-.05a2.8 2.8 0 0 0-.4-1.47c-.27-.44-.64-.8-1.13-1.08-.51-.29-.92-.38-1.22-.26-.3.11-.5.36-.6.73L221.19 84c.13-.71.4-1.25.79-1.6.39-.36.9-.51 1.52-.48.62.04 1.34.29 2.16.75.57.32 1.12.72 1.64 1.18.52.46.99.99 1.4 1.57.41.59.73 1.22.97 1.91s.35 1.42.35 2.19v8.75l-2.7-1.53v-1.8l-.08-.05c-.17.31-.39.54-.66.69-.28.15-.61.2-1 .16-.39-.02-.84-.19-1.34-.48zm.81-2.02c.42.24.79.34 1.11.31.32-.03.57-.17.76-.43.18-.26.27-.61.27-1.07v-1.38a.89.89 0 0 1-.36-.01c-.15-.03-.33-.07-.52-.13s-.38-.13-.58-.2c-.19-.07-.37-.14-.52-.2-.33-.13-.63-.19-.88-.2-.25-.01-.44.07-.58.22-.14.15-.21.39-.21.73 0 .49.14.94.43 1.36.29.42.65.75 1.08 1zM235.08 83.84v17.31l-2.85-1.61V82.23l2.85 1.61zM157.64 127.01l1.69 6.99.07.04 1.69-5.09.72.41-2.09 6-.71-.4-2.09-8.36.72.41zM167.22 136.01c0 .76-.11 1.35-.32 1.78s-.51.69-.89.77c-.38.09-.81-.01-1.29-.28s-.92-.67-1.29-1.18c-.38-.51-.67-1.1-.89-1.78-.22-.67-.32-1.39-.32-2.15s.11-1.35.32-1.78c.22-.43.51-.69.89-.77.38-.09.81.01 1.29.28s.92.67 1.29 1.18c.38.51.67 1.11.89 1.78s.32 1.39.32 2.15zm-.67-.38c0-.62-.08-1.19-.25-1.71-.16-.52-.38-.97-.66-1.35s-.59-.66-.93-.86c-.34-.19-.65-.26-.93-.2s-.5.26-.66.6c-.16.33-.25.81-.25 1.43 0 .62.08 1.19.25 1.71s.38.97.66 1.35.59.66.93.86c.34.19.66.26.93.2.28-.06.5-.26.66-.6s.25-.81.25-1.43zM167.83 133.53v-.77l4.26 2.41v.77l-1.79-1.01v6.41l-.69-.39v-6.41l-1.78-1.01zM173.84 136.16v7.18l-.69-.39v-7.18l.69.39zM179.72 139.48v7.18l-.67-.38-3.1-7.38-.06-.03v5.63l-.69-.39v-7.18l.67.38 3.11 7.4.06.03v-5.65l.68.39zM184.98 144.69a4.61 4.61 0 0 0-.59-1.45c-.14-.21-.29-.4-.46-.57-.17-.17-.36-.31-.57-.42-.34-.19-.64-.25-.92-.19s-.49.26-.66.6c-.16.33-.24.81-.24 1.44s.08 1.19.25 1.71c.16.52.39.97.67 1.35.28.38.6.67.95.87.33.18.61.26.86.22.25-.04.44-.18.58-.42.14-.25.21-.59.21-1.03l.21.18-1.71-.97v-.77l2.16 1.22v.77c0 .59-.1 1.05-.3 1.37s-.47.51-.82.55-.75-.06-1.2-.32c-.5-.28-.94-.68-1.32-1.2-.38-.51-.68-1.11-.89-1.78-.21-.67-.32-1.39-.32-2.14 0-.57.06-1.04.18-1.43.12-.38.29-.68.51-.87s.48-.29.79-.29.64.1 1 .31c.3.17.58.38.84.64s.49.55.7.87.38.67.51 1.03c.14.36.23.73.28 1.11l-.7-.39zM157.41 145.89v-7.18l1.92 1.08c.45.25.81.56 1.09.92s.49.75.63 1.17c.14.42.21.84.21 1.27s-.07.77-.2 1.04c-.14.27-.35.43-.63.47-.28.04-.65-.06-1.09-.31l-1.38-.78v-.77l1.35.77c.3.17.55.24.73.21.19-.03.32-.13.4-.31.08-.18.13-.41.13-.7s-.04-.57-.13-.84c-.08-.27-.22-.53-.41-.76-.19-.23-.43-.44-.74-.61l-1.21-.68v6.41l-.67-.4zM167.16 147.81c0 .76-.11 1.35-.32 1.78s-.51.69-.89.77c-.38.09-.81-.01-1.29-.28s-.92-.67-1.29-1.18c-.38-.51-.67-1.11-.89-1.78-.22-.67-.32-1.39-.32-2.15s.11-1.35.32-1.78c.22-.43.51-.69.89-.77.38-.08.81.01 1.29.28s.92.67 1.29 1.18c.38.51.67 1.1.89 1.78s.32 1.4.32 2.15zm-.66-.37c0-.62-.08-1.19-.25-1.71-.16-.52-.38-.97-.66-1.35a3.12 3.12 0 0 0-.93-.86c-.34-.19-.65-.26-.93-.2s-.5.26-.66.6-.25.81-.25 1.43c0 .62.08 1.19.25 1.71.16.52.38.97.66 1.35s.59.66.93.86c.34.19.66.26.93.2.28-.06.5-.26.66-.6.17-.33.25-.81.25-1.43zM169.35 152.64l-1.55-8.05.7.39 1.19 6.52.06.03 1.21-5.16.78.44 1.21 6.53.06.03 1.19-5.17.7.39-1.55 6.3-.71-.4-1.25-6.43-.04-.03-1.25 5.01-.75-.4zM175.73 156.24v-7.18l3.43 1.94v.77l-2.74-1.55v2.42l2.56 1.45v.77l-2.56-1.45v2.44l2.78 1.57v.77l-3.47-1.95zM180.4 158.88v-7.18l1.92 1.08c.44.25.81.55 1.09.9s.5.73.63 1.14c.14.41.21.82.21 1.25s-.07.76-.21 1.01a.75.75 0 0 1-.63.41c-.28.03-.64-.09-1.08-.33l-1.55-.88v-.79l1.53.87c.3.17.55.25.73.25a.46.46 0 0 0 .41-.25c.08-.16.13-.38.13-.67s-.04-.56-.13-.83c-.08-.26-.22-.51-.41-.73-.19-.22-.43-.42-.74-.6l-1.21-.68v6.41l-.69-.38zm2.67-1.71 1.4 4.01-.8-.45-1.38-4 .78.44z"/><path id="矩形_00000127029628394367931460000001082372421062083511_" d="M175.33 199.24c.62 0 1.15.76 1.15 1.64v1.52c0 .88-.53 1.64-1.15 1.64-.62 0-1.15-.76-1.15-1.64v-1.52c.01-.94.53-1.64 1.15-1.64z" class="st43"/><radialGradient id="SVGID_1_" cx="143.791" cy="233.37" r="29.158" gradientTransform="matrix(1 0 0 .5898 0 95.73)" gradientUnits="userSpaceOnUse"><stop offset="0" stop-color="#b8b3d4"/><stop offset=".346" stop-color="#bab6d6" stop-opacity=".654"/><stop offset=".606" stop-color="#c2c0da" stop-opacity=".394"/><stop offset=".838" stop-color="#d0d0e3" stop-opacity=".162"/><stop offset="1" stop-color="#dde0eb" stop-opacity="0"/></radialGradient><path fill="url(#SVGID_1_)" d="M168.79 219.3c-13.68-7.9-35.96-8-49.77-.23s-13.91 20.48-.23 28.37c13.68 7.9 35.96 8 49.77.23 13.8-7.77 13.91-20.48.23-28.37z" opacity=".67"/><path fill="#3fa9bd" d="M182.29 183.27v-49.28c0-.23.02-.45.02-.68 0-22.91-18.57-41.48-41.48-41.48-22.91 0-41.48 18.57-41.48 41.48 0 .36.02.72.03 1.07v44.66h-.03v22.67c0 2.84 2.3 5.15 5.15 5.15s5.15-2.31 5.15-5.15v-.83c.56.36 1.13.72 1.74 1.07 1.83 1.06 3.79 1.99 5.85 2.81v8.2a5.15 5.15 0 1 0 10.3 0v-5.23c2.95.57 5.99.96 9.06 1.14v12.59c0 2.84 2.3 5.15 5.15 5.15s5.15-2.31 5.15-5.15v-12.7c3.39-.28 6.73-.8 9.93-1.55v6.36a5.15 5.15 0 1 0 10.3 0v-9.87c1-.47 1.97-.96 2.91-1.49.7-.39 1.35-.8 1.99-1.21v.71a5.15 5.15 0 1 0 10.3 0v-18.45h-.04z"/><radialGradient id="SVGID_00000080198365798273998630000010471426767639007119_" cx="165.513" cy="109.249" r="106.685" gradientUnits="userSpaceOnUse"><stop offset=".012" stop-color="#dd78ce"/><stop offset=".494" stop-color="#a7589a"/><stop offset=".583" stop-color="#a0619e"/><stop offset=".727" stop-color="#8e79a8"/><stop offset=".908" stop-color="#709fb9"/><stop offset="1" stop-color="#5eb6c3"/></radialGradient><path fill="url(#SVGID_00000080198365798273998630000010471426767639007119_)" d="M182.29 183.27v-49.28c0-.23.02-.45.02-.68 0-22.91-18.57-41.48-41.48-41.48-22.91 0-41.48 18.57-41.48 41.48 0 .36.02.72.03 1.07v44.66h-.03v22.67c0 2.84 2.3 5.15 5.15 5.15s5.15-2.31 5.15-5.15v-.83c.56.36 1.13.72 1.74 1.07 1.83 1.06 3.79 1.99 5.85 2.81v8.2a5.15 5.15 0 1 0 10.3 0v-5.23c2.95.57 5.99.96 9.06 1.14v12.59c0 2.84 2.3 5.15 5.15 5.15s5.15-2.31 5.15-5.15v-12.7c3.39-.28 6.73-.8 9.93-1.55v6.36a5.15 5.15 0 1 0 10.3 0v-9.87c1-.47 1.97-.96 2.91-1.49.7-.39 1.35-.8 1.99-1.21v.71a5.15 5.15 0 1 0 10.3 0v-18.45h-.04z"/><path id="矩形_00000034788530080463686950000010019149374440981931_" d="M103.24 169.42c1.12 0 2.09 1.38 2.09 2.99v14.25c0 1.61-.96 2.99-2.09 2.99-1.12 0-2.09-1.38-2.09-2.99v-14.25c0-1.61.97-2.99 2.09-2.99z" class="st43"/><path id="矩形_00000055700370419449027560000004989807741850819992_" d="M164.54 106.34c1.37-1.02 3.68-.37 5.02 1.41l2.29 3.06c1.34 1.78 1.31 4.19-.06 5.22-1.37 1.02-3.68.37-5.02-1.41l-2.29-3.06c-1.43-1.92-1.31-4.2.06-5.22z" class="st43"/><path id="矩形_00000107549240813044581990000015038002564823129475_" d="M120.64 206.01c1.12 0 2.09 1.38 2.09 2.99v2.76c0 1.61-.96 2.99-2.09 2.99-1.12 0-2.09-1.38-2.09-2.99V209c0-1.72.97-2.99 2.09-2.99z" class="st43"/><path id="矩形_00000004513103872145673170000004802180551822541485_" d="M102.99 195.21c1.12 0 2.09 1.38 2.09 2.99v2.76c0 1.61-.96 2.99-2.09 2.99-1.12 0-2.09-1.38-2.09-2.99v-2.76c.01-1.72.97-2.99 2.09-2.99z" class="st43"/><path id="矩形_00000057116351369323472390000012548658017467334796_" d="M140.83 214.75c1.12 0 2.09 1.38 2.09 2.99v2.76c0 1.61-.96 2.99-2.09 2.99-1.12 0-2.09-1.38-2.09-2.99v-2.76c0-1.72.96-2.99 2.09-2.99z" class="st43"/><path id="矩形_00000180354184155808797480000017717888377766630303_" d="M160.53 209.41c.89 0 1.66 1.1 1.66 2.37v2.19c0 1.28-.76 2.37-1.66 2.37-.89 0-1.66-1.1-1.66-2.37v-2.19c0-1.37.77-2.37 1.66-2.37z" class="st43"/><path id="椭圆形_00000034070204944184116590000005982990515188492717_" d="M150.84 164.29c4.06-.17 7.1-3.66 7.09-6 0-.94-.55-1.75-1.38-1.81-1.29-.13-3.23.7-5.72.8-2.31.1-3.78-.5-5.53-.42-1.84.08-1.75 2.22-1.47 3.06.64 2.3 2.86 4.55 7.01 4.37z" class="st202"/><path id="椭圆形_00000145027642531825536770000016076067429003362213_" d="M150.93 162.33c4.15-.17 7.19-3.38 7.19-5.63 0-.84-.55-1.57-1.38-1.63-1.29-.13-3.32.7-5.81.8-2.4.1-3.78-.5-5.62-.43s-1.75 2.13-1.48 2.87c.64 2.13 2.95 4.18 7.1 4.02z" class="st44"/><ellipse cx="133.89" cy="140.83" class="st44" rx="9.5" ry="9.1" transform="rotate(-55.453 133.892 140.822)"/><path id="形状结合_00000175291719308437694600000006085607397104004006_" d="M135.09 130.86c4.24-.18 7.66 3.98 7.66 9.22v1.12c0-5.33-3.33-9.59-7.48-9.42s-7.46 4.61-7.46 10.04c0 1.03.09 2.05.37 2.98-.46-1.2-.74-2.59-.74-3.99 0-5.33 3.41-9.77 7.65-9.95z" class="st78"/><path id="形状结合_00000124119299591451273910000012708585352363597467_" d="M135.09 129.74c4.7-.2 8.58 4.41 8.58 10.31.01 5.89-3.86 10.83-8.57 11.02s-8.58-4.41-8.58-10.31c0-5.89 3.77-10.82 8.57-11.02zm0 1.12c-4.24.18-7.65 4.62-7.64 9.86 0 5.24 3.42 9.4 7.66 9.22 4.24-.18 7.65-4.62 7.64-9.86 0-5.24-3.51-9.39-7.66-9.22z" class="st79"/><ellipse cx="164.61" cy="139.45" class="st44" rx="9.5" ry="9.1" transform="rotate(-55.453 164.608 139.442)"/><path id="形状结合_00000092418589567559870870000004363476966472827065_" d="M165.6 129.49c4.24-.18 7.66 3.98 7.66 9.22v1.12c0-5.33-3.33-9.59-7.48-9.42-4.15.17-7.46 4.61-7.46 10.04 0 1.03.09 2.05.37 2.98-.46-1.2-.74-2.59-.74-3.99 0-5.33 3.41-9.77 7.65-9.95z" class="st78"/><path id="形状结合_00000124876673961976585710000005238446488505138821_" d="M165.6 128.37c4.7-.2 8.58 4.41 8.58 10.31.01 5.89-3.86 10.83-8.57 11.02s-8.58-4.41-8.58-10.31 3.78-10.82 8.57-11.02zm0 1.12c-4.24.18-7.65 4.62-7.64 9.86 0 5.24 3.42 9.4 7.66 9.22 4.24-.18 7.65-4.62 7.64-9.86 0-5.24-3.51-9.39-7.66-9.22z" class="st79"/><circle cx="133.89" cy="140.83" r="3.77" class="st202"/><circle cx="164.43" cy="139.7" r="3.77" class="st202"/><path d="m207.88 159.38 1.61 7.91.06.04 1.61-6.09 2.41 1.36-2.59 8.46-2.91-1.65-2.59-11.39 2.4 1.36zM216.44 174.27c-.64-.36-1.19-.83-1.64-1.41a6.5 6.5 0 0 1-1.05-1.94 6.87 6.87 0 0 1-.36-2.21c0-.76.12-1.36.36-1.8.24-.44.59-.69 1.05-.76.45-.06 1 .08 1.64.45s1.19.83 1.64 1.41c.46.58.8 1.23 1.05 1.94.24.71.36 1.45.36 2.21s-.12 1.36-.36 1.8c-.24.44-.59.69-1.05.75-.46.07-1-.08-1.64-.44zm.01-1.96c.18.1.33.11.46.03s.23-.24.3-.48.11-.56.11-.94c0-.39-.04-.75-.11-1.07a2.92 2.92 0 0 0-.3-.82 1.29 1.29 0 0 0-.46-.49c-.19-.11-.35-.12-.49-.05-.14.08-.24.23-.31.47-.07.24-.11.55-.11.94 0 .39.04.74.11 1.06s.17.6.31.82.3.42.49.53zM223.86 170.89v1.94l-3.88-2.19v-1.94l3.88 2.19zm-3.13-3.55 2.12 1.2v6.83c0 .1.01.2.04.28a.71.71 0 0 0 .36.41c.06.04.14.07.22.1s.15.05.19.06l.31 2.05c-.09-.02-.23-.05-.4-.1s-.38-.13-.62-.25c-.49-.24-.89-.54-1.22-.88-.33-.35-.58-.74-.74-1.18-.17-.44-.25-.92-.24-1.44v-7.08zM227.48 180.51c-.63-.36-1.17-.81-1.62-1.38s-.8-1.2-1.05-1.91a7.06 7.06 0 0 1-.37-2.27c0-.77.12-1.37.37-1.81.25-.44.59-.69 1.04-.75s.98.07 1.58.42c.45.25.85.57 1.21.95s.67.8.92 1.28a6.925 6.925 0 0 1 .8 3.25v.62l-5.26-2.97v-1.47l3.31 1.87c0-.21-.04-.43-.13-.64-.08-.21-.19-.4-.33-.57s-.3-.31-.47-.41a.82.82 0 0 0-.47-.13c-.14.01-.26.07-.34.19-.09.11-.13.28-.14.49v1.59c0 .24.04.47.12.71s.19.44.34.63c.15.19.33.34.54.46.15.08.28.13.4.15.12.02.23 0 .31-.05.09-.05.15-.13.19-.25l1.93 1.09c-.07.48-.22.84-.47 1.08-.25.24-.58.35-.98.33-.41-.03-.89-.19-1.43-.5zM233.36 183.79c-.42-.24-.8-.59-1.16-1.07-.35-.48-.63-1.06-.84-1.74-.21-.68-.32-1.46-.32-2.31 0-.9.11-1.57.33-2 .22-.44.51-.69.86-.75.35-.06.72.02 1.11.24.29.17.55.37.77.62.22.25.4.53.55.82s.26.59.34.89l.03.02v-3.78l2.12 1.2v9.92l-2.1-1.19v-1.22l-.05-.04c-.08.21-.2.36-.35.48s-.34.17-.55.16c-.22-.01-.47-.09-.74-.25zm.78-1.61c.19.11.36.13.5.07s.25-.21.32-.43.11-.51.11-.87c0-.37-.04-.71-.11-1.01s-.18-.57-.32-.79c-.14-.22-.31-.38-.5-.49s-.36-.13-.5-.07-.24.21-.31.43-.11.52-.11.89.04.7.11 1.01c.07.3.18.57.31.78.14.21.3.37.5.48z" class="st25"/></svg>