<svg xmlns="http://www.w3.org/2000/svg" xml:space="preserve" id="Слой_1" x="0" y="0" version="1.1" viewBox="0 0 291 270.62"><style>.st1{fill:#0d101d;stroke:#000;stroke-linecap:round;stroke-linejoin:round;stroke-miterlimit:10}.st2{fill:#30345e}.st4{fill-rule:evenodd;clip-rule:evenodd;fill:#0d101d}.st4,.st5{stroke:#000;stroke-linecap:round;stroke-linejoin:round;stroke-miterlimit:10}.st16,.st5,.st6{fill-rule:evenodd;clip-rule:evenodd}.st6{fill:#30345e;stroke:#000;stroke-linecap:round;stroke-linejoin:round;stroke-miterlimit:10}.st16{fill:#40407c}.st30{stroke:#1a213a;stroke-linecap:round;stroke-linejoin:round;stroke-miterlimit:10}.st77{opacity:.2563;enable-background:new}.st133,.st134,.st135,.st77,.st82{fill-rule:evenodd;clip-rule:evenodd;fill:#fff}.st133,.st134,.st135{fill:#545067}.st134,.st135{fill:#aeaeb0}.st135{fill:#d2d2d2}</style><circle cx="145.17" cy="70.74" r="26.03"/><path d="m138.71 43.93-.01 10.81c-.33 1.38.28 2.85 1.82 3.91 2.54 1.76 6.66 1.76 9.2 0 1.08-.75 1.7-1.69 1.86-2.67h.04V55.4l.01-11.18-12.92-.29z" class="st1"/><path d="M138.76 51.66c0 2.45 2.87 4.43 6.41 4.43s6.41-1.98 6.41-4.43" class="st1"/><path d="M138.76 48.27c0 2.45 2.87 4.43 6.41 4.43s6.41-1.98 6.41-4.43" class="st1"/><path d="M138.76 44.71c0 2.45 2.87 4.43 6.41 4.43s6.41-1.98 6.41-4.43" class="st1"/><path d="m138.71 33.25-.01 10.81c-.33 1.38.28 2.85 1.82 3.91 2.54 1.76 6.66 1.76 9.2 0 1.08-.75 1.7-1.69 1.86-2.67h.04V44.72l.01-11.18-12.92-.29z" class="st1"/><path d="M138.76 40.99c0 2.45 2.87 4.43 6.41 4.43s6.41-1.98 6.41-4.43" class="st1"/><path d="M138.76 37.6c0 2.45 2.87 4.43 6.41 4.43s6.41-1.98 6.41-4.43" class="st1"/><path d="M138.76 34.04c0 2.45 2.87 4.43 6.41 4.43s6.41-1.98 6.41-4.43" class="st1"/><path d="m144.77 49.05-17.81-10.28V20.95l17.81 10.29z" class="st5"/><path d="m144.77 49.05 17.82-10.28V20.95l-17.82 10.29z" class="st4"/><path d="m144.84 31.29-17.88-10.32 17.75-10.34 17.88 10.32z" class="st6"/><path id="矩形_00000154386241046029363940000001781301511177585850_" d="M138.87 16.36c.35.2.29.58-.12.83l-3.7 2.19c-.42.25-1.08.29-1.43.09-.35-.2-.29-.58.12-.83l3.7-2.19c.42-.25 1.08-.29 1.43-.09z" class="st16"/><path id="矩形_00000088819119900563631170000010982899211472990637_" d="M132.18 20.32c.35.2.29.58-.12.83l-.72.42c-.42.25-1.08.29-1.43.09-.35-.2-.29-.58.12-.83l.72-.42c.45-.27 1.08-.29 1.43-.09z" class="st16"/><path d="M133.13 74.5 22.99 137.42v58.9l110.14-62.92z" class="st4"/><path d="m8.55 129.26 14.44 7.8v59.26l-14.44-7.8z" class="st5"/><path d="m133.13 74.5-15.51-8.2L8.55 129.26l14.44 7.8z" class="st6"/><path d="M32.74 158.98v-19.19l5.13-3.06c.88-.53 1.66-.71 2.32-.54.66.17 1.18.65 1.54 1.45.37.8.55 1.88.55 3.24 0 1.37-.19 2.68-.57 3.91-.38 1.23-.91 2.32-1.59 3.27s-1.47 1.69-2.38 2.23l-3.07 1.83v-4.05l2.42-1.44c.38-.23.7-.53.97-.9.27-.38.48-.81.62-1.29.14-.49.22-1 .22-1.54 0-.55-.07-.98-.22-1.28s-.35-.48-.62-.53-.59.04-.97.27l-1.14.68v15.03l-3.21 1.91zM43.47 152.59V133.4l5.13-3.06c.88-.53 1.66-.73 2.32-.6.66.12 1.18.56 1.54 1.32s.55 1.81.55 3.18c0 1.38-.19 2.65-.57 3.81s-.91 2.2-1.59 3.08-1.47 1.6-2.38 2.14l-3.07 1.83v-4.05l2.42-1.44c.38-.23.7-.5.97-.81s.48-.68.62-1.11c.14-.42.22-.91.22-1.45 0-.55-.07-.95-.22-1.21s-.35-.39-.62-.4-.59.1-.97.33l-1.14.68v15.03l-3.21 1.92zm6.97-12.96 2.97 7.04-3.51 2.09-2.9-7.08 3.44-2.05zM65.92 129.62c0 2.14-.26 4.09-.77 5.86-.51 1.77-1.21 3.29-2.08 4.57-.88 1.27-1.85 2.23-2.93 2.87-1.08.65-2.06.85-2.94.61-.87-.24-1.57-.94-2.08-2.1s-.77-2.8-.77-4.93c0-2.14.26-4.09.77-5.86.51-1.77 1.21-3.29 2.08-4.56.87-1.27 1.85-2.23 2.94-2.88 1.08-.64 2.05-.85 2.93-.62.88.23 1.57.93 2.08 2.08.51 1.18.77 2.83.77 4.96zm-3.33 1.98c0-1.15-.09-2.06-.28-2.74s-.46-1.11-.83-1.3-.82-.13-1.35.19c-.54.32-.99.79-1.35 1.42-.37.63-.64 1.39-.83 2.29-.19.9-.28 1.93-.28 3.08s.09 2.06.28 2.74c.19.68.46 1.11.83 1.3.37.19.82.13 1.35-.19s.98-.79 1.35-1.42.64-1.39.83-2.29c.19-.9.28-1.93.28-3.08zM67.4 138.33v-19.19l5.13-3.06c.88-.53 1.66-.71 2.32-.54s1.18.65 1.54 1.45c.37.8.55 1.88.55 3.24 0 1.37-.19 2.68-.57 3.91s-.91 2.32-1.58 3.27c-.68.95-1.47 1.69-2.38 2.23l-3.07 1.83v-4.05l2.42-1.44c.38-.23.7-.53.97-.9.27-.38.48-.81.62-1.29.15-.49.22-1 .22-1.54 0-.55-.07-.98-.22-1.28-.14-.3-.35-.48-.62-.53-.27-.05-.59.04-.97.27l-1.14.68v15.03l-3.22 1.91zM89.66 115.48c0 2.14-.26 4.09-.77 5.86-.52 1.77-1.21 3.29-2.08 4.57s-1.85 2.23-2.93 2.87c-1.08.65-2.06.85-2.94.61-.87-.24-1.57-.94-2.08-2.1-.51-1.16-.77-2.8-.77-4.92 0-2.14.26-4.09.77-5.86.51-1.77 1.21-3.29 2.08-4.56s1.85-2.23 2.94-2.88c1.08-.64 2.05-.85 2.93-.62s1.57.93 2.08 2.08c.51 1.17.77 2.82.77 4.95zm-3.32 1.98c0-1.15-.09-2.06-.28-2.74s-.46-1.11-.83-1.3-.82-.13-1.35.19-.98.79-1.35 1.42-.64 1.39-.83 2.29-.28 1.93-.28 3.08.09 2.06.28 2.74.46 1.11.83 1.3.82.13 1.35-.19c.54-.32.98-.79 1.35-1.42.37-.63.64-1.39.83-2.29s.28-1.93.28-3.08zM97.56 107.18c-.03-.61-.17-1.01-.43-1.2s-.65-.14-1.17.17c-.33.2-.61.43-.82.68s-.37.52-.47.8c-.1.28-.15.56-.16.84-.01.24.02.43.08.58.06.15.16.26.29.33s.3.1.51.1.45-.04.73-.12l.98-.24c.66-.17 1.22-.21 1.69-.12s.85.29 1.15.61.52.75.66 1.28.21 1.17.22 1.89c0 1.27-.2 2.45-.59 3.55-.39 1.11-.94 2.1-1.66 2.98a9.74 9.74 0 0 1-2.59 2.22c-1.04.62-1.94.91-2.71.87s-1.36-.44-1.79-1.21c-.42-.78-.64-1.96-.64-3.57l3.07-1.83c.02.58.11 1.01.27 1.32.16.3.39.47.69.5s.65-.08 1.06-.32c.35-.21.63-.45.87-.72.23-.28.41-.57.53-.89.12-.31.18-.63.19-.95 0-.29-.06-.51-.18-.67-.11-.15-.3-.24-.56-.27-.26-.02-.61.02-1.05.12l-1.19.29c-1.05.26-1.88.14-2.49-.37-.61-.5-.91-1.51-.9-3.01 0-1.21.2-2.4.61-3.56.41-1.16.98-2.21 1.7-3.15.73-.95 1.56-1.7 2.5-2.26.96-.57 1.79-.81 2.49-.71s1.24.51 1.62 1.22c.38.71.57 1.7.58 2.95l-3.09 1.87zM104.67 116.14l-3.49 2.08 3.93-21.53 4.41-2.63 3.93 16.85-3.48 2.08-2.6-12.36-.09.06-2.61 15.45zm-.65-7.18 6.55-3.9v3.9l-6.55 3.9v-3.9zM114.59 110.23V91.04l3.23-1.92v14.99l4.81-2.87v4.2l-8.04 4.79zM33.02 183.52v-19.66l8.78-5.23v4.3l-5.47 3.26v3.38l5.02-2.99v4.3l-5.02 2.99v3.38l5.45-3.25v4.3l-8.76 5.22zM46.99 155.54l2 4.53.1-.06 2.02-6.92 3.69-2.2-3.64 12 3.78 7.58-3.78 2.25-2.07-4.6-.1.06-2.07 7.07-3.76 2.24 3.74-12.05-3.62-7.67 3.71-2.23zM56.22 169.7v-19.66l8.78-5.23v4.3l-5.47 3.26v3.38l5.02-2.99v4.3l-5.02 2.99v3.38l5.45-3.24v4.3l-8.76 5.21zM78.02 144.43l-3.36 2c-.02-.43-.09-.8-.19-1.11-.1-.3-.24-.54-.42-.7s-.39-.24-.64-.23c-.25 0-.53.1-.85.29-.56.33-1.02.83-1.41 1.49-.38.66-.67 1.46-.87 2.39-.2.93-.29 1.96-.29 3.1 0 1.2.1 2.15.3 2.84.2.69.49 1.13.87 1.3.38.18.84.11 1.37-.21.31-.18.58-.41.82-.68.24-.27.45-.57.63-.92.18-.34.32-.72.44-1.12.11-.4.19-.83.23-1.27l3.36-1.96c-.04.86-.19 1.79-.44 2.8-.25 1.01-.6 2.01-1.06 3.01s-1.03 1.92-1.7 2.76a8.83 8.83 0 0 1-2.35 2.06c-1.12.67-2.12.88-3.01.63s-1.59-.97-2.1-2.17-.77-2.88-.77-5.06c0-2.19.26-4.19.79-6 .52-1.81 1.23-3.37 2.12-4.67s1.88-2.27 2.97-2.93c.77-.46 1.48-.71 2.12-.76.65-.05 1.21.11 1.7.47s.88.92 1.18 1.69c.32.8.5 1.78.56 2.96zM86.73 131.87l3.31-1.97v12.59c0 1.5-.22 2.92-.66 4.28s-1.06 2.56-1.85 3.63c-.79 1.06-1.7 1.9-2.75 2.52-1.05.63-1.97.88-2.76.76-.79-.12-1.4-.6-1.84-1.43-.44-.83-.66-1.99-.66-3.49v-12.59l3.31-1.97v12.13c0 .61.08 1.1.25 1.48.17.38.4.61.69.71.3.09.63.03 1.01-.2s.72-.56 1.01-1.01c.29-.44.52-.95.69-1.53.17-.58.25-1.17.25-1.78v-12.13zM91.28 133.46v-4.3l10.59-6.31v4.3l-3.67 2.18v15.36l-3.26 1.94v-15.36l-3.66 2.19zM103.1 141.78v-19.66l8.78-5.23v4.3l-5.47 3.26v3.38l5.02-2.99v4.3l-5.02 2.99v3.38l5.45-3.25v4.3l-8.76 5.22zM118.22 132.78l-4.69 2.79v-19.66l4.64-2.76c1.25-.75 2.34-1 3.25-.76s1.62.95 2.12 2.12c.5 1.17.75 2.78.75 4.83s-.25 3.95-.74 5.72c-.5 1.76-1.2 3.31-2.11 4.63-.91 1.32-1.99 2.35-3.22 3.09zm-1.38-3.71 1.26-.75c.6-.36 1.12-.82 1.54-1.39.43-.57.75-1.3.98-2.2.22-.9.34-2.04.34-3.41s-.11-2.37-.34-3c-.23-.63-.56-.97-1-1.03-.44-.05-.98.11-1.61.49l-1.17.69v10.6z" class="st2"/><circle cx="263.83" cy="58.87" r="17.42" transform="rotate(-76.714 263.85 58.867)"/><path d="M259.5 40.93v7.23c-.22.92.19 1.91 1.22 2.62 1.7 1.18 4.46 1.18 6.16 0 .72-.5 1.14-1.13 1.25-1.79h.03v-7.88l-8.66-.18z" class="st1"/><path d="M259.54 46.1c0 1.64 1.92 2.97 4.29 2.97s4.29-1.33 4.29-2.97" class="st1"/><path d="M259.54 43.83c0 1.64 1.92 2.97 4.29 2.97s4.29-1.33 4.29-2.97" class="st1"/><path d="M259.54 41.45c0 1.64 1.92 2.97 4.29 2.97s4.29-1.33 4.29-2.97" class="st1"/><path d="M259.5 33.78v7.23c-.22.92.19 1.91 1.22 2.62 1.7 1.18 4.46 1.18 6.16 0 .72-.5 1.14-1.13 1.25-1.79h.03v-7.88l-8.66-.18z" class="st1"/><path d="M259.54 38.96c0 1.64 1.92 2.97 4.29 2.97s4.29-1.33 4.29-2.97" class="st1"/><path d="M259.54 36.69c0 1.64 1.92 2.97 4.29 2.97s4.29-1.33 4.29-2.97" class="st1"/><path d="M259.54 34.3c0 1.64 1.92 2.97 4.29 2.97s4.29-1.33 4.29-2.97" class="st1"/><path d="m263.56 44.36-11.92-6.89V25.55l11.92 6.88z" class="st5"/><path d="m263.56 44.36 11.93-6.89V25.55l-11.93 6.88z" class="st4"/><path d="m263.61 32.47-11.97-6.91 11.88-6.93 11.97 6.92z" class="st6"/><path id="矩形_00000177476841137953616810000000442120603518476715_" d="M259.61 22.47c.23.13.2.39-.08.55l-2.47 1.46c-.28.17-.72.19-.95.06-.23-.13-.2-.39.08-.55l2.47-1.46c.28-.17.72-.19.95-.06z" class="st16"/><path id="矩形_00000111177562144386042120000005728833683655455626_" d="M255.13 25.12c.23.13.2.39-.08.55l-.48.28c-.28.17-.72.19-.95.06-.23-.13-.2-.39.08-.55l.48-.28c.3-.18.72-.19.95-.06z" class="st16"/><path fill="#111421" fill-rule="evenodd" stroke="#111422" stroke-linecap="round" stroke-linejoin="round" stroke-miterlimit="10" stroke-width=".75" d="m263.54 159.35-53.79 30.72.13 21 53.78-30.72z" clip-rule="evenodd"/><path d="m169.04 167.4 40.71 22.62.25 20.86-40.71-22.62z" class="st5"/><path d="m263.29 159.33-41.24-23.01-53.01 31.08 40.71 22.82z" class="st6"/><path d="m263.54 134.81-53.79 30.72.13 21 53.78-30.72z" class="st4"/><path d="m169.04 142.86 40.71 22.61.25 20.87-40.71-22.62z" class="st5"/><path d="m263.54 134.74-41.24-23.01-53.26 30.74 40.71 22.82z" class="st6"/><circle cx="213.64" cy="111.69" r="41.04" class="st30"/><path d="M217.8 175.79v-8.95l2.53-1.5c.49-.29.9-.41 1.24-.35.34.05.6.26.79.61.18.35.27.82.27 1.41s-.09 1.17-.28 1.74c-.18.56-.45 1.07-.8 1.53-.35.46-.77.84-1.26 1.13l-1.61.96v-1.52l1.39-.83c.26-.15.48-.35.65-.57.17-.23.3-.48.38-.76s.13-.56.13-.85c0-.3-.04-.53-.13-.71a.47.47 0 0 0-.38-.29c-.17-.02-.39.04-.65.2l-.91.54v7.4l-1.36.81zM223.49 172.42v-6.71l1.29-.77v1.17l.05-.03c.09-.47.23-.87.44-1.21.21-.34.44-.58.71-.74.07-.04.14-.08.22-.11s.15-.06.2-.07v1.65c-.06.01-.15.04-.26.08-.11.04-.21.09-.3.15-.2.12-.37.28-.53.49a2.633 2.633 0 0 0-.49 1.51v3.8l-1.33.79zM229.04 169.26c-.49.29-.91.39-1.26.31-.35-.08-.63-.32-.82-.73-.19-.41-.29-.95-.29-1.64s.1-1.36.29-1.99c.19-.63.47-1.2.82-1.7s.77-.89 1.26-1.18c.49-.29.91-.39 1.26-.31.35.08.63.32.82.73.19.41.29.96.29 1.65s-.1 1.35-.29 1.98c-.19.63-.47 1.2-.82 1.7s-.77.89-1.26 1.18zm.01-1.44c.22-.13.41-.33.55-.59s.26-.57.34-.92.11-.72.11-1.11-.04-.72-.11-.98-.19-.44-.34-.53-.33-.07-.55.06-.41.33-.56.6-.27.58-.34.93c-.08.35-.11.72-.11 1.11s.04.72.11.98c.08.26.19.43.34.52.15.08.33.06.56-.07zM232.28 169.73v-9.23l1.32-.78v1.13l.06-.04c.06-.22.14-.45.26-.7.11-.25.26-.5.44-.73.18-.23.41-.43.68-.59.35-.21.67-.27.97-.19s.53.32.71.73c.18.41.27.99.27 1.76 0 .75-.09 1.43-.26 2.05-.17.62-.41 1.14-.7 1.58-.3.44-.63.77-.99.98-.26.15-.48.22-.66.21a.618.618 0 0 1-.44-.19c-.11-.11-.2-.25-.26-.4l-.04.02v3.59l-1.36.8zm1.31-6.65c0 .4.04.72.12.97s.19.41.34.49c.15.07.33.05.55-.08s.4-.32.55-.58c.15-.26.26-.56.34-.9.08-.35.12-.71.12-1.1s-.04-.71-.12-.95c-.08-.25-.19-.41-.34-.49s-.33-.05-.55.08-.4.32-.55.57-.26.54-.34.89c-.08.33-.12.7-.12 1.1zM240.03 162.75c-.49.29-.91.39-1.26.31-.35-.08-.63-.32-.82-.73-.19-.41-.29-.95-.29-1.64s.1-1.36.29-1.99c.19-.63.47-1.2.82-1.7s.77-.89 1.26-1.18c.49-.29.91-.39 1.26-.31.35.08.63.32.82.73.19.41.29.96.29 1.65s-.1 1.35-.29 1.98c-.19.63-.47 1.2-.82 1.7s-.77.89-1.26 1.18zm.01-1.45c.22-.13.41-.33.55-.59s.26-.57.34-.92c.08-.35.11-.72.11-1.11s-.04-.72-.11-.98c-.08-.26-.19-.44-.34-.53s-.33-.07-.55.06-.41.33-.56.6-.27.58-.34.93-.11.72-.11 1.11.04.72.11.98c.08.26.19.43.34.52.15.09.34.07.56-.07zM247.28 153.53l-1.22.83a.719.719 0 0 0-.13-.32.342.342 0 0 0-.27-.12c-.11-.01-.24.04-.4.13-.21.12-.38.29-.52.49-.14.21-.21.41-.21.61 0 .16.05.27.14.32.09.06.25.05.47-.01l.87-.27c.47-.14.82-.13 1.05.03s.34.48.34.97c0 .44-.09.88-.28 1.32-.18.44-.44.85-.76 1.22-.32.38-.69.69-1.11.93-.64.38-1.14.49-1.52.34-.38-.15-.6-.52-.66-1.13l1.31-.87c.04.25.14.4.29.45s.35.01.59-.14c.23-.14.42-.31.57-.53.14-.21.22-.42.22-.62 0-.17-.05-.28-.15-.33-.1-.05-.25-.04-.46.02l-.83.26c-.47.15-.82.13-1.05-.06s-.34-.53-.34-1.03c0-.43.08-.85.25-1.26.17-.41.4-.79.71-1.14.31-.35.66-.65 1.08-.89.61-.36 1.09-.46 1.44-.31.31.16.52.53.58 1.11zM249.6 157.08c-.31.18-.58.27-.82.26a.69.69 0 0 1-.57-.33c-.14-.21-.21-.54-.21-.98a3.373 3.373 0 0 1 .55-1.88c.17-.25.36-.49.58-.69.22-.21.44-.4.68-.57.28-.21.51-.38.68-.52s.3-.27.37-.38a.69.69 0 0 0 .12-.39v-.03c0-.28-.06-.45-.19-.53-.12-.08-.3-.05-.53.09-.24.14-.43.33-.57.56-.14.23-.24.47-.28.72l-1.23.59c.06-.44.19-.87.37-1.28s.42-.78.71-1.11c.29-.33.63-.62 1.01-.84.27-.16.52-.27.77-.32.25-.06.46-.05.65.02s.34.22.45.44.17.53.17.93v4.53l-1.27.75v-.93l-.04.02c-.08.26-.18.5-.31.74s-.29.45-.47.65c-.17.17-.38.33-.62.48zm.38-1.52c.2-.12.37-.27.52-.47.15-.2.27-.42.35-.65.09-.24.13-.47.13-.71v-.71c-.04.06-.1.13-.17.2s-.15.15-.24.23c-.09.08-.18.15-.27.23-.09.07-.17.14-.24.2-.16.12-.29.26-.41.4s-.21.29-.27.44c-.06.16-.1.32-.1.5 0 .25.07.41.2.46.13.04.3.01.5-.12zM254.68 144.99v8.95l-1.33.79v-8.95l1.33-.79z" class="st2"/><path id="矩形_00000047772722207879959470000005965209184411588488_" d="M172.66 217.61c.62 0 1.15.76 1.15 1.64v1.52c0 .88-.53 1.64-1.15 1.64-.62 0-1.15-.76-1.15-1.64v-1.52c.01-.95.54-1.64 1.15-1.64z" class="st77"/><radialGradient id="SVGID_1_" cx="141.118" cy="-3364.514" r="29.153" gradientTransform="matrix(1 0 0 -.5898 0 -1732.662)" gradientUnits="userSpaceOnUse"><stop offset="0" stop-color="#06070c"/><stop offset="1" stop-color="#0d101d" stop-opacity="0"/></radialGradient><path fill="url(#SVGID_1_)" d="M166.12 237.66c-13.68-7.9-35.96-8-49.77-.23s-13.91 20.48-.23 28.37 35.96 8 49.77.23c13.8-7.77 13.91-20.47.23-28.37z" opacity=".67"/><path fill="#5ea6b9" d="M179.62 201.63v-49.28c0-.23.02-.45.02-.68 0-22.91-18.57-41.48-41.48-41.48s-41.48 18.57-41.48 41.48c0 .36.02.72.03 1.07v44.66h-.03v22.67a5.15 5.15 0 1 0 10.3 0v-.83c.56.36 1.13.72 1.74 1.07 1.83 1.06 3.79 1.99 5.85 2.81v8.2a5.15 5.15 0 1 0 10.3 0v-5.23c2.95.57 5.99.96 9.06 1.14v12.59c0 2.84 2.3 5.15 5.15 5.15s5.15-2.31 5.15-5.15v-12.7c3.39-.28 6.73-.8 9.93-1.55v6.36c0 2.84 2.3 5.15 5.15 5.15s5.15-2.31 5.15-5.15v-9.87c1-.47 1.97-.96 2.91-1.49.7-.39 1.35-.8 1.99-1.21v.71a5.15 5.15 0 1 0 10.3 0v-18.45l-.04.01z"/><radialGradient id="SVGID_00000177482831816189144200000004506675546720069055_" cx="162.844" cy="-2158.326" r="106.685" gradientTransform="matrix(1 0 0 -1 0 -2030.711)" gradientUnits="userSpaceOnUse"><stop offset=".012" stop-color="#cf7dc9"/><stop offset=".494" stop-color="#9c5c96"/><stop offset=".583" stop-color="#96649a"/><stop offset=".727" stop-color="#8a7aa4"/><stop offset=".908" stop-color="#7a9db5"/><stop offset="1" stop-color="#74b3c0"/></radialGradient><path fill="url(#SVGID_00000177482831816189144200000004506675546720069055_)" d="M179.62 201.63v-49.28c0-.23.02-.45.02-.68 0-22.91-18.57-41.48-41.48-41.48s-41.48 18.57-41.48 41.48c0 .36.02.72.03 1.07v44.66h-.03v22.67a5.15 5.15 0 1 0 10.3 0v-.83c.56.36 1.13.72 1.74 1.07 1.83 1.06 3.79 1.99 5.85 2.81v8.2a5.15 5.15 0 1 0 10.3 0v-5.23c2.95.57 5.99.96 9.06 1.14v12.59c0 2.84 2.3 5.15 5.15 5.15s5.15-2.31 5.15-5.15v-12.7c3.39-.28 6.73-.8 9.93-1.55v6.36c0 2.84 2.3 5.15 5.15 5.15s5.15-2.31 5.15-5.15v-9.87c1-.47 1.97-.96 2.91-1.49.7-.39 1.35-.8 1.99-1.21v.71a5.15 5.15 0 1 0 10.3 0v-18.45l-.04.01z"/><path id="矩形_00000082339787121204155610000017472619623850273973_" d="M100.57 187.79c1.12 0 2.09 1.38 2.09 2.99v14.25c0 1.61-.96 2.99-2.09 2.99-1.12 0-2.09-1.38-2.09-2.99v-14.25c.01-1.61.97-2.99 2.09-2.99z" class="st77"/><path id="矩形_00000140694912825121269890000012074212707865394570_" d="M161.87 124.7c1.37-1.02 3.68-.37 5.02 1.41l2.29 3.06c1.34 1.78 1.31 4.19-.06 5.22-1.37 1.02-3.68.37-5.02-1.41l-2.29-3.06c-1.43-1.92-1.3-4.19.06-5.22z" class="st77"/><path id="矩形_00000052101456802643579070000006549535470108254613_" d="M117.97 224.38c1.12 0 2.09 1.38 2.09 2.99v2.76c0 1.61-.96 2.99-2.09 2.99-1.12 0-2.09-1.38-2.09-2.99v-2.76c0-1.73.97-2.99 2.09-2.99z" class="st77"/><path id="矩形_00000005240636091919715950000010446911922045674112_" d="M100.32 213.58c1.12 0 2.09 1.38 2.09 2.99v2.76c0 1.61-.96 2.99-2.09 2.99-1.12 0-2.09-1.38-2.09-2.99v-2.76c.01-1.73.97-2.99 2.09-2.99z" class="st77"/><path id="矩形_00000038385485932627308710000002339675772170999209_" d="M138.16 233.12c1.12 0 2.09 1.38 2.09 2.99v2.76c0 1.61-.96 2.99-2.09 2.99-1.12 0-2.09-1.38-2.09-2.99v-2.76c0-1.73.97-2.99 2.09-2.99z" class="st77"/><path id="矩形_00000095335377976400908480000010486449541008413316_" d="M157.86 227.77c.89 0 1.66 1.1 1.66 2.37v2.19c0 1.28-.76 2.37-1.66 2.37-.89 0-1.66-1.1-1.66-2.37v-2.19c0-1.36.77-2.37 1.66-2.37z" class="st77"/><path id="椭圆形_00000054248711813508136650000010496227610145564032_" d="M148.17 182.66c4.06-.17 7.1-3.66 7.09-6 0-.94-.55-1.75-1.38-1.81-1.29-.13-3.23.7-5.72.8-2.31.1-3.78-.5-5.53-.42-1.84.08-1.75 2.22-1.47 3.06.64 2.3 2.86 4.54 7.01 4.37z" class="st133"/><path id="椭圆形_00000034770883363643650010000000740162168640243605_" d="M148.26 180.69c4.15-.17 7.19-3.38 7.19-5.63 0-.84-.55-1.57-1.38-1.63-1.29-.13-3.32.7-5.81.8-2.4.1-3.78-.5-5.62-.43s-1.75 2.13-1.48 2.87c.64 2.13 2.95 4.19 7.1 4.02z" class="st82"/><ellipse cx="131.23" cy="159.2" class="st82" rx="9.5" ry="9.1" transform="rotate(-55.453 131.223 159.191)"/><path id="形状结合_00000132792188747043250410000016677403019537620632_" d="M132.42 149.23c4.24-.18 7.66 3.98 7.66 9.22v1.12c0-5.33-3.33-9.59-7.48-9.42s-7.46 4.61-7.46 10.04c0 1.03.09 2.05.37 2.98-.46-1.2-.74-2.59-.74-3.99 0-5.33 3.41-9.78 7.65-9.95z" class="st134"/><path id="形状结合_00000129192393829822139470000001152170129441275270_" d="M132.42 148.1c4.7-.2 8.58 4.41 8.58 10.31.01 5.89-3.86 10.83-8.57 11.02-4.7.2-8.58-4.41-8.58-10.31 0-5.89 3.77-10.82 8.57-11.02zm0 1.13c-4.24.18-7.65 4.62-7.64 9.86 0 5.24 3.42 9.4 7.66 9.22s7.65-4.62 7.64-9.86c0-5.24-3.51-9.4-7.66-9.22z" class="st135"/><ellipse cx="161.95" cy="157.81" class="st82" rx="9.5" ry="9.1" transform="rotate(-55.453 161.942 157.808)"/><path id="形状结合_00000097487449973826404040000009769520988421163654_" d="M162.93 147.85c4.24-.18 7.66 3.98 7.66 9.22v1.12c0-5.33-3.33-9.59-7.48-9.42s-7.46 4.61-7.46 10.04c0 1.03.09 2.05.37 2.98-.46-1.2-.74-2.59-.74-3.99 0-5.32 3.41-9.77 7.65-9.95z" class="st134"/><path id="形状结合_00000002385444506018637360000009431741213048846007_" d="M162.93 146.73c4.7-.2 8.58 4.41 8.58 10.31s-3.86 10.83-8.57 11.02-8.58-4.41-8.58-10.31c0-5.89 3.78-10.82 8.57-11.02zm0 1.12c-4.24.18-7.65 4.62-7.64 9.86s3.42 9.4 7.66 9.22 7.65-4.62 7.64-9.86c0-5.23-3.51-9.39-7.66-9.22z" class="st135"/><circle cx="128.54" cy="156.76" r="3.77" class="st133"/><circle cx="159.09" cy="155.63" r="3.77" class="st133"/><circle cx="213.64" cy="111.69" r="28.4" class="st30"/><circle cx="213.64" cy="111.69" r="11.86" class="st30"/><path d="m260.32 28.02-1.35-.76 7.84-4.62 1.35.76zM139.88 25.13l-2.18-1.23 12.67-7.48 2.18 1.23z" class="st4"/></svg>