<svg xmlns="http://www.w3.org/2000/svg" xml:space="preserve" id="Слой_1" x="0" y="0" version="1.1" viewBox="0 0 290 269.62"><style>.st2{fill:#0d101d;stroke:#000;stroke-linecap:round;stroke-linejoin:round;stroke-miterlimit:10}.st3{fill:#30345e}.st5{fill-rule:evenodd;clip-rule:evenodd;fill:#0d101d}.st5,.st6{stroke:#000;stroke-linecap:round;stroke-linejoin:round;stroke-miterlimit:10}.st17,.st6,.st7{fill-rule:evenodd;clip-rule:evenodd}.st7{fill:#30345e;stroke:#000;stroke-linecap:round;stroke-linejoin:round;stroke-miterlimit:10}.st17{fill:#40407c}.st31{stroke:#1a213a;stroke-linecap:round;stroke-linejoin:round;stroke-miterlimit:10}.st74,.st78,.st79,.st80,.st81{fill-rule:evenodd;clip-rule:evenodd}.st74{opacity:.2563;fill:#fff;enable-background:new}.st78,.st79,.st80,.st81{fill:#555069}.st79,.st80,.st81{fill:#fff}.st80,.st81{fill:#afafb1}.st81{fill:#d3d3d3}</style><circle cx="144.67" cy="70.24" r="26.03" class="st31"/><path d="m138.21 43.43-.01 10.81c-.33 1.38.28 2.85 1.82 3.91 2.54 1.76 6.66 1.76 9.2 0 1.08-.75 1.7-1.69 1.86-2.67h.04V54.9l.01-11.18-12.92-.29z" class="st2"/><path d="M138.26 51.16c0 2.45 2.87 4.43 6.41 4.43s6.41-1.98 6.41-4.43" class="st2"/><path d="M138.26 47.77c0 2.45 2.87 4.43 6.41 4.43s6.41-1.98 6.41-4.43" class="st2"/><path d="M138.26 44.21c0 2.45 2.87 4.43 6.41 4.43s6.41-1.98 6.41-4.43" class="st2"/><path d="m138.21 32.75-.01 10.81c-.33 1.38.28 2.85 1.82 3.91 2.54 1.76 6.66 1.76 9.2 0 1.08-.75 1.7-1.69 1.86-2.67h.04V44.22l.01-11.18-12.92-.29z" class="st2"/><path d="M138.26 40.49c0 2.45 2.87 4.43 6.41 4.43s6.41-1.98 6.41-4.43" class="st2"/><path d="M138.26 37.1c0 2.45 2.87 4.43 6.41 4.43s6.41-1.98 6.41-4.43" class="st2"/><path d="M138.26 33.54c0 2.45 2.87 4.43 6.41 4.43s6.41-1.98 6.41-4.43" class="st2"/><path d="m144.27 48.55-17.81-10.28V20.45l17.81 10.29z" class="st6"/><path d="m144.27 48.55 17.82-10.28V20.45l-17.82 10.29z" class="st5"/><path d="m144.34 30.79-17.88-10.32 17.75-10.34 17.88 10.32z" class="st7"/><path id="矩形_00000114036194618410100220000004926397294803837621_" d="M138.37 15.86c.35.2.29.58-.12.83l-3.7 2.19c-.42.25-1.08.29-1.43.09-.35-.2-.29-.58.12-.83l3.7-2.19c.42-.25 1.08-.29 1.43-.09z" class="st17"/><path id="矩形_00000031918947985068467390000015751430776443972512_" d="M131.68 19.82c.35.2.29.58-.12.83l-.72.42c-.42.25-1.08.29-1.43.09-.35-.2-.29-.58.12-.83l.72-.42c.45-.27 1.08-.29 1.43-.09z" class="st17"/><circle cx="263.33" cy="58.37" r="17.42" class="st31"/><path d="M259 40.43v7.23c-.22.92.19 1.91 1.22 2.62 1.7 1.18 4.46 1.18 6.16 0 .72-.5 1.14-1.13 1.25-1.79h.03v-7.88l-8.66-.18z" class="st2"/><path d="M259.04 45.6c0 1.64 1.92 2.97 4.29 2.97s4.29-1.33 4.29-2.97" class="st2"/><path d="M259.04 43.33c0 1.64 1.92 2.97 4.29 2.97s4.29-1.33 4.29-2.97" class="st2"/><path d="M259.04 40.95c0 1.64 1.92 2.97 4.29 2.97s4.29-1.33 4.29-2.97" class="st2"/><path d="M259 33.28v7.23c-.22.92.19 1.91 1.22 2.62 1.7 1.18 4.46 1.18 6.16 0 .72-.5 1.14-1.13 1.25-1.79h.03v-7.88l-8.66-.18z" class="st2"/><path d="M259.04 38.46c0 1.64 1.92 2.97 4.29 2.97s4.29-1.33 4.29-2.97" class="st2"/><path d="M259.04 36.19c0 1.64 1.92 2.97 4.29 2.97s4.29-1.33 4.29-2.97" class="st2"/><path d="M259.04 33.8c0 1.64 1.92 2.97 4.29 2.97s4.29-1.33 4.29-2.97" class="st2"/><path d="m263.06 43.86-11.92-6.89V25.05l11.92 6.88z" class="st6"/><path d="m263.06 43.86 11.93-6.89V25.05l-11.93 6.88z" class="st5"/><path d="m263.11 31.97-11.97-6.91 11.88-6.93 11.97 6.92z" class="st7"/><path id="矩形_00000052795843850505151520000014020313630442394507_" d="M259.11 21.97c.23.13.2.39-.08.55l-2.47 1.46c-.28.17-.72.19-.95.06-.23-.13-.2-.39.08-.55l2.47-1.46c.28-.17.72-.19.95-.06z" class="st17"/><path id="矩形_00000054988249981362024610000011903712542188865723_" d="M254.63 24.62c.23.13.2.39-.08.55l-.48.28c-.28.17-.72.19-.95.06-.23-.13-.2-.39.08-.55l.48-.28c.3-.18.72-.19.95-.06z" class="st17"/><path d="m263.04 158.85-53.79 30.72.13 21 53.78-30.72z" class="st5"/><path d="m168.54 166.9 40.71 22.62.25 20.86-40.71-22.62z" class="st6"/><path d="m263.04 158.81-41.23-23.01-53.27 31.1 40.71 22.82z" class="st7"/><path d="m263.04 134.31-53.79 30.72.13 21 53.78-30.72z" class="st5"/><path d="m168.54 142.36 40.71 22.61.25 20.87-40.71-22.62z" class="st6"/><path d="m263.04 134.33-41.24-23.01-53.26 30.74 40.71 22.82z" class="st7"/><circle cx="213.14" cy="111.19" r="41.04" class="st31"/><path d="M217.3 175.29v-8.95l2.53-1.5c.49-.29.9-.41 1.24-.35.34.05.6.26.79.61.18.35.27.82.27 1.41s-.09 1.17-.28 1.74c-.18.56-.45 1.07-.8 1.53-.35.46-.77.84-1.26 1.13l-1.61.96v-1.52l1.39-.83c.26-.15.48-.35.65-.57.17-.23.3-.48.38-.76.08-.28.13-.56.13-.85 0-.3-.04-.53-.13-.71a.47.47 0 0 0-.38-.29c-.17-.02-.39.04-.65.2l-.91.54v7.4l-1.36.81zM222.99 171.92v-6.71l1.29-.77v1.17l.05-.03c.09-.47.23-.87.44-1.21.21-.34.44-.58.71-.74.07-.04.14-.08.22-.11.08-.03.15-.06.2-.07v1.65c-.06.01-.15.04-.26.08-.11.04-.21.09-.3.15-.2.12-.37.28-.53.49a2.633 2.633 0 0 0-.49 1.51v3.8l-1.33.79zM228.54 168.76c-.49.29-.91.39-1.26.31-.35-.08-.63-.32-.82-.73-.19-.41-.29-.95-.29-1.64s.1-1.36.29-1.99c.19-.63.47-1.2.82-1.7s.77-.89 1.26-1.18c.49-.29.91-.39 1.26-.31.35.08.63.32.82.73.19.41.29.96.29 1.65s-.1 1.35-.29 1.98c-.19.63-.47 1.2-.82 1.7s-.77.89-1.26 1.18zm.01-1.44c.22-.13.41-.33.55-.59s.26-.57.34-.92.11-.72.11-1.11c0-.39-.04-.72-.11-.98s-.19-.44-.34-.53c-.15-.09-.33-.07-.55.06-.22.13-.41.33-.56.6a3.2 3.2 0 0 0-.34.93c-.08.35-.11.72-.11 1.11 0 .39.04.72.11.98.08.26.19.43.34.52.15.08.33.06.56-.07zM231.78 169.23V160l1.32-.78v1.13l.06-.04c.06-.22.14-.45.26-.7.11-.25.26-.5.44-.73.18-.23.41-.43.68-.59.35-.21.67-.27.97-.19.3.08.53.32.71.73.18.41.27.99.27 1.76 0 .75-.09 1.43-.26 2.05-.17.62-.41 1.14-.7 1.58-.3.44-.63.77-.99.98-.26.15-.48.22-.66.21a.618.618 0 0 1-.44-.19c-.11-.11-.2-.25-.26-.4l-.04.02v3.59l-1.36.8zm1.31-6.65c0 .4.04.72.12.97.08.25.19.41.34.49.15.07.33.05.55-.08.22-.13.4-.32.55-.58.15-.26.26-.56.34-.9.08-.35.12-.71.12-1.1 0-.39-.04-.71-.12-.95-.08-.25-.19-.41-.34-.49-.15-.08-.33-.05-.55.08-.22.13-.4.32-.55.57s-.26.54-.34.89c-.08.33-.12.7-.12 1.1zM239.53 162.25c-.49.29-.91.39-1.26.31-.35-.08-.63-.32-.82-.73-.19-.41-.29-.95-.29-1.64s.1-1.36.29-1.99c.19-.63.47-1.2.82-1.7s.77-.89 1.26-1.18c.49-.29.91-.39 1.26-.31.35.08.63.32.82.73.19.41.29.96.29 1.65s-.1 1.35-.29 1.98c-.19.63-.47 1.2-.82 1.7s-.77.89-1.26 1.18zm.01-1.45c.22-.13.41-.33.55-.59s.26-.57.34-.92c.08-.35.11-.72.11-1.11s-.04-.72-.11-.98c-.08-.26-.19-.44-.34-.53-.15-.09-.33-.07-.55.06-.22.13-.41.33-.56.6-.15.27-.27.58-.34.93s-.11.72-.11 1.11c0 .39.04.72.11.98.08.26.19.43.34.52.15.09.34.07.56-.07zM246.78 153.03l-1.22.83a.719.719 0 0 0-.13-.32.342.342 0 0 0-.27-.12c-.11-.01-.24.04-.4.13-.21.12-.38.29-.52.49-.14.21-.21.41-.21.61 0 .16.05.27.14.32.09.06.25.05.47-.01l.87-.27c.47-.14.82-.13 1.05.03.23.16.34.48.34.97 0 .44-.09.88-.28 1.32-.18.44-.44.85-.76 1.22-.32.38-.69.69-1.11.93-.64.38-1.14.49-1.52.34-.38-.15-.6-.52-.66-1.13l1.31-.87c.04.25.14.4.29.45.15.05.35.01.59-.14.23-.14.42-.31.57-.53.14-.21.22-.42.22-.62 0-.17-.05-.28-.15-.33-.1-.05-.25-.04-.46.02l-.83.26c-.47.15-.82.13-1.05-.06-.23-.19-.34-.53-.34-1.03 0-.43.08-.85.25-1.26.17-.41.4-.79.71-1.14.31-.35.66-.65 1.08-.89.61-.36 1.09-.46 1.44-.31.31.16.52.53.58 1.11zM249.1 156.58c-.31.18-.58.27-.82.26a.69.69 0 0 1-.57-.33c-.14-.21-.21-.54-.21-.98a3.373 3.373 0 0 1 .55-1.88c.17-.25.36-.49.58-.69.22-.21.44-.4.68-.57.28-.21.51-.38.68-.52.17-.14.3-.27.37-.38a.69.69 0 0 0 .12-.39v-.03c0-.28-.06-.45-.19-.53-.12-.08-.3-.05-.53.09-.24.14-.43.33-.57.56-.14.23-.24.47-.28.72l-1.23.59c.06-.44.19-.87.37-1.28.18-.41.42-.78.71-1.11.29-.33.63-.62 1.01-.84.27-.16.52-.27.77-.32.25-.06.46-.05.65.02s.34.22.45.44c.11.22.17.53.17.93v4.53l-1.27.75v-.93l-.04.02c-.08.26-.18.5-.31.74s-.29.45-.47.65c-.17.17-.38.33-.62.48zm.38-1.52c.2-.12.37-.27.52-.47.15-.2.27-.42.35-.65.09-.24.13-.47.13-.71v-.71c-.04.06-.1.13-.17.2s-.15.15-.24.23c-.09.08-.18.15-.27.23-.09.07-.17.14-.24.2-.16.12-.29.26-.41.4s-.21.29-.27.44c-.06.16-.1.32-.1.5 0 .25.07.41.2.46.13.04.3.01.5-.12zM254.18 144.49v8.95l-1.33.79v-8.95l1.33-.79z" class="st3"/><path d="M132.63 74 22.49 136.92v58.9l110.14-62.92z" class="st5"/><path d="m8.05 128.76 14.44 7.8v59.26l-14.44-7.8z" class="st6"/><path d="m132.63 74-15.51-8.2L8.05 128.76l14.44 7.8z" class="st7"/><path d="m259.56 169.11-44.06 25.67v-3.45l44.06-25.67z" class="st6"/><path d="m259.18 168.81-43.41 25.35v-2.85l43.41-25.36z" class="st5"/><path fill="#1ad4b3" fill-rule="evenodd" d="m258.78 168.97-43.18 25.05v-2.35l43.17-24.98z" clip-rule="evenodd"/><path d="m259.56 176.13-44.06 25.68v-3.46l44.06-25.67z" class="st6"/><path d="m259.19 175.77-43.69 25.47-.01-2.51 43.69-25.48z" class="st5"/><path fill="#fc4f83" fill-rule="evenodd" d="m233.33 190.83-17.83 10.4-.01-2.52 17.84-10.4z" clip-rule="evenodd"/><path d="m32.06 153.42 1.74 8.62.07-.04 1.74-10.69 2.6-1.55-2.8 15.36-3.15 1.88-2.8-12.02 2.6-1.56zM46.72 151.54c0 1.52-.18 2.92-.55 4.18-.37 1.26-.86 2.35-1.49 3.26-.62.91-1.32 1.59-2.09 2.05-.77.46-1.47.61-2.09.44-.62-.17-1.12-.67-1.48-1.5-.37-.83-.55-2-.55-3.51 0-1.52.18-2.92.55-4.18.37-1.26.86-2.35 1.48-3.26.62-.91 1.32-1.59 2.09-2.05.77-.46 1.46-.6 2.09-.44s1.12.66 1.49 1.49c.36.82.55 1.99.55 3.52zm-2.38 1.41c0-.82-.07-1.47-.2-1.96-.13-.48-.33-.79-.59-.93-.26-.14-.58-.09-.96.14s-.7.56-.96 1.01c-.26.45-.46.99-.59 1.64-.13.64-.2 1.38-.2 2.19 0 .82.07 1.47.2 1.96.13.48.33.79.59.93.26.14.58.09.96-.14s.7-.56.96-1.01c.26-.45.46-.99.59-1.64.14-.64.2-1.37.2-2.19zM47.15 147.43v-2.99l7.38-4.39v2.99l-2.55 1.52v10.69l-2.27 1.35v-10.69l-2.56 1.52zM57.69 138.16v13.69l-2.3 1.37v-13.69l2.3-1.37zM66.12 133.13v13.69l-1.92 1.15-3.07-5.37-.05.03v7.19l-2.3 1.37V137.5l1.96-1.16 3.02 5.37.07-.04v-7.17l2.29-1.37zM72.73 133.72c-.04-.22-.09-.39-.17-.52a.734.734 0 0 0-.29-.29.656.656 0 0 0-.4-.05c-.15.02-.32.09-.5.2-.39.23-.72.58-.99 1.04-.27.46-.48 1.01-.62 1.66-.14.65-.21 1.37-.21 2.16 0 .8.07 1.45.2 1.94.14.49.34.81.61.95.27.14.6.1 1-.14.35-.21.64-.47.88-.77.23-.3.41-.64.52-1.01.12-.37.17-.76.17-1.17l.4-.17-1.94 1.15v-2.65l3.76-2.24v1.9c0 1.25-.16 2.41-.49 3.49-.33 1.08-.78 2.02-1.35 2.84-.57.81-1.23 1.44-1.97 1.88-.83.49-1.55.64-2.17.45s-1.11-.71-1.46-1.55c-.35-.84-.52-1.98-.52-3.42 0-1.13.11-2.2.32-3.2.21-1 .51-1.92.89-2.75.38-.83.82-1.55 1.32-2.16.5-.61 1.04-1.08 1.61-1.42.5-.3.97-.46 1.4-.49.43-.03.81.07 1.15.29.33.22.6.56.81 1.01.2.45.33 1.01.37 1.67l-2.33 1.37zM86.48 126.15l-2.34 1.39c-.02-.3-.06-.56-.13-.77a1.12 1.12 0 0 0-.29-.48.587.587 0 0 0-.44-.16c-.17 0-.37.07-.59.2-.39.23-.71.58-.98 1.04-.27.46-.47 1.02-.61 1.66-.14.65-.2 1.37-.2 2.16 0 .84.07 1.5.21 1.98.14.48.34.78.61.91.27.12.58.08.96-.15.21-.13.4-.28.57-.47.17-.19.31-.4.44-.64.12-.24.23-.5.31-.78.08-.28.13-.58.16-.89l2.34-1.36c-.03.6-.13 1.25-.3 1.95-.17.7-.42 1.4-.74 2.1-.32.7-.71 1.34-1.18 1.92-.47.59-1.02 1.07-1.64 1.44-.78.46-1.48.61-2.09.44-.62-.17-1.1-.67-1.46-1.51-.36-.83-.54-2.01-.54-3.52 0-1.52.18-2.92.55-4.18.36-1.26.86-2.35 1.47-3.25.62-.91 1.31-1.58 2.07-2.04.54-.32 1.03-.49 1.48-.53.45-.03.85.08 1.18.33.34.25.61.64.82 1.18.19.52.31 1.2.36 2.03zM87.52 134.08v-13.69l2.3-1.37v10.7l3.43-2.04v2.99l-5.73 3.41zM102.07 118.57c0 1.52-.18 2.92-.55 4.18-.37 1.26-.86 2.35-1.49 3.26-.62.91-1.32 1.59-2.09 2.05-.77.46-1.47.6-2.09.44-.62-.17-1.12-.67-1.48-1.5-.37-.83-.55-2-.55-3.51 0-1.52.18-2.92.55-4.18.37-1.26.86-2.35 1.48-3.26.62-.91 1.32-1.59 2.09-2.05.77-.46 1.46-.6 2.09-.44.62.17 1.12.66 1.49 1.49.37.82.55 2 .55 3.52zm-2.37 1.41c0-.82-.07-1.47-.2-1.96-.13-.48-.33-.8-.59-.93-.26-.14-.58-.09-.96.14s-.7.56-.96 1.01c-.26.45-.46.99-.59 1.64-.13.64-.2 1.38-.2 2.19 0 .82.07 1.47.2 1.96.13.48.33.79.59.93.26.14.58.09.96-.14s.7-.56.96-1.01c.26-.45.46-.99.59-1.64.14-.64.2-1.37.2-2.19zM107.71 112.65c-.02-.43-.13-.72-.31-.86s-.46-.1-.83.12c-.24.14-.43.3-.58.48-.15.18-.26.37-.33.57-.07.2-.11.4-.11.6-.01.17.01.31.06.41.04.11.11.18.21.23.09.05.21.07.36.07s.32-.03.52-.08l.7-.17c.47-.12.87-.15 1.21-.08.33.06.61.21.82.44.21.23.37.53.47.91.1.38.15.83.16 1.35 0 .9-.14 1.75-.42 2.54-.28.79-.67 1.5-1.18 2.13-.51.63-1.13 1.16-1.85 1.59-.74.44-1.38.65-1.93.62-.55-.03-.97-.32-1.28-.87-.3-.55-.46-1.4-.46-2.55l2.19-1.3c.01.41.08.72.19.94.12.22.28.33.49.36.21.02.46-.06.76-.23.25-.15.45-.32.62-.52.17-.2.29-.41.38-.63.09-.22.13-.45.13-.67 0-.21-.04-.37-.13-.48-.08-.11-.21-.17-.4-.19-.19-.02-.44.01-.75.09l-.85.21c-.75.18-1.34.1-1.78-.26-.43-.36-.65-1.07-.64-2.15 0-.87.14-1.71.43-2.54.29-.83.7-1.58 1.21-2.25.52-.67 1.11-1.21 1.78-1.61.69-.41 1.28-.58 1.78-.5.5.07.89.36 1.16.87.27.51.41 1.21.41 2.1l-2.21 1.31zM110.91 120.15v-13.69l6.12-3.64v2.99l-3.81 2.27v2.35l3.5-2.08v2.99l-3.5 2.08v2.35l3.8-2.26v2.99l-6.11 3.65zM121.43 113.89l-3.27 1.94v-13.69l3.23-1.92c.87-.52 1.63-.7 2.26-.53.64.17 1.13.66 1.48 1.48.35.81.52 1.94.52 3.36 0 1.43-.17 2.75-.52 3.98-.34 1.23-.83 2.3-1.47 3.23-.62.91-1.37 1.63-2.23 2.15zm-.96-2.59.88-.52c.42-.25.78-.57 1.07-.97.3-.4.52-.91.68-1.53.16-.63.23-1.42.23-2.37 0-.95-.08-1.65-.24-2.09-.16-.44-.39-.68-.7-.72-.31-.04-.68.08-1.12.34l-.81.48v7.38z" class="st3"/><path d="m259.9 27.52-1.35-.76 7.84-4.62 1.35.76zM139.46 24.63l-2.18-1.23 12.67-7.48 2.18 1.23z" class="st5"/><path id="矩形_00000163062091070418879700000016295058188583462302_" d="M172.16 217.11c.62 0 1.15.76 1.15 1.64v1.52c0 .88-.53 1.64-1.15 1.64-.62 0-1.15-.76-1.15-1.64v-1.52c.01-.95.54-1.64 1.15-1.64z" class="st74"/><radialGradient id="SVGID_1_" cx="140.621" cy="251.236" r="29.158" gradientTransform="matrix(1 0 0 .5898 0 103.058)" gradientUnits="userSpaceOnUse"><stop offset="0"/><stop offset="1" stop-color="#0d101d" stop-opacity="0"/></radialGradient><path fill="url(#SVGID_1_)" d="M165.62 237.16c-13.68-7.9-35.96-8-49.77-.23s-13.91 20.48-.23 28.37 35.96 8 49.77.23c13.8-7.77 13.91-20.47.23-28.37z" opacity=".67"/><path fill="#3fa9bd" d="M179.12 201.13v-49.28c0-.23.02-.45.02-.68 0-22.91-18.57-41.48-41.48-41.48-22.91 0-41.48 18.57-41.48 41.48 0 .36.02.72.03 1.07v44.66h-.03v22.67a5.15 5.15 0 1 0 10.3 0v-.83c.56.36 1.13.72 1.74 1.07 1.83 1.06 3.79 1.99 5.85 2.81v8.2a5.15 5.15 0 1 0 10.3 0v-5.23c2.95.57 5.99.96 9.06 1.14v12.59c0 2.84 2.3 5.15 5.15 5.15s5.15-2.31 5.15-5.15v-12.7c3.39-.28 6.73-.8 9.93-1.55v6.36c0 2.84 2.3 5.15 5.15 5.15s5.15-2.31 5.15-5.15v-9.87c1-.47 1.97-.96 2.91-1.49.7-.39 1.35-.8 1.99-1.21v.71a5.15 5.15 0 1 0 10.3 0v-18.45h-.04z"/><radialGradient id="SVGID_00000018936858344365387410000012373856797201918113_" cx="162.344" cy="127.115" r="106.685" gradientUnits="userSpaceOnUse"><stop offset=".012" stop-color="#dd78ce"/><stop offset=".494" stop-color="#a7589a"/><stop offset=".583" stop-color="#a0619e"/><stop offset=".727" stop-color="#8e79a8"/><stop offset=".908" stop-color="#709fb9"/><stop offset="1" stop-color="#5eb6c3"/></radialGradient><path fill="url(#SVGID_00000018936858344365387410000012373856797201918113_)" d="M179.12 201.13v-49.28c0-.23.02-.45.02-.68 0-22.91-18.57-41.48-41.48-41.48-22.91 0-41.48 18.57-41.48 41.48 0 .36.02.72.03 1.07v44.66h-.03v22.67a5.15 5.15 0 1 0 10.3 0v-.83c.56.36 1.13.72 1.74 1.07 1.83 1.06 3.79 1.99 5.85 2.81v8.2a5.15 5.15 0 1 0 10.3 0v-5.23c2.95.57 5.99.96 9.06 1.14v12.59c0 2.84 2.3 5.15 5.15 5.15s5.15-2.31 5.15-5.15v-12.7c3.39-.28 6.73-.8 9.93-1.55v6.36c0 2.84 2.3 5.15 5.15 5.15s5.15-2.31 5.15-5.15v-9.87c1-.47 1.97-.96 2.91-1.49.7-.39 1.35-.8 1.99-1.21v.71a5.15 5.15 0 1 0 10.3 0v-18.45h-.04z"/><path id="矩形_00000173135903763346973800000015831106477838459057_" d="M100.07 187.29c1.12 0 2.09 1.38 2.09 2.99v14.25c0 1.61-.96 2.99-2.09 2.99-1.12 0-2.09-1.38-2.09-2.99v-14.25c.01-1.61.97-2.99 2.09-2.99z" class="st74"/><path id="矩形_00000054978269590855627600000012108493999622009520_" d="M161.37 124.2c1.37-1.02 3.68-.37 5.02 1.41l2.29 3.06c1.34 1.78 1.31 4.19-.06 5.22-1.37 1.02-3.68.37-5.02-1.41l-2.29-3.06c-1.43-1.92-1.3-4.19.06-5.22z" class="st74"/><path id="矩形_00000072263069514607179710000004282489215357946516_" d="M117.47 223.88c1.12 0 2.09 1.38 2.09 2.99v2.76c0 1.61-.96 2.99-2.09 2.99-1.12 0-2.09-1.38-2.09-2.99v-2.76c0-1.73.97-2.99 2.09-2.99z" class="st74"/><path id="矩形_00000047037725267993693190000014628454790349692544_" d="M99.82 213.08c1.12 0 2.09 1.38 2.09 2.99v2.76c0 1.61-.96 2.99-2.09 2.99-1.12 0-2.09-1.38-2.09-2.99v-2.76c.01-1.73.97-2.99 2.09-2.99z" class="st74"/><path id="矩形_00000085229584556081974600000009637664943529078718_" d="M137.66 232.62c1.12 0 2.09 1.38 2.09 2.99v2.76c0 1.61-.96 2.99-2.09 2.99-1.12 0-2.09-1.38-2.09-2.99v-2.76c0-1.73.97-2.99 2.09-2.99z" class="st74"/><path id="矩形_00000058581572436916576270000014895364320354125441_" d="M157.36 227.27c.89 0 1.66 1.1 1.66 2.37v2.19c0 1.28-.76 2.37-1.66 2.37-.89 0-1.66-1.1-1.66-2.37v-2.19c0-1.36.77-2.37 1.66-2.37z" class="st74"/><path id="椭圆形_00000133490726771064019850000008118465017405992628_" d="M147.67 182.16c4.06-.17 7.1-3.66 7.09-6 0-.94-.55-1.75-1.38-1.81-1.29-.13-3.23.7-5.72.8-2.31.1-3.78-.5-5.53-.42-1.84.08-1.75 2.22-1.47 3.06.64 2.3 2.86 4.54 7.01 4.37z" class="st78"/><path id="椭圆形_00000017504470163688221680000010904219083356730802_" d="M147.76 180.19c4.15-.17 7.19-3.38 7.19-5.63 0-.84-.55-1.57-1.38-1.63-1.29-.13-3.32.7-5.81.8-2.4.1-3.78-.5-5.62-.43s-1.75 2.13-1.48 2.87c.64 2.13 2.95 4.19 7.1 4.02z" class="st79"/><ellipse cx="130.72" cy="158.69" class="st79" rx="9.5" ry="9.1" transform="rotate(-55.453 130.723 158.688)"/><path id="形状结合_00000151505446559000836720000007263205246504988811_" d="M131.92 148.73c4.24-.18 7.66 3.98 7.66 9.22v1.12c0-5.33-3.33-9.59-7.48-9.42-4.15.17-7.46 4.61-7.46 10.04 0 1.03.09 2.05.37 2.98-.46-1.2-.74-2.59-.74-3.99 0-5.33 3.41-9.78 7.65-9.95z" class="st80"/><path id="形状结合_00000003088500590330129910000011133844827987023762_" d="M131.92 147.6c4.7-.2 8.58 4.41 8.58 10.31.01 5.89-3.86 10.83-8.57 11.02-4.7.2-8.58-4.41-8.58-10.31 0-5.89 3.77-10.82 8.57-11.02zm0 1.13c-4.24.18-7.65 4.62-7.64 9.86 0 5.24 3.42 9.4 7.66 9.22 4.24-.18 7.65-4.62 7.64-9.86 0-5.24-3.51-9.4-7.66-9.22z" class="st81"/><ellipse cx="161.44" cy="157.31" class="st79" rx="9.5" ry="9.1" transform="rotate(-55.453 161.44 157.308)"/><path id="形状结合_00000106114519201138088990000017893804223516941731_" d="M162.43 147.35c4.24-.18 7.66 3.98 7.66 9.22v1.12c0-5.33-3.33-9.59-7.48-9.42-4.15.17-7.46 4.61-7.46 10.04 0 1.03.09 2.05.37 2.98-.46-1.2-.74-2.59-.74-3.99 0-5.32 3.41-9.77 7.65-9.95z" class="st80"/><path id="形状结合_00000077316028877664558200000000427258874796596649_" d="M162.43 146.23c4.7-.2 8.58 4.41 8.58 10.31s-3.86 10.83-8.57 11.02-8.58-4.41-8.58-10.31c0-5.89 3.78-10.82 8.57-11.02zm0 1.12c-4.24.18-7.65 4.62-7.64 9.86s3.42 9.4 7.66 9.22c4.24-.18 7.65-4.62 7.64-9.86 0-5.23-3.51-9.39-7.66-9.22z" class="st81"/><circle cx="135.7" cy="160.46" r="3.77" class="st78"/><circle cx="166.24" cy="159.33" r="3.77" class="st78"/></svg>