<svg xmlns="http://www.w3.org/2000/svg" xml:space="preserve" id="Слой_1" x="0" y="0" version="1.1" viewBox="0 0 290 269.62"><style>.st2{fill:#0d101d;stroke:#000;stroke-linecap:round;stroke-linejoin:round;stroke-miterlimit:10}.st3{fill:#30345e}.st5{fill-rule:evenodd;clip-rule:evenodd;fill:#0d101d}.st5,.st6{stroke:#000;stroke-linecap:round;stroke-linejoin:round;stroke-miterlimit:10}.st17,.st6,.st7{fill-rule:evenodd;clip-rule:evenodd}.st7{fill:#30345e;stroke:#000;stroke-linecap:round;stroke-linejoin:round;stroke-miterlimit:10}.st17{fill:#40407c}.st31{stroke:#1a213a;stroke-linecap:round;stroke-linejoin:round;stroke-miterlimit:10}.st47{fill:#1ad4b3}.st74,.st78,.st79,.st80,.st81{fill-rule:evenodd;clip-rule:evenodd}.st74{opacity:.2563;fill:#fff;enable-background:new}.st78,.st79,.st80,.st81{fill:#555069}.st79,.st80,.st81{fill:#fff}.st80,.st81{fill:#afafb1}.st81{fill:#d3d3d3}</style><circle cx="144.67" cy="70.24" r="26.03" class="st31"/><path d="m138.21 43.43-.01 10.81c-.33 1.38.28 2.85 1.82 3.91 2.54 1.76 6.66 1.76 9.2 0 1.08-.75 1.7-1.69 1.86-2.67h.04V54.9l.01-11.18-12.92-.29z" class="st2"/><path d="M138.26 51.16c0 2.45 2.87 4.43 6.41 4.43s6.41-1.98 6.41-4.43" class="st2"/><path d="M138.26 47.77c0 2.45 2.87 4.43 6.41 4.43s6.41-1.98 6.41-4.43" class="st2"/><path d="M138.26 44.21c0 2.45 2.87 4.43 6.41 4.43s6.41-1.98 6.41-4.43" class="st2"/><path d="m138.21 32.75-.01 10.81c-.33 1.38.28 2.85 1.82 3.91 2.54 1.76 6.66 1.76 9.2 0 1.08-.75 1.7-1.69 1.86-2.67h.04V44.22l.01-11.18-12.92-.29z" class="st2"/><path d="M138.26 40.49c0 2.45 2.87 4.43 6.41 4.43s6.41-1.98 6.41-4.43" class="st2"/><path d="M138.26 37.1c0 2.45 2.87 4.43 6.41 4.43s6.41-1.98 6.41-4.43" class="st2"/><path d="M138.26 33.54c0 2.45 2.87 4.43 6.41 4.43s6.41-1.98 6.41-4.43" class="st2"/><path d="m144.27 48.55-17.81-10.28V20.45l17.81 10.29z" class="st6"/><path d="m144.27 48.55 17.82-10.28V20.45l-17.82 10.29z" class="st5"/><path d="m144.34 30.79-17.88-10.32 17.75-10.34 17.88 10.32z" class="st7"/><path id="矩形_00000139980257545208789610000006245054874585491084_" d="M138.37 15.86c.35.2.29.58-.12.83l-3.7 2.19c-.42.25-1.08.29-1.43.09-.35-.2-.29-.58.12-.83l3.7-2.19c.42-.25 1.08-.29 1.43-.09z" class="st17"/><path id="矩形_00000039103372977681713840000017721649508528374205_" d="M131.68 19.82c.35.2.29.58-.12.83l-.72.42c-.42.25-1.08.29-1.43.09-.35-.2-.29-.58.12-.83l.72-.42c.45-.27 1.08-.29 1.43-.09z" class="st17"/><circle cx="263.33" cy="58.37" r="17.42" class="st31"/><path d="M259 40.43v7.23c-.22.92.19 1.91 1.22 2.62 1.7 1.18 4.46 1.18 6.16 0 .72-.5 1.14-1.13 1.25-1.79h.03v-7.88l-8.66-.18z" class="st2"/><path d="M259.04 45.6c0 1.64 1.92 2.97 4.29 2.97s4.29-1.33 4.29-2.97" class="st2"/><path d="M259.04 43.33c0 1.64 1.92 2.97 4.29 2.97s4.29-1.33 4.29-2.97" class="st2"/><path d="M259.04 40.95c0 1.64 1.92 2.97 4.29 2.97s4.29-1.33 4.29-2.97" class="st2"/><path d="M259 33.28v7.23c-.22.92.19 1.91 1.22 2.62 1.7 1.18 4.46 1.18 6.16 0 .72-.5 1.14-1.13 1.25-1.79h.03v-7.88l-8.66-.18z" class="st2"/><path d="M259.04 38.46c0 1.64 1.92 2.97 4.29 2.97s4.29-1.33 4.29-2.97" class="st2"/><path d="M259.04 36.19c0 1.64 1.92 2.97 4.29 2.97s4.29-1.33 4.29-2.97" class="st2"/><path d="M259.04 33.8c0 1.64 1.92 2.97 4.29 2.97s4.29-1.33 4.29-2.97" class="st2"/><path d="m263.06 43.86-11.92-6.89V25.05l11.92 6.88z" class="st6"/><path d="m263.06 43.86 11.93-6.89V25.05l-11.93 6.88z" class="st5"/><path d="m263.11 31.97-11.97-6.91 11.88-6.93 11.97 6.92z" class="st7"/><path id="矩形_00000127748761652757447080000001261974858876301458_" d="M259.11 21.97c.23.13.2.39-.08.55l-2.47 1.46c-.28.17-.72.19-.95.06-.23-.13-.2-.39.08-.55l2.47-1.46c.28-.17.72-.19.95-.06z" class="st17"/><path id="矩形_00000013914493124873533830000007101820573106116790_" d="M254.63 24.62c.23.13.2.39-.08.55l-.48.28c-.28.17-.72.19-.95.06-.23-.13-.2-.39.08-.55l.48-.28c.3-.18.72-.19.95-.06z" class="st17"/><path d="m263.04 158.85-53.79 30.72.13 21 53.78-30.72z" class="st5"/><path d="m168.54 166.9 40.71 22.62.25 20.86-40.71-22.62z" class="st6"/><path d="m262.79 158.83-41.24-23.01-53.01 31.08 40.71 22.82z" class="st7"/><path d="m263.04 134.31-53.79 30.72.13 21 53.78-30.72z" class="st5"/><path d="m168.54 142.36 40.71 22.61.25 20.87-40.71-22.62z" class="st6"/><path d="m263.04 134.24-41.24-23.01-53.26 30.74 40.71 22.82z" class="st7"/><circle cx="213.14" cy="111.19" r="41.04" class="st31"/><path d="M217.3 175.29v-8.95l2.53-1.5c.49-.29.9-.41 1.24-.35.34.05.6.26.79.61.18.35.27.82.27 1.41s-.09 1.17-.28 1.74c-.18.56-.45 1.07-.8 1.53-.35.46-.77.84-1.26 1.13l-1.61.96v-1.52l1.39-.83c.26-.15.48-.35.65-.57.17-.23.3-.48.38-.76.08-.28.13-.56.13-.85 0-.3-.04-.53-.13-.71a.47.47 0 0 0-.38-.29c-.17-.02-.39.04-.65.2l-.91.54v7.4l-1.36.81zM222.99 171.92v-6.71l1.29-.77v1.17l.05-.03c.09-.47.23-.87.44-1.21.21-.34.44-.58.71-.74.07-.04.14-.08.22-.11.08-.03.15-.06.2-.07v1.65c-.06.01-.15.04-.26.08-.11.04-.21.09-.3.15-.2.12-.37.28-.53.49a2.633 2.633 0 0 0-.49 1.51v3.8l-1.33.79zM228.54 168.76c-.49.29-.91.39-1.26.31-.35-.08-.63-.32-.82-.73-.19-.41-.29-.95-.29-1.64s.1-1.36.29-1.99c.19-.63.47-1.2.82-1.7s.77-.89 1.26-1.18c.49-.29.91-.39 1.26-.31.35.08.63.32.82.73.19.41.29.96.29 1.65s-.1 1.35-.29 1.98c-.19.63-.47 1.2-.82 1.7s-.77.89-1.26 1.18zm.01-1.44c.22-.13.41-.33.55-.59s.26-.57.34-.92.11-.72.11-1.11c0-.39-.04-.72-.11-.98s-.19-.44-.34-.53c-.15-.09-.33-.07-.55.06-.22.13-.41.33-.56.6a3.2 3.2 0 0 0-.34.93c-.08.35-.11.72-.11 1.11 0 .39.04.72.11.98.08.26.19.43.34.52.15.08.33.06.56-.07zM231.78 169.23V160l1.32-.78v1.13l.06-.04c.06-.22.14-.45.26-.7.11-.25.26-.5.44-.73.18-.23.41-.43.68-.59.35-.21.67-.27.97-.19.3.08.53.32.71.73.18.41.27.99.27 1.76 0 .75-.09 1.43-.26 2.05-.17.62-.41 1.14-.7 1.58-.3.44-.63.77-.99.98-.26.15-.48.22-.66.21a.618.618 0 0 1-.44-.19c-.11-.11-.2-.25-.26-.4l-.04.02v3.59l-1.36.8zm1.31-6.65c0 .4.04.72.12.97.08.25.19.41.34.49.15.07.33.05.55-.08.22-.13.4-.32.55-.58.15-.26.26-.56.34-.9.08-.35.12-.71.12-1.1 0-.39-.04-.71-.12-.95-.08-.25-.19-.41-.34-.49-.15-.08-.33-.05-.55.08-.22.13-.4.32-.55.57s-.26.54-.34.89c-.08.33-.12.7-.12 1.1zM239.53 162.25c-.49.29-.91.39-1.26.31-.35-.08-.63-.32-.82-.73-.19-.41-.29-.95-.29-1.64s.1-1.36.29-1.99c.19-.63.47-1.2.82-1.7s.77-.89 1.26-1.18c.49-.29.91-.39 1.26-.31.35.08.63.32.82.73.19.41.29.96.29 1.65s-.1 1.35-.29 1.98c-.19.63-.47 1.2-.82 1.7s-.77.89-1.26 1.18zm.01-1.45c.22-.13.41-.33.55-.59s.26-.57.34-.92c.08-.35.11-.72.11-1.11s-.04-.72-.11-.98c-.08-.26-.19-.44-.34-.53-.15-.09-.33-.07-.55.06-.22.13-.41.33-.56.6-.15.27-.27.58-.34.93s-.11.72-.11 1.11c0 .39.04.72.11.98.08.26.19.43.34.52.15.09.34.07.56-.07zM246.78 153.03l-1.22.83a.719.719 0 0 0-.13-.32.342.342 0 0 0-.27-.12c-.11-.01-.24.04-.4.13-.21.12-.38.29-.52.49-.14.21-.21.41-.21.61 0 .16.05.27.14.32.09.06.25.05.47-.01l.87-.27c.47-.14.82-.13 1.05.03.23.16.34.48.34.97 0 .44-.09.88-.28 1.32-.18.44-.44.85-.76 1.22-.32.38-.69.69-1.11.93-.64.38-1.14.49-1.52.34-.38-.15-.6-.52-.66-1.13l1.31-.87c.04.25.14.4.29.45.15.05.35.01.59-.14.23-.14.42-.31.57-.53.14-.21.22-.42.22-.62 0-.17-.05-.28-.15-.33-.1-.05-.25-.04-.46.02l-.83.26c-.47.15-.82.13-1.05-.06-.23-.19-.34-.53-.34-1.03 0-.43.08-.85.25-1.26.17-.41.4-.79.71-1.14.31-.35.66-.65 1.08-.89.61-.36 1.09-.46 1.44-.31.31.16.52.53.58 1.11zM249.1 156.58c-.31.18-.58.27-.82.26a.69.69 0 0 1-.57-.33c-.14-.21-.21-.54-.21-.98a3.373 3.373 0 0 1 .55-1.88c.17-.25.36-.49.58-.69.22-.21.44-.4.68-.57.28-.21.51-.38.68-.52.17-.14.3-.27.37-.38a.69.69 0 0 0 .12-.39v-.03c0-.28-.06-.45-.19-.53-.12-.08-.3-.05-.53.09-.24.14-.43.33-.57.56-.14.23-.24.47-.28.72l-1.23.59c.06-.44.19-.87.37-1.28.18-.41.42-.78.71-1.11.29-.33.63-.62 1.01-.84.27-.16.52-.27.77-.32.25-.06.46-.05.65.02s.34.22.45.44c.11.22.17.53.17.93v4.53l-1.27.75v-.93l-.04.02c-.08.26-.18.5-.31.74s-.29.45-.47.65c-.17.17-.38.33-.62.48zm.38-1.52c.2-.12.37-.27.52-.47.15-.2.27-.42.35-.65.09-.24.13-.47.13-.71v-.71c-.04.06-.1.13-.17.2s-.15.15-.24.23c-.09.08-.18.15-.27.23-.09.07-.17.14-.24.2-.16.12-.29.26-.41.4s-.21.29-.27.44c-.06.16-.1.32-.1.5 0 .25.07.41.2.46.13.04.3.01.5-.12zM254.18 144.49v8.95l-1.33.79v-8.95l1.33-.79z" class="st3"/><path d="M132.63 74 22.49 136.92v58.9l110.14-62.92z" class="st5"/><path d="m8.05 128.76 14.44 7.8v59.26l-14.44-7.8z" class="st6"/><path d="m132.63 74-15.51-8.2L8.05 128.76l14.44 7.8z" class="st7"/><path d="M217.34 200.29v-10.58l4.47-2.63v1.84l-3.07 1.81v2.52l2.84-1.67v1.84l-2.84 1.67v2.53l3.08-1.81v1.84l-4.48 2.64zM224.05 188.4l.91 2.24.94-3.33 1.42-.83-1.44 4.82 1.48 3.09-1.41.83-.98-2.16-.96 3.31-1.42.84 1.48-4.84-1.43-3.13 1.41-.84zM230.4 192.75c-.51.3-.95.39-1.32.28-.37-.12-.65-.42-.85-.91-.2-.49-.3-1.16-.3-2 0-.82.1-1.59.3-2.33.2-.73.48-1.38.84-1.94s.79-.98 1.28-1.27c.33-.19.63-.29.92-.29.28 0 .53.1.74.31.21.21.38.53.5.96.12.43.18.99.18 1.66v.6l-4.2 2.47v-1.36l2.9-1.71c0-.32-.04-.57-.13-.77-.09-.19-.21-.32-.36-.37-.15-.05-.33-.02-.53.1-.21.12-.39.31-.56.56-.16.25-.29.53-.38.84-.09.31-.14.62-.14.94v1.3c0 .39.05.71.14.94.09.23.22.38.39.43.17.06.37.02.6-.12a1.954 1.954 0 0 0 .75-.85c.09-.19.16-.4.21-.63l1.28-.62c-.06.53-.2 1.03-.4 1.51s-.46.91-.77 1.3c-.31.41-.68.72-1.09.97zM235.84 189.55c-.51.3-.95.38-1.31.25-.37-.13-.65-.45-.84-.95s-.29-1.15-.29-1.96.1-1.58.3-2.32c.2-.73.48-1.38.84-1.94s.8-.99 1.3-1.29c.43-.26.81-.35 1.14-.29.33.06.58.26.77.6.19.34.29.81.31 1.42l-1.3.77c-.04-.38-.13-.64-.29-.79s-.36-.15-.61 0c-.21.13-.4.33-.56.61-.16.28-.28.62-.37 1.02-.09.4-.13.85-.13 1.35 0 .51.04.91.13 1.21.09.3.21.5.37.59s.35.08.56-.05c.16-.09.3-.23.43-.41.13-.18.23-.39.31-.64.08-.25.14-.52.16-.81l1.3-.77c-.02.62-.12 1.21-.31 1.78-.18.57-.44 1.08-.76 1.53-.33.47-.71.83-1.15 1.09zM242.14 182.3v-4.56l1.38-.81v7.94l-1.32.78v-1.44l-.05.03c-.11.53-.3 1.01-.56 1.45-.26.44-.58.76-.95.98-.33.2-.62.25-.88.16-.25-.09-.45-.32-.59-.68-.14-.36-.21-.85-.22-1.47v-5.05l1.38-.81v4.66c0 .47.08.79.24.97.16.18.36.19.62.04.17-.1.32-.25.47-.46.14-.21.26-.46.35-.75.08-.3.13-.62.13-.98zM247.26 174.73v1.65l-3 1.76v-1.65l3-1.76zm-2.31-.54 1.38-.81v7.4c0 .2.02.35.06.44.04.09.09.13.16.14s.15-.02.24-.08c.06-.04.13-.09.19-.14.06-.06.11-.1.15-.13l.22 1.51c-.07.08-.17.17-.29.29-.13.12-.28.24-.46.35-.33.22-.62.32-.87.3-.25-.01-.44-.15-.58-.41-.14-.26-.21-.65-.21-1.17v-7.69zM250.43 180.95c-.51.3-.95.39-1.32.28-.37-.12-.65-.42-.85-.91s-.3-1.16-.3-2c0-.82.1-1.59.3-2.33s.48-1.38.84-1.94.79-.98 1.27-1.27c.33-.19.63-.29.92-.29s.53.1.75.31c.21.21.38.53.5.96.12.43.18.99.18 1.66v.6l-4.2 2.47v-1.36l2.9-1.71c0-.32-.04-.57-.13-.77s-.21-.32-.36-.37c-.15-.05-.33-.02-.53.1-.21.12-.4.31-.56.56s-.29.53-.38.84c-.09.31-.14.62-.14.94v1.3c0 .39.05.71.14.94.09.23.22.38.39.43s.37.02.6-.12a1.954 1.954 0 0 0 .75-.85c.09-.19.16-.4.21-.63l1.28-.62a5.9 5.9 0 0 1-.4 1.51c-.2.48-.46.91-.77 1.3-.32.42-.68.73-1.09.97zM255.44 177.97c-.38.22-.72.27-1.02.14-.31-.13-.55-.45-.73-.95-.18-.5-.27-1.2-.27-2.08 0-.91.09-1.72.28-2.43.18-.71.43-1.31.73-1.79.31-.48.64-.83 1.01-1.04.28-.16.51-.23.7-.19.19.04.34.14.45.29s.2.32.26.5l.04-.02v-3.98l1.38-.81v10.58l-1.36.8v-1.27l-.06.04c-.06.26-.16.53-.27.81-.12.28-.27.55-.46.8-.18.24-.41.44-.68.6zm.44-2.01c.22-.13.41-.34.57-.62.15-.29.27-.63.36-1.03.08-.4.12-.84.12-1.31 0-.47-.04-.86-.12-1.16-.08-.3-.2-.5-.36-.6s-.34-.08-.57.05c-.23.13-.42.34-.57.63-.16.29-.27.63-.35 1.03a6.4 6.4 0 0 0-.12 1.28c0 .46.04.84.12 1.15.08.3.2.51.35.62s.34.09.57-.04z" class="st47"/><path d="M34.22 172.16v-22.62l9.86-5.87v4.95l-6.05 3.6v3.89l5.45-3.25v4.95l-5.45 3.25v8.84l-3.81 2.26zM49.28 140.56v22.62l-3.81 2.27v-22.62l3.81-2.27zM63.22 132.26v22.62l-3.18 1.89-5.07-8.87-.08.05v11.88l-3.81 2.27v-22.62l3.23-1.92 4.99 8.87.11-.06v-11.84l3.81-2.27zM68.84 128.92v22.62l-3.81 2.27v-22.62l3.81-2.27zM78.2 130.41c-.04-.71-.21-1.19-.51-1.42-.3-.23-.76-.16-1.38.2-.39.23-.71.5-.96.8-.25.3-.43.61-.55.94-.12.33-.18.66-.19.99-.01.28.02.5.09.68.07.18.18.3.34.38.16.08.35.12.6.11.24 0 .53-.05.86-.14l1.15-.29c.78-.2 1.44-.24 1.99-.14.55.11 1 .35 1.36.72s.61.88.78 1.51c.17.63.25 1.38.26 2.23 0 1.49-.24 2.89-.69 4.19-.46 1.3-1.11 2.47-1.96 3.52a11.33 11.33 0 0 1-3.05 2.62c-1.22.73-2.28 1.07-3.19 1.03-.91-.04-1.61-.52-2.11-1.43-.5-.91-.75-2.31-.76-4.21l3.62-2.15c.02.68.13 1.2.32 1.55.19.36.46.55.81.59.35.03.77-.09 1.25-.38.41-.24.75-.53 1.02-.85.27-.33.48-.67.62-1.05.14-.37.21-.74.22-1.11 0-.34-.07-.61-.21-.79-.13-.18-.35-.29-.66-.31s-.72.02-1.24.15l-1.4.35c-1.24.3-2.22.16-2.93-.44-.71-.59-1.07-1.78-1.06-3.55 0-1.43.23-2.83.72-4.2a13.1 13.1 0 0 1 2.01-3.72c.86-1.11 1.84-2 2.95-2.66 1.13-.67 2.11-.95 2.94-.83.83.12 1.46.6 1.91 1.44.45.84.68 2 .68 3.48l-3.65 2.19zM83.49 142.81v-22.62l3.81-2.27v8.84l5.04-3v-8.84l3.81-2.27v22.62l-3.81 2.27v-8.84l-5.04 3v8.84l-3.81 2.27zM97.95 134.2v-22.62l10.11-6.02v4.95l-6.3 3.75v3.89l5.78-3.44v4.95l-5.78 3.44v3.89l6.27-3.73v4.95l-10.08 5.99zM115.34 123.84l-5.4 3.21v-22.62l5.34-3.18c1.44-.86 2.69-1.15 3.74-.88 1.05.28 1.86 1.09 2.44 2.44s.86 3.2.86 5.56-.29 4.55-.86 6.58c-.57 2.03-1.38 3.81-2.42 5.33-1.04 1.53-2.27 2.72-3.7 3.56zm-1.59-4.26 1.45-.86c.69-.41 1.29-.95 1.78-1.6.49-.65.87-1.5 1.12-2.54.26-1.04.39-2.34.39-3.92s-.13-2.73-.39-3.46-.65-1.12-1.15-1.18c-.5-.06-1.12.13-1.85.56l-1.34.8v12.2z" class="st3"/><path d="m259.82 27.52-1.35-.76 7.84-4.62 1.35.76zM139.38 24.63l-2.18-1.23 12.67-7.48 2.18 1.23z" class="st5"/><path id="矩形_00000089574302126848472740000013682767277135952805_" d="M172.16 217.11c.62 0 1.15.76 1.15 1.64v1.52c0 .88-.53 1.64-1.15 1.64-.62 0-1.15-.76-1.15-1.64v-1.52c.01-.95.54-1.64 1.15-1.64z" class="st74"/><radialGradient id="SVGID_1_" cx="140.621" cy="251.236" r="29.158" gradientTransform="matrix(1 0 0 .5898 0 103.058)" gradientUnits="userSpaceOnUse"><stop offset="0"/><stop offset="1" stop-color="#0d101d" stop-opacity="0"/></radialGradient><path fill="url(#SVGID_1_)" d="M165.62 237.16c-13.68-7.9-35.96-8-49.77-.23s-13.91 20.48-.23 28.37 35.96 8 49.77.23c13.8-7.77 13.91-20.47.23-28.37z" opacity=".67"/><path fill="#3fa9bd" d="M179.12 201.13v-49.28c0-.23.02-.45.02-.68 0-22.91-18.57-41.48-41.48-41.48-22.91 0-41.48 18.57-41.48 41.48 0 .36.02.72.03 1.07v44.66h-.03v22.67a5.15 5.15 0 1 0 10.3 0v-.83c.56.36 1.13.72 1.74 1.07 1.83 1.06 3.79 1.99 5.85 2.81v8.2a5.15 5.15 0 1 0 10.3 0v-5.23c2.95.57 5.99.96 9.06 1.14v12.59c0 2.84 2.3 5.15 5.15 5.15s5.15-2.31 5.15-5.15v-12.7c3.39-.28 6.73-.8 9.93-1.55v6.36c0 2.84 2.3 5.15 5.15 5.15s5.15-2.31 5.15-5.15v-9.87c1-.47 1.97-.96 2.91-1.49.7-.39 1.35-.8 1.99-1.21v.71a5.15 5.15 0 1 0 10.3 0v-18.45h-.04z"/><radialGradient id="SVGID_00000049199433537556081240000005494064332402646937_" cx="162.344" cy="127.115" r="106.685" gradientUnits="userSpaceOnUse"><stop offset=".012" stop-color="#dd78ce"/><stop offset=".494" stop-color="#a7589a"/><stop offset=".583" stop-color="#a0619e"/><stop offset=".727" stop-color="#8e79a8"/><stop offset=".908" stop-color="#709fb9"/><stop offset="1" stop-color="#5eb6c3"/></radialGradient><path fill="url(#SVGID_00000049199433537556081240000005494064332402646937_)" d="M179.12 201.13v-49.28c0-.23.02-.45.02-.68 0-22.91-18.57-41.48-41.48-41.48-22.91 0-41.48 18.57-41.48 41.48 0 .36.02.72.03 1.07v44.66h-.03v22.67a5.15 5.15 0 1 0 10.3 0v-.83c.56.36 1.13.72 1.74 1.07 1.83 1.06 3.79 1.99 5.85 2.81v8.2a5.15 5.15 0 1 0 10.3 0v-5.23c2.95.57 5.99.96 9.06 1.14v12.59c0 2.84 2.3 5.15 5.15 5.15s5.15-2.31 5.15-5.15v-12.7c3.39-.28 6.73-.8 9.93-1.55v6.36c0 2.84 2.3 5.15 5.15 5.15s5.15-2.31 5.15-5.15v-9.87c1-.47 1.97-.96 2.91-1.49.7-.39 1.35-.8 1.99-1.21v.71a5.15 5.15 0 1 0 10.3 0v-18.45h-.04z"/><path id="矩形_00000071535426850220474290000000066876257115002772_" d="M100.07 187.29c1.12 0 2.09 1.38 2.09 2.99v14.25c0 1.61-.96 2.99-2.09 2.99-1.12 0-2.09-1.38-2.09-2.99v-14.25c.01-1.61.97-2.99 2.09-2.99z" class="st74"/><path id="矩形_00000019666372513078450230000000177482091963125643_" d="M161.37 124.2c1.37-1.02 3.68-.37 5.02 1.41l2.29 3.06c1.34 1.78 1.31 4.19-.06 5.22-1.37 1.02-3.68.37-5.02-1.41l-2.29-3.06c-1.43-1.92-1.3-4.19.06-5.22z" class="st74"/><path id="矩形_00000084495459087522686720000012283597149356352947_" d="M117.47 223.88c1.12 0 2.09 1.38 2.09 2.99v2.76c0 1.61-.96 2.99-2.09 2.99-1.12 0-2.09-1.38-2.09-2.99v-2.76c0-1.73.97-2.99 2.09-2.99z" class="st74"/><path id="矩形_00000144331483776472348290000007368746785103132321_" d="M99.82 213.08c1.12 0 2.09 1.38 2.09 2.99v2.76c0 1.61-.96 2.99-2.09 2.99-1.12 0-2.09-1.38-2.09-2.99v-2.76c.01-1.73.97-2.99 2.09-2.99z" class="st74"/><path id="矩形_00000036933908145734382340000012966476869328315045_" d="M137.66 232.62c1.12 0 2.09 1.38 2.09 2.99v2.76c0 1.61-.96 2.99-2.09 2.99-1.12 0-2.09-1.38-2.09-2.99v-2.76c0-1.73.97-2.99 2.09-2.99z" class="st74"/><path id="矩形_00000054960287169651400630000015379810699103693718_" d="M157.36 227.27c.89 0 1.66 1.1 1.66 2.37v2.19c0 1.28-.76 2.37-1.66 2.37-.89 0-1.66-1.1-1.66-2.37v-2.19c0-1.36.77-2.37 1.66-2.37z" class="st74"/><path id="椭圆形_00000057870992850145088050000012064319031039613370_" d="M147.67 182.16c4.06-.17 7.1-3.66 7.09-6 0-.94-.55-1.75-1.38-1.81-1.29-.13-3.23.7-5.72.8-2.31.1-3.78-.5-5.53-.42-1.84.08-1.75 2.22-1.47 3.06.64 2.3 2.86 4.54 7.01 4.37z" class="st78"/><path id="椭圆形_00000023966578842722727330000017500400784783181499_" d="M147.76 180.19c4.15-.17 7.19-3.38 7.19-5.63 0-.84-.55-1.57-1.38-1.63-1.29-.13-3.32.7-5.81.8-2.4.1-3.78-.5-5.62-.43s-1.75 2.13-1.48 2.87c.64 2.13 2.95 4.19 7.1 4.02z" class="st79"/><ellipse cx="130.72" cy="158.69" class="st79" rx="9.5" ry="9.1" transform="rotate(-55.453 130.723 158.688)"/><path id="形状结合_00000025443462446666043280000009237619656834762886_" d="M131.92 148.73c4.24-.18 7.66 3.98 7.66 9.22v1.12c0-5.33-3.33-9.59-7.48-9.42-4.15.17-7.46 4.61-7.46 10.04 0 1.03.09 2.05.37 2.98-.46-1.2-.74-2.59-.74-3.99 0-5.33 3.41-9.78 7.65-9.95z" class="st80"/><path id="形状结合_00000039830887887570487210000011958616509034470075_" d="M131.92 147.6c4.7-.2 8.58 4.41 8.58 10.31.01 5.89-3.86 10.83-8.57 11.02-4.7.2-8.58-4.41-8.58-10.31 0-5.89 3.77-10.82 8.57-11.02zm0 1.13c-4.24.18-7.65 4.62-7.64 9.86 0 5.24 3.42 9.4 7.66 9.22 4.24-.18 7.65-4.62 7.64-9.86 0-5.24-3.51-9.4-7.66-9.22z" class="st81"/><ellipse cx="161.44" cy="157.31" class="st79" rx="9.5" ry="9.1" transform="rotate(-55.453 161.44 157.308)"/><path id="形状结合_00000103952672289605602970000009488107637965232553_" d="M162.43 147.35c4.24-.18 7.66 3.98 7.66 9.22v1.12c0-5.33-3.33-9.59-7.48-9.42-4.15.17-7.46 4.61-7.46 10.04 0 1.03.09 2.05.37 2.98-.46-1.2-.74-2.59-.74-3.99 0-5.32 3.41-9.77 7.65-9.95z" class="st80"/><path id="形状结合_00000126318891384116096250000003588727271138082465_" d="M162.43 146.23c4.7-.2 8.58 4.41 8.58 10.31s-3.86 10.83-8.57 11.02-8.58-4.41-8.58-10.31c0-5.89 3.78-10.82 8.57-11.02zm0 1.12c-4.24.18-7.65 4.62-7.64 9.86s3.42 9.4 7.66 9.22c4.24-.18 7.65-4.62 7.64-9.86 0-5.23-3.51-9.39-7.66-9.22z" class="st81"/><circle cx="130.72" cy="158.69" r="3.77" class="st78"/><circle cx="161.27" cy="157.56" r="3.77" class="st78"/></svg>