<svg xmlns="http://www.w3.org/2000/svg" xml:space="preserve" id="Слой_1" x="0" y="0" version="1.1" viewBox="0 0 290 269.62"><style>.st0{fill:#fff;stroke:#1d1d1b}.st0,.st1,.st2{stroke-linecap:round;stroke-linejoin:round;stroke-miterlimit:10}.st1{fill-rule:evenodd;clip-rule:evenodd;fill:#c6c3d1;stroke:#101320}.st2{fill:#fff;stroke:#111422}.st2,.st3,.st4{fill-rule:evenodd;clip-rule:evenodd}.st3{fill:#ecf0fc;stroke:#111422;stroke-linecap:round;stroke-linejoin:round;stroke-miterlimit:10}.st4{opacity:.2563;fill:#fff;enable-background:new}.st45,.st486,.st79,.st8,.st80{fill-rule:evenodd;clip-rule:evenodd;fill:#111422}.st45,.st486,.st79,.st80{fill:#fff}.st486,.st79,.st80{fill:#afafb1}.st486,.st80{fill:#d3d3d3}.st486{fill:#555069}.st609{fill:none;stroke:#e2e2e2;stroke-miterlimit:10}</style><circle cx="144.67" cy="70.24" r="26.03"/><path d="m138.21 43.43-.01 10.81c-.33 1.38.28 2.85 1.82 3.91 2.54 1.76 6.66 1.76 9.2 0 1.08-.75 1.7-1.69 1.86-2.67h.04V54.9l.01-11.18-12.92-.29z" class="st0"/><path d="M138.26 51.16c0 2.45 2.87 4.43 6.41 4.43s6.41-1.98 6.41-4.43" class="st0"/><path d="M138.26 47.77c0 2.45 2.87 4.43 6.41 4.43s6.41-1.98 6.41-4.43" class="st0"/><path d="M138.26 44.21c0 2.45 2.87 4.43 6.41 4.43s6.41-1.98 6.41-4.43" class="st0"/><path d="m138.21 32.75-.01 10.81c-.33 1.38.28 2.85 1.82 3.91 2.54 1.76 6.66 1.76 9.2 0 1.08-.75 1.7-1.69 1.86-2.67h.04V44.22l.01-11.18-12.92-.29z" class="st0"/><path d="M138.26 40.49c0 2.45 2.87 4.43 6.41 4.43s6.41-1.98 6.41-4.43" class="st0"/><path d="M138.26 37.1c0 2.45 2.87 4.43 6.41 4.43s6.41-1.98 6.41-4.43" class="st0"/><path d="M138.26 33.54c0 2.45 2.87 4.43 6.41 4.43s6.41-1.98 6.41-4.43" class="st0"/><path d="m144.27 48.55-17.81-10.28V20.45l17.81 10.29z" class="st1"/><path d="m144.27 48.55 17.82-10.28V20.45l-17.82 10.29z" class="st2"/><path d="m144.34 30.79-17.88-10.32 17.75-10.34 17.88 10.32z" class="st3"/><path id="矩形_00000154386241046029363940000001781301511177585850_" d="M138.37 15.86c.35.2.29.58-.12.83l-3.7 2.19c-.42.25-1.08.29-1.43.09-.35-.2-.29-.58.12-.83l3.7-2.19c.42-.25 1.08-.29 1.43-.09z" class="st4"/><path id="矩形_00000088819119900563631170000010982899211472990637_" d="M131.68 19.82c.35.2.29.58-.12.83l-.72.42c-.42.25-1.08.29-1.43.09-.35-.2-.29-.58.12-.83l.72-.42c.45-.27 1.08-.29 1.43-.09z" class="st4"/><path d="M132.63 74 22.49 136.92v58.9l110.14-62.92z" class="st2"/><path d="m8.05 128.76 14.44 7.8v59.26l-14.44-7.8z" class="st1"/><path d="m132.63 74-15.51-8.2L8.05 128.76l14.44 7.8z" class="st3"/><path d="M32.24 158.48v-19.19l5.13-3.06c.88-.53 1.66-.71 2.32-.54.66.17 1.18.65 1.54 1.45.37.8.55 1.88.55 3.24 0 1.37-.19 2.68-.57 3.91-.38 1.23-.91 2.32-1.59 3.27s-1.47 1.69-2.38 2.23l-3.07 1.83v-4.05l2.42-1.44c.38-.23.7-.53.97-.9.27-.38.48-.81.62-1.29.14-.49.22-1 .22-1.54 0-.55-.07-.98-.22-1.28-.15-.3-.35-.48-.62-.53-.27-.05-.59.04-.97.27l-1.14.68v15.03l-3.21 1.91zM42.97 152.09V132.9l5.13-3.06c.88-.53 1.66-.73 2.32-.6.66.12 1.18.56 1.54 1.32s.55 1.81.55 3.18c0 1.38-.19 2.65-.57 3.81s-.91 2.2-1.59 3.08-1.47 1.6-2.38 2.14l-3.07 1.83v-4.05l2.42-1.44c.38-.23.7-.5.97-.81.27-.31.48-.68.62-1.11.14-.42.22-.91.22-1.45 0-.55-.07-.95-.22-1.21s-.35-.39-.62-.4c-.27-.01-.59.1-.97.33l-1.14.68v15.03l-3.21 1.92zm6.97-12.96 2.97 7.04-3.51 2.09-2.9-7.08 3.44-2.05zM65.42 129.12c0 2.14-.26 4.09-.77 5.86-.51 1.77-1.21 3.29-2.08 4.57-.88 1.27-1.85 2.23-2.93 2.87-1.08.65-2.06.85-2.94.61-.87-.24-1.57-.94-2.08-2.1-.51-1.16-.77-2.8-.77-4.93 0-2.14.26-4.09.77-5.86.51-1.77 1.21-3.29 2.08-4.56.87-1.27 1.85-2.23 2.94-2.88 1.08-.64 2.05-.85 2.93-.62.88.23 1.57.93 2.08 2.08.51 1.18.77 2.83.77 4.96zm-3.33 1.98c0-1.15-.09-2.06-.28-2.74-.19-.68-.46-1.11-.83-1.3s-.82-.13-1.35.19c-.54.32-.99.79-1.35 1.42-.37.63-.64 1.39-.83 2.29-.19.9-.28 1.93-.28 3.08s.09 2.06.28 2.74c.19.68.46 1.11.83 1.3.37.19.82.13 1.35-.19.53-.32.98-.79 1.35-1.42s.64-1.39.83-2.29c.19-.9.28-1.93.28-3.08zM66.9 137.83v-19.19l5.13-3.06c.88-.53 1.66-.71 2.32-.54s1.18.65 1.54 1.45c.37.8.55 1.88.55 3.24 0 1.37-.19 2.68-.57 3.91-.38 1.23-.91 2.32-1.58 3.27-.68.95-1.47 1.69-2.38 2.23l-3.07 1.83v-4.05l2.42-1.44c.38-.23.7-.53.97-.9.27-.38.48-.81.62-1.29.15-.49.22-1 .22-1.54 0-.55-.07-.98-.22-1.28-.14-.3-.35-.48-.62-.53-.27-.05-.59.04-.97.27l-1.14.68v15.03l-3.22 1.91zM89.16 114.98c0 2.14-.26 4.09-.77 5.86-.52 1.77-1.21 3.29-2.08 4.57s-1.85 2.23-2.93 2.87c-1.08.65-2.06.85-2.94.61-.87-.24-1.57-.94-2.08-2.1-.51-1.16-.77-2.8-.77-4.92 0-2.14.26-4.09.77-5.86.51-1.77 1.21-3.29 2.08-4.56.87-1.27 1.85-2.23 2.94-2.88 1.08-.64 2.05-.85 2.93-.62s1.57.93 2.08 2.08c.51 1.17.77 2.82.77 4.95zm-3.32 1.98c0-1.15-.09-2.06-.28-2.74-.19-.68-.46-1.11-.83-1.3-.37-.19-.82-.13-1.35.19-.53.32-.98.79-1.35 1.42s-.64 1.39-.83 2.29c-.19.9-.28 1.93-.28 3.08 0 1.15.09 2.06.28 2.74.19.68.46 1.11.83 1.3s.82.13 1.35-.19c.54-.32.98-.79 1.35-1.42.37-.63.64-1.39.83-2.29.19-.9.28-1.93.28-3.08zM97.06 106.68c-.03-.61-.17-1.01-.43-1.2s-.65-.14-1.17.17c-.33.2-.61.43-.82.68-.21.25-.37.52-.47.8-.1.28-.15.56-.16.84-.01.24.02.43.08.58.06.15.16.26.29.33s.3.1.51.1c.21 0 .45-.04.73-.12l.98-.24c.66-.17 1.22-.21 1.69-.12s.85.29 1.15.61c.3.32.52.75.66 1.28s.21 1.17.22 1.89c0 1.27-.2 2.45-.59 3.55-.39 1.11-.94 2.1-1.66 2.98a9.74 9.74 0 0 1-2.59 2.22c-1.04.62-1.94.91-2.71.87-.77-.04-1.36-.44-1.79-1.21-.42-.78-.64-1.96-.64-3.57l3.07-1.83c.02.58.11 1.01.27 1.32.16.3.39.47.69.5.3.03.65-.08 1.06-.32.35-.21.63-.45.87-.72.23-.28.41-.57.53-.89.12-.31.18-.63.19-.95 0-.29-.06-.51-.18-.67-.11-.15-.3-.24-.56-.27-.26-.02-.61.02-1.05.12l-1.19.29c-1.05.26-1.88.14-2.49-.37-.61-.5-.91-1.51-.9-3.01 0-1.21.2-2.4.61-3.56.41-1.16.98-2.21 1.7-3.15.73-.95 1.56-1.7 2.5-2.26.96-.57 1.79-.81 2.49-.71.7.1 1.24.51 1.62 1.22.38.71.57 1.7.58 2.95l-3.09 1.87zM104.17 115.64l-3.49 2.08 3.93-21.53 4.41-2.63 3.93 16.85-3.48 2.08-2.6-12.36-.09.06-2.61 15.45zm-.65-7.18 6.55-3.9v3.9l-6.55 3.9v-3.9zM114.09 109.73V90.54l3.23-1.92v14.99l4.81-2.87v4.2l-8.04 4.79zM32.52 183.02v-19.66l8.78-5.23v4.3l-5.47 3.26v3.38l5.02-2.99v4.3l-5.02 2.99v3.38l5.45-3.25v4.3l-8.76 5.22zM46.49 155.04l2 4.53.1-.06 2.02-6.92 3.69-2.2-3.64 12 3.78 7.58-3.78 2.25-2.07-4.6-.1.06-2.07 7.07-3.76 2.24 3.74-12.05-3.62-7.67 3.71-2.23zM55.72 169.2v-19.66l8.78-5.23v4.3l-5.47 3.26v3.38l5.02-2.99v4.3l-5.02 2.99v3.38l5.45-3.24v4.3l-8.76 5.21zM77.52 143.93l-3.36 2c-.02-.43-.09-.8-.19-1.11-.1-.3-.24-.54-.42-.7a.874.874 0 0 0-.64-.23c-.25 0-.53.1-.85.29-.56.33-1.02.83-1.41 1.49-.38.66-.67 1.46-.87 2.39-.2.93-.29 1.96-.29 3.1 0 1.2.1 2.15.3 2.84.2.69.49 1.13.87 1.3.38.18.84.11 1.37-.21.31-.18.58-.41.82-.68.24-.27.45-.57.63-.92.18-.34.32-.72.44-1.12.11-.4.19-.83.23-1.27l3.36-1.96c-.04.86-.19 1.79-.44 2.8-.25 1.01-.6 2.01-1.06 3.01-.46 1-1.03 1.92-1.7 2.76a8.83 8.83 0 0 1-2.35 2.06c-1.12.67-2.12.88-3.01.63-.89-.25-1.59-.97-2.1-2.17s-.77-2.88-.77-5.06c0-2.19.26-4.19.79-6 .52-1.81 1.23-3.37 2.12-4.67.89-1.3 1.88-2.27 2.97-2.93.77-.46 1.48-.71 2.12-.76.65-.05 1.21.11 1.7.47s.88.92 1.18 1.69c.32.8.5 1.78.56 2.96zM86.23 131.37l3.31-1.97v12.59c0 1.5-.22 2.92-.66 4.28-.44 1.36-1.06 2.56-1.85 3.63-.79 1.06-1.7 1.9-2.75 2.52-1.05.63-1.97.88-2.76.76-.79-.12-1.4-.6-1.84-1.43-.44-.83-.66-1.99-.66-3.49v-12.59l3.31-1.97v12.13c0 .61.08 1.1.25 1.48.17.38.4.61.69.71.3.09.63.03 1.01-.2s.72-.56 1.01-1.01c.29-.44.52-.95.69-1.53.17-.58.25-1.17.25-1.78v-12.13zM90.78 132.96v-4.3l10.59-6.31v4.3l-3.67 2.18v15.36l-3.26 1.94v-15.36l-3.66 2.19zM102.6 141.28v-19.66l8.78-5.23v4.3l-5.47 3.26v3.38l5.02-2.99v4.3l-5.02 2.99v3.38l5.45-3.25v4.3l-8.76 5.22zM117.72 132.28l-4.69 2.79v-19.66l4.64-2.76c1.25-.75 2.34-1 3.25-.76.91.24 1.62.95 2.12 2.12.5 1.17.75 2.78.75 4.83 0 2.05-.25 3.95-.74 5.72-.5 1.76-1.2 3.31-2.11 4.63-.91 1.32-1.99 2.35-3.22 3.09zm-1.38-3.71 1.26-.75c.6-.36 1.12-.82 1.54-1.39.43-.57.75-1.3.98-2.2.22-.9.34-2.04.34-3.41s-.11-2.37-.34-3c-.23-.63-.56-.97-1-1.03-.44-.05-.98.11-1.61.49l-1.17.69v10.6z"/><circle cx="263.33" cy="58.37" r="17.42"/><path d="M259 40.43v7.23c-.22.92.19 1.91 1.22 2.62 1.7 1.18 4.46 1.18 6.16 0 .72-.5 1.14-1.13 1.25-1.79h.03v-7.88l-8.66-.18z" class="st0"/><path d="M259.04 45.6c0 1.64 1.92 2.97 4.29 2.97s4.29-1.33 4.29-2.97" class="st0"/><path d="M259.04 43.33c0 1.64 1.92 2.97 4.29 2.97s4.29-1.33 4.29-2.97" class="st0"/><path d="M259.04 40.95c0 1.64 1.92 2.97 4.29 2.97s4.29-1.33 4.29-2.97" class="st0"/><path d="M259 33.28v7.23c-.22.92.19 1.91 1.22 2.62 1.7 1.18 4.46 1.18 6.16 0 .72-.5 1.14-1.13 1.25-1.79h.03v-7.88l-8.66-.18z" class="st0"/><path d="M259.04 38.46c0 1.64 1.92 2.97 4.29 2.97s4.29-1.33 4.29-2.97" class="st0"/><path d="M259.04 36.19c0 1.64 1.92 2.97 4.29 2.97s4.29-1.33 4.29-2.97" class="st0"/><path d="M259.04 33.8c0 1.64 1.92 2.97 4.29 2.97s4.29-1.33 4.29-2.97" class="st0"/><path d="m263.06 43.86-11.92-6.89V25.05l11.92 6.88z" class="st1"/><path d="m263.06 43.86 11.93-6.89V25.05l-11.93 6.88z" class="st2"/><path d="m263.11 31.97-11.97-6.91 11.88-6.93 11.97 6.92z" class="st3"/><path id="矩形_00000177476841137953616810000000442120603518476715_" d="M259.11 21.97c.23.13.2.39-.08.55l-2.47 1.46c-.28.17-.72.19-.95.06-.23-.13-.2-.39.08-.55l2.47-1.46c.28-.17.72-.19.95-.06z" class="st4"/><path id="矩形_00000111177562144386042120000005728833683655455626_" d="M254.63 24.62c.23.13.2.39-.08.55l-.48.28c-.28.17-.72.19-.95.06-.23-.13-.2-.39.08-.55l.48-.28c.3-.18.72-.19.95-.06z" class="st4"/><path fill="#101422" fill-rule="evenodd" stroke="#101423" stroke-linecap="round" stroke-linejoin="round" stroke-miterlimit="10" stroke-width=".75" d="m263.04 158.85-53.79 30.72.13 21 53.78-30.72z" clip-rule="evenodd"/><path d="m168.54 166.9 40.71 22.62.25 20.86-40.71-22.62z" class="st1"/><path d="m262.79 158.83-41.24-23.01-53.01 31.08 40.71 22.82z" class="st3"/><path d="m263.04 134.31-53.79 30.72.13 21 53.78-30.72z" class="st2"/><path d="m168.54 142.36 40.71 22.61.25 20.87-40.71-22.62z" class="st1"/><path d="m263.04 134.24-41.24-23.01-53.26 30.74 40.71 22.82z" class="st3"/><circle cx="213.14" cy="111.19" r="41.04"/><path d="M217.3 175.29v-8.95l2.53-1.5c.49-.29.9-.41 1.24-.35.34.05.6.26.79.61.18.35.27.82.27 1.41s-.09 1.17-.28 1.74c-.18.56-.45 1.07-.8 1.53-.35.46-.77.84-1.26 1.13l-1.61.96v-1.52l1.39-.83c.26-.15.48-.35.65-.57.17-.23.3-.48.38-.76.08-.28.13-.56.13-.85 0-.3-.04-.53-.13-.71a.47.47 0 0 0-.38-.29c-.17-.02-.39.04-.65.2l-.91.54v7.4l-1.36.81zM222.99 171.92v-6.71l1.29-.77v1.17l.05-.03c.09-.47.23-.87.44-1.21.21-.34.44-.58.71-.74.07-.04.14-.08.22-.11.08-.03.15-.06.2-.07v1.65c-.06.01-.15.04-.26.08-.11.04-.21.09-.3.15-.2.12-.37.28-.53.49a2.633 2.633 0 0 0-.49 1.51v3.8l-1.33.79zM228.54 168.76c-.49.29-.91.39-1.26.31-.35-.08-.63-.32-.82-.73-.19-.41-.29-.95-.29-1.64s.1-1.36.29-1.99c.19-.63.47-1.2.82-1.7s.77-.89 1.26-1.18c.49-.29.91-.39 1.26-.31.35.08.63.32.82.73.19.41.29.96.29 1.65s-.1 1.35-.29 1.98c-.19.63-.47 1.2-.82 1.7s-.77.89-1.26 1.18zm.01-1.44c.22-.13.41-.33.55-.59s.26-.57.34-.92.11-.72.11-1.11c0-.39-.04-.72-.11-.98s-.19-.44-.34-.53c-.15-.09-.33-.07-.55.06-.22.13-.41.33-.56.6a3.2 3.2 0 0 0-.34.93c-.08.35-.11.72-.11 1.11 0 .39.04.72.11.98.08.26.19.43.34.52.15.08.33.06.56-.07zM231.78 169.23V160l1.32-.78v1.13l.06-.04c.06-.22.14-.45.26-.7.11-.25.26-.5.44-.73.18-.23.41-.43.68-.59.35-.21.67-.27.97-.19.3.08.53.32.71.73.18.41.27.99.27 1.76 0 .75-.09 1.43-.26 2.05-.17.62-.41 1.14-.7 1.58-.3.44-.63.77-.99.98-.26.15-.48.22-.66.21a.618.618 0 0 1-.44-.19c-.11-.11-.2-.25-.26-.4l-.04.02v3.59l-1.36.8zm1.31-6.65c0 .4.04.72.12.97.08.25.19.41.34.49.15.07.33.05.55-.08.22-.13.4-.32.55-.58.15-.26.26-.56.34-.9.08-.35.12-.71.12-1.1 0-.39-.04-.71-.12-.95-.08-.25-.19-.41-.34-.49-.15-.08-.33-.05-.55.08-.22.13-.4.32-.55.57s-.26.54-.34.89c-.08.33-.12.7-.12 1.1zM239.53 162.25c-.49.29-.91.39-1.26.31-.35-.08-.63-.32-.82-.73-.19-.41-.29-.95-.29-1.64s.1-1.36.29-1.99c.19-.63.47-1.2.82-1.7s.77-.89 1.26-1.18c.49-.29.91-.39 1.26-.31.35.08.63.32.82.73.19.41.29.96.29 1.65s-.1 1.35-.29 1.98c-.19.63-.47 1.2-.82 1.7s-.77.89-1.26 1.18zm.01-1.45c.22-.13.41-.33.55-.59s.26-.57.34-.92c.08-.35.11-.72.11-1.11s-.04-.72-.11-.98c-.08-.26-.19-.44-.34-.53-.15-.09-.33-.07-.55.06-.22.13-.41.33-.56.6-.15.27-.27.58-.34.93s-.11.72-.11 1.11c0 .39.04.72.11.98.08.26.19.43.34.52.15.09.34.07.56-.07zM246.78 153.03l-1.22.83a.719.719 0 0 0-.13-.32.342.342 0 0 0-.27-.12c-.11-.01-.24.04-.4.13-.21.12-.38.29-.52.49-.14.21-.21.41-.21.61 0 .16.05.27.14.32.09.06.25.05.47-.01l.87-.27c.47-.14.82-.13 1.05.03.23.16.34.48.34.97 0 .44-.09.88-.28 1.32-.18.44-.44.85-.76 1.22-.32.38-.69.69-1.11.93-.64.38-1.14.49-1.52.34-.38-.15-.6-.52-.66-1.13l1.31-.87c.04.25.14.4.29.45.15.05.35.01.59-.14.23-.14.42-.31.57-.53.14-.21.22-.42.22-.62 0-.17-.05-.28-.15-.33-.1-.05-.25-.04-.46.02l-.83.26c-.47.15-.82.13-1.05-.06-.23-.19-.34-.53-.34-1.03 0-.43.08-.85.25-1.26.17-.41.4-.79.71-1.14.31-.35.66-.65 1.08-.89.61-.36 1.09-.46 1.44-.31.31.16.52.53.58 1.11zM249.1 156.58c-.31.18-.58.27-.82.26a.69.69 0 0 1-.57-.33c-.14-.21-.21-.54-.21-.98a3.373 3.373 0 0 1 .55-1.88c.17-.25.36-.49.58-.69.22-.21.44-.4.68-.57.28-.21.51-.38.68-.52.17-.14.3-.27.37-.38a.69.69 0 0 0 .12-.39v-.03c0-.28-.06-.45-.19-.53-.12-.08-.3-.05-.53.09-.24.14-.43.33-.57.56-.14.23-.24.47-.28.72l-1.23.59c.06-.44.19-.87.37-1.28.18-.41.42-.78.71-1.11.29-.33.63-.62 1.01-.84.27-.16.52-.27.77-.32.25-.06.46-.05.65.02s.34.22.45.44c.11.22.17.53.17.93v4.53l-1.27.75v-.93l-.04.02c-.08.26-.18.5-.31.74s-.29.45-.47.65c-.17.17-.38.33-.62.48zm.38-1.52c.2-.12.37-.27.52-.47.15-.2.27-.42.35-.65.09-.24.13-.47.13-.71v-.71c-.04.06-.1.13-.17.2s-.15.15-.24.23c-.09.08-.18.15-.27.23-.09.07-.17.14-.24.2-.16.12-.29.26-.41.4s-.21.29-.27.44c-.06.16-.1.32-.1.5 0 .25.07.41.2.46.13.04.3.01.5-.12zM254.18 144.49v8.95l-1.33.79v-8.95l1.33-.79z"/><path id="矩形_00000047772722207879959470000005965209184411588488_" d="M172.16 217.11c.62 0 1.15.76 1.15 1.64v1.52c0 .88-.53 1.64-1.15 1.64-.62 0-1.15-.76-1.15-1.64v-1.52c.01-.95.54-1.64 1.15-1.64z" class="st4"/><radialGradient id="SVGID_1_" cx="140.621" cy="251.236" r="29.158" gradientTransform="matrix(1 0 0 .5898 0 103.058)" gradientUnits="userSpaceOnUse"><stop offset="0" stop-color="#b8b3d4"/><stop offset=".346" stop-color="#bab6d6" stop-opacity=".654"/><stop offset=".606" stop-color="#c2c0da" stop-opacity=".394"/><stop offset=".838" stop-color="#d0d0e3" stop-opacity=".162"/><stop offset="1" stop-color="#dde0eb" stop-opacity="0"/></radialGradient><path fill="url(#SVGID_1_)" d="M165.62 237.16c-13.68-7.9-35.96-8-49.77-.23s-13.91 20.48-.23 28.37 35.96 8 49.77.23c13.8-7.77 13.91-20.47.23-28.37z" opacity=".67"/><path fill="#3fa9bd" d="M179.12 201.13v-49.28c0-.23.02-.45.02-.68 0-22.91-18.57-41.48-41.48-41.48-22.91 0-41.48 18.57-41.48 41.48 0 .36.02.72.03 1.07v44.66h-.03v22.67a5.15 5.15 0 1 0 10.3 0v-.83c.56.36 1.13.72 1.74 1.07 1.83 1.06 3.79 1.99 5.85 2.81v8.2a5.15 5.15 0 1 0 10.3 0v-5.23c2.95.57 5.99.96 9.06 1.14v12.59c0 2.84 2.3 5.15 5.15 5.15s5.15-2.31 5.15-5.15v-12.7c3.39-.28 6.73-.8 9.93-1.55v6.36c0 2.84 2.3 5.15 5.15 5.15s5.15-2.31 5.15-5.15v-9.87c1-.47 1.97-.96 2.91-1.49.7-.39 1.35-.8 1.99-1.21v.71a5.15 5.15 0 1 0 10.3 0v-18.45h-.04z"/><radialGradient id="SVGID_00000122702606211608079650000001215534964899078033_" cx="162.344" cy="127.115" r="106.685" gradientUnits="userSpaceOnUse"><stop offset=".012" stop-color="#dd78ce"/><stop offset=".494" stop-color="#a7589a"/><stop offset=".583" stop-color="#a0619e"/><stop offset=".727" stop-color="#8e79a8"/><stop offset=".908" stop-color="#709fb9"/><stop offset="1" stop-color="#5eb6c3"/></radialGradient><path fill="url(#SVGID_00000122702606211608079650000001215534964899078033_)" d="M179.12 201.13v-49.28c0-.23.02-.45.02-.68 0-22.91-18.57-41.48-41.48-41.48-22.91 0-41.48 18.57-41.48 41.48 0 .36.02.72.03 1.07v44.66h-.03v22.67a5.15 5.15 0 1 0 10.3 0v-.83c.56.36 1.13.72 1.74 1.07 1.83 1.06 3.79 1.99 5.85 2.81v8.2a5.15 5.15 0 1 0 10.3 0v-5.23c2.95.57 5.99.96 9.06 1.14v12.59c0 2.84 2.3 5.15 5.15 5.15s5.15-2.31 5.15-5.15v-12.7c3.39-.28 6.73-.8 9.93-1.55v6.36c0 2.84 2.3 5.15 5.15 5.15s5.15-2.31 5.15-5.15v-9.87c1-.47 1.97-.96 2.91-1.49.7-.39 1.35-.8 1.99-1.21v.71a5.15 5.15 0 1 0 10.3 0v-18.45h-.04z"/><path id="矩形_00000082339787121204155610000017472619623850273973_" d="M100.07 187.29c1.12 0 2.09 1.38 2.09 2.99v14.25c0 1.61-.96 2.99-2.09 2.99-1.12 0-2.09-1.38-2.09-2.99v-14.25c.01-1.61.97-2.99 2.09-2.99z" class="st4"/><path id="矩形_00000140694912825121269890000012074212707865394570_" d="M161.37 124.2c1.37-1.02 3.68-.37 5.02 1.41l2.29 3.06c1.34 1.78 1.31 4.19-.06 5.22-1.37 1.02-3.68.37-5.02-1.41l-2.29-3.06c-1.43-1.92-1.3-4.19.06-5.22z" class="st4"/><path id="矩形_00000052101456802643579070000006549535470108254613_" d="M117.47 223.88c1.12 0 2.09 1.38 2.09 2.99v2.76c0 1.61-.96 2.99-2.09 2.99-1.12 0-2.09-1.38-2.09-2.99v-2.76c0-1.73.97-2.99 2.09-2.99z" class="st4"/><path id="矩形_00000005240636091919715950000010446911922045674112_" d="M99.82 213.08c1.12 0 2.09 1.38 2.09 2.99v2.76c0 1.61-.96 2.99-2.09 2.99-1.12 0-2.09-1.38-2.09-2.99v-2.76c.01-1.73.97-2.99 2.09-2.99z" class="st4"/><path id="矩形_00000038385485932627308710000002339675772170999209_" d="M137.66 232.62c1.12 0 2.09 1.38 2.09 2.99v2.76c0 1.61-.96 2.99-2.09 2.99-1.12 0-2.09-1.38-2.09-2.99v-2.76c0-1.73.97-2.99 2.09-2.99z" class="st4"/><path id="矩形_00000095335377976400908480000010486449541008413316_" d="M157.36 227.27c.89 0 1.66 1.1 1.66 2.37v2.19c0 1.28-.76 2.37-1.66 2.37-.89 0-1.66-1.1-1.66-2.37v-2.19c0-1.36.77-2.37 1.66-2.37z" class="st4"/><path id="椭圆形_00000054248711813508136650000010496227610145564032_" d="M147.67 182.16c4.06-.17 7.1-3.66 7.09-6 0-.94-.55-1.75-1.38-1.81-1.29-.13-3.23.7-5.72.8-2.31.1-3.78-.5-5.53-.42-1.84.08-1.75 2.22-1.47 3.06.64 2.3 2.86 4.54 7.01 4.37z" class="st486"/><path id="椭圆形_00000034770883363643650010000000740162168640243605_" d="M147.76 180.19c4.15-.17 7.19-3.38 7.19-5.63 0-.84-.55-1.57-1.38-1.63-1.29-.13-3.32.7-5.81.8-2.4.1-3.78-.5-5.62-.43s-1.75 2.13-1.48 2.87c.64 2.13 2.95 4.19 7.1 4.02z" class="st45"/><ellipse cx="130.72" cy="158.69" class="st45" rx="9.5" ry="9.1" transform="rotate(-55.453 130.723 158.688)"/><path id="形状结合_00000132792188747043250410000016677403019537620632_" d="M131.92 148.73c4.24-.18 7.66 3.98 7.66 9.22v1.12c0-5.33-3.33-9.59-7.48-9.42-4.15.17-7.46 4.61-7.46 10.04 0 1.03.09 2.05.37 2.98-.46-1.2-.74-2.59-.74-3.99 0-5.33 3.41-9.78 7.65-9.95z" class="st79"/><path id="形状结合_00000129192393829822139470000001152170129441275270_" d="M131.92 147.6c4.7-.2 8.58 4.41 8.58 10.31.01 5.89-3.86 10.83-8.57 11.02-4.7.2-8.58-4.41-8.58-10.31 0-5.89 3.77-10.82 8.57-11.02zm0 1.13c-4.24.18-7.65 4.62-7.64 9.86 0 5.24 3.42 9.4 7.66 9.22 4.24-.18 7.65-4.62 7.64-9.86 0-5.24-3.51-9.4-7.66-9.22z" class="st80"/><ellipse cx="161.44" cy="157.31" class="st45" rx="9.5" ry="9.1" transform="rotate(-55.453 161.44 157.308)"/><path id="形状结合_00000097487449973826404040000009769520988421163654_" d="M162.43 147.35c4.24-.18 7.66 3.98 7.66 9.22v1.12c0-5.33-3.33-9.59-7.48-9.42-4.15.17-7.46 4.61-7.46 10.04 0 1.03.09 2.05.37 2.98-.46-1.2-.74-2.59-.74-3.99 0-5.32 3.41-9.77 7.65-9.95z" class="st79"/><path id="形状结合_00000002385444506018637360000009431741213048846007_" d="M162.43 146.23c4.7-.2 8.58 4.41 8.58 10.31s-3.86 10.83-8.57 11.02-8.58-4.41-8.58-10.31c0-5.89 3.78-10.82 8.57-11.02zm0 1.12c-4.24.18-7.65 4.62-7.64 9.86s3.42 9.4 7.66 9.22c4.24-.18 7.65-4.62 7.64-9.86 0-5.23-3.51-9.39-7.66-9.22z" class="st80"/><circle cx="128.04" cy="156.26" r="3.77" class="st486"/><circle cx="158.59" cy="155.13" r="3.77" class="st486"/><circle cx="213.14" cy="111.19" r="28.4" class="st609"/><circle cx="213.14" cy="111.19" r="11.86" class="st609"/><path d="m259.82 27.52-1.35-.76 7.84-4.62 1.35.76zM139.38 24.63l-2.18-1.23 12.67-7.48 2.18 1.23z" class="st8"/></svg>