<svg xmlns="http://www.w3.org/2000/svg" xml:space="preserve" id="Слой_1" x="0" y="0" version="1.1" viewBox="0 0 290 269.62"><style>.st1,.st6,.st7,.st8{fill:#fff;stroke:#1d1d1b;stroke-linecap:round;stroke-linejoin:round;stroke-miterlimit:10}.st6,.st7,.st8{fill-rule:evenodd;clip-rule:evenodd;stroke:#111422}.st7,.st8{fill:#c6c3d1;stroke:#101320}.st8{fill:#ecf0fc;stroke:#111422}.st41{opacity:.2563;enable-background:new}.st202,.st41,.st42,.st495,.st76,.st77{fill-rule:evenodd;clip-rule:evenodd;fill:#fff}.st202,.st495,.st76,.st77{fill:#afafb1}.st202,.st495,.st77{fill:#d3d3d3}.st202,.st495{fill:#555069}.st495{fill:#111422}</style><circle cx="144.67" cy="70.24" r="26.03"/><path d="m138.21 43.43-.01 10.81c-.33 1.38.28 2.85 1.82 3.91 2.54 1.76 6.66 1.76 9.2 0 1.08-.75 1.7-1.69 1.86-2.67h.04V54.9l.01-11.18-12.92-.29z" class="st1"/><path d="M138.26 51.16c0 2.45 2.87 4.43 6.41 4.43s6.41-1.98 6.41-4.43" class="st1"/><path d="M138.26 47.77c0 2.45 2.87 4.43 6.41 4.43s6.41-1.98 6.41-4.43" class="st1"/><path d="M138.26 44.21c0 2.45 2.87 4.43 6.41 4.43s6.41-1.98 6.41-4.43" class="st1"/><path d="m138.21 32.75-.01 10.81c-.33 1.38.28 2.85 1.82 3.91 2.54 1.76 6.66 1.76 9.2 0 1.08-.75 1.7-1.69 1.86-2.67h.04V44.22l.01-11.18-12.92-.29z" class="st1"/><path d="M138.26 40.49c0 2.45 2.87 4.43 6.41 4.43s6.41-1.98 6.41-4.43" class="st1"/><path d="M138.26 37.1c0 2.45 2.87 4.43 6.41 4.43s6.41-1.98 6.41-4.43" class="st1"/><path d="M138.26 33.54c0 2.45 2.87 4.43 6.41 4.43s6.41-1.98 6.41-4.43" class="st1"/><path d="m144.27 48.55-17.81-10.28V20.45l17.81 10.29z" class="st7"/><path d="m144.27 48.55 17.82-10.28V20.45l-17.82 10.29z" class="st6"/><path d="m144.34 30.79-17.88-10.32 17.75-10.34 17.88 10.32z" class="st8"/><path id="矩形_00000152965764248126467160000011031630007989843329_" d="M138.37 15.86c.35.2.29.58-.12.83l-3.7 2.19c-.42.25-1.08.29-1.43.09-.35-.2-.29-.58.12-.83l3.7-2.19c.42-.25 1.08-.29 1.43-.09z" class="st41"/><path id="矩形_00000002355749646748791350000001255618378847473029_" d="M131.68 19.82c.35.2.29.58-.12.83l-.72.42c-.42.25-1.08.29-1.43.09-.35-.2-.29-.58.12-.83l.72-.42c.45-.27 1.08-.29 1.43-.09z" class="st41"/><circle cx="263.33" cy="58.37" r="17.42"/><path d="M259 40.43v7.23c-.22.92.19 1.91 1.22 2.62 1.7 1.18 4.46 1.18 6.16 0 .72-.5 1.14-1.13 1.25-1.79h.03v-7.88l-8.66-.18z" class="st1"/><path d="M259.04 45.6c0 1.64 1.92 2.97 4.29 2.97s4.29-1.33 4.29-2.97" class="st1"/><path d="M259.04 43.33c0 1.64 1.92 2.97 4.29 2.97s4.29-1.33 4.29-2.97" class="st1"/><path d="M259.04 40.95c0 1.64 1.92 2.97 4.29 2.97s4.29-1.33 4.29-2.97" class="st1"/><path d="M259 33.28v7.23c-.22.92.19 1.91 1.22 2.62 1.7 1.18 4.46 1.18 6.16 0 .72-.5 1.14-1.13 1.25-1.79h.03v-7.88l-8.66-.18z" class="st1"/><path d="M259.04 38.46c0 1.64 1.92 2.97 4.29 2.97s4.29-1.33 4.29-2.97" class="st1"/><path d="M259.04 36.19c0 1.64 1.92 2.97 4.29 2.97s4.29-1.33 4.29-2.97" class="st1"/><path d="M259.04 33.8c0 1.64 1.92 2.97 4.29 2.97s4.29-1.33 4.29-2.97" class="st1"/><path d="m263.06 43.86-11.92-6.89V25.05l11.92 6.88z" class="st7"/><path d="m263.06 43.86 11.93-6.89V25.05l-11.93 6.88z" class="st6"/><path d="m263.11 31.97-11.97-6.91 11.88-6.93 11.97 6.92z" class="st8"/><path id="矩形_00000166660472728042455160000006390938585935435430_" d="M259.11 21.97c.23.13.2.39-.08.55l-2.47 1.46c-.28.17-.72.19-.95.06-.23-.13-.2-.39.08-.55l2.47-1.46c.28-.17.72-.19.95-.06z" class="st41"/><path id="矩形_00000049219093032399326050000013220863242366967943_" d="M254.63 24.62c.23.13.2.39-.08.55l-.48.28c-.28.17-.72.19-.95.06-.23-.13-.2-.39.08-.55l.48-.28c.3-.18.72-.19.95-.06z" class="st41"/><path d="m263.04 143.54-53.79 30.72.13 21 53.78-30.72z" class="st6"/><path d="m168.54 151.58 40.71 22.62.25 20.87-40.71-22.62z" class="st7"/><path d="m263.1 143.59-41.24-23.01-53.32 31 40.71 22.83z" class="st8"/><circle cx="213.14" cy="120.42" r="41.04"/><path d="m202.96 78.14-.01 17.04c-.52 2.18.44 4.49 2.87 6.17 4.01 2.77 10.5 2.77 14.51 0 1.7-1.18 2.68-2.67 2.94-4.21h.07V96.22l.01-17.63-20.39-.45z" class="st1"/><path d="M203.04 90.34c0 3.86 4.52 6.99 10.11 6.99s10.11-3.13 10.11-6.99" class="st1"/><path d="M203.04 84.99c0 3.86 4.52 6.99 10.11 6.99s10.11-3.13 10.11-6.99" class="st1"/><path d="M203.04 79.38c0 3.86 4.52 6.99 10.11 6.99s10.11-3.13 10.11-6.99" class="st1"/><path d="m202.96 61.31-.01 17.04c-.52 2.18.44 4.49 2.87 6.17 4.01 2.77 10.5 2.77 14.51 0 1.7-1.18 2.68-2.67 2.94-4.21h.07V79.39l.01-17.63-20.39-.45z" class="st1"/><path d="M203.04 73.51c0 3.86 4.52 6.99 10.11 6.99s10.11-3.13 10.11-6.99" class="st1"/><path d="M203.04 68.16c0 3.86 4.52 6.99 10.11 6.99s10.11-3.13 10.11-6.99" class="st1"/><path d="M203.04 62.55c0 3.86 4.52 6.99 10.11 6.99s10.11-3.13 10.11-6.99" class="st1"/><path d="m212.52 86.23-28.09-16.22V41.92l28.09 16.22z" class="st7"/><path d="m212.52 86.23 28.09-16.22V41.92l-28.09 16.22z" class="st6"/><path d="m212.62 58.22-28.19-16.27 27.99-16.31 28.2 16.27z" class="st8"/><path id="矩形_00000178186072847615939980000011149566003582114227_" d="M203.21 34.67c.55.31.46.92-.2 1.31l-5.83 3.45c-.66.39-1.7.45-2.25.14s-.46-.92.2-1.31l5.83-3.45c.66-.39 1.7-.45 2.25-.14z" class="st41"/><path id="矩形_00000088853396447638292960000003891092818737782933_" d="M192.66 40.92c.55.31.46.92-.2 1.31l-1.13.67c-.66.39-1.7.45-2.25.14s-.46-.92.2-1.31l1.13-.67c.71-.42 1.7-.46 2.25-.14z" class="st41"/><path d="M217.3 184.52v-8.95l2.53-1.5c.49-.29.9-.41 1.24-.35.34.05.6.26.79.61.18.35.27.82.27 1.41s-.09 1.17-.28 1.74c-.18.56-.45 1.07-.8 1.53-.35.46-.77.84-1.26 1.13l-1.61.96v-1.52l1.39-.83c.26-.15.48-.35.65-.57.17-.23.3-.48.38-.76.08-.28.13-.56.13-.85 0-.3-.04-.53-.13-.71a.47.47 0 0 0-.38-.29c-.17-.02-.39.04-.65.2l-.91.54v7.4l-1.36.81zM222.99 181.15v-6.71l1.29-.77v1.17l.05-.03c.09-.47.23-.87.44-1.21.21-.34.44-.58.71-.74.07-.04.14-.08.22-.11.08-.03.15-.06.2-.07v1.65c-.06.01-.15.04-.26.08-.11.04-.21.09-.3.15-.2.12-.37.28-.53.49a2.633 2.633 0 0 0-.49 1.51v3.8l-1.33.79zM228.54 177.99c-.49.29-.91.39-1.26.31-.35-.08-.63-.32-.82-.73-.19-.41-.29-.95-.29-1.64s.1-1.36.29-1.99c.19-.63.47-1.2.82-1.7s.77-.89 1.26-1.18c.49-.29.91-.39 1.26-.31.35.08.63.32.82.73.19.41.29.96.29 1.65s-.1 1.35-.29 1.98c-.19.63-.47 1.2-.82 1.7s-.77.89-1.26 1.18zm.01-1.44c.22-.13.41-.33.55-.59.15-.26.26-.57.34-.92s.11-.72.11-1.11-.04-.72-.11-.98-.19-.44-.34-.53c-.15-.09-.33-.07-.55.06-.22.13-.41.33-.56.6a3.2 3.2 0 0 0-.34.93c-.08.35-.11.72-.11 1.11 0 .39.04.72.11.98.08.26.19.43.34.52.15.08.33.06.56-.07zM231.78 178.46v-9.23l1.32-.78v1.13l.06-.04c.06-.22.14-.45.26-.7.11-.25.26-.5.44-.73.18-.23.41-.43.68-.59.35-.21.67-.27.97-.19.3.08.53.32.71.73.18.41.27.99.27 1.76 0 .75-.09 1.43-.26 2.05-.17.62-.41 1.14-.7 1.58-.3.44-.63.77-.99.98-.26.15-.48.22-.66.21a.618.618 0 0 1-.44-.19c-.11-.11-.2-.25-.26-.4l-.04.02v3.59l-1.36.8zm1.31-6.65c0 .4.04.72.12.97.08.25.19.41.34.49.15.07.33.05.55-.08.22-.13.4-.32.55-.58.15-.26.26-.56.34-.9.08-.35.12-.71.12-1.1 0-.39-.04-.71-.12-.95-.08-.25-.19-.41-.34-.49-.15-.08-.33-.05-.55.08-.22.13-.4.32-.55.57-.15.25-.26.54-.34.89-.08.33-.12.7-.12 1.1zM239.53 171.48c-.49.29-.91.39-1.26.31-.35-.08-.63-.32-.82-.73-.19-.41-.29-.95-.29-1.64s.1-1.36.29-1.99c.19-.63.47-1.2.82-1.7s.77-.89 1.26-1.18c.49-.29.91-.39 1.26-.31.35.08.63.32.82.73.19.41.29.96.29 1.65s-.1 1.35-.29 1.98c-.19.63-.47 1.2-.82 1.7s-.77.89-1.26 1.18zm.01-1.45c.22-.13.41-.33.55-.59.15-.26.26-.57.34-.92.08-.35.11-.72.11-1.11 0-.39-.04-.72-.11-.98-.08-.26-.19-.44-.34-.53-.15-.09-.33-.07-.55.06-.22.13-.41.33-.56.6a3.2 3.2 0 0 0-.34.93c-.08.35-.11.72-.11 1.11 0 .39.04.72.11.98.08.26.19.43.34.52.15.09.34.06.56-.07zM246.78 162.26l-1.22.83a.719.719 0 0 0-.13-.32.342.342 0 0 0-.27-.12c-.11-.01-.24.04-.4.13-.21.12-.38.29-.52.49-.14.21-.21.41-.21.61 0 .16.05.27.14.32.09.06.25.05.47-.01l.87-.27c.47-.14.82-.13 1.05.03.23.16.34.48.34.97 0 .44-.09.88-.28 1.32-.18.44-.44.85-.76 1.22-.32.38-.69.69-1.11.93-.64.38-1.14.49-1.52.34-.38-.15-.6-.52-.66-1.13l1.31-.87c.04.25.14.4.29.45.15.05.35.01.59-.14.23-.14.42-.31.57-.53.14-.21.22-.42.22-.62 0-.17-.05-.28-.15-.33-.1-.05-.25-.04-.46.02l-.83.26c-.47.15-.82.13-1.05-.06-.23-.19-.34-.53-.34-1.03 0-.43.08-.85.25-1.26.17-.41.4-.79.71-1.14.31-.35.66-.65 1.08-.89.61-.36 1.09-.46 1.44-.31.31.16.52.52.58 1.11zM249.1 165.8c-.31.18-.58.27-.82.26a.69.69 0 0 1-.57-.33c-.14-.21-.21-.54-.21-.98a3.373 3.373 0 0 1 .55-1.88c.17-.25.36-.49.58-.69.22-.21.44-.4.68-.57.28-.21.51-.38.68-.52.17-.14.3-.27.37-.38a.69.69 0 0 0 .12-.39v-.03c0-.28-.06-.45-.19-.53-.12-.08-.3-.05-.53.09-.24.14-.43.33-.57.56-.14.23-.24.47-.28.72l-1.23.59c.06-.44.19-.87.37-1.28.18-.41.42-.78.71-1.11.29-.33.63-.62 1.01-.84.27-.16.52-.27.77-.32.25-.06.46-.05.65.02s.34.22.45.44c.11.22.17.53.17.93v4.53l-1.27.75v-.93l-.04.02c-.08.26-.18.5-.31.74s-.29.45-.47.65c-.17.17-.38.34-.62.48zm.38-1.51c.2-.12.37-.27.52-.47.15-.2.27-.42.35-.65.09-.24.13-.47.13-.71v-.71c-.04.06-.1.13-.17.2s-.15.15-.24.23c-.09.08-.18.15-.27.23-.09.07-.17.14-.24.2-.16.12-.29.26-.41.4s-.21.29-.27.44c-.06.16-.1.32-.1.5 0 .25.07.41.2.46s.3 0 .5-.12zM254.18 153.72v8.95l-1.33.79v-8.95l1.33-.79z"/><path d="M132.63 74 22.49 136.92v58.9l110.14-62.92z" class="st6"/><path d="m8.05 128.76 14.44 7.8v59.26l-14.44-7.8z" class="st7"/><path d="m132.63 74-15.51-8.2L8.05 128.76l14.44 7.8z" class="st8"/><path d="m46.42 148.81-3.88 2.31c-.03-.5-.1-.93-.22-1.28s-.28-.62-.48-.81c-.2-.18-.45-.27-.74-.27s-.62.12-.98.34c-.64.38-1.18.96-1.63 1.72-.44.77-.78 1.69-1 2.76-.23 1.08-.34 2.27-.34 3.59 0 1.39.12 2.49.35 3.28.23.8.57 1.3 1.01 1.51.44.21.97.13 1.59-.24.35-.21.67-.47.95-.78.28-.31.52-.67.73-1.06.21-.4.38-.83.51-1.29.13-.46.22-.96.26-1.47l3.88-2.27c-.05.99-.21 2.07-.5 3.23-.29 1.17-.7 2.33-1.23 3.48-.53 1.16-1.18 2.22-1.96 3.2-.78.97-1.69 1.77-2.72 2.38-1.29.77-2.45 1.02-3.48.73-1.02-.28-1.83-1.12-2.43-2.5-.59-1.39-.89-3.34-.89-5.85 0-2.53.3-4.84.91-6.94.61-2.1 1.42-3.9 2.45-5.4 1.03-1.5 2.17-2.63 3.44-3.39.89-.53 1.71-.82 2.46-.87.75-.05 1.4.13 1.97.54.56.42 1.02 1.07 1.36 1.96.33.89.54 2.02.61 3.39zM48.15 161.98v-22.73l6.08-3.62c1.05-.62 1.96-.86 2.74-.71.78.15 1.39.67 1.83 1.56.44.89.65 2.15.65 3.76 0 1.63-.22 3.13-.67 4.52-.45 1.38-1.07 2.6-1.88 3.65a9.812 9.812 0 0 1-2.82 2.53l-3.63 2.16v-4.79l2.86-1.7c.45-.27.83-.59 1.15-.96.32-.37.56-.81.74-1.31s.26-1.08.26-1.72c0-.65-.09-1.13-.26-1.44-.17-.31-.42-.46-.74-.47-.32 0-.7.12-1.15.39l-1.35.8v17.8l-3.81 2.28zm8.26-15.34 3.52 8.33-4.16 2.48-3.44-8.38 4.08-2.43zM61.09 154.28v-22.73l10.15-6.05v4.97l-6.33 3.77v3.91l5.81-3.46v4.97l-5.81 3.46v3.9l6.3-3.75v4.97l-10.12 6.04zM76.8 144.93l-4.13 2.46 4.65-25.5 5.23-3.11 4.65 19.96-4.13 2.46-3.08-14.63-.11.06-3.08 18.3zm-.77-8.51 7.76-4.62v4.62l-7.76 4.62v-4.62zM86.37 121.46v-4.97l12.24-7.29v4.97l-4.24 2.52v17.76l-3.77 2.24v-17.76l-4.23 2.53zM100.05 131.08v-22.73l10.15-6.05v4.97l-6.33 3.77v3.91l5.81-3.46v4.97l-5.81 3.46v3.9l6.3-3.75v4.97l-10.12 6.04zM117.52 120.67l-5.42 3.23v-22.73l5.37-3.2c1.45-.86 2.7-1.16 3.76-.88 1.06.28 1.87 1.09 2.45 2.45.57 1.35.86 3.22.86 5.58 0 2.37-.29 4.57-.86 6.61-.57 2.04-1.39 3.82-2.44 5.36-1.05 1.54-2.29 2.73-3.72 3.58zm-1.59-4.29 1.46-.87c.7-.42 1.29-.95 1.79-1.61.49-.66.87-1.51 1.13-2.55.26-1.04.39-2.35.39-3.94 0-1.58-.13-2.74-.4-3.47-.26-.73-.65-1.13-1.16-1.19-.51-.06-1.13.13-1.86.57l-1.35.8v12.26z"/><path id="矩形_00000084504702997513236480000004359625126704803472_" d="M172.16 217.11c.62 0 1.15.76 1.15 1.64v1.52c0 .88-.53 1.64-1.15 1.64-.62 0-1.15-.76-1.15-1.64v-1.52c.01-.95.54-1.64 1.15-1.64z" class="st41"/><radialGradient id="SVGID_1_" cx="140.621" cy="251.236" r="29.158" gradientTransform="matrix(1 0 0 .5898 0 103.058)" gradientUnits="userSpaceOnUse"><stop offset="0" stop-color="#b8b3d4"/><stop offset=".346" stop-color="#bab6d6" stop-opacity=".654"/><stop offset=".606" stop-color="#c2c0da" stop-opacity=".394"/><stop offset=".838" stop-color="#d0d0e3" stop-opacity=".162"/><stop offset="1" stop-color="#dde0eb" stop-opacity="0"/></radialGradient><path fill="url(#SVGID_1_)" d="M165.62 237.16c-13.68-7.9-35.96-8-49.77-.23s-13.91 20.48-.23 28.37 35.96 8 49.77.23c13.8-7.77 13.91-20.47.23-28.37z" opacity=".67"/><path fill="#3fa9bd" d="M179.12 201.13v-49.28c0-.23.02-.45.02-.68 0-22.91-18.57-41.48-41.48-41.48-22.91 0-41.48 18.57-41.48 41.48 0 .36.02.72.03 1.07v44.66h-.03v22.67a5.15 5.15 0 1 0 10.3 0v-.83c.56.36 1.13.72 1.74 1.07 1.83 1.06 3.79 1.99 5.85 2.81v8.2a5.15 5.15 0 1 0 10.3 0v-5.23c2.95.57 5.99.96 9.06 1.14v12.59c0 2.84 2.3 5.15 5.15 5.15s5.15-2.31 5.15-5.15v-12.7c3.39-.28 6.73-.8 9.93-1.55v6.36c0 2.84 2.3 5.15 5.15 5.15s5.15-2.31 5.15-5.15v-9.87c1-.47 1.97-.96 2.91-1.49.7-.39 1.35-.8 1.99-1.21v.71a5.15 5.15 0 1 0 10.3 0v-18.45h-.04z"/><radialGradient id="SVGID_00000163771697433188598790000004419463233254578052_" cx="162.344" cy="127.115" r="106.685" gradientUnits="userSpaceOnUse"><stop offset=".012" stop-color="#dd78ce"/><stop offset=".494" stop-color="#a7589a"/><stop offset=".583" stop-color="#a0619e"/><stop offset=".727" stop-color="#8e79a8"/><stop offset=".908" stop-color="#709fb9"/><stop offset="1" stop-color="#5eb6c3"/></radialGradient><path fill="url(#SVGID_00000163771697433188598790000004419463233254578052_)" d="M179.12 201.13v-49.28c0-.23.02-.45.02-.68 0-22.91-18.57-41.48-41.48-41.48-22.91 0-41.48 18.57-41.48 41.48 0 .36.02.72.03 1.07v44.66h-.03v22.67a5.15 5.15 0 1 0 10.3 0v-.83c.56.36 1.13.72 1.74 1.07 1.83 1.06 3.79 1.99 5.85 2.81v8.2a5.15 5.15 0 1 0 10.3 0v-5.23c2.95.57 5.99.96 9.06 1.14v12.59c0 2.84 2.3 5.15 5.15 5.15s5.15-2.31 5.15-5.15v-12.7c3.39-.28 6.73-.8 9.93-1.55v6.36c0 2.84 2.3 5.15 5.15 5.15s5.15-2.31 5.15-5.15v-9.87c1-.47 1.97-.96 2.91-1.49.7-.39 1.35-.8 1.99-1.21v.71a5.15 5.15 0 1 0 10.3 0v-18.45h-.04z"/><path id="矩形_00000016043104623333237190000010570770267099354502_" d="M100.07 187.29c1.12 0 2.09 1.38 2.09 2.99v14.25c0 1.61-.96 2.99-2.09 2.99-1.12 0-2.09-1.38-2.09-2.99v-14.25c.01-1.61.97-2.99 2.09-2.99z" class="st41"/><path id="矩形_00000099658289803915729110000009044373341090548924_" d="M161.37 124.2c1.37-1.02 3.68-.37 5.02 1.41l2.29 3.06c1.34 1.78 1.31 4.19-.06 5.22-1.37 1.02-3.68.37-5.02-1.41l-2.29-3.06c-1.43-1.92-1.3-4.19.06-5.22z" class="st41"/><path id="矩形_00000116216256615982617900000001217316259095205814_" d="M117.47 223.88c1.12 0 2.09 1.38 2.09 2.99v2.76c0 1.61-.96 2.99-2.09 2.99-1.12 0-2.09-1.38-2.09-2.99v-2.76c0-1.73.97-2.99 2.09-2.99z" class="st41"/><path id="矩形_00000013152885558241464630000017085390915233020578_" d="M99.82 213.08c1.12 0 2.09 1.38 2.09 2.99v2.76c0 1.61-.96 2.99-2.09 2.99-1.12 0-2.09-1.38-2.09-2.99v-2.76c.01-1.73.97-2.99 2.09-2.99z" class="st41"/><path id="矩形_00000086653869636410071550000011787781494112990897_" d="M137.66 232.62c1.12 0 2.09 1.38 2.09 2.99v2.76c0 1.61-.96 2.99-2.09 2.99-1.12 0-2.09-1.38-2.09-2.99v-2.76c0-1.73.97-2.99 2.09-2.99z" class="st41"/><path id="矩形_00000181050918601832270680000002282361696161209272_" d="M157.36 227.27c.89 0 1.66 1.1 1.66 2.37v2.19c0 1.28-.76 2.37-1.66 2.37-.89 0-1.66-1.1-1.66-2.37v-2.19c0-1.36.77-2.37 1.66-2.37z" class="st41"/><path id="椭圆形_00000033343500794054934110000001822094218464126642_" d="M147.67 182.16c4.06-.17 7.1-3.66 7.09-6 0-.94-.55-1.75-1.38-1.81-1.29-.13-3.23.7-5.72.8-2.31.1-3.78-.5-5.53-.42-1.84.08-1.75 2.22-1.47 3.06.64 2.3 2.86 4.54 7.01 4.37z" class="st202"/><path id="椭圆形_00000183939295864262813280000003955668878329510591_" d="M147.76 180.19c4.15-.17 7.19-3.38 7.19-5.63 0-.84-.55-1.57-1.38-1.63-1.29-.13-3.32.7-5.81.8-2.4.1-3.78-.5-5.62-.43s-1.75 2.13-1.48 2.87c.64 2.13 2.95 4.19 7.1 4.02z" class="st42"/><ellipse cx="130.72" cy="158.69" class="st42" rx="9.5" ry="9.1" transform="rotate(-55.453 130.723 158.688)"/><path id="形状结合_00000002344210047940911030000009532115132819020971_" d="M131.92 148.73c4.24-.18 7.66 3.98 7.66 9.22v1.12c0-5.33-3.33-9.59-7.48-9.42-4.15.17-7.46 4.61-7.46 10.04 0 1.03.09 2.05.37 2.98-.46-1.2-.74-2.59-.74-3.99 0-5.33 3.41-9.78 7.65-9.95z" class="st76"/><path id="形状结合_00000165223589190249591860000001051174602746959035_" d="M131.92 147.6c4.7-.2 8.58 4.41 8.58 10.31.01 5.89-3.86 10.83-8.57 11.02-4.7.2-8.58-4.41-8.58-10.31 0-5.89 3.77-10.82 8.57-11.02zm0 1.13c-4.24.18-7.65 4.62-7.64 9.86 0 5.24 3.42 9.4 7.66 9.22 4.24-.18 7.65-4.62 7.64-9.86 0-5.24-3.51-9.4-7.66-9.22z" class="st77"/><ellipse cx="161.44" cy="157.31" class="st42" rx="9.5" ry="9.1" transform="rotate(-55.453 161.44 157.308)"/><path id="形状结合_00000027564243935782100600000006492101382301278908_" d="M162.43 147.35c4.24-.18 7.66 3.98 7.66 9.22v1.12c0-5.33-3.33-9.59-7.48-9.42-4.15.17-7.46 4.61-7.46 10.04 0 1.03.09 2.05.37 2.98-.46-1.2-.74-2.59-.74-3.99 0-5.32 3.41-9.77 7.65-9.95z" class="st76"/><path id="形状结合_00000111193413202286934280000013907302264942872220_" d="M162.43 146.23c4.7-.2 8.58 4.41 8.58 10.31s-3.86 10.83-8.57 11.02-8.58-4.41-8.58-10.31c0-5.89 3.78-10.82 8.57-11.02zm0 1.12c-4.24.18-7.65 4.62-7.64 9.86s3.42 9.4 7.66 9.22c4.24-.18 7.65-4.62 7.64-9.86 0-5.23-3.51-9.39-7.66-9.22z" class="st77"/><circle cx="130.72" cy="158.69" r="3.77" class="st202"/><circle cx="161.27" cy="157.56" r="3.77" class="st202"/><path d="m204.48 49-3.57-2.01 20.76-12.26 3.58 2.02zM259.82 27.52l-1.35-.76 7.84-4.62 1.35.76zM139.38 24.63l-2.18-1.23 12.67-7.48 2.18 1.23z" class="st495"/></svg>