<svg xmlns="http://www.w3.org/2000/svg" xml:space="preserve" id="Слой_1" x="0" y="0" version="1.1" viewBox="0 0 291 270.62"><style>.st1{fill:#0d101d;stroke:#000;stroke-linecap:round;stroke-linejoin:round;stroke-miterlimit:10}.st2{fill:#30345e}.st4{fill-rule:evenodd;clip-rule:evenodd;fill:#0d101d}.st4,.st5{stroke:#000;stroke-linecap:round;stroke-linejoin:round;stroke-miterlimit:10}.st16,.st5,.st6{fill-rule:evenodd;clip-rule:evenodd}.st6{fill:#30345e;stroke:#000;stroke-linecap:round;stroke-linejoin:round;stroke-miterlimit:10}.st16{fill:#40407c}.st30{stroke:#1a213a;stroke-linecap:round;stroke-linejoin:round;stroke-miterlimit:10}.st77{opacity:.2563;fill-rule:evenodd;clip-rule:evenodd;fill:#fff;enable-background:new}.st181{fill:none;stroke:#fff;stroke-width:.7384;stroke-linecap:round;stroke-linejoin:round;stroke-miterlimit:10}</style><circle cx="145.17" cy="70.74" r="26.03"/><path d="m138.71 43.93-.01 10.81c-.33 1.38.28 2.85 1.82 3.91 2.54 1.76 6.66 1.76 9.2 0 1.08-.75 1.7-1.69 1.86-2.67h.04V55.4l.01-11.18-12.92-.29z" class="st1"/><path d="M138.76 51.66c0 2.45 2.87 4.43 6.41 4.43s6.41-1.98 6.41-4.43" class="st1"/><path d="M138.76 48.27c0 2.45 2.87 4.43 6.41 4.43s6.41-1.98 6.41-4.43" class="st1"/><path d="M138.76 44.71c0 2.45 2.87 4.43 6.41 4.43s6.41-1.98 6.41-4.43" class="st1"/><path d="m138.71 33.25-.01 10.81c-.33 1.38.28 2.85 1.82 3.91 2.54 1.76 6.66 1.76 9.2 0 1.08-.75 1.7-1.69 1.86-2.67h.04V44.72l.01-11.18-12.92-.29z" class="st1"/><path d="M138.76 40.99c0 2.45 2.87 4.43 6.41 4.43s6.41-1.98 6.41-4.43" class="st1"/><path d="M138.76 37.6c0 2.45 2.87 4.43 6.41 4.43s6.41-1.98 6.41-4.43" class="st1"/><path d="M138.76 34.04c0 2.45 2.87 4.43 6.41 4.43s6.41-1.98 6.41-4.43" class="st1"/><path d="m144.77 49.05-17.81-10.28V20.95l17.81 10.29z" class="st5"/><path d="m144.77 49.05 17.82-10.28V20.95l-17.82 10.29z" class="st4"/><path d="m144.84 31.29-17.88-10.32 17.75-10.34 17.88 10.32z" class="st6"/><path id="矩形_00000079473797964540096780000010075932986409177219_" d="M138.87 16.36c.35.2.29.58-.12.83l-3.7 2.19c-.42.25-1.08.29-1.43.09-.35-.2-.29-.58.12-.83l3.7-2.19c.42-.25 1.08-.29 1.43-.09z" class="st16"/><path id="矩形_00000142137669485219439060000000874352699067732376_" d="M132.18 20.32c.35.2.29.58-.12.83l-.72.42c-.42.25-1.08.29-1.43.09-.35-.2-.29-.58.12-.83l.72-.42c.45-.27 1.08-.29 1.43-.09z" class="st16"/><path d="M133.13 74.5 22.99 137.42v58.9l110.14-62.92z" class="st4"/><path d="m8.55 129.26 14.44 7.8v59.26l-14.44-7.8z" class="st5"/><path d="m133.13 74.5-15.51-8.2L8.55 129.26l14.44 7.8z" class="st6"/><path d="m39.07 144.57-2.95 1.76c-.02-.38-.08-.71-.16-.97-.09-.27-.21-.47-.37-.61s-.34-.21-.56-.21-.47.09-.75.26c-.49.29-.9.73-1.24 1.31s-.59 1.28-.76 2.1c-.17.82-.26 1.72-.26 2.72 0 1.06.09 1.89.26 2.49.18.61.43.99.77 1.15.33.16.74.1 1.21-.18.27-.16.51-.36.72-.59.21-.24.4-.5.55-.81.16-.3.29-.63.38-.98.1-.35.17-.73.2-1.12l2.95-1.72c-.04.75-.16 1.57-.38 2.46s-.53 1.77-.93 2.65c-.4.88-.9 1.69-1.49 2.43-.59.74-1.28 1.34-2.06 1.81-.98.58-1.86.77-2.64.55-.78-.22-1.39-.85-1.85-1.9-.45-1.05-.68-2.53-.68-4.44 0-1.92.23-3.68.69-5.27.46-1.59 1.08-2.96 1.86-4.1.78-1.14 1.65-2 2.61-2.57.68-.4 1.3-.62 1.87-.66.57-.04 1.07.1 1.5.41s.77.81 1.04 1.49.42 1.5.47 2.54zM50.76 139.76c0 1.92-.23 3.68-.7 5.28s-1.09 2.96-1.88 4.11-1.67 2.01-2.63 2.58c-.98.58-1.86.76-2.64.55-.79-.21-1.41-.84-1.87-1.89s-.69-2.52-.69-4.43c0-1.92.23-3.68.69-5.27.46-1.59 1.08-2.96 1.87-4.11.79-1.14 1.67-2.01 2.64-2.59s1.85-.76 2.63-.55c.79.21 1.41.83 1.88 1.88s.7 2.52.7 4.44zm-2.99 1.78c0-1.03-.08-1.86-.25-2.47s-.42-1-.75-1.17-.73-.12-1.21.17-.89.71-1.22 1.28c-.33.56-.58 1.25-.75 2.06s-.25 1.74-.25 2.77.08 1.86.25 2.47.42 1 .75 1.17.73.11 1.22-.17c.48-.29.88-.71 1.21-1.28.33-.56.58-1.25.75-2.06.16-.81.25-1.73.25-2.77zM62.46 132.79c0 1.92-.23 3.68-.7 5.27-.46 1.59-1.09 2.96-1.88 4.11s-1.67 2.01-2.63 2.58c-.98.58-1.86.76-2.64.55-.79-.22-1.41-.84-1.87-1.89-.46-1.04-.69-2.52-.69-4.43 0-1.92.23-3.68.69-5.27.46-1.59 1.08-2.96 1.87-4.11.79-1.15 1.67-2.01 2.64-2.59.97-.58 1.85-.76 2.63-.55.79.21 1.41.83 1.88 1.88.47 1.05.7 2.53.7 4.45zm-2.99 1.78c0-1.03-.08-1.86-.25-2.47s-.42-1-.75-1.17-.73-.12-1.21.17-.89.71-1.22 1.28c-.33.56-.58 1.25-.75 2.06s-.25 1.74-.25 2.77.08 1.86.25 2.47.42 1 .75 1.17.73.12 1.22-.17c.48-.29.88-.71 1.21-1.28.33-.56.58-1.25.75-2.06.17-.81.25-1.73.25-2.77zM63.8 140.63v-17.27l2.91-1.73v13.49l4.33-2.58v3.78l-7.24 4.31zM77.52 122.07v3.51l-5.02 2.99v-3.51l5.02-2.99zM83.31 129.01l-4.12 2.45V114.2l4.08-2.43c1.1-.66 2.05-.88 2.86-.67s1.42.83 1.86 1.86.66 2.44.66 4.24-.22 3.47-.65 5.02c-.44 1.55-1.05 2.91-1.85 4.07s-1.76 2.08-2.84 2.72zm-1.22-3.25 1.11-.66c.53-.32.98-.72 1.36-1.22.37-.5.66-1.14.86-1.93s.3-1.79.3-2.99-.1-2.08-.3-2.64c-.2-.55-.49-.86-.88-.9s-.86.1-1.41.43l-1.02.61v9.3h-.02zM100.35 110.23c0 1.92-.23 3.68-.7 5.28-.46 1.59-1.09 2.96-1.88 4.11s-1.67 2.01-2.63 2.58c-.98.58-1.86.76-2.64.55-.79-.21-1.41-.84-1.87-1.89-.46-1.04-.69-2.52-.69-4.43 0-1.92.23-3.68.69-5.27s1.08-2.96 1.87-4.11c.79-1.14 1.67-2.01 2.64-2.59.97-.58 1.85-.76 2.63-.55.79.21 1.41.83 1.88 1.88.46 1.04.7 2.52.7 4.44zm-2.99 1.78c0-1.04-.08-1.86-.25-2.47s-.42-1-.75-1.17-.73-.12-1.21.17c-.48.29-.89.71-1.22 1.28-.33.56-.58 1.25-.75 2.06s-.25 1.74-.25 2.77.08 1.86.25 2.47.42 1 .75 1.18c.33.17.73.11 1.22-.17.48-.29.89-.71 1.21-1.28.33-.56.58-1.25.75-2.06.16-.82.25-1.74.25-2.78zM104.4 116.45l-3.16-15.39 3.24-1.93 1.46 9.75.08-.05 1.74-11.66 2.55-1.52 1.74 9.62.08-.05 1.46-11.53 3.24-1.93-3.16 19.15-2.78 1.66-1.82-8.56-.08.05-1.82 10.73-2.77 1.66zM127.04 85.7v17.27l-2.42 1.44-3.87-6.77-.06.04v9.07l-2.91 1.73V91.22l2.47-1.47 3.81 6.77.08-.05v-9.04l2.9-1.73zM51.04 176.72v-17.27l4.62-2.75c.79-.47 1.49-.63 2.09-.48s1.06.59 1.39 1.31c.33.72.5 1.69.5 2.92 0 1.24-.17 2.41-.51 3.52s-.81 2.09-1.43 2.94c-.61.85-1.33 1.52-2.14 2.01l-2.76 1.64v-3.64l2.17-1.29c.34-.2.63-.47.88-.81s.43-.73.56-1.16.2-.9.2-1.39-.07-.88-.2-1.15c-.13-.27-.32-.43-.56-.48-.24-.04-.53.04-.88.24l-1.02.61v13.52l-2.91 1.71zM60.7 170.97V153.7l7.71-4.59v3.78l-4.81 2.86v2.97l4.41-2.63v3.78l-4.41 2.63v2.97l4.79-2.85v3.78l-7.69 4.57zM69.85 165.52v-17.27l4.62-2.75c.79-.47 1.49-.65 2.08-.54s1.06.51 1.39 1.19c.33.68.5 1.63.5 2.86 0 1.24-.17 2.38-.51 3.43-.34 1.05-.82 1.98-1.43 2.77s-1.33 1.44-2.14 1.92l-2.76 1.64v-3.64l2.17-1.29c.34-.2.63-.45.88-.73.24-.28.43-.61.56-.99s.2-.82.2-1.31c0-.49-.07-.86-.2-1.09s-.32-.35-.56-.36c-.24 0-.54.1-.88.3l-1.02.61v13.52l-2.9 1.73zm6.28-11.66 2.67 6.33-3.16 1.88-2.61-6.37 3.1-1.84zM82.59 140.67v17.27l-2.91 1.73V142.4l2.91-1.73zM94.33 142.3c0 1.92-.23 3.68-.7 5.27-.46 1.59-1.09 2.96-1.88 4.11s-1.67 2.01-2.63 2.58c-.98.58-1.86.76-2.64.55-.79-.22-1.41-.84-1.87-1.89-.46-1.04-.69-2.52-.69-4.43 0-1.92.23-3.68.69-5.27.46-1.59 1.08-2.96 1.87-4.11s1.67-2.01 2.64-2.59 1.85-.76 2.63-.55c.79.21 1.41.83 1.88 1.88.47 1.05.7 2.53.7 4.45zm-2.99 1.78c0-1.03-.08-1.86-.25-2.47s-.42-1-.75-1.17-.73-.12-1.21.17c-.48.29-.89.71-1.22 1.28-.33.56-.58 1.25-.75 2.06s-.25 1.73-.25 2.77c0 1.03.08 1.86.25 2.47s.42 1 .75 1.17.73.12 1.22-.17c.48-.29.88-.71 1.21-1.28.33-.56.58-1.25.75-2.06.17-.81.25-1.73.25-2.77zM99.79 147.69l-4.12 2.45v-17.27l4.08-2.43c1.1-.66 2.05-.88 2.86-.67.8.21 1.42.83 1.86 1.86s.66 2.44.66 4.24-.22 3.47-.65 5.02c-.44 1.55-1.05 2.91-1.85 4.07-.81 1.18-1.75 2.08-2.84 2.73zm-1.21-3.26 1.11-.66c.53-.32.98-.72 1.36-1.22s.66-1.14.86-1.94c.2-.79.29-1.79.29-2.99s-.1-2.08-.3-2.64c-.2-.55-.49-.86-.88-.9-.38-.05-.86.1-1.41.43l-1.02.61v9.31h-.01z" class="st2"/><circle cx="263.83" cy="58.87" r="17.42" transform="rotate(-76.714 263.85 58.867)"/><path d="M259.5 40.93v7.23c-.22.92.19 1.91 1.22 2.62 1.7 1.18 4.46 1.18 6.16 0 .72-.5 1.14-1.13 1.25-1.79h.03v-7.88l-8.66-.18z" class="st1"/><path d="M259.54 46.1c0 1.64 1.92 2.97 4.29 2.97s4.29-1.33 4.29-2.97" class="st1"/><path d="M259.54 43.83c0 1.64 1.92 2.97 4.29 2.97s4.29-1.33 4.29-2.97" class="st1"/><path d="M259.54 41.45c0 1.64 1.92 2.97 4.29 2.97s4.29-1.33 4.29-2.97" class="st1"/><path d="M259.5 33.78v7.23c-.22.92.19 1.91 1.22 2.62 1.7 1.18 4.46 1.18 6.16 0 .72-.5 1.14-1.13 1.25-1.79h.03v-7.88l-8.66-.18z" class="st1"/><path d="M259.54 38.96c0 1.64 1.92 2.97 4.29 2.97s4.29-1.33 4.29-2.97" class="st1"/><path d="M259.54 36.69c0 1.64 1.92 2.97 4.29 2.97s4.29-1.33 4.29-2.97" class="st1"/><path d="M259.54 34.3c0 1.64 1.92 2.97 4.29 2.97s4.29-1.33 4.29-2.97" class="st1"/><path d="m263.56 44.36-11.92-6.89V25.55l11.92 6.88z" class="st5"/><path d="m263.56 44.36 11.93-6.89V25.55l-11.93 6.88z" class="st4"/><path d="m263.61 32.47-11.97-6.91 11.88-6.93 11.97 6.92z" class="st6"/><path id="矩形_00000057864619196667044930000009136339203454641547_" d="M259.61 22.47c.23.13.2.39-.08.55l-2.47 1.46c-.28.17-.72.19-.95.06-.23-.13-.2-.39.08-.55l2.47-1.46c.28-.17.72-.19.95-.06z" class="st16"/><path id="矩形_00000020398379395088368500000007571091934744443542_" d="M255.13 25.12c.23.13.2.39-.08.55l-.48.28c-.28.17-.72.19-.95.06-.23-.13-.2-.39.08-.55l.48-.28c.3-.18.72-.19.95-.06z" class="st16"/><path fill="#111421" fill-rule="evenodd" stroke="#111422" stroke-linecap="round" stroke-linejoin="round" stroke-miterlimit="10" stroke-width=".75" d="m263.54 159.35-53.79 30.72.13 21 53.78-30.72z" clip-rule="evenodd"/><path d="m169.04 167.4 40.71 22.62.25 20.86-40.71-22.62z" class="st5"/><path d="m263.29 159.33-41.24-23.01-53.01 31.08 40.71 22.82z" class="st6"/><path d="m263.54 134.81-53.79 30.72.13 21 53.78-30.72z" class="st4"/><path d="m169.04 142.86 40.71 22.61.25 20.87-40.71-22.62z" class="st5"/><path d="m263.54 134.74-41.24-23.01-53.26 30.74 40.71 22.82z" class="st6"/><circle cx="213.64" cy="111.69" r="41.04" class="st30"/><path d="M217.8 175.79v-8.95l2.53-1.5c.49-.29.9-.41 1.24-.35.34.05.6.26.79.61.18.35.27.82.27 1.41s-.09 1.17-.28 1.74c-.18.56-.45 1.07-.8 1.53-.35.46-.77.84-1.26 1.13l-1.61.96v-1.52l1.39-.83c.26-.15.48-.35.65-.57.17-.23.3-.48.38-.76s.13-.56.13-.85c0-.3-.04-.53-.13-.71a.47.47 0 0 0-.38-.29c-.17-.02-.39.04-.65.2l-.91.54v7.4l-1.36.81zM223.49 172.42v-6.71l1.29-.77v1.17l.05-.03c.09-.47.23-.87.44-1.21.21-.34.44-.58.71-.74.07-.04.14-.08.22-.11s.15-.06.2-.07v1.65c-.06.01-.15.04-.26.08-.11.04-.21.09-.3.15-.2.12-.37.28-.53.49a2.633 2.633 0 0 0-.49 1.51v3.8l-1.33.79zM229.04 169.26c-.49.29-.91.39-1.26.31-.35-.08-.63-.32-.82-.73-.19-.41-.29-.95-.29-1.64s.1-1.36.29-1.99c.19-.63.47-1.2.82-1.7s.77-.89 1.26-1.18c.49-.29.91-.39 1.26-.31.35.08.63.32.82.73.19.41.29.96.29 1.65s-.1 1.35-.29 1.98c-.19.63-.47 1.2-.82 1.7s-.77.89-1.26 1.18zm.01-1.44c.22-.13.41-.33.55-.59s.26-.57.34-.92.11-.72.11-1.11-.04-.72-.11-.98-.19-.44-.34-.53-.33-.07-.55.06-.41.33-.56.6-.27.58-.34.93c-.08.35-.11.72-.11 1.11s.04.72.11.98c.08.26.19.43.34.52.15.08.33.06.56-.07zM232.28 169.73v-9.23l1.32-.78v1.13l.06-.04c.06-.22.14-.45.26-.7.11-.25.26-.5.44-.73.18-.23.41-.43.68-.59.35-.21.67-.27.97-.19s.53.32.71.73c.18.41.27.99.27 1.76 0 .75-.09 1.43-.26 2.05-.17.62-.41 1.14-.7 1.58-.3.44-.63.77-.99.98-.26.15-.48.22-.66.21a.618.618 0 0 1-.44-.19c-.11-.11-.2-.25-.26-.4l-.04.02v3.59l-1.36.8zm1.31-6.65c0 .4.04.72.12.97s.19.41.34.49c.15.07.33.05.55-.08s.4-.32.55-.58c.15-.26.26-.56.34-.9.08-.35.12-.71.12-1.1s-.04-.71-.12-.95c-.08-.25-.19-.41-.34-.49s-.33-.05-.55.08-.4.32-.55.57-.26.54-.34.89c-.08.33-.12.7-.12 1.1zM240.03 162.75c-.49.29-.91.39-1.26.31-.35-.08-.63-.32-.82-.73-.19-.41-.29-.95-.29-1.64s.1-1.36.29-1.99c.19-.63.47-1.2.82-1.7s.77-.89 1.26-1.18c.49-.29.91-.39 1.26-.31.35.08.63.32.82.73.19.41.29.96.29 1.65s-.1 1.35-.29 1.98c-.19.63-.47 1.2-.82 1.7s-.77.89-1.26 1.18zm.01-1.45c.22-.13.41-.33.55-.59s.26-.57.34-.92c.08-.35.11-.72.11-1.11s-.04-.72-.11-.98c-.08-.26-.19-.44-.34-.53s-.33-.07-.55.06-.41.33-.56.6-.27.58-.34.93-.11.72-.11 1.11.04.72.11.98c.08.26.19.43.34.52.15.09.34.07.56-.07zM247.28 153.53l-1.22.83a.719.719 0 0 0-.13-.32.342.342 0 0 0-.27-.12c-.11-.01-.24.04-.4.13-.21.12-.38.29-.52.49-.14.21-.21.41-.21.61 0 .16.05.27.14.32.09.06.25.05.47-.01l.87-.27c.47-.14.82-.13 1.05.03s.34.48.34.97c0 .44-.09.88-.28 1.32-.18.44-.44.85-.76 1.22-.32.38-.69.69-1.11.93-.64.38-1.14.49-1.52.34-.38-.15-.6-.52-.66-1.13l1.31-.87c.04.25.14.4.29.45s.35.01.59-.14c.23-.14.42-.31.57-.53.14-.21.22-.42.22-.62 0-.17-.05-.28-.15-.33-.1-.05-.25-.04-.46.02l-.83.26c-.47.15-.82.13-1.05-.06s-.34-.53-.34-1.03c0-.43.08-.85.25-1.26.17-.41.4-.79.71-1.14.31-.35.66-.65 1.08-.89.61-.36 1.09-.46 1.44-.31.31.16.52.53.58 1.11zM249.6 157.08c-.31.18-.58.27-.82.26a.69.69 0 0 1-.57-.33c-.14-.21-.21-.54-.21-.98a3.373 3.373 0 0 1 .55-1.88c.17-.25.36-.49.58-.69.22-.21.44-.4.68-.57.28-.21.51-.38.68-.52s.3-.27.37-.38a.69.69 0 0 0 .12-.39v-.03c0-.28-.06-.45-.19-.53-.12-.08-.3-.05-.53.09-.24.14-.43.33-.57.56-.14.23-.24.47-.28.72l-1.23.59c.06-.44.19-.87.37-1.28s.42-.78.71-1.11c.29-.33.63-.62 1.01-.84.27-.16.52-.27.77-.32.25-.06.46-.05.65.02s.34.22.45.44.17.53.17.93v4.53l-1.27.75v-.93l-.04.02c-.08.26-.18.5-.31.74s-.29.45-.47.65c-.17.17-.38.33-.62.48zm.38-1.52c.2-.12.37-.27.52-.47.15-.2.27-.42.35-.65.09-.24.13-.47.13-.71v-.71c-.04.06-.1.13-.17.2s-.15.15-.24.23c-.09.08-.18.15-.27.23-.09.07-.17.14-.24.2-.16.12-.29.26-.41.4s-.21.29-.27.44c-.06.16-.1.32-.1.5 0 .25.07.41.2.46.13.04.3.01.5-.12zM254.68 144.99v8.95l-1.33.79v-8.95l1.33-.79z" class="st2"/><circle cx="213.64" cy="111.69" r="28.4" class="st30"/><circle cx="213.64" cy="111.69" r="11.86" class="st30"/><path d="m260.32 28.02-1.35-.76 7.84-4.62 1.35.76zM139.88 25.13l-2.18-1.23 12.67-7.48 2.18 1.23z" class="st4"/><linearGradient id="SVGID_1_" x1="156" x2="165.84" y1="-2134.298" y2="-2134.298" gradientTransform="matrix(1 0 0 -1 0 -2031.658)" gradientUnits="userSpaceOnUse"><stop offset="0" stop-color="#9c5a95"/><stop offset="1" stop-color="#74b3c0"/></linearGradient><path fill="url(#SVGID_1_)" d="M156 108.91v-1.47l7.13-9.15v-.13h-6.9v-1.8h9.38v1.54l-6.93 9.09v.13h7.16v1.8H156v-.01z"/><linearGradient id="SVGID_00000157269743639087173060000017764269828707748284_" x1="181.51" x2="198.02" y1="-2114.943" y2="-2114.943" gradientTransform="matrix(1 0 0 -1 0 -2031.658)" gradientUnits="userSpaceOnUse"><stop offset="0" stop-color="#9c5a95"/><stop offset="1" stop-color="#74b3c0"/></linearGradient><path fill="url(#SVGID_00000157269743639087173060000017764269828707748284_)" d="M181.51 93.82v-2.47l11.96-15.36v-.22H181.9v-3.02h15.74v2.58l-11.63 15.25v.22h12.01v3.02h-16.51z"/><linearGradient id="SVGID_00000119803304484305899280000017090530765864192930_" x1="179.45" x2="201.39" y1="-2069.823" y2="-2069.823" gradientTransform="matrix(1 0 0 -1 0 -2031.658)" gradientUnits="userSpaceOnUse"><stop offset="0" stop-color="#9c5a95"/><stop offset="1" stop-color="#74b3c0"/></linearGradient><path fill="url(#SVGID_00000119803304484305899280000017090530765864192930_)" d="M179.45 52.16v-3.28l15.89-20.41v-.29h-15.38v-4.01h20.92v3.43l-15.45 20.26v.29h15.96v4.01h-21.94z"/><radialGradient id="SVGID_00000090266805421249635460000006594410818668341946_" cx="143.475" cy="-3365.373" r="29.14" gradientTransform="matrix(1 0 0 -.5898 0 -1733.59)" gradientUnits="userSpaceOnUse"><stop offset="0" stop-color="#06070c"/><stop offset="1" stop-color="#0d101d" stop-opacity="0"/></radialGradient><path fill="url(#SVGID_00000090266805421249635460000006594410818668341946_)" d="M168.46 237.24c-13.67-7.89-35.94-7.99-49.74-.23s-13.9 20.46-.23 28.36 35.94 7.99 49.74.23c13.8-7.77 13.9-20.47.23-28.36z" opacity=".67"/><path fill="#5ea6b9" d="M179.43 201.53v-49.28c0-.23.02-.45.02-.68 0-22.91-18.57-41.48-41.48-41.48s-41.48 18.57-41.48 41.48c0 .36.02.72.03 1.07v44.66h-.03v22.67a5.15 5.15 0 1 0 10.3 0v-.83c.56.36 1.13.72 1.74 1.07 1.83 1.06 3.79 1.99 5.85 2.81v8.2c0 2.84 2.3 5.15 5.15 5.15s5.15-2.31 5.15-5.15v-5.23c2.95.57 5.99.96 9.06 1.14v12.59c0 2.84 2.3 5.15 5.15 5.15s5.15-2.31 5.15-5.15v-12.7c3.39-.28 6.73-.8 9.93-1.55v6.36c0 2.84 2.3 5.15 5.15 5.15s5.15-2.31 5.15-5.15v-9.87c1-.47 1.97-.96 2.91-1.49.7-.39 1.35-.8 1.99-1.21v.71a5.15 5.15 0 1 0 10.3 0v-18.45l-.04.01z"/><radialGradient id="SVGID_00000165935842990326554730000006735874995368073635_" cx="162.65" cy="-2159.171" r="106.685" gradientTransform="matrix(1 0 0 -1 0 -2031.658)" gradientUnits="userSpaceOnUse"><stop offset=".012" stop-color="#cf7dc9"/><stop offset=".494" stop-color="#9c5c96"/><stop offset=".583" stop-color="#96649a"/><stop offset=".727" stop-color="#8a7aa4"/><stop offset=".908" stop-color="#7a9db5"/><stop offset="1" stop-color="#74b3c0"/></radialGradient><path fill="url(#SVGID_00000165935842990326554730000006735874995368073635_)" d="M179.43 201.53v-49.28c0-.23.02-.45.02-.68 0-22.91-18.57-41.48-41.48-41.48s-41.48 18.57-41.48 41.48c0 .36.02.72.03 1.07v44.66h-.03v22.67a5.15 5.15 0 1 0 10.3 0v-.83c.56.36 1.13.72 1.74 1.07 1.83 1.06 3.79 1.99 5.85 2.81v8.2c0 2.84 2.3 5.15 5.15 5.15s5.15-2.31 5.15-5.15v-5.23c2.95.57 5.99.96 9.06 1.14v12.59c0 2.84 2.3 5.15 5.15 5.15s5.15-2.31 5.15-5.15v-12.7c3.39-.28 6.73-.8 9.93-1.55v6.36c0 2.84 2.3 5.15 5.15 5.15s5.15-2.31 5.15-5.15v-9.87c1-.47 1.97-.96 2.91-1.49.7-.39 1.35-.8 1.99-1.21v.71a5.15 5.15 0 1 0 10.3 0v-18.45l-.04.01z"/><path id="矩形_00000013912370780101878490000007450984262361932426_" d="M100.4 187.39c1.12 0 2.08 1.38 2.08 2.99v14.25c0 1.61-.96 2.99-2.08 2.99s-2.08-1.38-2.08-2.99v-14.25c-.01-1.61.96-2.99 2.08-2.99z" class="st77"/><path id="矩形_00000105389235179328124280000017088382548664353155_" d="M100.4 213.18c1.12 0 2.08 1.38 2.08 2.99v2.76c0 1.61-.96 2.99-2.08 2.99s-2.08-1.38-2.08-2.99v-2.76c-.01-1.73.96-2.99 2.08-2.99z" class="st77"/><path id="矩形_00000066477818441699453690000016964919950218624943_" d="M117.79 223.96c1.12 0 2.08 1.38 2.08 2.99v2.76c0 1.61-.96 2.99-2.08 2.99s-2.08-1.38-2.08-2.99v-2.76c-.01-1.73.95-2.99 2.08-2.99z" class="st77"/><path id="矩形_00000101804678989535653920000005818440133909333142_" d="M137.96 232.69c1.12 0 2.08 1.38 2.08 2.99v2.76c0 1.61-.96 2.99-2.08 2.99s-2.08-1.38-2.08-2.99v-2.76c0-1.72.96-2.99 2.08-2.99z" class="st77"/><path id="矩形_00000029005240873666914550000002775891798328402068_" d="M157.66 227.35c.89 0 1.66 1.1 1.66 2.37v2.19c0 1.28-.76 2.37-1.66 2.37-.89 0-1.66-1.1-1.66-2.37v-2.19c0-1.36.76-2.37 1.66-2.37z" class="st77"/><path id="矩形_00000166652132102504768740000002163194347797792703_" d="M172.45 217.19c.62 0 1.14.76 1.14 1.64v1.51c0 .88-.53 1.64-1.14 1.64-.62 0-1.14-.76-1.14-1.64v-1.51c-.01-.94.52-1.64 1.14-1.64z" class="st77"/><path d="m138.54 168.23 11.69-4.32M161.77 160.5l11.69-4.32" class="st181"/></svg>