<svg xmlns="http://www.w3.org/2000/svg" xml:space="preserve" id="Слой_1" x="0" y="0" version="1.1" viewBox="0 0 290 269.62"><style>.st0{fill:#fff;stroke:#1d1d1b}.st0,.st1,.st2,.st3{stroke-linecap:round;stroke-linejoin:round;stroke-miterlimit:10}.st1{fill-rule:evenodd;clip-rule:evenodd;fill:#c6c3d1;stroke:#101320}.st2,.st3{stroke:#111422}.st2{fill-rule:evenodd;clip-rule:evenodd;fill:#fff}.st3{fill:#ecf0fc}.st3,.st4,.st8{fill-rule:evenodd;clip-rule:evenodd}.st4{opacity:.2563;fill:#fff;enable-background:new}.st8{fill:#111422}.st332,.st609{fill:none;stroke-miterlimit:10}.st332{fill-rule:evenodd;clip-rule:evenodd;stroke:#fff;stroke-width:.7384;stroke-linecap:round;stroke-linejoin:round}.st609{stroke:#e2e2e2}</style><circle cx="144.67" cy="70.24" r="26.03"/><path d="m138.21 43.43-.01 10.81c-.33 1.38.28 2.85 1.82 3.91 2.54 1.76 6.66 1.76 9.2 0 1.08-.75 1.7-1.69 1.86-2.67h.04V54.9l.01-11.18-12.92-.29z" class="st0"/><path d="M138.26 51.16c0 2.45 2.87 4.43 6.41 4.43s6.41-1.98 6.41-4.43" class="st0"/><path d="M138.26 47.77c0 2.45 2.87 4.43 6.41 4.43s6.41-1.98 6.41-4.43" class="st0"/><path d="M138.26 44.21c0 2.45 2.87 4.43 6.41 4.43s6.41-1.98 6.41-4.43" class="st0"/><path d="m138.21 32.75-.01 10.81c-.33 1.38.28 2.85 1.82 3.91 2.54 1.76 6.66 1.76 9.2 0 1.08-.75 1.7-1.69 1.86-2.67h.04V44.22l.01-11.18-12.92-.29z" class="st0"/><path d="M138.26 40.49c0 2.45 2.87 4.43 6.41 4.43s6.41-1.98 6.41-4.43" class="st0"/><path d="M138.26 37.1c0 2.45 2.87 4.43 6.41 4.43s6.41-1.98 6.41-4.43" class="st0"/><path d="M138.26 33.54c0 2.45 2.87 4.43 6.41 4.43s6.41-1.98 6.41-4.43" class="st0"/><path d="m144.27 48.55-17.81-10.28V20.45l17.81 10.29z" class="st1"/><path d="m144.27 48.55 17.82-10.28V20.45l-17.82 10.29z" class="st2"/><path d="m144.34 30.79-17.88-10.32 17.75-10.34 17.88 10.32z" class="st3"/><path id="矩形_00000046321944318333643550000015620058666620774805_" d="M138.37 15.86c.35.2.29.58-.12.83l-3.7 2.19c-.42.25-1.08.29-1.43.09-.35-.2-.29-.58.12-.83l3.7-2.19c.42-.25 1.08-.29 1.43-.09z" class="st4"/><path id="矩形_00000164481072756091394730000004190331143475335815_" d="M131.68 19.82c.35.2.29.58-.12.83l-.72.42c-.42.25-1.08.29-1.43.09-.35-.2-.29-.58.12-.83l.72-.42c.45-.27 1.08-.29 1.43-.09z" class="st4"/><path d="M132.63 74 22.49 136.92v58.9l110.14-62.92z" class="st2"/><path d="m8.05 128.76 14.44 7.8v59.26l-14.44-7.8z" class="st1"/><path d="m132.63 74-15.51-8.2L8.05 128.76l14.44 7.8z" class="st3"/><path d="m38.57 144.07-2.95 1.76c-.02-.38-.08-.71-.16-.97-.09-.27-.21-.47-.37-.61s-.34-.21-.56-.21-.47.09-.75.26c-.49.29-.9.73-1.24 1.31-.34.58-.59 1.28-.76 2.1-.17.82-.26 1.72-.26 2.72 0 1.06.09 1.89.26 2.49.18.61.43.99.77 1.15.33.16.74.1 1.21-.18.27-.16.51-.36.72-.59.21-.24.4-.5.55-.81.16-.3.29-.63.38-.98.1-.35.17-.73.2-1.12l2.95-1.72c-.04.75-.16 1.57-.38 2.46-.22.89-.53 1.77-.93 2.65-.4.88-.9 1.69-1.49 2.43-.59.74-1.28 1.34-2.06 1.81-.98.58-1.86.77-2.64.55-.78-.22-1.39-.85-1.85-1.9-.45-1.05-.68-2.53-.68-4.44 0-1.92.23-3.68.69-5.27.46-1.59 1.08-2.96 1.86-4.1.78-1.14 1.65-2 2.61-2.57.68-.4 1.3-.62 1.87-.66.57-.04 1.07.1 1.5.41s.77.81 1.04 1.49.42 1.5.47 2.54zM50.26 139.26c0 1.92-.23 3.68-.7 5.28s-1.09 2.96-1.88 4.11c-.79 1.15-1.67 2.01-2.63 2.58-.98.58-1.86.76-2.64.55-.79-.21-1.41-.84-1.87-1.89s-.69-2.52-.69-4.43c0-1.92.23-3.68.69-5.27.46-1.59 1.08-2.96 1.87-4.11.79-1.14 1.67-2.01 2.64-2.59.97-.58 1.85-.76 2.63-.55.79.21 1.41.83 1.88 1.88s.7 2.52.7 4.44zm-2.99 1.78c0-1.03-.08-1.86-.25-2.47s-.42-1-.75-1.17c-.33-.17-.73-.12-1.21.17-.48.29-.89.71-1.22 1.28-.33.56-.58 1.25-.75 2.06-.17.81-.25 1.74-.25 2.77s.08 1.86.25 2.47.42 1 .75 1.17c.33.17.73.11 1.22-.17.48-.29.88-.71 1.21-1.28.33-.56.58-1.25.75-2.06.16-.81.25-1.73.25-2.77zM61.96 132.29c0 1.92-.23 3.68-.7 5.27-.46 1.59-1.09 2.96-1.88 4.11-.79 1.15-1.67 2.01-2.63 2.58-.98.58-1.86.76-2.64.55-.79-.22-1.41-.84-1.87-1.89-.46-1.04-.69-2.52-.69-4.43 0-1.92.23-3.68.69-5.27.46-1.59 1.08-2.96 1.87-4.11.79-1.15 1.67-2.01 2.64-2.59.97-.58 1.85-.76 2.63-.55.79.21 1.41.83 1.88 1.88.47 1.05.7 2.53.7 4.45zm-2.99 1.78c0-1.03-.08-1.86-.25-2.47-.17-.61-.42-1-.75-1.17-.33-.17-.73-.12-1.21.17-.48.29-.89.71-1.22 1.28-.33.56-.58 1.25-.75 2.06-.17.81-.25 1.74-.25 2.77s.08 1.86.25 2.47c.17.61.42 1 .75 1.17.33.17.73.12 1.22-.17.48-.29.88-.71 1.21-1.28.33-.56.58-1.25.75-2.06.17-.81.25-1.73.25-2.77zM63.3 140.13v-17.27l2.91-1.73v13.49l4.33-2.58v3.78l-7.24 4.31zM77.02 121.57v3.51L72 128.07v-3.51l5.02-2.99zM82.81 128.51l-4.12 2.45V113.7l4.08-2.43c1.1-.66 2.05-.88 2.86-.67s1.42.83 1.86 1.86c.44 1.03.66 2.44.66 4.24s-.22 3.47-.65 5.02c-.44 1.55-1.05 2.91-1.85 4.07s-1.76 2.08-2.84 2.72zm-1.22-3.25 1.11-.66c.53-.32.98-.72 1.36-1.22.37-.5.66-1.14.86-1.93.2-.79.3-1.79.3-2.99s-.1-2.08-.3-2.64c-.2-.55-.49-.86-.88-.9s-.86.1-1.41.43l-1.02.61v9.3zM99.85 109.73c0 1.92-.23 3.68-.7 5.28-.46 1.59-1.09 2.96-1.88 4.11-.79 1.15-1.67 2.01-2.63 2.58-.98.58-1.86.76-2.64.55-.79-.21-1.41-.84-1.87-1.89-.46-1.04-.69-2.52-.69-4.43 0-1.92.23-3.68.69-5.27.46-1.59 1.08-2.96 1.87-4.11.79-1.14 1.67-2.01 2.64-2.59.97-.58 1.85-.76 2.63-.55.79.21 1.41.83 1.88 1.88.46 1.04.7 2.52.7 4.44zm-2.99 1.78c0-1.04-.08-1.86-.25-2.47-.17-.61-.42-1-.75-1.17s-.73-.12-1.21.17c-.48.29-.89.71-1.22 1.28-.33.56-.58 1.25-.75 2.06-.17.81-.25 1.74-.25 2.77s.08 1.86.25 2.47c.17.61.42 1 .75 1.18.33.17.73.11 1.22-.17.48-.29.89-.71 1.21-1.28.33-.56.58-1.25.75-2.06.16-.82.25-1.74.25-2.78zM103.9 115.95l-3.16-15.39 3.24-1.93 1.46 9.75.08-.05 1.74-11.66 2.55-1.52 1.74 9.62.08-.05 1.46-11.53 3.24-1.93-3.16 19.15-2.78 1.66-1.82-8.56-.08.05-1.82 10.73-2.77 1.66zM126.54 85.2v17.27l-2.42 1.44-3.87-6.77-.06.04v9.07l-2.91 1.73V90.72l2.47-1.47 3.81 6.77.08-.05v-9.04l2.9-1.73zM50.54 176.22v-17.27l4.62-2.75c.79-.47 1.49-.63 2.09-.48s1.06.59 1.39 1.31c.33.72.5 1.69.5 2.92 0 1.24-.17 2.41-.51 3.52-.34 1.11-.81 2.09-1.43 2.94-.61.85-1.33 1.52-2.14 2.01l-2.76 1.64v-3.64l2.17-1.29c.34-.2.63-.47.88-.81s.43-.73.56-1.16.2-.9.2-1.39c0-.49-.07-.88-.2-1.15-.13-.27-.32-.43-.56-.48-.24-.04-.53.04-.88.24l-1.02.61v13.52l-2.91 1.71zM60.2 170.47V153.2l7.71-4.59v3.78l-4.81 2.86v2.97l4.41-2.63v3.78L63.1 162v2.97l4.79-2.85v3.78l-7.69 4.57zM69.35 165.02v-17.27l4.62-2.75c.79-.47 1.49-.65 2.08-.54s1.06.51 1.39 1.19c.33.68.5 1.63.5 2.86 0 1.24-.17 2.38-.51 3.43-.34 1.05-.82 1.98-1.43 2.77s-1.33 1.44-2.14 1.92l-2.76 1.64v-3.64l2.17-1.29c.34-.2.63-.45.88-.73a3 3 0 0 0 .56-.99c.13-.38.2-.82.2-1.31 0-.49-.07-.86-.2-1.09-.13-.23-.32-.35-.56-.36-.24 0-.54.1-.88.3l-1.02.61v13.52l-2.9 1.73zm6.28-11.66 2.67 6.33-3.16 1.88-2.61-6.37 3.1-1.84zM82.09 140.17v17.27l-2.91 1.73V141.9l2.91-1.73zM93.83 141.8c0 1.92-.23 3.68-.7 5.27-.46 1.59-1.09 2.96-1.88 4.11-.79 1.15-1.67 2.01-2.63 2.58-.98.58-1.86.76-2.64.55-.79-.22-1.41-.84-1.87-1.89-.46-1.04-.69-2.52-.69-4.43 0-1.92.23-3.68.69-5.27.46-1.59 1.08-2.96 1.87-4.11s1.67-2.01 2.64-2.59c.97-.58 1.85-.76 2.63-.55.79.21 1.41.83 1.88 1.88.47 1.05.7 2.53.7 4.45zm-2.99 1.78c0-1.03-.08-1.86-.25-2.47-.17-.61-.42-1-.75-1.17-.33-.17-.73-.12-1.21.17-.48.29-.89.71-1.22 1.28-.33.56-.58 1.25-.75 2.06s-.25 1.73-.25 2.77c0 1.03.08 1.86.25 2.47.17.61.42 1 .75 1.17.33.17.73.12 1.22-.17.48-.29.88-.71 1.21-1.28.33-.56.58-1.25.75-2.06.17-.81.25-1.73.25-2.77zM99.29 147.19l-4.12 2.45v-17.27l4.08-2.43c1.1-.66 2.05-.88 2.86-.67.8.21 1.42.83 1.86 1.86.44 1.03.66 2.44.66 4.24s-.22 3.47-.65 5.02c-.44 1.55-1.05 2.91-1.85 4.07-.81 1.18-1.75 2.08-2.84 2.73zm-1.21-3.26 1.11-.66c.53-.32.98-.72 1.36-1.22.38-.5.66-1.14.86-1.94.2-.79.29-1.79.29-2.99s-.1-2.08-.3-2.64c-.2-.55-.49-.86-.88-.9-.38-.05-.86.1-1.41.43l-1.02.61v9.31z"/><circle cx="263.33" cy="58.37" r="17.42"/><path d="M259 40.43v7.23c-.22.92.19 1.91 1.22 2.62 1.7 1.18 4.46 1.18 6.16 0 .72-.5 1.14-1.13 1.25-1.79h.03v-7.88l-8.66-.18z" class="st0"/><path d="M259.04 45.6c0 1.64 1.92 2.97 4.29 2.97s4.29-1.33 4.29-2.97" class="st0"/><path d="M259.04 43.33c0 1.64 1.92 2.97 4.29 2.97s4.29-1.33 4.29-2.97" class="st0"/><path d="M259.04 40.95c0 1.64 1.92 2.97 4.29 2.97s4.29-1.33 4.29-2.97" class="st0"/><path d="M259 33.28v7.23c-.22.92.19 1.91 1.22 2.62 1.7 1.18 4.46 1.18 6.16 0 .72-.5 1.14-1.13 1.25-1.79h.03v-7.88l-8.66-.18z" class="st0"/><path d="M259.04 38.46c0 1.64 1.92 2.97 4.29 2.97s4.29-1.33 4.29-2.97" class="st0"/><path d="M259.04 36.19c0 1.64 1.92 2.97 4.29 2.97s4.29-1.33 4.29-2.97" class="st0"/><path d="M259.04 33.8c0 1.64 1.92 2.97 4.29 2.97s4.29-1.33 4.29-2.97" class="st0"/><path d="m263.06 43.86-11.92-6.89V25.05l11.92 6.88z" class="st1"/><path d="m263.06 43.86 11.93-6.89V25.05l-11.93 6.88z" class="st2"/><path d="m263.11 31.97-11.97-6.91 11.88-6.93 11.97 6.92z" class="st3"/><path id="矩形_00000072992793209382502270000016897197155632325563_" d="M259.11 21.97c.23.13.2.39-.08.55l-2.47 1.46c-.28.17-.72.19-.95.06-.23-.13-.2-.39.08-.55l2.47-1.46c.28-.17.72-.19.95-.06z" class="st4"/><path id="矩形_00000116233264532264675760000000231183610510303902_" d="M254.63 24.62c.23.13.2.39-.08.55l-.48.28c-.28.17-.72.19-.95.06-.23-.13-.2-.39.08-.55l.48-.28c.3-.18.72-.19.95-.06z" class="st4"/><path fill="#101422" fill-rule="evenodd" stroke="#101423" stroke-linecap="round" stroke-linejoin="round" stroke-miterlimit="10" stroke-width=".75" d="m263.04 158.85-53.79 30.72.13 21 53.78-30.72z" clip-rule="evenodd"/><path d="m168.54 166.9 40.71 22.62.25 20.86-40.71-22.62z" class="st1"/><path d="m262.79 158.83-41.24-23.01-53.01 31.08 40.71 22.82z" class="st3"/><path d="m263.04 134.31-53.79 30.72.13 21 53.78-30.72z" class="st2"/><path d="m168.54 142.36 40.71 22.61.25 20.87-40.71-22.62z" class="st1"/><path d="m263.04 134.24-41.24-23.01-53.26 30.74 40.71 22.82z" class="st3"/><circle cx="213.14" cy="111.19" r="41.04"/><path d="M217.3 175.29v-8.95l2.53-1.5c.49-.29.9-.41 1.24-.35.34.05.6.26.79.61.18.35.27.82.27 1.41s-.09 1.17-.28 1.74c-.18.56-.45 1.07-.8 1.53-.35.46-.77.84-1.26 1.13l-1.61.96v-1.52l1.39-.83c.26-.15.48-.35.65-.57.17-.23.3-.48.38-.76.08-.28.13-.56.13-.85 0-.3-.04-.53-.13-.71a.47.47 0 0 0-.38-.29c-.17-.02-.39.04-.65.2l-.91.54v7.4l-1.36.81zM222.99 171.92v-6.71l1.29-.77v1.17l.05-.03c.09-.47.23-.87.44-1.21.21-.34.44-.58.71-.74.07-.04.14-.08.22-.11.08-.03.15-.06.2-.07v1.65c-.06.01-.15.04-.26.08-.11.04-.21.09-.3.15-.2.12-.37.28-.53.49a2.633 2.633 0 0 0-.49 1.51v3.8l-1.33.79zM228.54 168.76c-.49.29-.91.39-1.26.31-.35-.08-.63-.32-.82-.73-.19-.41-.29-.95-.29-1.64s.1-1.36.29-1.99c.19-.63.47-1.2.82-1.7s.77-.89 1.26-1.18c.49-.29.91-.39 1.26-.31.35.08.63.32.82.73.19.41.29.96.29 1.65s-.1 1.35-.29 1.98c-.19.63-.47 1.2-.82 1.7s-.77.89-1.26 1.18zm.01-1.44c.22-.13.41-.33.55-.59s.26-.57.34-.92.11-.72.11-1.11c0-.39-.04-.72-.11-.98s-.19-.44-.34-.53c-.15-.09-.33-.07-.55.06-.22.13-.41.33-.56.6a3.2 3.2 0 0 0-.34.93c-.08.35-.11.72-.11 1.11 0 .39.04.72.11.98.08.26.19.43.34.52.15.08.33.06.56-.07zM231.78 169.23V160l1.32-.78v1.13l.06-.04c.06-.22.14-.45.26-.7.11-.25.26-.5.44-.73.18-.23.41-.43.68-.59.35-.21.67-.27.97-.19.3.08.53.32.71.73.18.41.27.99.27 1.76 0 .75-.09 1.43-.26 2.05-.17.62-.41 1.14-.7 1.58-.3.44-.63.77-.99.98-.26.15-.48.22-.66.21a.618.618 0 0 1-.44-.19c-.11-.11-.2-.25-.26-.4l-.04.02v3.59l-1.36.8zm1.31-6.65c0 .4.04.72.12.97.08.25.19.41.34.49.15.07.33.05.55-.08.22-.13.4-.32.55-.58.15-.26.26-.56.34-.9.08-.35.12-.71.12-1.1 0-.39-.04-.71-.12-.95-.08-.25-.19-.41-.34-.49-.15-.08-.33-.05-.55.08-.22.13-.4.32-.55.57s-.26.54-.34.89c-.08.33-.12.7-.12 1.1zM239.53 162.25c-.49.29-.91.39-1.26.31-.35-.08-.63-.32-.82-.73-.19-.41-.29-.95-.29-1.64s.1-1.36.29-1.99c.19-.63.47-1.2.82-1.7s.77-.89 1.26-1.18c.49-.29.91-.39 1.26-.31.35.08.63.32.82.73.19.41.29.96.29 1.65s-.1 1.35-.29 1.98c-.19.63-.47 1.2-.82 1.7s-.77.89-1.26 1.18zm.01-1.45c.22-.13.41-.33.55-.59s.26-.57.34-.92c.08-.35.11-.72.11-1.11s-.04-.72-.11-.98c-.08-.26-.19-.44-.34-.53-.15-.09-.33-.07-.55.06-.22.13-.41.33-.56.6-.15.27-.27.58-.34.93s-.11.72-.11 1.11c0 .39.04.72.11.98.08.26.19.43.34.52.15.09.34.07.56-.07zM246.78 153.03l-1.22.83a.719.719 0 0 0-.13-.32.342.342 0 0 0-.27-.12c-.11-.01-.24.04-.4.13-.21.12-.38.29-.52.49-.14.21-.21.41-.21.61 0 .16.05.27.14.32.09.06.25.05.47-.01l.87-.27c.47-.14.82-.13 1.05.03.23.16.34.48.34.97 0 .44-.09.88-.28 1.32-.18.44-.44.85-.76 1.22-.32.38-.69.69-1.11.93-.64.38-1.14.49-1.52.34-.38-.15-.6-.52-.66-1.13l1.31-.87c.04.25.14.4.29.45.15.05.35.01.59-.14.23-.14.42-.31.57-.53.14-.21.22-.42.22-.62 0-.17-.05-.28-.15-.33-.1-.05-.25-.04-.46.02l-.83.26c-.47.15-.82.13-1.05-.06-.23-.19-.34-.53-.34-1.03 0-.43.08-.85.25-1.26.17-.41.4-.79.71-1.14.31-.35.66-.65 1.08-.89.61-.36 1.09-.46 1.44-.31.31.16.52.53.58 1.11zM249.1 156.58c-.31.18-.58.27-.82.26a.69.69 0 0 1-.57-.33c-.14-.21-.21-.54-.21-.98a3.373 3.373 0 0 1 .55-1.88c.17-.25.36-.49.58-.69.22-.21.44-.4.68-.57.28-.21.51-.38.68-.52.17-.14.3-.27.37-.38a.69.69 0 0 0 .12-.39v-.03c0-.28-.06-.45-.19-.53-.12-.08-.3-.05-.53.09-.24.14-.43.33-.57.56-.14.23-.24.47-.28.72l-1.23.59c.06-.44.19-.87.37-1.28.18-.41.42-.78.71-1.11.29-.33.63-.62 1.01-.84.27-.16.52-.27.77-.32.25-.06.46-.05.65.02s.34.22.45.44c.11.22.17.53.17.93v4.53l-1.27.75v-.93l-.04.02c-.08.26-.18.5-.31.74s-.29.45-.47.65c-.17.17-.38.33-.62.48zm.38-1.52c.2-.12.37-.27.52-.47.15-.2.27-.42.35-.65.09-.24.13-.47.13-.71v-.71c-.04.06-.1.13-.17.2s-.15.15-.24.23c-.09.08-.18.15-.27.23-.09.07-.17.14-.24.2-.16.12-.29.26-.41.4s-.21.29-.27.44c-.06.16-.1.32-.1.5 0 .25.07.41.2.46.13.04.3.01.5-.12zM254.18 144.49v8.95l-1.33.79v-8.95l1.33-.79z"/><circle cx="213.14" cy="111.19" r="28.4" class="st609"/><circle cx="213.14" cy="111.19" r="11.86" class="st609"/><path d="m259.82 27.52-1.35-.76 7.84-4.62 1.35.76zM139.38 24.63l-2.18-1.23 12.67-7.48 2.18 1.23z" class="st8"/><linearGradient id="SVGID_1_" x1="155.5" x2="165.342" y1="102.137" y2="102.137" gradientUnits="userSpaceOnUse"><stop offset="0" stop-color="#a85699"/><stop offset="1" stop-color="#5db6c3"/></linearGradient><path fill="url(#SVGID_1_)" d="M155.5 108.41v-1.47l7.13-9.15v-.13h-6.9v-1.8h9.38v1.54l-6.93 9.09v.13h7.16v1.8h-9.84z"/><linearGradient id="SVGID_00000007390715791541491040000004999326387714420882_" x1="181.014" x2="197.522" y1="82.794" y2="82.794" gradientUnits="userSpaceOnUse"><stop offset="0" stop-color="#a85699"/><stop offset="1" stop-color="#5db6c3"/></linearGradient><path fill="url(#SVGID_00000007390715791541491040000004999326387714420882_)" d="M181.01 93.32v-2.47l11.96-15.36v-.22H181.4v-3.02h15.74v2.58l-11.63 15.25v.22h12.01v3.02h-16.51z"/><linearGradient id="SVGID_00000044157703478547783350000006077186836944280239_" x1="178.947" x2="200.884" y1="37.671" y2="37.671" gradientUnits="userSpaceOnUse"><stop offset="0" stop-color="#a85699"/><stop offset="1" stop-color="#5db6c3"/></linearGradient><path fill="url(#SVGID_00000044157703478547783350000006077186836944280239_)" d="M178.95 51.66v-3.28l15.89-20.41v-.29h-15.38v-4.01h20.92v3.43l-15.45 20.26v.29h15.96v4.01h-21.94z"/><radialGradient id="SVGID_00000085234384756899747710000011719354428404467861_" cx="142.974" cy="250.806" r="29.142" gradientTransform="matrix(1 0 0 .5898 0 102.882)" gradientUnits="userSpaceOnUse"><stop offset="0" stop-color="#b8b3d4"/><stop offset=".346" stop-color="#bab6d6" stop-opacity=".654"/><stop offset=".606" stop-color="#c2c0da" stop-opacity=".394"/><stop offset=".838" stop-color="#d0d0e3" stop-opacity=".162"/><stop offset="1" stop-color="#dde0eb" stop-opacity="0"/></radialGradient><path fill="url(#SVGID_00000085234384756899747710000011719354428404467861_)" d="M167.96 236.74c-13.67-7.89-35.94-7.99-49.74-.23s-13.9 20.46-.23 28.36 35.94 7.99 49.74.23c13.8-7.77 13.9-20.47.23-28.36z" opacity=".67"/><path fill="#3fa9bd" d="M178.93 201.03v-49.28c0-.23.02-.45.02-.68 0-22.91-18.57-41.48-41.48-41.48-22.91 0-41.48 18.57-41.48 41.48 0 .36.02.72.03 1.07v44.66h-.03v22.67a5.15 5.15 0 1 0 10.3 0v-.83c.56.36 1.13.72 1.74 1.07 1.83 1.06 3.79 1.99 5.85 2.81v8.2c0 2.84 2.3 5.15 5.15 5.15s5.15-2.31 5.15-5.15v-5.23c2.95.57 5.99.96 9.06 1.14v12.59c0 2.84 2.3 5.15 5.15 5.15s5.15-2.31 5.15-5.15v-12.7c3.39-.28 6.73-.8 9.93-1.55v6.36c0 2.84 2.3 5.15 5.15 5.15s5.15-2.31 5.15-5.15v-9.87c1-.47 1.97-.96 2.91-1.49.7-.39 1.35-.8 1.99-1.21v.71a5.15 5.15 0 1 0 10.3 0v-18.45h-.04z"/><radialGradient id="SVGID_00000066501375611025469250000013858758101409998009_" cx="162.15" cy="127.013" r="106.685" gradientUnits="userSpaceOnUse"><stop offset=".012" stop-color="#dd78ce"/><stop offset=".494" stop-color="#a7589a"/><stop offset=".583" stop-color="#a0619e"/><stop offset=".727" stop-color="#8e79a8"/><stop offset=".908" stop-color="#709fb9"/><stop offset="1" stop-color="#5eb6c3"/></radialGradient><path fill="url(#SVGID_00000066501375611025469250000013858758101409998009_)" d="M178.93 201.03v-49.28c0-.23.02-.45.02-.68 0-22.91-18.57-41.48-41.48-41.48-22.91 0-41.48 18.57-41.48 41.48 0 .36.02.72.03 1.07v44.66h-.03v22.67a5.15 5.15 0 1 0 10.3 0v-.83c.56.36 1.13.72 1.74 1.07 1.83 1.06 3.79 1.99 5.85 2.81v8.2c0 2.84 2.3 5.15 5.15 5.15s5.15-2.31 5.15-5.15v-5.23c2.95.57 5.99.96 9.06 1.14v12.59c0 2.84 2.3 5.15 5.15 5.15s5.15-2.31 5.15-5.15v-12.7c3.39-.28 6.73-.8 9.93-1.55v6.36c0 2.84 2.3 5.15 5.15 5.15s5.15-2.31 5.15-5.15v-9.87c1-.47 1.97-.96 2.91-1.49.7-.39 1.35-.8 1.99-1.21v.71a5.15 5.15 0 1 0 10.3 0v-18.45h-.04z"/><path id="矩形_00000013912370780101878490000007450984262361932426_" d="M99.9 186.89c1.12 0 2.08 1.38 2.08 2.99v14.25c0 1.61-.96 2.99-2.08 2.99s-2.08-1.38-2.08-2.99v-14.25c-.01-1.61.96-2.99 2.08-2.99z" class="st4"/><path id="矩形_00000105389235179328124280000017088382548664353155_" d="M99.9 212.68c1.12 0 2.08 1.38 2.08 2.99v2.76c0 1.61-.96 2.99-2.08 2.99s-2.08-1.38-2.08-2.99v-2.76c-.01-1.73.96-2.99 2.08-2.99z" class="st4"/><path id="矩形_00000066477818441699453690000016964919950218624943_" d="M117.29 223.46c1.12 0 2.08 1.38 2.08 2.99v2.76c0 1.61-.96 2.99-2.08 2.99s-2.08-1.38-2.08-2.99v-2.76c-.01-1.73.95-2.99 2.08-2.99z" class="st4"/><path id="矩形_00000101804678989535653920000005818440133909333142_" d="M137.46 232.19c1.12 0 2.08 1.38 2.08 2.99v2.76c0 1.61-.96 2.99-2.08 2.99s-2.08-1.38-2.08-2.99v-2.76c0-1.72.96-2.99 2.08-2.99z" class="st4"/><path id="矩形_00000029005240873666914550000002775891798328402068_" d="M157.16 226.85c.89 0 1.66 1.1 1.66 2.37v2.19c0 1.28-.76 2.37-1.66 2.37-.89 0-1.66-1.1-1.66-2.37v-2.19c0-1.36.76-2.37 1.66-2.37z" class="st4"/><path id="矩形_00000166652132102504768740000002163194347797792703_" d="M171.95 216.69c.62 0 1.14.76 1.14 1.64v1.51c0 .88-.53 1.64-1.14 1.64-.62 0-1.14-.76-1.14-1.64v-1.51c-.01-.94.52-1.64 1.14-1.64z" class="st4"/><path d="m138.04 167.73 11.69-4.32M161.27 160l11.69-4.32" class="st332"/></svg>