<svg xmlns="http://www.w3.org/2000/svg" xml:space="preserve" id="Слой_1" x="0" y="0" version="1.1" viewBox="0 0 290 269.62"><style>.st2{fill:#0d101d;stroke:#000;stroke-linecap:round;stroke-linejoin:round;stroke-miterlimit:10}.st3{fill:#30345e}.st5{fill-rule:evenodd;clip-rule:evenodd;fill:#0d101d}.st5,.st6{stroke:#000;stroke-linecap:round;stroke-linejoin:round;stroke-miterlimit:10}.st17,.st6,.st7{fill-rule:evenodd;clip-rule:evenodd}.st7{fill:#30345e;stroke:#000;stroke-linecap:round;stroke-linejoin:round;stroke-miterlimit:10}.st17{fill:#40407c}.st31{stroke:#1a213a;stroke-linecap:round;stroke-linejoin:round;stroke-miterlimit:10}.st74,.st78,.st79,.st80,.st81{fill-rule:evenodd;clip-rule:evenodd}.st74{opacity:.2563;fill:#fff;enable-background:new}.st78,.st79,.st80,.st81{fill:#555069}.st79,.st80,.st81{fill:#fff}.st80,.st81{fill:#afafb1}.st81{fill:#d3d3d3}</style><circle cx="144.67" cy="70.24" r="26.03" class="st31"/><path d="m138.21 43.43-.01 10.81c-.33 1.38.28 2.85 1.82 3.91 2.54 1.76 6.66 1.76 9.2 0 1.08-.75 1.7-1.69 1.86-2.67h.04V54.9l.01-11.18-12.92-.29z" class="st2"/><path d="M138.26 51.16c0 2.45 2.87 4.43 6.41 4.43s6.41-1.98 6.41-4.43" class="st2"/><path d="M138.26 47.77c0 2.45 2.87 4.43 6.41 4.43s6.41-1.98 6.41-4.43" class="st2"/><path d="M138.26 44.21c0 2.45 2.87 4.43 6.41 4.43s6.41-1.98 6.41-4.43" class="st2"/><path d="m138.21 32.75-.01 10.81c-.33 1.38.28 2.85 1.82 3.91 2.54 1.76 6.66 1.76 9.2 0 1.08-.75 1.7-1.69 1.86-2.67h.04V44.22l.01-11.18-12.92-.29z" class="st2"/><path d="M138.26 40.49c0 2.45 2.87 4.43 6.41 4.43s6.41-1.98 6.41-4.43" class="st2"/><path d="M138.26 37.1c0 2.45 2.87 4.43 6.41 4.43s6.41-1.98 6.41-4.43" class="st2"/><path d="M138.26 33.54c0 2.45 2.87 4.43 6.41 4.43s6.41-1.98 6.41-4.43" class="st2"/><path d="m144.27 48.55-17.81-10.28V20.45l17.81 10.29z" class="st6"/><path d="m144.27 48.55 17.82-10.28V20.45l-17.82 10.29z" class="st5"/><path d="m144.34 30.79-17.88-10.32 17.75-10.34 17.88 10.32z" class="st7"/><path id="矩形_00000079443592894900880680000006652819142888995477_" d="M138.37 15.86c.35.2.29.58-.12.83l-3.7 2.19c-.42.25-1.08.29-1.43.09-.35-.2-.29-.58.12-.83l3.7-2.19c.42-.25 1.08-.29 1.43-.09z" class="st17"/><path id="矩形_00000114755741022696549230000009597631825070058393_" d="M131.68 19.82c.35.2.29.58-.12.83l-.72.42c-.42.25-1.08.29-1.43.09-.35-.2-.29-.58.12-.83l.72-.42c.45-.27 1.08-.29 1.43-.09z" class="st17"/><circle cx="263.33" cy="58.37" r="17.42" class="st31"/><path d="M259 40.43v7.23c-.22.92.19 1.91 1.22 2.62 1.7 1.18 4.46 1.18 6.16 0 .72-.5 1.14-1.13 1.25-1.79h.03v-7.88l-8.66-.18z" class="st2"/><path d="M259.04 45.6c0 1.64 1.92 2.97 4.29 2.97s4.29-1.33 4.29-2.97" class="st2"/><path d="M259.04 43.33c0 1.64 1.92 2.97 4.29 2.97s4.29-1.33 4.29-2.97" class="st2"/><path d="M259.04 40.95c0 1.64 1.92 2.97 4.29 2.97s4.29-1.33 4.29-2.97" class="st2"/><path d="M259 33.28v7.23c-.22.92.19 1.91 1.22 2.62 1.7 1.18 4.46 1.18 6.16 0 .72-.5 1.14-1.13 1.25-1.79h.03v-7.88l-8.66-.18z" class="st2"/><path d="M259.04 38.46c0 1.64 1.92 2.97 4.29 2.97s4.29-1.33 4.29-2.97" class="st2"/><path d="M259.04 36.19c0 1.64 1.92 2.97 4.29 2.97s4.29-1.33 4.29-2.97" class="st2"/><path d="M259.04 33.8c0 1.64 1.92 2.97 4.29 2.97s4.29-1.33 4.29-2.97" class="st2"/><path d="m263.06 43.86-11.92-6.89V25.05l11.92 6.88z" class="st6"/><path d="m263.06 43.86 11.93-6.89V25.05l-11.93 6.88z" class="st5"/><path d="m263.11 31.97-11.97-6.91 11.88-6.93 11.97 6.92z" class="st7"/><path id="矩形_00000051345786366756252190000006540976897904845215_" d="M259.11 21.97c.23.13.2.39-.08.55l-2.47 1.46c-.28.17-.72.19-.95.06-.23-.13-.2-.39.08-.55l2.47-1.46c.28-.17.72-.19.95-.06z" class="st17"/><path id="矩形_00000155113696485370069590000008057874936706924938_" d="M254.63 24.62c.23.13.2.39-.08.55l-.48.28c-.28.17-.72.19-.95.06-.23-.13-.2-.39.08-.55l.48-.28c.3-.18.72-.19.95-.06z" class="st17"/><path d="m263.04 168.08-53.79 30.72.13 21 53.78-30.72z" class="st5"/><path d="m168.54 176.13 40.71 22.61.25 20.87-40.71-22.62z" class="st6"/><path d="m263.04 168.4-41.24-23.02-53.26 30.75 40.71 22.82z" class="st7"/><path d="m263.04 143.54-53.79 30.72.13 21 53.78-30.72z" class="st5"/><path d="m168.54 151.58 40.71 22.62.25 20.87-40.71-22.62z" class="st6"/><path d="m263.05 143.49-41.24-23.01-53.27 31.1 40.71 22.83z" class="st7"/><circle cx="213.14" cy="120.42" r="41.04" class="st31"/><path d="m202.96 78.14-.01 17.04c-.52 2.18.44 4.49 2.87 6.17 4.01 2.77 10.5 2.77 14.51 0 1.7-1.18 2.68-2.67 2.94-4.21h.07V96.22l.01-17.63-20.39-.45z" class="st2"/><path d="M203.04 90.34c0 3.86 4.52 6.99 10.11 6.99s10.11-3.13 10.11-6.99" class="st2"/><path d="M203.04 84.99c0 3.86 4.52 6.99 10.11 6.99s10.11-3.13 10.11-6.99" class="st2"/><path d="M203.04 79.38c0 3.86 4.52 6.99 10.11 6.99s10.11-3.13 10.11-6.99" class="st2"/><path d="m202.96 61.31-.01 17.04c-.52 2.18.44 4.49 2.87 6.17 4.01 2.77 10.5 2.77 14.51 0 1.7-1.18 2.68-2.67 2.94-4.21h.07V79.39l.01-17.63-20.39-.45z" class="st2"/><path d="M203.04 73.51c0 3.86 4.52 6.99 10.11 6.99s10.11-3.13 10.11-6.99" class="st2"/><path d="M203.04 68.16c0 3.86 4.52 6.99 10.11 6.99s10.11-3.13 10.11-6.99" class="st2"/><path d="M203.04 62.55c0 3.86 4.52 6.99 10.11 6.99s10.11-3.13 10.11-6.99" class="st2"/><path d="m212.52 86.23-28.09-16.22V41.92l28.09 16.22z" class="st6"/><path d="m212.52 86.23 28.09-16.22V41.92l-28.09 16.22z" class="st5"/><path d="m212.62 58.22-28.19-16.27 27.99-16.31 28.2 16.27z" class="st7"/><path d="m204.48 49-3.57-2.01 20.76-12.26 3.58 2.02z" class="st5"/><path id="矩形_00000170266666954363694930000004065331233235621794_" d="M203.21 34.67c.55.31.46.92-.2 1.31l-5.83 3.45c-.66.39-1.7.45-2.25.14s-.46-.92.2-1.31l5.83-3.45c.66-.39 1.7-.45 2.25-.14z" class="st17"/><path id="矩形_00000089539658386455953200000014543093902128682381_" d="M192.66 40.92c.55.31.46.92-.2 1.31l-1.13.67c-.66.39-1.7.45-2.25.14s-.46-.92.2-1.31l1.13-.67c.71-.42 1.7-.46 2.25-.14z" class="st17"/><path d="M217.3 184.52v-8.95l2.53-1.5c.49-.29.9-.41 1.24-.35.34.05.6.26.79.61.18.35.27.82.27 1.41s-.09 1.17-.28 1.74c-.18.56-.45 1.07-.8 1.53-.35.46-.77.84-1.26 1.13l-1.61.96v-1.52l1.39-.83c.26-.15.48-.35.65-.57.17-.23.3-.48.38-.76.08-.28.13-.56.13-.85 0-.3-.04-.53-.13-.71a.47.47 0 0 0-.38-.29c-.17-.02-.39.04-.65.2l-.91.54v7.4l-1.36.81zM222.99 181.15v-6.71l1.29-.77v1.17l.05-.03c.09-.47.23-.87.44-1.21.21-.34.44-.58.71-.74.07-.04.14-.08.22-.11.08-.03.15-.06.2-.07v1.65c-.06.01-.15.04-.26.08-.11.04-.21.09-.3.15-.2.12-.37.28-.53.49a2.633 2.633 0 0 0-.49 1.51v3.8l-1.33.79zM228.54 177.99c-.49.29-.91.39-1.26.31-.35-.08-.63-.32-.82-.73-.19-.41-.29-.95-.29-1.64s.1-1.36.29-1.99c.19-.63.47-1.2.82-1.7s.77-.89 1.26-1.18c.49-.29.91-.39 1.26-.31.35.08.63.32.82.73.19.41.29.96.29 1.65s-.1 1.35-.29 1.98c-.19.63-.47 1.2-.82 1.7s-.77.89-1.26 1.18zm.01-1.44c.22-.13.41-.33.55-.59.15-.26.26-.57.34-.92s.11-.72.11-1.11-.04-.72-.11-.98-.19-.44-.34-.53c-.15-.09-.33-.07-.55.06-.22.13-.41.33-.56.6a3.2 3.2 0 0 0-.34.93c-.08.35-.11.72-.11 1.11 0 .39.04.72.11.98.08.26.19.43.34.52.15.08.33.06.56-.07zM231.78 178.46v-9.23l1.32-.78v1.13l.06-.04c.06-.22.14-.45.26-.7.11-.25.26-.5.44-.73.18-.23.41-.43.68-.59.35-.21.67-.27.97-.19.3.08.53.32.71.73.18.41.27.99.27 1.76 0 .75-.09 1.43-.26 2.05-.17.62-.41 1.14-.7 1.58-.3.44-.63.77-.99.98-.26.15-.48.22-.66.21a.618.618 0 0 1-.44-.19c-.11-.11-.2-.25-.26-.4l-.04.02v3.59l-1.36.8zm1.31-6.65c0 .4.04.72.12.97.08.25.19.41.34.49.15.07.33.05.55-.08.22-.13.4-.32.55-.58.15-.26.26-.56.34-.9.08-.35.12-.71.12-1.1 0-.39-.04-.71-.12-.95-.08-.25-.19-.41-.34-.49-.15-.08-.33-.05-.55.08-.22.13-.4.32-.55.57-.15.25-.26.54-.34.89-.08.33-.12.7-.12 1.1zM239.53 171.48c-.49.29-.91.39-1.26.31-.35-.08-.63-.32-.82-.73-.19-.41-.29-.95-.29-1.64s.1-1.36.29-1.99c.19-.63.47-1.2.82-1.7s.77-.89 1.26-1.18c.49-.29.91-.39 1.26-.31.35.08.63.32.82.73.19.41.29.96.29 1.65s-.1 1.35-.29 1.98c-.19.63-.47 1.2-.82 1.7s-.77.89-1.26 1.18zm.01-1.45c.22-.13.41-.33.55-.59.15-.26.26-.57.34-.92.08-.35.11-.72.11-1.11 0-.39-.04-.72-.11-.98-.08-.26-.19-.44-.34-.53-.15-.09-.33-.07-.55.06-.22.13-.41.33-.56.6a3.2 3.2 0 0 0-.34.93c-.08.35-.11.72-.11 1.11 0 .39.04.72.11.98.08.26.19.43.34.52.15.09.34.06.56-.07zM246.78 162.26l-1.22.83a.719.719 0 0 0-.13-.32.342.342 0 0 0-.27-.12c-.11-.01-.24.04-.4.13-.21.12-.38.29-.52.49-.14.21-.21.41-.21.61 0 .16.05.27.14.32.09.06.25.05.47-.01l.87-.27c.47-.14.82-.13 1.05.03.23.16.34.48.34.97 0 .44-.09.88-.28 1.32-.18.44-.44.85-.76 1.22-.32.38-.69.69-1.11.93-.64.38-1.14.49-1.52.34-.38-.15-.6-.52-.66-1.13l1.31-.87c.04.25.14.4.29.45.15.05.35.01.59-.14.23-.14.42-.31.57-.53.14-.21.22-.42.22-.62 0-.17-.05-.28-.15-.33-.1-.05-.25-.04-.46.02l-.83.26c-.47.15-.82.13-1.05-.06-.23-.19-.34-.53-.34-1.03 0-.43.08-.85.25-1.26.17-.41.4-.79.71-1.14.31-.35.66-.65 1.08-.89.61-.36 1.09-.46 1.44-.31.31.16.52.52.58 1.11zM249.1 165.8c-.31.18-.58.27-.82.26a.69.69 0 0 1-.57-.33c-.14-.21-.21-.54-.21-.98a3.373 3.373 0 0 1 .55-1.88c.17-.25.36-.49.58-.69.22-.21.44-.4.68-.57.28-.21.51-.38.68-.52.17-.14.3-.27.37-.38a.69.69 0 0 0 .12-.39v-.03c0-.28-.06-.45-.19-.53-.12-.08-.3-.05-.53.09-.24.14-.43.33-.57.56-.14.23-.24.47-.28.72l-1.23.59c.06-.44.19-.87.37-1.28.18-.41.42-.78.71-1.11.29-.33.63-.62 1.01-.84.27-.16.52-.27.77-.32.25-.06.46-.05.65.02s.34.22.45.44c.11.22.17.53.17.93v4.53l-1.27.75v-.93l-.04.02c-.08.26-.18.5-.31.74s-.29.45-.47.65c-.17.17-.38.34-.62.48zm.38-1.51c.2-.12.37-.27.52-.47.15-.2.27-.42.35-.65.09-.24.13-.47.13-.71v-.71c-.04.06-.1.13-.17.2s-.15.15-.24.23c-.09.08-.18.15-.27.23-.09.07-.17.14-.24.2-.16.12-.29.26-.41.4s-.21.29-.27.44c-.06.16-.1.32-.1.5 0 .25.07.41.2.46s.3 0 .5-.12zM254.18 153.72v8.95l-1.33.79v-8.95l1.33-.79z" class="st3"/><path d="M132.63 74 22.49 136.92v58.9l110.14-62.92z" class="st5"/><path d="m8.05 128.76 14.44 7.8v59.26l-14.44-7.8z" class="st6"/><path d="m132.63 74-15.51-8.2L8.05 128.76l14.44 7.8z" class="st7"/><path d="M37.79 156.45c0 1.76-.21 3.37-.64 4.83-.42 1.46-1 2.72-1.72 3.77-.72 1.05-1.52 1.84-2.41 2.37-.89.53-1.7.7-2.42.5-.72-.2-1.29-.77-1.71-1.73-.42-.96-.63-2.31-.63-4.06 0-1.76.21-3.37.63-4.83s.99-2.71 1.71-3.76c.72-1.05 1.53-1.84 2.42-2.37.89-.53 1.69-.7 2.41-.51.72.19 1.3.76 1.72 1.72.43.95.64 2.31.64 4.07zm-2.74 1.63c0-.95-.08-1.7-.23-2.26-.16-.56-.38-.92-.69-1.08-.3-.16-.67-.1-1.11.16-.44.26-.81.65-1.11 1.17-.3.52-.53 1.15-.68 1.89s-.23 1.59-.23 2.54.08 1.7.23 2.26.38.92.68 1.07c.3.16.67.11 1.11-.16.44-.26.81-.65 1.11-1.17.3-.52.53-1.15.69-1.89.16-.74.23-1.58.23-2.53zM39.02 163.63v-15.82l4.23-2.52c.73-.43 1.36-.58 1.91-.44.55.14.97.54 1.27 1.2.3.66.45 1.55.45 2.67 0 1.13-.16 2.21-.47 3.22a9.102 9.102 0 0 1-1.31 2.69c-.56.78-1.21 1.39-1.96 1.84l-2.53 1.51v-3.34l1.99-1.19c.31-.19.58-.43.8-.74.22-.31.39-.67.51-1.07s.18-.83.18-1.27c0-.45-.06-.8-.18-1.06-.12-.25-.29-.4-.51-.44-.22-.04-.49.03-.8.22l-.94.56v12.39l-2.64 1.59zM47.86 158.36v-15.82l7.07-4.21v3.46l-4.4 2.62v2.72l4.04-2.41v3.46l-4.04 2.41v2.72l4.39-2.61v3.46l-7.06 4.2zM64.74 132.49v15.82l-2.22 1.32-3.54-6.2-.06.04v8.31l-2.66 1.58v-15.82l2.26-1.35L62 142.4l.08-.04v-8.28l2.66-1.59zM68.41 133.76v-3.46l8.52-5.07v3.46l-2.95 1.76v12.36l-2.62 1.56v-12.36l-2.95 1.75zM86.97 127.16c0 1.76-.21 3.37-.64 4.83-.42 1.46-1 2.72-1.72 3.77-.72 1.05-1.53 1.84-2.41 2.37-.89.53-1.7.7-2.42.5-.72-.2-1.29-.77-1.71-1.73-.42-.96-.63-2.31-.63-4.06 0-1.76.21-3.37.63-4.83.42-1.46.99-2.71 1.71-3.76.72-1.05 1.53-1.84 2.42-2.37.89-.53 1.69-.7 2.41-.51.72.19 1.29.76 1.72 1.72.43.95.64 2.31.64 4.07zm-2.74 1.63c0-.95-.08-1.7-.23-2.26-.16-.56-.38-.92-.68-1.07-.3-.16-.67-.11-1.11.16-.44.26-.81.65-1.11 1.17-.3.52-.53 1.15-.69 1.89-.15.74-.23 1.59-.23 2.54s.08 1.7.23 2.26c.16.56.38.92.69 1.08.3.16.67.11 1.11-.16.44-.26.81-.65 1.11-1.17.3-.52.53-1.15.68-1.89.15-.75.23-1.6.23-2.55zM93.56 115.33l2.01 9.96.08-.05 2.01-12.35 3.01-1.79-3.24 17.75-3.64 2.17-3.24-13.89 3.01-1.8zM110.49 113.15c0 1.76-.21 3.37-.64 4.83-.42 1.46-1 2.72-1.72 3.76-.72 1.05-1.53 1.84-2.41 2.37-.89.53-1.7.7-2.42.5-.72-.2-1.29-.77-1.71-1.73-.42-.96-.63-2.31-.63-4.06 0-1.76.21-3.37.63-4.83.42-1.46.99-2.71 1.71-3.76.72-1.05 1.53-1.84 2.42-2.37.89-.53 1.69-.7 2.41-.51.72.19 1.29.76 1.72 1.72.43.97.64 2.33.64 4.08zm-2.74 1.64c0-.95-.08-1.7-.23-2.26-.16-.56-.38-.92-.68-1.07-.3-.16-.67-.11-1.11.16-.44.26-.81.65-1.11 1.17-.3.52-.53 1.15-.68 1.89-.15.74-.23 1.59-.23 2.54s.08 1.7.23 2.26c.16.56.38.92.68 1.07.3.16.67.11 1.11-.16.44-.26.81-.65 1.11-1.17.3-.52.53-1.15.68-1.89.15-.75.23-1.6.23-2.54zM110.99 108.41v-3.46l8.52-5.08v3.46l-2.95 1.76v12.36l-2.62 1.56v-12.36l-2.95 1.76zM120.5 115.1V99.28l7.07-4.21v3.46l-4.4 2.62v2.72l4.04-2.41v3.46l-4.04 2.41v2.72l4.39-2.61v3.46l-7.06 4.2z" class="st3"/><path d="m259.56 178.34-44.06 25.67v-3.45l44.06-25.68z" class="st6"/><path d="m259.18 178.04-43.41 25.35v-2.86l43.41-25.35z" class="st5"/><path fill="#1ad4b3" fill-rule="evenodd" d="m246.98 184.87-31.38 18.38v-2.35l31.38-18.31z" clip-rule="evenodd"/><path d="m259.56 185.36-44.06 25.67v-3.45l44.06-25.67z" class="st6"/><path d="m259.19 185.11-43.69 25.47-.01-2.86 43.69-25.47z" class="st5"/><path fill="#fc4f83" fill-rule="evenodd" d="m233.43 199.81-17.83 10.44-.01-2.31 17.83-10.44z" clip-rule="evenodd"/><linearGradient id="SVGID_1_" x1="890.929" x2="928.518" y1="1551.929" y2="1551.929" gradientTransform="matrix(.7491 -.4602 0 1 -594.494 -1090.422)" gradientUnits="userSpaceOnUse"><stop offset="0" stop-color="#b4509c"/><stop offset="1" stop-color="#54b8c5"/></linearGradient><path fill="none" stroke="url(#SVGID_1_)" stroke-linecap="round" stroke-linejoin="round" stroke-miterlimit="10" stroke-width="5" d="m99.18 59.02-24.41 15V26.65l24.41-15z"/><path d="m99.18 58.75-24.41 15V26.38l24.41-14.99z" class="st2"/><path d="m80.6 33.21-1.17.72-1.13-3.39 1.05-.65.66 2.34.66-3.16 1.05-.65-1.12 4.79zM84.6 30.24c-.32.59-.72 1.03-1.2 1.33s-.88.34-1.2.14c-.32-.2-.48-.61-.48-1.23s.16-1.23.48-1.82c.32-.59.72-1.03 1.2-1.33.48-.29.88-.34 1.2-.14.32.2.48.61.48 1.23s-.16 1.23-.48 1.82zm-1.73.27c.14.11.31.1.53-.03.22-.13.39-.34.53-.62.14-.28.2-.56.2-.85 0-.29-.07-.49-.2-.6-.14-.11-.31-.1-.53.03-.22.13-.39.34-.53.62-.14.28-.2.56-.2.85 0 .28.07.48.2.6zM86.99 29.29l-.93.57v-3.01l-.82.5v-1.08l2.56-1.58v1.08l-.82.5v3.02zM89.06 28.01l-.93.57V24.5l.93-.57v4.08zM92.51 25.9l-.89.55-1.13-1.38v2.07l-.93.57v-4.09l.95-.59 1.06 1.28v-1.94l.93-.57v4.1zM94.52 24.74c-.48.29-.88.35-1.2.16-.32-.19-.48-.6-.48-1.24s.16-1.25.48-1.83c.32-.58.72-1.02 1.2-1.32.34-.21.62-.28.84-.21.22.07.39.22.5.45l-.78 1.01a.396.396 0 0 0-.22-.22c-.1-.04-.21-.02-.34.06-.22.14-.4.34-.54.62-.14.28-.21.57-.21.86 0 .29.07.49.21.6.14.11.32.1.54-.04.09-.05.17-.13.27-.22.09-.09.16-.18.21-.26v-.15l-.57.35v-1.08l1.49-.92v1.67c-.37.8-.84 1.36-1.4 1.71zM79.65 39.64l-.97.6v-4.29l1.72-1.05c.36-.22.65-.26.85-.1.2.16.31.44.31.86s-.1.83-.31 1.23c-.2.41-.49.72-.85.94l-.74.46v1.35zm.62-2.87c.09-.05.16-.13.21-.22a.61.61 0 0 0 .08-.3c0-.11-.03-.18-.08-.2-.05-.02-.13-.01-.21.04l-.62.38v.68l.62-.38zM84.71 35.98c-.34.62-.75 1.08-1.26 1.39s-.92.36-1.26.15c-.34-.21-.5-.64-.5-1.29s.17-1.29.5-1.91c.34-.62.75-1.08 1.26-1.39.5-.31.92-.36 1.26-.15.34.21.5.64.5 1.29.01.65-.16 1.29-.5 1.91zm-1.81.28c.14.12.33.11.56-.03.23-.14.41-.36.56-.65.14-.29.21-.59.21-.9 0-.3-.07-.52-.21-.63-.14-.12-.33-.11-.56.03-.23.14-.41.36-.56.65-.14.29-.21.59-.21.9 0 .3.07.51.21.63zM89.04 33.87l-1.02.63-.41-2.18-.42 2.68-1.02.63-.92-3.73 1.09-.67.41 2.37.49-2.93.73-.45.49 2.33.41-2.88 1.09-.67-.92 4.87zM92.61 31.68l-2.44 1.5v-4.29l2.44-1.5v1.13l-1.47.9v.42l1.43-.88v1.13l-1.43.88v.47l1.47-.9v1.14zM95.92 29.64l-1.11.68-.44-1.08-.35.22v1.35l-.97.6v-4.29l1.72-1.05c.36-.22.65-.26.85-.1.2.16.31.44.31.86 0 .33-.06.64-.17.93-.11.28-.25.53-.41.73l.57 1.15zm-1.31-1.68c.09-.06.17-.13.23-.23s.09-.2.09-.31c0-.11-.03-.17-.09-.19-.06-.02-.14 0-.23.05l-.59.36v.68l.59-.36z" class="st3"/><linearGradient id="SVGID_00000040568017602853987090000009205716509186470282_" x1="917.096" x2="902.382" y1="1565.685" y2="1553.305" gradientTransform="matrix(.7491 -.4602 0 1 -594.494 -1090.422)" gradientUnits="userSpaceOnUse"><stop offset="0" stop-color="#c1489f"/><stop offset="1" stop-color="#55bac7"/></linearGradient><path fill="url(#SVGID_00000040568017602853987090000009205716509186470282_)" d="M86.97 40.5c-4.09 2.51-7.41 8.98-7.41 14.44s3.32 7.85 7.41 5.34 7.41-8.98 7.41-14.44-3.32-7.85-7.41-5.34zm3.15 12.57c-.08.16-.19.29-.33.38a.28.28 0 0 1-.26.04c-.08-.02-.13-.1-.18-.19l-2.38-6.45-.87 3.44.43-.26c.25-.15.45-.01.45.32v.02c0 .33-.2.72-.45.87l-.79.49-1.14 4.49c-.04.15-.1.29-.18.41-.07.12-.17.21-.26.27-.14.09-.25.1-.33.03-.08-.07-.12-.19-.12-.37 0-.08.01-.16.03-.25l1.04-4-.44.27c-.25.15-.45.01-.45-.32v-.01c0-.33.2-.72.45-.87l.83-.51 1.09-4.19c.14-.51.35-.84.63-1.01l.22-.14c.28-.17.49-.09.63.24l2.5 6.55c.02.06.03.13.03.21-.03.21-.07.38-.15.54z"/><linearGradient id="SVGID_00000031893601618095090660000016708257855663770521_" x1="846.734" x2="896.709" y1="1689.656" y2="1689.656" gradientTransform="matrix(.7491 -.4602 0 1 -594.494 -1090.422)" gradientUnits="userSpaceOnUse"><stop offset="0" stop-color="#b4509c"/><stop offset="1" stop-color="#54b8c5"/></linearGradient><path fill="none" stroke="url(#SVGID_00000031893601618095090660000016708257855663770521_)" stroke-linecap="round" stroke-linejoin="round" stroke-miterlimit="10" stroke-width="5" d="m75.35 220.39-33.69 20.7v-65.37l33.69-20.7z"/><path d="m75.35 220.02-33.69 20.7v-65.38l33.69-20.69z" class="st2"/><path d="m49.71 184.77-1.61.99-1.56-4.68 1.45-.89.91 3.23.91-4.36 1.45-.89-1.55 6.6zM55.23 180.67c-.44.81-.99 1.42-1.65 1.83-.66.4-1.21.47-1.65.2-.44-.27-.66-.84-.66-1.69 0-.86.22-1.69.66-2.51.44-.81.99-1.42 1.65-1.83.66-.4 1.21-.47 1.65-.2.44.27.66.84.66 1.69 0 .86-.22 1.69-.66 2.51zm-2.38.37c.19.16.43.14.73-.04.3-.18.54-.47.73-.85.19-.39.28-.78.28-1.18 0-.4-.09-.68-.28-.83-.19-.15-.43-.14-.73.04-.3.18-.54.47-.73.85-.19.39-.28.78-.28 1.18 0 .39.09.67.28.83zM58.53 179.35l-1.28.79v-4.15l-1.13.7v-1.49l3.54-2.17v1.49l-1.13.69v4.14zM61.39 177.6l-1.28.79v-5.64l1.28-.79v5.64zM66.14 174.68l-1.23.75-1.56-1.9v2.86l-1.28.79v-5.64l1.32-.81 1.47 1.77v-2.67l1.28-.79v5.64zM68.92 173.07c-.66.4-1.21.48-1.66.22-.45-.26-.67-.83-.67-1.71s.22-1.72.67-2.53c.45-.81 1-1.41 1.66-1.82.46-.29.85-.38 1.16-.29.31.09.54.3.69.62l-1.08 1.4a.587.587 0 0 0-.31-.31c-.14-.05-.29-.03-.47.08-.3.19-.55.47-.74.86-.19.39-.28.78-.28 1.18 0 .4.1.68.28.83.19.15.44.14.74-.05.12-.07.24-.17.37-.3.13-.13.22-.25.29-.36v-.2l-.79.48v-1.49l2.06-1.26v2.31c-.5 1.09-1.15 1.87-1.92 2.34zM48.4 193.63l-1.34.83v-5.93l2.37-1.46c.5-.31.89-.35 1.17-.14.28.21.42.61.42 1.19 0 .57-.14 1.14-.42 1.7-.28.56-.67 1-1.17 1.3l-1.02.63v1.88zm.86-3.95c.12-.07.22-.17.29-.3.08-.13.11-.26.11-.41 0-.15-.04-.25-.11-.28-.08-.03-.17-.01-.29.06l-.85.52v.93l.85-.52zM55.39 188.59c-.46.86-1.04 1.5-1.73 1.92s-1.27.49-1.73.21c-.46-.29-.7-.88-.7-1.78s.23-1.78.7-2.64c.46-.86 1.04-1.5 1.73-1.92s1.27-.49 1.73-.21c.46.29.7.88.7 1.78-.01.91-.24 1.79-.7 2.64zm-2.5.39c.2.16.45.15.77-.05.31-.19.57-.49.77-.9.2-.41.3-.82.3-1.24 0-.42-.1-.71-.3-.88-.2-.16-.45-.15-.77.05-.32.19-.57.49-.77.9-.2.41-.3.82-.3 1.24 0 .42.1.72.3.88zM61.36 185.67l-1.41.87-.57-3.01-.57 3.71-1.41.87-1.27-5.15 1.5-.92.57 3.27.67-4.04 1.01-.62.67 3.21.57-3.97 1.51-.93-1.27 6.71zM66.28 182.65l-3.37 2.07v-5.93l3.37-2.07v1.56l-2.02 1.24v.59l1.98-1.21v1.56l-1.98 1.21v.65l2.02-1.24v1.57zM70.85 179.84l-1.53.94-.61-1.49-.49.3v1.87l-1.34.83v-5.93l2.37-1.46c.5-.31.89-.35 1.17-.14.28.21.42.61.42 1.19 0 .46-.08.89-.24 1.28-.16.39-.35.73-.56 1l.81 1.61zm-1.81-2.32c.12-.08.23-.18.31-.31.08-.13.13-.27.13-.43 0-.15-.04-.24-.13-.26-.08-.03-.19 0-.31.07l-.82.5v.93l.82-.5z" class="st3"/><linearGradient id="SVGID_00000132075509461234073220000015387245010766686118_" x1="881.896" x2="861.59" y1="1708.639" y2="1691.553" gradientTransform="matrix(.7491 -.4602 0 1 -594.494 -1090.422)" gradientUnits="userSpaceOnUse"><stop offset="0" stop-color="#c1489f"/><stop offset="1" stop-color="#55bac7"/></linearGradient><path fill="url(#SVGID_00000132075509461234073220000015387245010766686118_)" d="M58.5 194.83c-5.64 3.47-10.22 12.39-10.22 19.93s4.58 10.83 10.22 7.37 10.22-12.39 10.22-19.93c.01-7.55-4.57-10.84-10.22-7.37zm4.35 17.35c-.11.23-.27.4-.46.52-.13.08-.25.1-.36.06-.11-.03-.19-.13-.25-.27l-3.29-8.9-1.21 4.75.59-.36c.34-.21.62-.01.62.45v.02c0 .46-.28 1-.62 1.21l-1.1.67-1.58 6.2c-.06.21-.14.4-.25.57-.1.16-.23.29-.36.38-.19.12-.35.14-.46.05-.11-.09-.17-.26-.17-.52 0-.11.01-.22.04-.35l1.44-5.51-.61.37c-.34.21-.62.01-.62-.45v-.01c0-.46.28-1 .62-1.21l1.14-.7 1.5-5.79c.19-.7.49-1.16.87-1.39l.3-.19c.38-.23.67-.13.87.33l3.46 9.03c.03.08.04.18.04.29.02.28-.04.53-.15.75z"/><linearGradient id="SVGID_00000098203099115855036620000013002750996857115564_" x1="203.795" x2="223.594" y1="30.048" y2="30.048" gradientUnits="userSpaceOnUse"><stop offset="0" stop-color="#b4509c"/><stop offset="1" stop-color="#54b8c5"/></linearGradient><path fill="url(#SVGID_00000098203099115855036620000013002750996857115564_)" d="M223.59 36.03V12.51l-19.8 12.16v22.91l19.8-11.55zm-15.06-8.71 10.33-6.35v16.66l-2.13 1.44c-2.68 1.81-5.42 3.66-8.2 5.41V27.32z"/><path d="M221.23 37.41V16.58l-15.07 9.25v20.38z" class="st2"/><path d="m209.76 30.05-.72.44-.7-2.09.66-.4.41 1.45.41-1.95.65-.4-.71 2.95zM212.23 28.21c-.2.36-.44.64-.74.82-.29.18-.54.21-.74.09-.2-.12-.3-.37-.3-.76 0-.38.1-.76.3-1.12.2-.36.44-.64.74-.82s.54-.21.74-.09c.2.12.3.37.3.76 0 .38-.1.76-.3 1.12zm-1.06.17c.08.07.19.06.33-.02a.96.96 0 0 0 .33-.38c.08-.17.13-.35.13-.53 0-.18-.04-.3-.13-.37-.08-.07-.19-.06-.33.02a.96.96 0 0 0-.33.38c-.08.17-.13.35-.13.53 0 .17.04.3.13.37zM213.71 27.62l-.57.35v-1.86l-.51.31v-.67l1.58-.97v.67l-.5.31v1.86zM214.99 26.84l-.57.35v-2.52l.57-.35v2.52zM217.11 25.53l-.55.34-.7-.85v1.28l-.57.35v-2.52l.59-.36.66.79v-1.19l.57-.35v2.51zM218.35 24.81c-.29.18-.54.21-.74.1-.2-.12-.3-.37-.3-.76s.1-.77.3-1.13c.2-.36.45-.63.74-.81.21-.13.38-.17.52-.13.14.04.24.13.31.28l-.48.62a.273.273 0 0 0-.14-.14c-.06-.02-.13-.01-.21.04-.14.08-.25.21-.33.38-.08.17-.13.35-.13.53 0 .18.04.3.13.37.08.07.2.06.33-.02.05-.03.11-.08.16-.13.06-.06.1-.11.13-.16v-.09l-.35.22v-.67l.92-.57v1.03c-.22.49-.51.83-.86 1.04zM209.18 34.01l-.6.37v-2.65l1.06-.65c.22-.14.4-.16.53-.06s.19.27.19.53-.06.51-.19.76-.3.45-.53.58l-.46.28v.84zm.38-1.77c.05-.03.1-.08.13-.13.03-.06.05-.12.05-.18 0-.07-.02-.11-.05-.13-.03-.02-.08-.01-.13.03l-.38.23v.42l.38-.24zM212.3 31.75c-.21.38-.47.67-.78.86-.31.19-.57.22-.78.09-.21-.13-.31-.39-.31-.8 0-.4.1-.8.31-1.18.21-.38.47-.67.78-.86s.57-.22.78-.09c.21.13.31.39.31.8 0 .41-.1.8-.31 1.18zm-1.12.18c.09.07.2.07.34-.02.14-.09.26-.22.34-.4.09-.18.13-.37.13-.55 0-.19-.04-.32-.13-.39s-.2-.07-.34.02c-.14.09-.26.22-.34.4-.09.18-.13.37-.13.55 0 .18.04.31.13.39zM214.97 30.45l-.63.39-.26-1.34-.26 1.66-.63.39-.57-2.3.67-.41.26 1.46.3-1.81.45-.28.3 1.44.25-1.78.68-.42-.56 3zM217.17 29.1l-1.51.93v-2.65l1.51-.93v.7l-.9.56v.26l.88-.54v.7l-.88.54v.29l.9-.56v.7zM219.22 27.84l-.68.42-.27-.67-.22.13v.83l-.6.37v-2.65l1.06-.65c.22-.14.4-.16.53-.06s.19.27.19.53c0 .21-.04.4-.11.57-.07.18-.15.33-.25.45l.35.73zm-.81-1.03c.06-.03.1-.08.14-.14a.33.33 0 0 0 .06-.19c0-.07-.02-.11-.06-.12-.04-.01-.08 0-.14.03l-.37.22v.42l.37-.22z" class="st3"/><path d="M206.64 45.93V26.1l14.12-8.67V37.7l.95-.55V16.58c0-.17-.09-.33-.24-.41a.484.484 0 0 0-.48.01l-15.06 9.26c-.14.09-.23.24-.23.4v20.65l.94-.56z"/><linearGradient id="SVGID_00000040557690732084897870000008687221171954580635_" x1="215.923" x2="210.856" y1="41.797" y2="37.533" gradientUnits="userSpaceOnUse"><stop offset="0" stop-color="#c1489f"/><stop offset="1" stop-color="#55bac7"/></linearGradient><path fill="url(#SVGID_00000040557690732084897870000008687221171954580635_)" d="m212.1 42.74.23-.9-.27.17c-.15.09-.28 0-.28-.2v-.01c0-.2.12-.45.28-.54l.51-.31.67-2.59c.09-.31.22-.52.39-.62l.14-.08c.17-.1.3-.06.39.15l1.17 3.05 2.83-1.65c.07-.46.12-.92.12-1.37 0-3.37-2.05-4.84-4.57-3.29-2.52 1.55-4.57 5.54-4.57 8.91 0 .35.03.67.07.98l2.89-1.7z"/><linearGradient id="SVGID_00000171681572199981280390000003799280875442376863_" x1="214.456" x2="212.544" y1="41.495" y2="39.886" gradientUnits="userSpaceOnUse"><stop offset="0" stop-color="#c1489f"/><stop offset="1" stop-color="#55bac7"/></linearGradient><path fill="url(#SVGID_00000171681572199981280390000003799280875442376863_)" d="m213.41 41.18-.49.3-.23.92 2.02-1.18-1.02-2.75-.54 2.13.26-.16c.15-.09.28 0 .28.2v.01c0 .19-.12.43-.28.53z"/><path d="m259.82 27.52-1.35-.76 7.84-4.62 1.35.76zM139.38 24.63l-2.18-1.23 12.67-7.48 2.18 1.23z" class="st5"/><path id="矩形_00000023265548685974492650000012939252271848885664_" d="M172.16 217.11c.62 0 1.15.76 1.15 1.64v1.52c0 .88-.53 1.64-1.15 1.64-.62 0-1.15-.76-1.15-1.64v-1.52c.01-.95.54-1.64 1.15-1.64z" class="st74"/><radialGradient id="SVGID_00000030445562342330432910000016929769282798746280_" cx="140.621" cy="251.236" r="29.158" gradientTransform="matrix(1 0 0 .5898 0 103.058)" gradientUnits="userSpaceOnUse"><stop offset="0"/><stop offset="1" stop-color="#0d101d" stop-opacity="0"/></radialGradient><path fill="url(#SVGID_00000030445562342330432910000016929769282798746280_)" d="M165.62 237.16c-13.68-7.9-35.96-8-49.77-.23s-13.91 20.48-.23 28.37 35.96 8 49.77.23c13.8-7.77 13.91-20.47.23-28.37z" opacity=".67"/><path fill="#3fa9bd" d="M179.12 201.13v-49.28c0-.23.02-.45.02-.68 0-22.91-18.57-41.48-41.48-41.48-22.91 0-41.48 18.57-41.48 41.48 0 .36.02.72.03 1.07v44.66h-.03v22.67a5.15 5.15 0 1 0 10.3 0v-.83c.56.36 1.13.72 1.74 1.07 1.83 1.06 3.79 1.99 5.85 2.81v8.2a5.15 5.15 0 1 0 10.3 0v-5.23c2.95.57 5.99.96 9.06 1.14v12.59c0 2.84 2.3 5.15 5.15 5.15s5.15-2.31 5.15-5.15v-12.7c3.39-.28 6.73-.8 9.93-1.55v6.36c0 2.84 2.3 5.15 5.15 5.15s5.15-2.31 5.15-5.15v-9.87c1-.47 1.97-.96 2.91-1.49.7-.39 1.35-.8 1.99-1.21v.71a5.15 5.15 0 1 0 10.3 0v-18.45h-.04z"/><radialGradient id="SVGID_00000116207306824655232690000002293231393575767699_" cx="162.344" cy="127.115" r="106.685" gradientUnits="userSpaceOnUse"><stop offset=".012" stop-color="#dd78ce"/><stop offset=".494" stop-color="#a7589a"/><stop offset=".583" stop-color="#a0619e"/><stop offset=".727" stop-color="#8e79a8"/><stop offset=".908" stop-color="#709fb9"/><stop offset="1" stop-color="#5eb6c3"/></radialGradient><path fill="url(#SVGID_00000116207306824655232690000002293231393575767699_)" d="M179.12 201.13v-49.28c0-.23.02-.45.02-.68 0-22.91-18.57-41.48-41.48-41.48-22.91 0-41.48 18.57-41.48 41.48 0 .36.02.72.03 1.07v44.66h-.03v22.67a5.15 5.15 0 1 0 10.3 0v-.83c.56.36 1.13.72 1.74 1.07 1.83 1.06 3.79 1.99 5.85 2.81v8.2a5.15 5.15 0 1 0 10.3 0v-5.23c2.95.57 5.99.96 9.06 1.14v12.59c0 2.84 2.3 5.15 5.15 5.15s5.15-2.31 5.15-5.15v-12.7c3.39-.28 6.73-.8 9.93-1.55v6.36c0 2.84 2.3 5.15 5.15 5.15s5.15-2.31 5.15-5.15v-9.87c1-.47 1.97-.96 2.91-1.49.7-.39 1.35-.8 1.99-1.21v.71a5.15 5.15 0 1 0 10.3 0v-18.45h-.04z"/><path id="矩形_00000157274327544546760850000005986341179244808861_" d="M100.07 187.29c1.12 0 2.09 1.38 2.09 2.99v14.25c0 1.61-.96 2.99-2.09 2.99-1.12 0-2.09-1.38-2.09-2.99v-14.25c.01-1.61.97-2.99 2.09-2.99z" class="st74"/><path id="矩形_00000023269522807934098110000015755908045546535095_" d="M161.37 124.2c1.37-1.02 3.68-.37 5.02 1.41l2.29 3.06c1.34 1.78 1.31 4.19-.06 5.22-1.37 1.02-3.68.37-5.02-1.41l-2.29-3.06c-1.43-1.92-1.3-4.19.06-5.22z" class="st74"/><path id="矩形_00000121994917870820220140000009013383381852214175_" d="M117.47 223.88c1.12 0 2.09 1.38 2.09 2.99v2.76c0 1.61-.96 2.99-2.09 2.99-1.12 0-2.09-1.38-2.09-2.99v-2.76c0-1.73.97-2.99 2.09-2.99z" class="st74"/><path id="矩形_00000142874391440305036330000006669835717772360067_" d="M99.82 213.08c1.12 0 2.09 1.38 2.09 2.99v2.76c0 1.61-.96 2.99-2.09 2.99-1.12 0-2.09-1.38-2.09-2.99v-2.76c.01-1.73.97-2.99 2.09-2.99z" class="st74"/><path id="矩形_00000034803884158828925040000006312913904657730977_" d="M137.66 232.62c1.12 0 2.09 1.38 2.09 2.99v2.76c0 1.61-.96 2.99-2.09 2.99-1.12 0-2.09-1.38-2.09-2.99v-2.76c0-1.73.97-2.99 2.09-2.99z" class="st74"/><path id="矩形_00000183962904679116055400000014016392506755116982_" d="M157.36 227.27c.89 0 1.66 1.1 1.66 2.37v2.19c0 1.28-.76 2.37-1.66 2.37-.89 0-1.66-1.1-1.66-2.37v-2.19c0-1.36.77-2.37 1.66-2.37z" class="st74"/><path id="椭圆形_00000137837967559389343030000015358377626584497803_" d="M147.67 182.16c4.06-.17 7.1-3.66 7.09-6 0-.94-.55-1.75-1.38-1.81-1.29-.13-3.23.7-5.72.8-2.31.1-3.78-.5-5.53-.42-1.84.08-1.75 2.22-1.47 3.06.64 2.3 2.86 4.54 7.01 4.37z" class="st78"/><path id="椭圆形_00000095337929613898024040000008905464957124237232_" d="M147.76 180.19c4.15-.17 7.19-3.38 7.19-5.63 0-.84-.55-1.57-1.38-1.63-1.29-.13-3.32.7-5.81.8-2.4.1-3.78-.5-5.62-.43s-1.75 2.13-1.48 2.87c.64 2.13 2.95 4.19 7.1 4.02z" class="st79"/><ellipse cx="130.72" cy="158.69" class="st79" rx="9.5" ry="9.1" transform="rotate(-55.453 130.723 158.688)"/><path id="形状结合_00000153672998867488876740000017650498821324272023_" d="M131.92 148.73c4.24-.18 7.66 3.98 7.66 9.22v1.12c0-5.33-3.33-9.59-7.48-9.42-4.15.17-7.46 4.61-7.46 10.04 0 1.03.09 2.05.37 2.98-.46-1.2-.74-2.59-.74-3.99 0-5.33 3.41-9.78 7.65-9.95z" class="st80"/><path id="形状结合_00000085955223974186114990000002304969850617821353_" d="M131.92 147.6c4.7-.2 8.58 4.41 8.58 10.31.01 5.89-3.86 10.83-8.57 11.02-4.7.2-8.58-4.41-8.58-10.31 0-5.89 3.77-10.82 8.57-11.02zm0 1.13c-4.24.18-7.65 4.62-7.64 9.86 0 5.24 3.42 9.4 7.66 9.22 4.24-.18 7.65-4.62 7.64-9.86 0-5.24-3.51-9.4-7.66-9.22z" class="st81"/><ellipse cx="161.44" cy="157.31" class="st79" rx="9.5" ry="9.1" transform="rotate(-55.453 161.44 157.308)"/><path id="形状结合_00000150817725586915542540000007765414565157247658_" d="M162.43 147.35c4.24-.18 7.66 3.98 7.66 9.22v1.12c0-5.33-3.33-9.59-7.48-9.42-4.15.17-7.46 4.61-7.46 10.04 0 1.03.09 2.05.37 2.98-.46-1.2-.74-2.59-.74-3.99 0-5.32 3.41-9.77 7.65-9.95z" class="st80"/><path id="形状结合_00000126317089401196512530000008566344633865675666_" d="M162.43 146.23c4.7-.2 8.58 4.41 8.58 10.31s-3.86 10.83-8.57 11.02-8.58-4.41-8.58-10.31c0-5.89 3.78-10.82 8.57-11.02zm0 1.12c-4.24.18-7.65 4.62-7.64 9.86s3.42 9.4 7.66 9.22c4.24-.18 7.65-4.62 7.64-9.86 0-5.23-3.51-9.39-7.66-9.22z" class="st81"/><circle cx="134.31" cy="153.78" r="3.77" class="st78"/><circle cx="164.85" cy="152.66" r="3.77" class="st78"/></svg>