<svg xmlns="http://www.w3.org/2000/svg" xml:space="preserve" id="Слой_1" x="0" y="0" version="1.1" viewBox="0 0 290 269.62"><style>.st3,.st4,.st5{stroke-linecap:round;stroke-linejoin:round;stroke-miterlimit:10}.st3{fill-rule:evenodd;clip-rule:evenodd;fill:#c6c3d1;stroke:#101320}.st4,.st5{stroke:#111422}.st4{fill-rule:evenodd;clip-rule:evenodd;fill:#fff}.st5{fill:#ecf0fc}.st5,.st6,.st7{fill-rule:evenodd;clip-rule:evenodd}.st6{opacity:.2563;fill:#fff;enable-background:new}.st7{fill:#111422}.st9{fill:#fff;stroke:#1d1d1b;stroke-linecap:round;stroke-linejoin:round;stroke-miterlimit:10}.st10{fill:#1d1d1b}.st45,.st486,.st79,.st80{fill-rule:evenodd;clip-rule:evenodd;fill:#fff}.st486,.st79,.st80{fill:#afafb1}.st486,.st80{fill:#d3d3d3}.st486{fill:#555069}</style><linearGradient id="SVGID_1_" x1="853.028" x2="888.21" y1="-1199.605" y2="-1199.605" gradientTransform="matrix(.763 .4367 0 1 -469.683 865.493)" gradientUnits="userSpaceOnUse"><stop offset="0" stop-color="#b4509c"/><stop offset="1" stop-color="#54b8c5"/></linearGradient><path fill="none" stroke="url(#SVGID_1_)" stroke-miterlimit="10" stroke-width="5" d="m206.15 74.57-23.03-13.18V17.52l23.03 13.18z"/><path d="m206.15 74.32-23.03-13.18V17.27l23.03 13.18z" class="st9"/><path d="m188.62 30.07-1.1-.63-1.06-4.39.99.57.62 2.9.62-2.19.99.57-1.06 3.17zM192.39 31.75c-.3.19-.68.16-1.13-.1-.45-.26-.83-.66-1.13-1.19-.3-.54-.45-1.09-.45-1.67 0-.57.15-.96.45-1.15.3-.19.68-.16 1.13.1.45.26.83.66 1.13 1.19.3.54.45 1.09.45 1.67.01.57-.14.96-.45 1.15zm-1.62-1.67c.13.25.3.44.5.56.2.12.37.12.5.01s.19-.3.19-.56c0-.27-.06-.53-.19-.79-.13-.25-.3-.44-.5-.56-.2-.12-.37-.12-.5-.01s-.19.3-.19.56c-.01.28.06.54.19.79zM194.65 33.52l-.87-.5v-2.79l-.78-.44v-1l2.42 1.38v1l-.77-.44v2.79zM196.61 34.64l-.87-.5v-3.78l.87.5v3.78zM199.85 36.5l-.84-.48-1.06-2.53v1.92l-.87-.5v-3.78l.9.52 1 2.37v-1.79l.87.5v3.77zM201.75 37.65c-.45-.26-.83-.65-1.13-1.18-.3-.53-.46-1.09-.46-1.68s.15-.98.46-1.16c.3-.18.68-.15 1.13.11.32.18.58.43.79.74.21.31.37.64.47.97l-.74.07c-.05-.15-.12-.31-.21-.45a.89.89 0 0 0-.32-.32c-.21-.12-.38-.12-.51-.02-.13.11-.19.3-.19.56 0 .27.06.53.19.79s.3.44.51.56c.08.05.16.08.25.09.09.02.15.01.2-.01v-.14l-.54-.31v-1l1.41.8v1.55c-.34.33-.78.33-1.31.03zM187.73 34.96l-.92-.53v-3.98l1.62.93c.34.2.61.48.8.85.19.37.29.75.29 1.14 0 .39-.1.65-.29.8-.19.15-.46.13-.8-.07l-.7-.4v1.26zm.58-1.96c.08.05.15.06.2.03.05-.02.08-.09.08-.19s-.03-.2-.08-.28a.636.636 0 0 0-.2-.2l-.58-.33v.63l.58.34zM192.5 37.19c-.32.2-.71.17-1.19-.1-.47-.27-.87-.69-1.19-1.25-.32-.56-.48-1.15-.48-1.75 0-.6.16-1.01.48-1.21.32-.2.71-.17 1.19.1.47.27.87.69 1.19 1.25.32.56.48 1.15.48 1.75 0 .61-.16 1.01-.48 1.21zm-1.71-1.75c.13.27.31.46.53.59.22.12.39.13.53.01.13-.11.2-.31.2-.59 0-.28-.07-.56-.2-.83-.14-.27-.31-.46-.53-.59-.22-.12-.39-.13-.53-.01-.13.11-.2.31-.2.59 0 .29.07.56.2.83zM196.59 40.03l-.96-.55-.4-2.48-.39 2.03-.96-.55-.87-4.47 1.03.59.39 2.66.46-2.17.69.4.46 2.7.39-2.21 1.03.59-.87 3.46zM199.95 41.96l-2.3-1.32v-3.98l2.3 1.32v1.05l-1.38-.79v.39l1.35.77v1.05l-1.35-.77v.44l1.38.79v1.05zM203.07 43.75l-1.05-.6-.42-1.49-.33-.19v1.25l-.92-.53v-3.98l1.62.93c.34.2.61.48.8.85.19.37.29.75.29 1.14 0 .31-.05.53-.16.67s-.24.21-.38.22l.55 1.73zm-1.23-3.01c.08.05.16.06.21.04.06-.02.09-.08.09-.19 0-.1-.03-.19-.09-.28a.663.663 0 0 0-.21-.2l-.56-.32v.63l.56.32z" class="st10"/><linearGradient id="SVGID_00000165222864516332194230000008906305697587098799_" x1="877.447" x2="863.82" y1="-1186.865" y2="-1198.331" gradientTransform="matrix(.763 .4367 0 1 -469.683 865.493)" gradientUnits="userSpaceOnUse"><stop offset="0" stop-color="#c1489f"/><stop offset="1" stop-color="#55bac7"/></linearGradient><path fill="url(#SVGID_00000165222864516332194230000008906305697587098799_)" d="M194.63 43.88c-3.86-2.21-6.99.1-6.99 5.16s3.13 10.95 6.99 13.16 6.99-.1 6.99-5.16-3.13-10.95-6.99-13.16zm2.97 15.14c-.08.06-.18.05-.31-.02a.723.723 0 0 1-.24-.25c-.08-.11-.13-.24-.17-.38l-2.25-8.61-.82 2.22.4.23c.23.13.42.49.42.8v.02c0 .3-.19.45-.42.31l-.75-.43-1.08 2.9c-.04.09-.09.16-.17.18-.07.03-.16.01-.24-.03a.788.788 0 0 1-.31-.34.996.996 0 0 1-.11-.48c0-.07.01-.14.03-.2l.98-2.55-.42-.24c-.23-.13-.42-.49-.42-.8v-.01c0-.3.19-.45.42-.31l.78.45 1.03-2.67c.13-.31.33-.39.59-.24l.21.12c.26.15.46.45.59.92l2.36 8.84c.02.08.03.16.03.23-.01.16-.05.28-.13.34z"/><path d="m273.54 172.33-53.78 30.72.12 21 53.79-30.72z" class="st4"/><path d="m179.04 180.37 40.72 22.62.25 20.87-40.71-22.62z" class="st3"/><path d="m273.6 172.38-41.24-23.01-53.32 31 40.72 22.83z" class="st5"/><circle cx="223.64" cy="149.21" r="41.04"/><path d="m213.46 106.93-.01 17.04c-.52 2.18.44 4.49 2.87 6.17 4.01 2.77 10.5 2.77 14.51 0 1.7-1.18 2.68-2.67 2.94-4.21h.07V125.01l.01-17.63-20.39-.45z" class="st9"/><path d="M213.54 119.13c0 3.86 4.52 6.99 10.11 6.99 5.58 0 10.11-3.13 10.11-6.99" class="st9"/><path d="M213.54 113.78c0 3.86 4.52 6.99 10.11 6.99 5.58 0 10.11-3.13 10.11-6.99" class="st9"/><path d="M213.54 108.17c0 3.86 4.52 6.99 10.11 6.99 5.58 0 10.11-3.13 10.11-6.99" class="st9"/><path d="m213.46 90.1-.01 17.04c-.52 2.18.44 4.49 2.87 6.17 4.01 2.77 10.5 2.77 14.51 0 1.7-1.18 2.68-2.67 2.94-4.21h.07V108.18l.01-17.63-20.39-.45z" class="st9"/><path d="M213.54 102.3c0 3.86 4.52 6.99 10.11 6.99 5.58 0 10.11-3.13 10.11-6.99" class="st9"/><path d="M213.54 96.95c0 3.86 4.52 6.99 10.11 6.99 5.58 0 10.11-3.13 10.11-6.99" class="st9"/><path d="M213.54 91.34c0 3.86 4.52 6.99 10.11 6.99 5.58 0 10.11-3.13 10.11-6.99" class="st9"/><path d="M223.02 115.02 194.93 98.8V70.71l28.09 16.22z" class="st3"/><path d="m223.02 115.02 28.1-16.22V70.71l-28.1 16.22z" class="st4"/><path d="m223.13 87.01-28.2-16.27 28-16.31 28.19 16.27z" class="st5"/><path id="矩形_00000178186072847615939980000011149566003582114227_" d="M213.71 63.46c.55.31.46.92-.2 1.31l-5.83 3.45c-.66.39-1.7.45-2.25.14s-.46-.92.2-1.31l5.83-3.45c.66-.39 1.7-.45 2.25-.14z" class="st6"/><path id="矩形_00000088853396447638292960000003891092818737782933_" d="M203.16 69.71c.55.31.46.92-.2 1.31l-1.13.67c-.66.39-1.7.45-2.25.14s-.46-.92.2-1.31l1.13-.67c.71-.42 1.7-.46 2.25-.14z" class="st6"/><path d="M227.8 213.31v-8.95l2.53-1.5c.49-.29.9-.41 1.24-.35.34.05.6.26.79.61.18.35.27.82.27 1.41s-.09 1.17-.28 1.74c-.18.56-.45 1.07-.8 1.53-.35.46-.77.84-1.26 1.13l-1.61.96v-1.52l1.39-.83c.26-.15.48-.35.65-.57.17-.23.3-.48.38-.76.08-.28.13-.56.13-.85 0-.3-.04-.53-.13-.71a.47.47 0 0 0-.38-.29c-.17-.02-.39.04-.65.2l-.91.54v7.4l-1.36.81zM233.49 209.94v-6.71l1.29-.77v1.17l.05-.03c.09-.47.23-.87.44-1.21.21-.34.44-.58.71-.74.07-.04.14-.08.22-.11.08-.03.15-.06.2-.07v1.65c-.06.01-.15.04-.26.08-.11.04-.21.09-.3.15-.2.12-.37.28-.53.49a2.633 2.633 0 0 0-.49 1.51v3.8l-1.33.79zM239.04 206.78c-.49.29-.91.39-1.26.31-.35-.08-.63-.32-.82-.73-.19-.41-.29-.95-.29-1.64s.1-1.36.29-1.99c.19-.63.47-1.2.82-1.7s.77-.89 1.26-1.18c.49-.29.91-.39 1.26-.31.35.08.63.32.82.73.19.41.29.96.29 1.65s-.1 1.35-.29 1.98c-.19.63-.47 1.2-.82 1.7s-.77.89-1.26 1.18zm.01-1.44c.22-.13.41-.33.55-.59.15-.26.26-.57.34-.92.08-.35.11-.72.11-1.11s-.04-.72-.11-.98-.19-.44-.34-.53c-.15-.09-.33-.07-.55.06-.22.13-.41.33-.56.6-.15.27-.27.58-.34.93s-.11.72-.11 1.11.04.72.11.98c.08.26.19.43.34.52.15.08.34.06.56-.07zM242.28 207.25v-9.23l1.32-.78v1.13l.06-.04c.06-.22.14-.45.26-.7.11-.25.26-.5.44-.73.18-.23.41-.43.68-.59.35-.21.67-.27.97-.19.3.08.53.32.71.73.18.41.27.99.27 1.76 0 .75-.09 1.43-.26 2.05-.17.62-.41 1.14-.7 1.58-.3.44-.63.77-.99.98-.26.15-.48.22-.66.21a.618.618 0 0 1-.44-.19c-.11-.11-.2-.25-.26-.4l-.04.02v3.59l-1.36.8zm1.31-6.65c0 .4.04.72.12.97.08.25.19.41.34.49.15.07.33.05.55-.08.22-.13.4-.32.55-.58.15-.26.26-.56.34-.9.08-.35.12-.71.12-1.1 0-.39-.04-.71-.12-.95-.08-.25-.19-.41-.34-.49-.15-.08-.33-.05-.55.08-.22.13-.4.32-.55.57-.15.25-.26.54-.34.89-.08.33-.12.7-.12 1.1zM250.04 200.27c-.49.29-.91.39-1.26.31-.35-.08-.63-.32-.82-.73-.19-.41-.29-.95-.29-1.64s.1-1.36.29-1.99c.19-.63.47-1.2.82-1.7s.77-.89 1.26-1.18c.49-.29.91-.39 1.26-.31.35.08.63.32.82.73.19.41.29.96.29 1.65s-.1 1.35-.29 1.98c-.19.63-.47 1.2-.82 1.7-.36.5-.78.89-1.26 1.18zm0-1.45c.22-.13.41-.33.55-.59.15-.26.26-.57.34-.92s.11-.72.11-1.11c0-.39-.04-.72-.11-.98-.08-.26-.19-.44-.34-.53-.15-.09-.33-.07-.55.06-.22.13-.41.33-.56.6a3.2 3.2 0 0 0-.34.93c-.08.35-.11.72-.11 1.11 0 .39.04.72.11.98.08.26.19.43.34.52.15.09.34.06.56-.07zM257.28 191.05l-1.22.83a.719.719 0 0 0-.13-.32.342.342 0 0 0-.27-.12c-.11-.01-.24.04-.4.13-.21.12-.38.29-.52.49-.14.21-.21.41-.21.61 0 .16.05.27.14.32.09.06.25.05.47-.01l.87-.27c.47-.14.82-.13 1.05.03.23.16.34.48.34.97 0 .44-.09.88-.28 1.32-.18.44-.44.85-.76 1.22-.32.38-.69.69-1.11.93-.64.38-1.14.49-1.52.34-.38-.15-.6-.52-.66-1.13l1.31-.87c.04.25.14.4.29.45.15.05.35.01.59-.14.23-.14.42-.31.57-.53.14-.21.22-.42.22-.62 0-.17-.05-.28-.15-.33-.1-.05-.25-.04-.46.02l-.83.26c-.47.15-.82.13-1.05-.06-.23-.19-.34-.53-.34-1.03 0-.43.08-.85.25-1.26.17-.41.4-.79.71-1.14.31-.35.66-.65 1.08-.89.61-.36 1.09-.46 1.44-.31.32.16.52.52.58 1.11zM259.6 194.59c-.31.18-.58.27-.82.26a.69.69 0 0 1-.57-.33c-.14-.21-.21-.54-.21-.98a3.373 3.373 0 0 1 .55-1.88c.17-.25.36-.49.58-.69.22-.21.44-.4.68-.57.28-.21.51-.38.68-.52.17-.14.3-.27.37-.38a.69.69 0 0 0 .12-.39v-.03c0-.28-.06-.45-.19-.53-.12-.08-.3-.05-.53.09-.24.14-.43.33-.57.56-.14.23-.24.47-.28.72l-1.23.59c.06-.44.19-.87.37-1.28.18-.41.42-.78.71-1.11.29-.33.63-.62 1.01-.84.27-.16.52-.27.77-.32.25-.06.46-.05.65.02s.34.22.45.44c.11.22.17.53.17.93v4.53l-1.27.75v-.93l-.04.02c-.08.26-.18.5-.31.74s-.29.45-.47.65c-.17.17-.38.34-.62.48zm.39-1.51c.2-.12.37-.27.52-.47.15-.2.27-.42.35-.65.09-.24.13-.47.13-.71v-.71c-.04.06-.1.13-.17.2s-.15.15-.24.23c-.09.08-.18.15-.27.23-.09.07-.17.14-.24.2-.16.12-.29.26-.41.4s-.21.29-.27.44c-.06.16-.1.32-.1.5 0 .25.07.41.2.46.12.04.29 0 .5-.12zM264.69 182.51v8.95l-1.33.79v-8.95l1.33-.79z"/><path d="m214.99 77.79-3.58-2.01 20.76-12.26 3.58 2.02z" class="st7"/><circle cx="145" cy="74.42" r="24.14"/><path d="M139.01 49.55 139 59.57c-.3 1.28.26 2.64 1.69 3.63 2.36 1.63 6.18 1.63 8.54 0 1-.69 1.58-1.57 1.73-2.47h.04V49.82l-11.99-.27z" class="st9"/><path d="M139.06 56.72c0 2.27 2.66 4.11 5.94 4.11s5.94-1.84 5.94-4.11" class="st9"/><path d="M139.06 53.58c0 2.27 2.66 4.11 5.94 4.11s5.94-1.84 5.94-4.11" class="st9"/><path d="M139.06 50.28c0 2.27 2.66 4.11 5.94 4.11s5.94-1.84 5.94-4.11" class="st9"/><path d="M139.01 39.65 139 49.67c-.3 1.28.26 2.64 1.69 3.63 2.36 1.63 6.18 1.63 8.54 0 1-.69 1.58-1.57 1.73-2.47h.04V39.91l-11.99-.26z" class="st9"/><path d="M139.06 46.82c0 2.27 2.66 4.11 5.94 4.11s5.94-1.84 5.94-4.11" class="st9"/><path d="M139.06 43.68c0 2.27 2.66 4.11 5.94 4.11s5.94-1.84 5.94-4.11" class="st9"/><path d="M139.06 40.37c0 2.27 2.66 4.11 5.94 4.11s5.94-1.84 5.94-4.11" class="st9"/><path d="m144.64 54.3-16.53-9.54V28.24l16.53 9.54z" class="st3"/><path d="m144.64 54.3 16.52-9.54V28.24l-16.52 9.54z" class="st4"/><path d="m144.7 37.83-16.59-9.58 16.47-9.59 16.58 9.58z" class="st5"/><path id="矩形_00000166660472728042455160000006390938585935435430_" d="M139.16 23.98c.32.18.27.54-.12.77l-3.43 2.03c-.39.23-1 .27-1.32.08-.32-.18-.27-.54.12-.77l3.43-2.03c.38-.23.99-.27 1.32-.08z" class="st6"/><path id="矩形_00000049219093032399326050000013220863242366967943_" d="M132.95 27.65c.32.18.27.54-.12.77l-.66.39c-.39.23-1 .27-1.32.08-.32-.18-.27-.54.12-.77l.66-.39c.41-.24 1-.26 1.32-.08z" class="st6"/><path d="m140.14 31.67-1.87-1.05 10.86-6.41 1.87 1.05z" class="st7"/><circle cx="64.28" cy="111.65" r="35.7"/><path d="m55.42 74.88-.01 14.82c-.45 1.89.38 3.91 2.49 5.37 3.49 2.41 9.14 2.41 12.62 0 1.48-1.03 2.33-2.32 2.55-3.66h.06v-.79l.01-15.34-17.72-.4z" class="st9"/><path d="M55.49 85.49c0 3.36 3.94 6.08 8.79 6.08s8.79-2.72 8.79-6.08" class="st9"/><path d="M55.49 80.84c0 3.36 3.94 6.08 8.79 6.08s8.79-2.72 8.79-6.08" class="st9"/><path d="M55.49 75.95c0 3.36 3.94 6.08 8.79 6.08s8.79-2.72 8.79-6.08" class="st9"/><path d="m55.42 60.24-.01 14.82c-.45 1.89.38 3.91 2.49 5.37 3.49 2.41 9.14 2.41 12.62 0 1.48-1.03 2.33-2.32 2.55-3.66h.06v-.79l.01-15.34-17.72-.4z" class="st9"/><path d="M55.49 70.84c0 3.36 3.94 6.08 8.79 6.08s8.79-2.72 8.79-6.08" class="st9"/><path d="M55.49 66.19c0 3.36 3.94 6.08 8.79 6.08s8.79-2.72 8.79-6.08" class="st9"/><path d="M55.49 61.31c0 3.36 3.94 6.08 8.79 6.08s8.79-2.72 8.79-6.08" class="st9"/><path d="M63.74 81.91 39.3 67.8V43.37l24.44 14.1z" class="st3"/><path d="M63.74 81.91 88.17 67.8V43.37l-24.43 14.1z" class="st4"/><path d="M63.83 57.55 39.3 43.39 63.65 29.2l24.53 14.16z" class="st5"/><path id="矩形_00000152965764248126467160000011031630007989843329_" d="M55.64 37.06c.48.27.4.8-.17 1.14l-5.07 3c-.57.34-1.48.4-1.96.12-.48-.27-.4-.8.17-1.14l5.07-3c.57-.34 1.48-.39 1.96-.12z" class="st6"/><path id="矩形_00000002355749646748791350000001255618378847473029_" d="M46.46 42.5c.48.27.4.8-.17 1.14l-.98.58c-.57.34-1.48.4-1.96.12-.48-.27-.4-.8.17-1.14l.98-.58c.62-.37 1.48-.4 1.96-.12z" class="st6"/><path d="m57.02 49.1-2.99-1.69 17.38-10.26 3 1.69z" class="st7"/><path id="矩形_00000084504702997513236480000004359625126704803472_" d="M167.14 219.27c.62 0 1.15.76 1.15 1.64v1.52c0 .88-.53 1.64-1.15 1.64-.62 0-1.15-.76-1.15-1.64v-1.52c0-.95.53-1.64 1.15-1.64z" class="st6"/><radialGradient id="SVGID_00000056407709923327550770000015597362116576454825_" cx="135.596" cy="253.392" r="29.158" gradientTransform="matrix(1 0 0 .5898 0 103.943)" gradientUnits="userSpaceOnUse"><stop offset="0" stop-color="#b8b3d4"/><stop offset=".346" stop-color="#bab6d6" stop-opacity=".654"/><stop offset=".606" stop-color="#c2c0da" stop-opacity=".394"/><stop offset=".838" stop-color="#d0d0e3" stop-opacity=".162"/><stop offset="1" stop-color="#dde0eb" stop-opacity="0"/></radialGradient><path fill="url(#SVGID_00000056407709923327550770000015597362116576454825_)" d="M160.59 239.32c-13.68-7.9-35.96-8-49.77-.23s-13.91 20.48-.23 28.37 35.96 8 49.77.23 13.91-20.47.23-28.37z" opacity=".67"/><path fill="#3fa9bd" d="M174.1 203.29v-49.28c0-.23.02-.45.02-.68 0-22.91-18.57-41.48-41.48-41.48-22.91 0-41.48 18.57-41.48 41.48 0 .36.02.72.03 1.07v44.66h-.03v22.67a5.15 5.15 0 1 0 10.3 0v-.83c.56.36 1.13.72 1.74 1.07 1.83 1.06 3.79 1.99 5.85 2.81v8.2a5.15 5.15 0 1 0 10.3 0v-5.23c2.95.57 5.99.96 9.06 1.14v12.59a5.15 5.15 0 1 0 10.3 0v-12.7c3.39-.28 6.73-.8 9.93-1.55v6.36a5.15 5.15 0 1 0 10.3 0v-9.87c1-.47 1.97-.96 2.91-1.49.7-.39 1.35-.8 1.99-1.21v.71c0 2.84 2.3 5.15 5.15 5.15s5.15-2.31 5.15-5.15v-18.45h-.04z"/><radialGradient id="SVGID_00000020374217677700065480000014289097820348153007_" cx="157.319" cy="129.271" r="106.685" gradientUnits="userSpaceOnUse"><stop offset=".012" stop-color="#dd78ce"/><stop offset=".494" stop-color="#a7589a"/><stop offset=".583" stop-color="#a0619e"/><stop offset=".727" stop-color="#8e79a8"/><stop offset=".908" stop-color="#709fb9"/><stop offset="1" stop-color="#5eb6c3"/></radialGradient><path fill="url(#SVGID_00000020374217677700065480000014289097820348153007_)" d="M174.1 203.29v-49.28c0-.23.02-.45.02-.68 0-22.91-18.57-41.48-41.48-41.48-22.91 0-41.48 18.57-41.48 41.48 0 .36.02.72.03 1.07v44.66h-.03v22.67a5.15 5.15 0 1 0 10.3 0v-.83c.56.36 1.13.72 1.74 1.07 1.83 1.06 3.79 1.99 5.85 2.81v8.2a5.15 5.15 0 1 0 10.3 0v-5.23c2.95.57 5.99.96 9.06 1.14v12.59a5.15 5.15 0 1 0 10.3 0v-12.7c3.39-.28 6.73-.8 9.93-1.55v6.36a5.15 5.15 0 1 0 10.3 0v-9.87c1-.47 1.97-.96 2.91-1.49.7-.39 1.35-.8 1.99-1.21v.71c0 2.84 2.3 5.15 5.15 5.15s5.15-2.31 5.15-5.15v-18.45h-.04z"/><path id="矩形_00000016043104623333237190000010570770267099354502_" d="M95.05 189.45c1.12 0 2.09 1.38 2.09 2.99v14.25c0 1.61-.96 2.99-2.09 2.99-1.12 0-2.09-1.38-2.09-2.99v-14.25c0-1.61.96-2.99 2.09-2.99z" class="st6"/><path id="矩形_00000099658289803915729110000009044373341090548924_" d="M156.35 126.36c1.37-1.02 3.68-.37 5.02 1.41l2.29 3.06c1.34 1.78 1.31 4.19-.06 5.22-1.37 1.02-3.68.37-5.02-1.41l-2.29-3.06c-1.43-1.92-1.31-4.2.06-5.22z" class="st6"/><path id="矩形_00000116216256615982617900000001217316259095205814_" d="M112.44 226.03c1.12 0 2.09 1.38 2.09 2.99v2.76c0 1.61-.96 2.99-2.09 2.99-1.12 0-2.09-1.38-2.09-2.99v-2.76c.01-1.72.97-2.99 2.09-2.99z" class="st6"/><path id="矩形_00000013152885558241464630000017085390915233020578_" d="M94.8 215.23c1.12 0 2.09 1.38 2.09 2.99v2.76c0 1.61-.96 2.99-2.09 2.99-1.12 0-2.09-1.38-2.09-2.99v-2.76c0-1.72.96-2.99 2.09-2.99z" class="st6"/><path id="矩形_00000086653869636410071550000011787781494112990897_" d="M132.63 234.77c1.12 0 2.09 1.38 2.09 2.99v2.76c0 1.61-.96 2.99-2.09 2.99-1.12 0-2.09-1.38-2.09-2.99v-2.76c.01-1.72.97-2.99 2.09-2.99z" class="st6"/><path id="矩形_00000181050918601832270680000002282361696161209272_" d="M152.34 229.43c.89 0 1.66 1.1 1.66 2.37v2.2c0 1.28-.76 2.37-1.66 2.37-.89 0-1.66-1.1-1.66-2.37v-2.19c0-1.37.76-2.38 1.66-2.38z" class="st6"/><path id="椭圆形_00000033343500794054934110000001822094218464126642_" d="M142.64 184.32c4.06-.17 7.1-3.66 7.09-6 0-.94-.55-1.75-1.38-1.81-1.29-.13-3.23.7-5.72.8-2.31.1-3.78-.5-5.53-.42-1.84.08-1.75 2.22-1.47 3.06.65 2.29 2.87 4.54 7.01 4.37z" class="st486"/><path id="椭圆形_00000183939295864262813280000003955668878329510591_" d="M142.73 182.35c4.15-.17 7.19-3.38 7.19-5.63 0-.84-.55-1.57-1.38-1.63-1.29-.13-3.32.7-5.81.8-2.4.1-3.78-.5-5.62-.43-1.84.08-1.75 2.13-1.48 2.87.65 2.13 2.95 4.19 7.1 4.02z" class="st45"/><ellipse cx="125.7" cy="160.85" class="st45" rx="9.5" ry="9.1" transform="rotate(-55.453 125.698 160.844)"/><path id="形状结合_00000002344210047940911030000009532115132819020971_" d="M126.9 150.88c4.24-.18 7.66 3.98 7.66 9.22v1.12c0-5.33-3.33-9.59-7.48-9.42-4.15.17-7.46 4.61-7.46 10.04 0 1.03.09 2.05.37 2.98-.46-1.2-.74-2.59-.74-3.99 0-5.33 3.4-9.77 7.65-9.95z" class="st79"/><path id="形状结合_00000165223589190249591860000001051174602746959035_" d="M126.89 149.76c4.7-.2 8.58 4.41 8.58 10.31s-3.86 10.83-8.57 11.02-8.58-4.41-8.58-10.31c0-5.89 3.78-10.82 8.57-11.02zm.01 1.12c-4.24.18-7.65 4.62-7.64 9.86 0 5.24 3.42 9.4 7.66 9.22 4.24-.18 7.65-4.62 7.64-9.86-.01-5.23-3.52-9.39-7.66-9.22z" class="st80"/><ellipse cx="156.41" cy="159.47" class="st45" rx="9.5" ry="9.1" transform="rotate(-55.453 156.414 159.464)"/><path id="形状结合_00000027564243935782100600000006492101382301278908_" d="M157.41 149.51c4.24-.18 7.66 3.98 7.66 9.22v1.12c0-5.33-3.33-9.59-7.48-9.42-4.15.17-7.46 4.61-7.46 10.04 0 1.03.09 2.05.37 2.98-.46-1.2-.74-2.59-.74-3.99 0-5.33 3.41-9.77 7.65-9.95z" class="st79"/><path id="形状结合_00000111193413202286934280000013907302264942872220_" d="M157.41 148.39c4.7-.2 8.58 4.41 8.58 10.31.01 5.89-3.86 10.83-8.57 11.02-4.7.2-8.58-4.41-8.58-10.31s3.77-10.82 8.57-11.02zm0 1.12c-4.24.18-7.65 4.62-7.64 9.86 0 5.24 3.42 9.4 7.66 9.22 4.24-.18 7.65-4.62 7.64-9.86 0-5.23-3.51-9.39-7.66-9.22z" class="st80"/><circle cx="130.67" cy="158.42" r="3.77" class="st486"/><circle cx="161.21" cy="157.29" r="3.77" class="st486"/><linearGradient id="SVGID_00000127016363903572520770000017383434002256709521_" x1="709.627" x2="759.602" y1="1429.374" y2="1429.374" gradientTransform="matrix(.7491 -.4602 0 1 -502.08 -920.916)" gradientUnits="userSpaceOnUse"><stop offset="0" stop-color="#b4509c"/><stop offset="1" stop-color="#54b8c5"/></linearGradient><path fill="none" stroke="url(#SVGID_00000127016363903572520770000017383434002256709521_)" stroke-miterlimit="10" stroke-width="5" d="m65.06 192.71-33.69 20.7v-65.37l33.69-20.7z"/><path d="m65.06 192.34-33.69 20.7v-65.37l33.69-20.7z" class="st9"/><path d="m39.42 157.1-1.61.99-1.56-4.68 1.45-.89.91 3.23.91-4.36 1.45-.89-1.55 6.6zM44.94 152.99c-.44.81-.99 1.42-1.65 1.83-.66.4-1.21.47-1.65.2-.44-.27-.66-.84-.66-1.69 0-.86.22-1.69.66-2.51.44-.81.99-1.42 1.65-1.83.66-.4 1.21-.47 1.65-.2.44.27.66.84.66 1.69 0 .86-.22 1.7-.66 2.51zm-2.38.37c.19.16.43.14.73-.04.3-.18.54-.47.73-.85.19-.39.28-.78.28-1.18 0-.4-.09-.68-.28-.83-.19-.15-.43-.14-.73.04-.3.18-.54.47-.73.85-.19.39-.28.78-.28 1.18 0 .4.09.67.28.83zM48.24 151.68l-1.28.79v-4.15l-1.13.7v-1.49l3.54-2.17v1.49l-1.13.69v4.14zM51.1 149.92l-1.28.79v-5.64l1.28-.79v5.64zM55.85 147l-1.23.75-1.56-1.9v2.86l-1.28.79v-5.64l1.32-.81 1.47 1.77v-2.67l1.28-.79V147zM58.63 145.4c-.66.4-1.21.48-1.66.22-.45-.26-.67-.83-.67-1.71s.22-1.72.67-2.53c.45-.81 1-1.41 1.66-1.82.46-.29.85-.38 1.16-.29.31.09.54.3.69.62l-1.08 1.4a.587.587 0 0 0-.31-.31c-.14-.05-.29-.03-.47.08-.3.19-.55.47-.74.86-.19.39-.28.78-.28 1.18 0 .4.1.68.28.83.19.15.44.14.74-.05.12-.07.24-.17.37-.3.13-.13.22-.25.29-.36v-.2l-.79.48v-1.49l2.06-1.26v2.31c-.5 1.09-1.15 1.86-1.92 2.34zM38.11 165.96l-1.34.83v-5.93l2.37-1.46c.5-.31.89-.35 1.17-.14.28.21.42.61.42 1.19 0 .57-.14 1.14-.42 1.7-.28.56-.67 1-1.17 1.3l-1.02.63v1.88zm.85-3.96c.12-.07.22-.17.29-.3.08-.13.11-.26.11-.41 0-.15-.04-.25-.11-.28-.08-.03-.17-.01-.29.06l-.85.52v.93l.85-.52zM45.1 160.92c-.46.86-1.04 1.5-1.73 1.92-.69.43-1.27.49-1.73.21-.46-.29-.7-.88-.7-1.78s.23-1.78.7-2.64c.46-.86 1.04-1.5 1.73-1.92s1.27-.49 1.73-.21c.46.29.7.88.7 1.78-.01.9-.24 1.78-.7 2.64zm-2.51.38c.2.16.45.15.77-.05.31-.19.57-.49.77-.9.2-.41.3-.82.3-1.24 0-.42-.1-.71-.3-.88-.2-.16-.45-.15-.77.05-.32.19-.57.49-.77.9-.2.41-.3.82-.3 1.24.01.43.11.72.3.88zM51.07 158l-1.41.87-.57-3.01-.57 3.71-1.41.87-1.27-5.15 1.5-.92.57 3.27.67-4.04 1.01-.62.67 3.21.57-3.97 1.51-.93-1.27 6.71zM55.99 154.97l-3.37 2.07v-5.93l3.37-2.07v1.56l-2.02 1.24v.59l1.98-1.21v1.56L53.97 154v.65l2.02-1.24v1.56zM60.56 152.17l-1.53.94-.61-1.49-.49.3v1.87l-1.34.83v-5.93l2.37-1.46c.5-.31.89-.35 1.17-.14.28.21.42.61.42 1.19 0 .46-.08.89-.24 1.28-.16.39-.35.73-.56 1l.81 1.61zm-1.81-2.32c.12-.08.23-.18.31-.31.08-.13.13-.27.13-.43 0-.15-.04-.24-.13-.26-.08-.03-.19 0-.31.07l-.82.5v.93l.82-.5z" class="st10"/><linearGradient id="SVGID_00000039855400682907120590000002068580896088728762_" x1="744.789" x2="724.483" y1="1448.358" y2="1431.272" gradientTransform="matrix(.7491 -.4602 0 1 -502.08 -920.916)" gradientUnits="userSpaceOnUse"><stop offset="0" stop-color="#c1489f"/><stop offset="1" stop-color="#55bac7"/></linearGradient><path fill="url(#SVGID_00000039855400682907120590000002068580896088728762_)" d="M48.21 167.15c-5.64 3.47-10.22 12.39-10.22 19.93 0 7.53 4.58 10.83 10.22 7.37s10.22-12.39 10.22-19.93c.01-7.54-4.57-10.84-10.22-7.37zm4.35 17.35c-.11.23-.27.4-.46.52-.13.08-.25.1-.36.06-.11-.03-.19-.13-.25-.27l-3.29-8.9-1.2 4.76.59-.36c.34-.21.62-.01.62.45v.02c0 .46-.28 1-.62 1.21l-1.1.67-1.58 6.2c-.06.21-.14.4-.25.57-.1.16-.23.29-.36.38-.19.12-.35.14-.46.05-.11-.09-.17-.26-.17-.52 0-.11.01-.22.04-.35l1.44-5.51-.61.37c-.34.21-.62.01-.62-.45v-.01c0-.46.28-1 .62-1.21l1.14-.7 1.5-5.79c.19-.7.49-1.16.87-1.39l.3-.19c.38-.23.67-.13.87.33l3.46 9.03c.03.08.04.18.04.29.01.28-.05.52-.16.74z"/></svg>