<svg xmlns="http://www.w3.org/2000/svg" xml:space="preserve" id="Слой_1" x="0" y="0" version="1.1" viewBox="0 0 290 574.88"><style>.st3{fill:#30345e}.st5{fill:#0d101d}.st5,.st6,.st7{fill-rule:evenodd;clip-rule:evenodd;stroke:#000;stroke-linecap:round;stroke-linejoin:round;stroke-miterlimit:10}.st7{fill:#30345e}.st17{fill:#40407c}.st17,.st74,.st94{fill-rule:evenodd;clip-rule:evenodd}.st74{opacity:.2563;fill:#fff;enable-background:new}.st94{fill:none;stroke:#fff;stroke-width:.7384;stroke-linecap:round;stroke-linejoin:round;stroke-miterlimit:10}</style><path d="m211.62 351.97-30.5-17.61v-30.5l30.5 17.61z" class="st6"/><path d="m211.62 351.97 30.5-17.61v-30.5l-30.5 17.61z" class="st5"/><path d="m211.73 321.56-30.61-17.67 30.39-17.71 30.62 17.68z" class="st7"/><path id="矩形_00000097470792861218074540000014695661980223527827_" d="M201.51 296.79c.6.34.5 1-.21 1.42l-6.33 3.75c-.71.42-1.84.49-2.44.15-.6-.34-.5-1 .21-1.42l6.33-3.75c.72-.42 1.84-.49 2.44-.15z" class="st17"/><path id="矩形_00000170970761544490986820000012691897215981872783_" d="M190.97 302.91c.6.34.5 1-.21 1.42l-1.23.73c-.71.42-1.84.49-2.44.15-.6-.34-.5-1 .21-1.42l1.23-.73c.77-.45 1.84-.49 2.44-.15z" class="st17"/><linearGradient id="SVGID_1_" x1="168.283" x2="178.125" y1="222.291" y2="222.291" gradientUnits="userSpaceOnUse"><stop offset="0" stop-color="#a85699"/><stop offset="1" stop-color="#5db6c3"/></linearGradient><path fill="url(#SVGID_1_)" d="M168.28 228.57v-1.47l7.13-9.15v-.13h-6.9v-1.8h9.38v1.54l-6.93 9.09v.13h7.16v1.8h-9.84z"/><linearGradient id="SVGID_00000000937077194677005350000005128819499579857305_" x1="199.351" x2="215.859" y1="227.196" y2="227.196" gradientUnits="userSpaceOnUse"><stop offset="0" stop-color="#a85699"/><stop offset="1" stop-color="#5db6c3"/></linearGradient><path fill="url(#SVGID_00000000937077194677005350000005128819499579857305_)" d="M199.35 237.73v-2.47l11.96-15.36v-.22h-11.57v-3.02h15.74v2.58l-11.63 15.25v.22h12.01v3.02h-16.51z"/><linearGradient id="SVGID_00000130633131170738838540000010926060952915737021_" x1="211.185" x2="233.122" y1="186.905" y2="186.905" gradientUnits="userSpaceOnUse"><stop offset="0" stop-color="#a85699"/><stop offset="1" stop-color="#5db6c3"/></linearGradient><path fill="url(#SVGID_00000130633131170738838540000010926060952915737021_)" d="M211.19 200.9v-3.28l15.89-20.41v-.29H211.7v-4.01h20.92v3.43l-15.45 20.26v.29h15.96v4.01h-21.94z"/><radialGradient id="SVGID_00000016066033822324636890000008856811627405930649_" cx="154.907" cy="387.558" r="29.142" gradientTransform="matrix(1 0 0 .5898 0 158.979)" gradientUnits="userSpaceOnUse"><stop offset="0"/><stop offset="1" stop-color="#0d101d" stop-opacity="0"/></radialGradient><path fill="url(#SVGID_00000016066033822324636890000008856811627405930649_)" d="M179.89 373.49c-13.67-7.89-35.94-7.99-49.74-.23-13.8 7.77-13.9 20.46-.23 28.36s35.94 7.99 49.74.23c13.8-7.77 13.9-20.47.23-28.36z" opacity=".67"/><path fill="#3fa9bd" d="M190.86 337.78V288.5c0-.23.02-.45.02-.68 0-22.91-18.57-41.48-41.48-41.48-22.91 0-41.48 18.57-41.48 41.48 0 .36.02.72.03 1.07v44.66h-.03v22.67a5.15 5.15 0 1 0 10.3 0v-.83c.56.36 1.13.72 1.74 1.07 1.83 1.06 3.79 1.99 5.85 2.81v8.2a5.15 5.15 0 1 0 10.3 0v-5.23c2.95.57 5.99.96 9.06 1.14v12.59c0 2.84 2.3 5.15 5.15 5.15s5.15-2.31 5.15-5.15v-12.7c3.39-.28 6.73-.8 9.93-1.55v6.36c0 2.84 2.3 5.15 5.15 5.15s5.15-2.31 5.15-5.15v-9.87c1-.47 1.97-.96 2.91-1.49.7-.39 1.35-.8 1.99-1.21v.71a5.15 5.15 0 1 0 10.3 0v-18.45h-.04z"/><radialGradient id="SVGID_00000049204443346698185310000008557476943686144682_" cx="174.083" cy="263.764" r="106.685" gradientUnits="userSpaceOnUse"><stop offset=".012" stop-color="#dd78ce"/><stop offset=".494" stop-color="#a7589a"/><stop offset=".583" stop-color="#a0619e"/><stop offset=".727" stop-color="#8e79a8"/><stop offset=".908" stop-color="#709fb9"/><stop offset="1" stop-color="#5eb6c3"/></radialGradient><path fill="url(#SVGID_00000049204443346698185310000008557476943686144682_)" d="M190.86 337.78V288.5c0-.23.02-.45.02-.68 0-22.91-18.57-41.48-41.48-41.48-22.91 0-41.48 18.57-41.48 41.48 0 .36.02.72.03 1.07v44.66h-.03v22.67a5.15 5.15 0 1 0 10.3 0v-.83c.56.36 1.13.72 1.74 1.07 1.83 1.06 3.79 1.99 5.85 2.81v8.2a5.15 5.15 0 1 0 10.3 0v-5.23c2.95.57 5.99.96 9.06 1.14v12.59c0 2.84 2.3 5.15 5.15 5.15s5.15-2.31 5.15-5.15v-12.7c3.39-.28 6.73-.8 9.93-1.55v6.36c0 2.84 2.3 5.15 5.15 5.15s5.15-2.31 5.15-5.15v-9.87c1-.47 1.97-.96 2.91-1.49.7-.39 1.35-.8 1.99-1.21v.71a5.15 5.15 0 1 0 10.3 0v-18.45h-.04z"/><path id="矩形_00000175296417502330949940000010648230615984238256_" d="M111.83 323.64c1.12 0 2.08 1.38 2.08 2.99v14.25c0 1.61-.96 2.99-2.08 2.99s-2.08-1.38-2.08-2.99v-14.25c0-1.61.96-2.99 2.08-2.99z" class="st74"/><path id="矩形_00000051354776684380542120000004367625321949349027_" d="M111.83 349.43c1.12 0 2.08 1.38 2.08 2.99v2.76c0 1.61-.96 2.99-2.08 2.99s-2.08-1.38-2.08-2.99v-2.76c0-1.72.96-2.99 2.08-2.99z" class="st74"/><path id="矩形_00000110434975425298067340000000398397039854040205_" d="M129.22 360.21c1.12 0 2.08 1.38 2.08 2.99v2.76c0 1.61-.96 2.99-2.08 2.99s-2.08-1.38-2.08-2.99v-2.76c0-1.73.96-2.99 2.08-2.99z" class="st74"/><path id="矩形_00000123403041713965501730000014715364816607452845_" d="M149.4 368.94c1.12 0 2.08 1.38 2.08 2.99v2.76c0 1.61-.96 2.99-2.08 2.99s-2.08-1.38-2.08-2.99v-2.76c-.01-1.72.95-2.99 2.08-2.99z" class="st74"/><path id="矩形_00000101803568991221213380000010953932042352268430_" d="M169.09 363.6c.89 0 1.66 1.1 1.66 2.37v2.19c0 1.28-.76 2.37-1.66 2.37-.89 0-1.66-1.1-1.66-2.37v-2.19c0-1.36.77-2.37 1.66-2.37z" class="st74"/><path id="矩形_00000142866738084241984220000014359196539886064777_" d="M183.88 353.44c.62 0 1.14.76 1.14 1.64v1.51c0 .88-.53 1.64-1.14 1.64-.62 0-1.14-.76-1.14-1.64v-1.51c0-.94.53-1.64 1.14-1.64z" class="st74"/><path d="m149.97 304.48 11.69-4.32M173.2 296.75l11.69-4.32" class="st94"/><path id="矩形_00000094615620647633312080000002656045730005282233_" d="M171.86 259.14c1.37-1.02 3.68-.37 5.02 1.41l2.29 3.06c1.34 1.79 1.31 4.19-.06 5.22-1.37 1.02-3.68.37-5.02-1.41l-2.29-3.06c-1.43-1.92-1.31-4.2.06-5.22z" class="st74"/><path d="M158.6 481.88 44.09 415.87v-41.79l114.51 66.01z" class="st6"/><path d="m158.6 481.88 20.97-10.99V429.1l-20.97 10.99z" class="st5"/><path d="M158.75 440.21 44.09 374.12 64.91 363l114.66 66.09z" class="st7"/><path d="M151.94 452.05 53.05 395.2v-6.79l98.89 56.86z" class="st6"/><path d="m151.79 450.92-97.66-56.3-.01-5.62 97.66 56.3z" class="st7"/><path fill="#1ad4b3" fill-rule="evenodd" d="m123.71 434.03-68.99-39.61-.01-4.39 68.99 39.74z" clip-rule="evenodd"/><path d="M151.94 465.85 53.05 409v-6.79l98.89 56.86z" class="st6"/><path d="m151.79 464.72-97.66-56.3-.01-5.62 97.66 56.3z" class="st7"/><path fill="#fc4f83" fill-rule="evenodd" d="m93.29 430.33-38.57-22.11-.01-4.39 38.57 22.24z" clip-rule="evenodd"/><path d="m222.15 308.93-17.63-10.18v-17.63l17.63 10.18z" class="st6"/><path d="m222.15 308.93 17.63-10.18v-17.63l-17.63 10.18z" class="st5"/><path d="m222.22 291.35-17.7-10.21 17.57-10.24 17.69 10.22z" class="st7"/><path id="矩形_00000008835325966006391610000016989482223732770233_" d="M216.31 277.03c.35.2.29.58-.12.82l-3.66 2.17c-.41.24-1.06.29-1.41.09-.35-.2-.29-.58.12-.82l3.66-2.17c.41-.24 1.06-.28 1.41-.09z" class="st17"/><path id="矩形_00000107590920430511317350000009376957701646319021_" d="M210.22 280.57c.35.2.29.58-.12.82l-.71.42c-.41.24-1.06.29-1.41.09-.35-.2-.29-.58.12-.82l.71-.42c.44-.27 1.06-.29 1.41-.09z" class="st17"/><path d="m225.03 372.81-17.63-10.18V345l17.63 10.18z" class="st6"/><path d="m225.03 372.81 17.63-10.18V345l-17.63 10.18z" class="st5"/><path d="m225.09 355.24-17.69-10.22 17.57-10.23L242.66 345z" class="st7"/><path id="矩形_00000001651599796411897920000018387228726600695711_" d="M219.19 340.92c.35.2.29.58-.12.82l-3.66 2.17c-.41.24-1.06.29-1.41.09-.35-.2-.29-.58.12-.82l3.66-2.17c.41-.25 1.06-.29 1.41-.09z" class="st17"/><path id="矩形_00000180346422524111650200000018427739023138151866_" d="M213.09 344.45c.35.2.29.58-.12.82l-.71.42c-.41.24-1.06.29-1.41.09-.35-.2-.29-.58.12-.82l.71-.42c.44-.26 1.07-.28 1.41-.09z" class="st17"/><path d="m101.78 259.33-6.15-19.81c1.01-.41 1.96-.87 2.9-1.42 15.99-9.27 29.5-37.22 29.5-61.03 0-13.15-3.96-20.12-7.67-22.25-3.46-1.99-7.94-.23-11.1 1.6-15.98 9.27-29.49 37.22-29.49 61.03 0 2.81.19 5.49.57 7.97l-21.12 3.23c-.54-3.54-.82-7.31-.82-11.19 0-31.54 17.63-66.46 40.14-79.51 11.35-6.58 22.88-7.16 32.48-1.63 11.68 6.73 18.37 21.59 18.37 40.77 0 31.54-17.63 66.46-40.14 79.51-1.79 1.02-5.54 1.95-7.47 2.73z" class="st3"/><path fill="none" stroke="#000" stroke-linecap="round" stroke-linejoin="round" stroke-miterlimit="10" stroke-width="22" d="M108.16 144.77c-1.4.57-2.82 1.25-4.26 2.09-19.23 11.14-34.82 42.6-34.82 70.27s15.59 41.05 34.81 29.9c19.23-11.15 34.81-42.61 34.81-70.27 0-3.42-.24-6.62-.69-9.58"/><path d="M147.33 160.63c.82 3.81-1.65 6.94-7.25 9.14s-12.19 0-12.92-3.75c-.74-3.8-2.3-11.86 5.1-14.11 9.11-2.78 14.25 4.93 15.07 8.72z" class="st3"/></svg>