<svg xmlns="http://www.w3.org/2000/svg" xml:space="preserve" id="Слой_1" x="0" y="0" version="1.1" viewBox="0 0 290 269"><style>.st4{fill-rule:evenodd;clip-rule:evenodd;fill:#fff;stroke:#111422}.st4,.st5,.st6{stroke-linecap:round;stroke-linejoin:round;stroke-miterlimit:10}.st5{fill-rule:evenodd;clip-rule:evenodd;fill:#c6c3d1;stroke:#101320}.st6{fill:#ecf0fc;stroke:#111422}.st20,.st48,.st6{fill-rule:evenodd;clip-rule:evenodd}.st20{opacity:.2563;fill:#fff;enable-background:new}.st48{fill:none;stroke:#fff;stroke-width:.7384;stroke-linecap:round;stroke-linejoin:round;stroke-miterlimit:10}</style><path d="m226.6 192.88-30.5-17.61v-30.5l30.5 17.61z" class="st5"/><path d="m226.6 192.88 30.5-17.61v-30.5l-30.5 17.61z" class="st4"/><path d="M226.71 162.47 196.1 144.8l30.4-17.71 30.61 17.67z" class="st6"/><path id="矩形_00000015348240187524297070000001266451619072428720_" d="M216.49 137.7c.6.34.5 1-.21 1.42l-6.33 3.75c-.71.42-1.84.49-2.44.15-.6-.34-.5-1 .21-1.42l6.33-3.75c.72-.42 1.84-.49 2.44-.15z" class="st20"/><path id="矩形_00000029027016352820712520000017429203794046123191_" d="M205.95 143.81c.6.34.5 1-.21 1.42l-1.23.73c-.71.42-1.84.49-2.44.15-.6-.34-.5-1 .21-1.42l1.23-.73c.77-.45 1.84-.49 2.44-.15z" class="st20"/><path fill="#c6c3d1" stroke="#101320" stroke-linecap="round" stroke-linejoin="round" stroke-miterlimit="10" stroke-width=".5" d="m74.63 132.75-6.15-19.81c1.01-.41 1.96-.87 2.9-1.42 15.99-9.27 29.5-37.22 29.5-61.03 0-13.15-3.96-20.12-7.67-22.25-3.46-1.99-7.94-.23-11.1 1.6-15.99 9.26-29.49 37.21-29.49 61.02 0 2.81.19 5.49.57 7.97l-21.12 3.23c-.54-3.54-.82-7.31-.82-11.19 0-31.54 17.63-66.46 40.14-79.51 11.35-6.58 22.88-7.16 32.48-1.63 11.68 6.73 18.37 21.59 18.37 40.77 0 31.54-17.63 66.46-40.14 79.51-1.79 1.03-5.54 1.96-7.47 2.74z"/><linearGradient id="SVGID_1_" x1="30.934" x2="122.564" y1="71.282" y2="71.282" gradientUnits="userSpaceOnUse"><stop offset="0" stop-color="#111422"/><stop offset="1" stop-color="#111422"/></linearGradient><path fill="none" stroke="url(#SVGID_1_)" stroke-linecap="round" stroke-linejoin="round" stroke-miterlimit="10" stroke-width="22" d="M81.01 18.19c-1.4.57-2.82 1.25-4.26 2.09-19.23 11.14-34.82 42.61-34.82 70.27s15.59 41.05 34.81 29.9 34.81-42.61 34.81-70.27c0-3.42-.24-6.62-.69-9.58"/><path fill="#c6c3d1" d="M120.18 34.06c.82 3.81-1.65 6.94-7.25 9.14s-12.19 0-12.92-3.75c-.74-3.8-2.3-11.86 5.1-14.11 9.11-2.79 14.25 4.93 15.07 8.72z"/><linearGradient id="SVGID_00000181065840323995118780000011521542551292368570_" x1="183.44" x2="193.282" y1="66.853" y2="66.853" gradientUnits="userSpaceOnUse"><stop offset="0" stop-color="#a85699"/><stop offset="1" stop-color="#5db6c3"/></linearGradient><path fill="url(#SVGID_00000181065840323995118780000011521542551292368570_)" d="M183.44 73.13v-1.47l7.13-9.15v-.13h-6.9v-1.8h9.38v1.54l-6.93 9.09v.13h7.16v1.8h-9.84z"/><linearGradient id="SVGID_00000172399328468177927940000017267814708455571631_" x1="214.508" x2="231.016" y1="71.758" y2="71.758" gradientUnits="userSpaceOnUse"><stop offset="0" stop-color="#a85699"/><stop offset="1" stop-color="#5db6c3"/></linearGradient><path fill="url(#SVGID_00000172399328468177927940000017267814708455571631_)" d="M214.51 82.29v-2.47l11.96-15.36v-.22H214.9v-3.02h15.74v2.58l-11.63 15.25v.22h12.01v3.02h-16.51z"/><linearGradient id="SVGID_00000121248366998620144540000003520135894765509775_" x1="226.342" x2="248.279" y1="31.468" y2="31.468" gradientUnits="userSpaceOnUse"><stop offset="0" stop-color="#a85699"/><stop offset="1" stop-color="#5db6c3"/></linearGradient><path fill="url(#SVGID_00000121248366998620144540000003520135894765509775_)" d="M226.34 45.46v-3.28l15.89-20.41v-.29h-15.38v-4.01h20.92v3.43l-15.45 20.26v.29h15.96v4.01h-21.94z"/><radialGradient id="SVGID_00000060011456106420639610000009839056041557979548_" cx="154.907" cy="216.569" r="29.142" gradientTransform="matrix(1 0 0 .5898 0 88.838)" gradientUnits="userSpaceOnUse"><stop offset="0" stop-color="#b8b3d4"/><stop offset=".346" stop-color="#bab6d6" stop-opacity=".654"/><stop offset=".606" stop-color="#c2c0da" stop-opacity=".394"/><stop offset=".838" stop-color="#d0d0e3" stop-opacity=".162"/><stop offset="1" stop-color="#dde0eb" stop-opacity="0"/></radialGradient><path fill="url(#SVGID_00000060011456106420639610000009839056041557979548_)" d="M179.89 202.5c-13.67-7.89-35.94-7.99-49.74-.23-13.8 7.77-13.9 20.46-.23 28.36 13.67 7.89 35.94 7.99 49.74.23 13.8-7.77 13.9-20.46.23-28.36z" opacity=".67"/><path fill="#3fa9bd" d="M190.86 166.79v-49.28c0-.23.02-.45.02-.68 0-22.91-18.57-41.48-41.48-41.48-22.91 0-41.48 18.57-41.48 41.48 0 .36.02.72.03 1.07v44.66h-.03v22.67a5.15 5.15 0 1 0 10.3 0v-.83c.56.36 1.13.72 1.74 1.07 1.83 1.06 3.79 1.99 5.85 2.81v8.2a5.15 5.15 0 1 0 10.3 0v-5.23c2.95.57 5.99.96 9.06 1.14V205c0 2.84 2.3 5.15 5.15 5.15s5.15-2.31 5.15-5.15v-12.7c3.39-.28 6.73-.8 9.93-1.55v6.36c0 2.84 2.3 5.15 5.15 5.15s5.15-2.31 5.15-5.15v-9.87c1-.47 1.97-.96 2.91-1.49.7-.39 1.35-.8 1.99-1.21v.71a5.15 5.15 0 1 0 10.3 0V166.8h-.04z"/><radialGradient id="SVGID_00000103233148026847339820000016992668000053184937_" cx="174.083" cy="92.776" r="106.685" gradientUnits="userSpaceOnUse"><stop offset=".012" stop-color="#dd78ce"/><stop offset=".494" stop-color="#a7589a"/><stop offset=".583" stop-color="#a0619e"/><stop offset=".727" stop-color="#8e79a8"/><stop offset=".908" stop-color="#709fb9"/><stop offset="1" stop-color="#5eb6c3"/></radialGradient><path fill="url(#SVGID_00000103233148026847339820000016992668000053184937_)" d="M190.86 166.79v-49.28c0-.23.02-.45.02-.68 0-22.91-18.57-41.48-41.48-41.48-22.91 0-41.48 18.57-41.48 41.48 0 .36.02.72.03 1.07v44.66h-.03v22.67a5.15 5.15 0 1 0 10.3 0v-.83c.56.36 1.13.72 1.74 1.07 1.83 1.06 3.79 1.99 5.85 2.81v8.2a5.15 5.15 0 1 0 10.3 0v-5.23c2.95.57 5.99.96 9.06 1.14V205c0 2.84 2.3 5.15 5.15 5.15s5.15-2.31 5.15-5.15v-12.7c3.39-.28 6.73-.8 9.93-1.55v6.36c0 2.84 2.3 5.15 5.15 5.15s5.15-2.31 5.15-5.15v-9.87c1-.47 1.97-.96 2.91-1.49.7-.39 1.35-.8 1.99-1.21v.71a5.15 5.15 0 1 0 10.3 0V166.8h-.04z"/><path id="矩形_00000072960838196518852120000018207845025256268716_" d="M111.83 152.65c1.12 0 2.08 1.38 2.08 2.99v14.25c0 1.61-.96 2.99-2.08 2.99s-2.08-1.38-2.08-2.99v-14.25c0-1.61.96-2.99 2.08-2.99z" class="st20"/><path id="矩形_00000048476314002178851010000018133624704335513220_" d="M111.83 178.44c1.12 0 2.08 1.38 2.08 2.99v2.76c0 1.61-.96 2.99-2.08 2.99s-2.08-1.38-2.08-2.99v-2.76c0-1.72.96-2.99 2.08-2.99z" class="st20"/><path id="矩形_00000117644045494189225190000010534221932989837708_" d="M129.22 189.22c1.12 0 2.08 1.38 2.08 2.99v2.76c0 1.61-.96 2.99-2.08 2.99s-2.08-1.38-2.08-2.99v-2.76c0-1.73.96-2.99 2.08-2.99z" class="st20"/><path id="矩形_00000088118882656019138750000008705531662055782070_" d="M149.4 197.95c1.12 0 2.08 1.38 2.08 2.99v2.76c0 1.61-.96 2.99-2.08 2.99s-2.08-1.38-2.08-2.99v-2.76c-.01-1.72.95-2.99 2.08-2.99z" class="st20"/><path id="矩形_00000049188635147871296010000013435674398605145513_" d="M169.09 192.61c.89 0 1.66 1.1 1.66 2.37v2.19c0 1.28-.76 2.37-1.66 2.37-.89 0-1.66-1.1-1.66-2.37v-2.19c0-1.36.77-2.37 1.66-2.37z" class="st20"/><path id="矩形_00000111155295167444249510000013220150605650220976_" d="M183.88 182.45c.62 0 1.14.76 1.14 1.64v1.51c0 .88-.53 1.64-1.14 1.64-.62 0-1.14-.76-1.14-1.64v-1.51c0-.94.53-1.64 1.14-1.64z" class="st20"/><path d="m149.97 133.49 11.69-4.32M173.2 125.76l11.69-4.32" class="st48"/><path id="矩形_00000048479440997710859500000006072807808915111067_" d="M171.86 106.2c1.37-1.02 3.68-.37 5.02 1.41l2.29 3.06c1.34 1.78 1.31 4.19-.06 5.22-1.37 1.02-3.68.37-5.02-1.41l-2.29-3.06c-1.43-1.92-1.31-4.2.06-5.22z" class="st20"/><path d="m123.48 260.68-98.79-56.95v-36.05l98.79 56.94z" class="st5"/><path d="m123.48 260.68 18.09-9.48v-36.06l-18.09 9.48z" class="st4"/><path d="m123.61 224.73-98.92-57.02 17.96-9.59 98.93 57.02z" class="st6"/><path d="m117.73 234.95-85.31-49.06v-5.85l85.31 49.05z" class="st5"/><path d="M117.6 233.97 33.35 185.4l-.01-4.85 84.25 48.57z" class="st6"/><path fill="#1ad4b3" fill-rule="evenodd" d="m93.38 219.4-59.52-34.17-.01-3.8 59.52 34.29z" clip-rule="evenodd"/><path d="M117.73 246.85 32.42 197.8v-5.86L117.73 241z" class="st5"/><path d="m117.6 245.88-84.25-48.57-.01-4.86 84.25 48.57z" class="st6"/><path fill="#fc4f83" fill-rule="evenodd" d="m67.13 216.2-33.27-19.07-.01-3.79 33.28 19.19z" clip-rule="evenodd"/><path d="m237.13 149.83-17.63-10.17v-17.63l17.63 10.17z" class="st5"/><path d="m237.13 149.83 17.63-10.17v-17.63l-17.63 10.17z" class="st4"/><path d="m237.2 132.26-17.7-10.22 17.57-10.23 17.7 10.21z" class="st6"/><path id="矩形_00000151513622609412882310000017452326505549555354_" d="M231.29 117.94c.35.2.29.58-.12.82l-3.66 2.17c-.41.24-1.06.29-1.41.09-.35-.2-.29-.58.12-.82l3.66-2.17c.41-.25 1.06-.29 1.41-.09z" class="st20"/><path id="矩形_00000016766190392230905140000004632789636475750065_" d="M225.2 121.48c.35.2.29.58-.12.82l-.71.42c-.41.24-1.06.29-1.41.09-.35-.2-.29-.58.12-.82l.71-.42c.44-.27 1.06-.29 1.41-.09z" class="st20"/><path d="m240.01 213.72-17.63-10.18v-17.63l17.63 10.18z" class="st5"/><path d="m240.01 213.72 17.63-10.18v-17.63l-17.63 10.18z" class="st4"/><path d="m240.07 196.14-17.69-10.21 17.57-10.24 17.69 10.22z" class="st6"/><path id="矩形_00000088819611360002640960000013493742505540408741_" d="M234.17 181.82c.35.2.29.58-.12.82l-3.66 2.17c-.41.24-1.06.29-1.41.09-.35-.2-.29-.58.12-.82l3.66-2.17c.41-.24 1.06-.28 1.41-.09z" class="st20"/><path id="矩形_00000016065138029866511610000013879854046777124018_" d="M228.08 185.36c.35.2.29.58-.12.82l-.71.42c-.41.24-1.06.29-1.41.09-.35-.2-.29-.58.12-.82l.71-.42c.44-.26 1.06-.29 1.41-.09z" class="st20"/></svg>