<svg xmlns="http://www.w3.org/2000/svg" xml:space="preserve" id="Слой_1" x="0" y="0" version="1.1" viewBox="0 0 290 269.62"><style>.st2{fill:#0d101d;stroke:#000;stroke-linecap:round;stroke-linejoin:round;stroke-miterlimit:10}.st3{fill:#30345e}.st5{fill:#0d101d}.st5,.st6,.st7{fill-rule:evenodd;clip-rule:evenodd;stroke:#000;stroke-linecap:round;stroke-linejoin:round;stroke-miterlimit:10}.st7{fill:#30345e}.st17{fill:#40407c}.st17,.st74,.st78,.st79,.st80,.st81{fill-rule:evenodd;clip-rule:evenodd}.st74{opacity:.2563;fill:#fff;enable-background:new}.st78,.st79,.st80,.st81{fill:#555069}.st79,.st80,.st81{fill:#fff}.st80,.st81{fill:#afafb1}.st81{fill:#d3d3d3}</style><linearGradient id="SVGID_1_" x1="595.46" x2="641.634" y1="-582.028" y2="-582.028" gradientTransform="matrix(.763 .4367 0 1 -229.386 422.694)" gradientUnits="userSpaceOnUse"><stop offset="0" stop-color="#b4509c"/><stop offset="1" stop-color="#54b8c5"/></linearGradient><path fill="none" stroke="url(#SVGID_1_)" stroke-linecap="round" stroke-linejoin="round" stroke-miterlimit="10" stroke-width="5" d="m258.3 149.67-31.42-17.98V71.84l31.42 17.98z"/><path d="m258.3 149.33-31.42-17.98V71.5l31.42 17.98z" class="st2"/><path d="m234.39 88.96-1.5-.86-1.45-5.99 1.35.77.85 3.96.85-2.99 1.35.77-1.45 4.34zM239.54 91.25c-.41.26-.92.22-1.54-.13-.61-.35-1.13-.89-1.54-1.63-.41-.73-.62-1.49-.62-2.28 0-.78.21-1.31.62-1.57.41-.26.92-.22 1.54.13.61.35 1.13.89 1.54 1.63.41.73.62 1.49.62 2.28-.01.79-.21 1.31-.62 1.57zm-2.22-2.27c.18.35.4.6.68.76.28.16.51.17.68.02.18-.15.26-.4.26-.77s-.09-.72-.26-1.07c-.18-.35-.4-.6-.68-.76-.28-.16-.51-.17-.68-.02-.18.15-.26.4-.26.77-.01.36.08.72.26 1.07zM242.61 93.67l-1.19-.68v-3.8l-1.06-.6v-1.36l3.3 1.89v1.36l-1.05-.6v3.79zM245.28 95.19l-1.19-.68v-5.16l1.19.68v5.16zM249.71 97.73l-1.15-.66-1.45-3.45v2.62l-1.19-.68V90.4l1.23.7 1.37 3.23v-2.45l1.19.68v5.17zM252.3 99.3c-.61-.35-1.13-.89-1.54-1.61-.42-.73-.62-1.49-.62-2.29s.21-1.33.62-1.58c.42-.25.93-.2 1.54.15.43.25.79.58 1.08 1.01.29.42.5.87.65 1.33l-1 .1a2.32 2.32 0 0 0-.29-.62c-.13-.2-.27-.35-.44-.44-.28-.16-.51-.17-.69-.02-.18.15-.27.4-.27.77s.09.72.27 1.07c.18.35.41.6.69.77.11.06.22.11.34.13.12.02.21.02.27-.01v-.19l-.73-.42v-1.36l1.92 1.1v2.11c-.48.41-1.08.42-1.8 0zM233.17 95.64l-1.25-.72V89.5l2.21 1.26c.47.27.83.65 1.1 1.16.26.51.39 1.02.39 1.56 0 .53-.13.89-.39 1.1-.26.2-.63.17-1.1-.09l-.96-.55v1.7zm.79-2.69c.11.06.2.08.27.05s.11-.12.11-.25c0-.14-.04-.27-.11-.38a.87.87 0 0 0-.27-.27l-.79-.45v.85l.79.45zM239.68 98.68c-.43.28-.97.23-1.62-.14-.65-.37-1.18-.94-1.62-1.71-.43-.77-.65-1.57-.65-2.39 0-.82.22-1.37.65-1.65.43-.28.97-.23 1.62.14.65.37 1.18.94 1.62 1.71.43.77.65 1.57.65 2.39 0 .82-.21 1.37-.65 1.65zm-2.33-2.39c.18.37.42.63.72.8.29.17.53.17.72.02.18-.16.28-.42.28-.81 0-.39-.09-.76-.28-1.13-.18-.37-.42-.63-.72-.8-.29-.17-.53-.17-.72-.02-.18.15-.28.42-.28.81 0 .39.1.76.28 1.13zM245.25 102.55l-1.32-.75-.53-3.38-.53 2.77-1.32-.75-1.19-6.1 1.4.8.53 3.62.63-2.96.94.54.63 3.68.53-3.02 1.41.81-1.18 4.74zM249.84 105.18l-3.14-1.8v-5.43l3.14 1.8v1.43l-1.89-1.08v.54l1.84 1.05v1.43l-1.84-1.05v.59l1.89 1.08v1.44zM254.1 107.62l-1.43-.82-.57-2.03-.45-.26v1.71l-1.25-.72v-5.43l2.21 1.26c.47.27.83.65 1.1 1.16.26.51.39 1.02.39 1.56 0 .42-.07.73-.22.92-.15.19-.32.29-.52.3l.74 2.35zm-1.68-4.11c.12.07.21.09.29.06.08-.03.12-.11.12-.25s-.04-.26-.12-.38a.964.964 0 0 0-.29-.28l-.76-.44v.85l.76.44z" class="st3"/><linearGradient id="SVGID_00000101063772260728194950000001224682951171282857_" x1="627.862" x2="609.272" y1="-564.648" y2="-580.29" gradientTransform="matrix(.763 .4367 0 1 -229.386 422.694)" gradientUnits="userSpaceOnUse"><stop offset="0" stop-color="#c1489f"/><stop offset="1" stop-color="#55bac7"/></linearGradient><path fill="url(#SVGID_00000101063772260728194950000001224682951171282857_)" d="M242.59 107.8c-5.26-3.01-9.53.14-9.53 7.04s4.27 14.94 9.53 17.95 9.53-.14 9.53-7.04-4.27-14.93-9.53-17.95zm4.05 20.65c-.1.09-.25.07-.43-.03-.12-.07-.23-.19-.33-.34-.1-.15-.17-.33-.23-.52l-3.07-11.75-1.13 3.03.55.31c.32.18.58.67.58 1.09v.02c0 .41-.26.61-.58.43l-1.02-.58-1.47 3.95c-.05.13-.13.22-.23.25-.09.04-.21.02-.33-.05-.18-.1-.33-.26-.43-.46-.1-.2-.16-.42-.16-.66 0-.1.01-.19.04-.27l1.34-3.47-.57-.33c-.32-.18-.58-.67-.58-1.09v-.01c0-.41.26-.61.58-.43l1.06.61 1.4-3.65c.18-.43.45-.53.81-.33l.28.16c.35.2.63.62.81 1.25l3.22 12.06c.03.11.04.21.04.32.01.25-.05.41-.15.49z"/><path stroke="#000" stroke-linecap="round" stroke-linejoin="round" stroke-miterlimit="10" d="M52.65 138.72 33.4 128.24v-29.1l108.88-57.92 19.11 7.86-2.72 18.76 5.98 7.3-6.44 3.65-6.36-3.92-5.46 10.63-4.2-2.53-14.48 13.13-7.55-4.67-6.48 12.64-7.73-4.54-5.54 12.07-8.6-6.81-5.18 10.55-11.46 6.73-7.74-5.27-10.74 7.98 1.88 10.57z"/><path d="M93.5 100.3c0 3.39-.47 6.51-1.42 9.37-.95 2.86-2.22 5.34-3.83 7.45-1.61 2.11-3.4 3.72-5.38 4.84-1.99 1.13-3.79 1.55-5.39 1.25-1.6-.29-2.87-1.33-3.82-3.12-.94-1.79-1.41-4.37-1.41-7.74 0-3.39.47-6.51 1.41-9.37.94-2.86 2.21-5.34 3.82-7.44 1.6-2.1 3.4-3.72 5.39-4.85 1.98-1.12 3.77-1.54 5.38-1.26 1.61.28 2.88 1.32 3.83 3.1.95 1.8 1.42 4.39 1.42 7.77zm-6.09 3.47c0-1.82-.17-3.26-.52-4.32-.35-1.06-.85-1.72-1.52-1.99s-1.5-.12-2.48.44-1.81 1.35-2.48 2.38c-.67 1.03-1.18 2.27-1.52 3.72-.34 1.45-.52 3.09-.52 4.91s.17 3.26.52 4.32c.35 1.06.85 1.72 1.52 1.99s1.5.12 2.48-.44 1.81-1.35 2.48-2.38c.67-1.03 1.18-2.27 1.52-3.72.34-1.45.52-3.09.52-4.91zM100.41 111.6l-6.44-26.78 6.61-3.75 2.99 17.03.17-.1 3.54-20.74 5.2-2.95 3.54 16.77.17-.1 2.99-20.48 6.61-3.75-6.44 34.09-5.67 3.22-3.71-14.9-.17.1-3.71 19.11-5.68 3.23zM127.71 96.1V65.67l15.74-8.93v6.66l-9.81 5.57v5.23l9-5.11v6.66l-9 5.11v5.23l9.77-5.54v6.66l-15.7 8.89zM66.33 101.85c-1.22-.2-2.63.16-4.25 1.08l-9.43 5.35v30.44l5.93-3.37v-9.04l3.28-1.86c1.66-.95 3.12-2.2 4.37-3.77 1.25-1.57 2.22-3.35 2.91-5.34a18.93 18.93 0 0 0 1.04-6.25c0-2.16-.34-3.85-1.01-5.09-.68-1.23-1.63-1.94-2.84-2.15zm-2.74 13.22a7.16 7.16 0 0 1-1.14 2.11c-.49.62-1.09 1.13-1.79 1.53l-2.09 1.19v-8.38l2.09-1.19c.7-.4 1.29-.57 1.79-.51.49.05.87.31 1.14.78.27.47.4 1.14.4 2.01 0 .85-.13 1.68-.4 2.46zM158.21 78.79l6.44-3.66-4.44-8.84c1.13-1.4 2.03-2.97 2.68-4.73.69-1.89 1.04-3.93 1.04-6.1 0-2.16-.34-3.82-1.01-4.98-.68-1.16-1.62-1.81-2.84-1.94-1.22-.13-2.63.26-4.25 1.18l-9.43 5.35V85.5l5.93-3.37V72.09l2.05-1.17 3.83 7.87zm-5.89-20.49 2.09-1.19c.7-.4 1.29-.6 1.79-.62.49-.02.87.17 1.14.57.27.4.4 1.03.4 1.91 0 .86-.13 1.64-.4 2.32-.27.69-.65 1.29-1.14 1.81-.49.52-1.09.99-1.79 1.38l-2.09 1.19V58.3z" class="st2"/><path fill="#30345e" stroke="#000" stroke-linecap="round" stroke-linejoin="round" stroke-miterlimit="10" d="m33.4 99.14 19.25 9.14 105.09-59.44 2.33-.31-17.79-7.31z"/><path d="m194.67 182.15-34.4-19.86V127.9l34.4 19.86z" class="st6"/><path d="m194.67 182.15 34.39-19.86V127.9l-34.39 19.86z" class="st5"/><path d="m194.79 147.86-34.52-19.93 34.28-19.96 34.51 19.92z" class="st7"/><path id="矩形_00000078032581414513093220000017570787231809005234_" d="M183.27 119.93h0c.68.38.56 1.12-.24 1.6l-7.14 4.22c-.81.48-2.08.56-2.75.17h0c-.68-.38-.56-1.12.24-1.6l7.14-4.22c.8-.48 2.07-.56 2.75-.17z" class="st5"/><path id="矩形_00000030457760218597670480000009063571525088486322_" d="M171.38 126.82h0c.68.38.56 1.12-.24 1.6l-1.38.82c-.81.48-2.08.56-2.75.17h0c-.68-.38-.56-1.12.24-1.6l1.38-.82c.86-.5 2.08-.55 2.75-.17z" class="st5"/><path d="m190.62 135.14-24.63-14.22V96.29l24.63 14.22z" class="st6"/><path d="m190.62 135.14 24.63-14.22V96.29l-24.63 14.22z" class="st5"/><path d="m190.71 110.59-24.72-14.28 24.55-14.3 24.72 14.28z" class="st7"/><path id="矩形_00000012469304371924586610000002038674324293790654_" d="M182.46 90.58c.48.28.4.8-.17 1.15l-5.11 3.03c-.58.34-1.49.4-1.97.12s-.4-.8.17-1.15l5.11-3.03c.57-.34 1.48-.39 1.97-.12z" class="st17"/><path id="矩形_00000003097540417575147120000007077645368754508162_" d="M173.95 95.52c.48.28.4.8-.17 1.15l-.99.59c-.58.34-1.49.4-1.97.12s-.4-.8.17-1.15l.99-.59c.61-.36 1.48-.4 1.97-.12z" class="st17"/><path d="m100.94 80.79-13.76-7.94V20.23l13.76 7.95z" class="st6"/><path d="m100.94 80.79 13.76-7.94V20.23l-13.76 7.95z" class="st5"/><path d="m100.99 28.22-13.81-7.98 13.71-7.98 13.81 7.97z" class="st7"/><path id="矩形_00000011717099179573118410000016035168861388644763_" d="M96.38 17.04c.27.15.23.45-.1.64l-2.86 1.69c-.32.19-.83.22-1.1.07-.27-.15-.23-.45.1-.64l2.86-1.69c.32-.19.83-.22 1.1-.07z" class="st17"/><path id="矩形_00000075158613536660287380000009721820313305984954_" d="M91.63 19.8c.27.15.23.45-.1.64l-.55.33c-.32.19-.83.22-1.1.07-.27-.15-.23-.45.1-.64l.55-.33c.34-.2.83-.22 1.1-.07z" class="st17"/><path d="m87.25 88.78-13.76-7.95V39.57l13.76 7.94z" class="st6"/><path d="m87.25 88.78 13.76-7.95V39.57l-13.76 7.94z" class="st5"/><path d="m87.3 47.55-13.81-7.97 13.71-7.99 13.81 7.98z" class="st7"/><path id="矩形_00000047746617379357184380000003611127497084761241_" d="M82.69 36.38c.27.15.23.45-.1.64l-2.86 1.69c-.32.19-.83.22-1.1.07-.27-.15-.23-.45.1-.64l2.86-1.69c.32-.19.83-.23 1.1-.07z" class="st17"/><path id="矩形_00000101783462868844246650000013441235537087692461_" d="M77.94 39.14c.27.15.23.45-.1.64l-.55.33c-.32.19-.83.22-1.1.07-.27-.15-.23-.45.1-.64l.55-.33c.34-.21.83-.23 1.1-.07z" class="st17"/><path d="m73.49 96.76-13.76-7.94V60.11l13.76 7.94z" class="st6"/><path d="m73.49 96.76 13.76-7.94V60.11l-13.76 7.94z" class="st5"/><path d="m73.54 68.1-13.81-7.98 13.71-7.99 13.81 7.98z" class="st7"/><path id="矩形_00000016074314659128041120000009055211305127537823_" d="M68.93 56.92c.27.15.23.45-.1.64l-2.86 1.69c-.32.19-.83.22-1.1.07-.27-.15-.23-.45.1-.64l2.86-1.69c.32-.19.83-.23 1.1-.07z" class="st17"/><path id="矩形_00000018217678768930444750000014341924477510239903_" d="M64.18 59.68c.27.15.23.45-.1.64l-.55.33c-.32.19-.83.22-1.1.07-.27-.15-.23-.45.1-.64l.55-.33c.34-.21.83-.23 1.1-.07z" class="st17"/><linearGradient id="SVGID_00000082365760988251381830000005151966150365577390_" x1="386.23" x2="435.967" y1="822.967" y2="822.967" gradientTransform="matrix(.7491 -.4602 0 1 -247.638 -454.219)" gradientUnits="userSpaceOnUse"><stop offset="0" stop-color="#b4509c"/><stop offset="1" stop-color="#54b8c5"/></linearGradient><path fill="none" stroke="url(#SVGID_00000082365760988251381830000005151966150365577390_)" stroke-linecap="round" stroke-linejoin="round" stroke-miterlimit="10" stroke-width="5" d="m77.07 201.77-33.51 20.59v-65.02l33.51-20.59z"/><path d="m77.07 201.4-33.51 20.59v-65.02l33.51-20.59z" class="st2"/><path d="m51.57 166.34-1.6.98-1.55-4.66 1.44-.89.91 3.22.91-4.33 1.44-.89-1.55 6.57zM57.05 162.26c-.44.81-.99 1.42-1.64 1.82s-1.2.47-1.64.2c-.44-.27-.66-.83-.66-1.68s.22-1.68.66-2.49c.44-.81.99-1.42 1.64-1.82.66-.4 1.2-.47 1.64-.2.44.27.66.83.66 1.68s-.22 1.68-.66 2.49zm-2.36.37c.19.15.43.14.73-.04.3-.18.54-.47.73-.85.19-.38.28-.77.28-1.17 0-.4-.09-.67-.28-.83-.19-.15-.43-.14-.73.04-.3.18-.54.47-.73.85-.19.38-.28.77-.28 1.17 0 .4.09.67.28.83zM60.34 160.95l-1.27.78v-4.13l-1.13.69v-1.48l3.52-2.16v1.48l-1.12.69v4.13zM63.19 159.21l-1.27.78v-5.61l1.27-.78v5.61zM67.91 156.3l-1.22.75-1.55-1.89V158l-1.27.78v-5.61l1.31-.8 1.46 1.76v-2.66l1.27-.78v5.61zM70.67 154.71c-.66.4-1.2.47-1.65.22-.44-.26-.66-.82-.66-1.7s.22-1.71.66-2.51c.44-.8.99-1.4 1.65-1.81.46-.28.85-.38 1.16-.29.31.09.54.3.69.62l-1.07 1.39a.537.537 0 0 0-.31-.3c-.14-.05-.29-.03-.47.08-.3.19-.55.47-.74.86-.19.39-.28.78-.28 1.17 0 .4.09.67.28.83.19.15.43.14.74-.05.12-.07.24-.17.37-.3.13-.13.22-.25.29-.35v-.2l-.78.48v-1.48l2.05-1.26v2.3c-.52 1.05-1.16 1.82-1.93 2.3zM50.26 175.16l-1.34.82v-5.9l2.36-1.45c.5-.31.89-.35 1.17-.14.28.21.42.61.42 1.19 0 .57-.14 1.14-.42 1.69-.28.56-.67.99-1.17 1.3l-1.02.63v1.86zm.85-3.93c.12-.07.22-.17.29-.3.08-.13.11-.26.11-.41 0-.15-.04-.25-.11-.28-.08-.03-.17-.01-.29.06l-.85.52v.93l.85-.52zM57.21 170.14c-.46.85-1.04 1.49-1.72 1.91-.69.42-1.26.49-1.72.21-.46-.29-.69-.88-.69-1.77 0-.9.23-1.77.69-2.62.46-.85 1.04-1.49 1.72-1.91.69-.42 1.26-.49 1.72-.21.46.29.69.88.69 1.77 0 .9-.23 1.77-.69 2.62zm-2.49.39c.2.16.45.15.76-.05.31-.19.57-.49.76-.89.2-.4.29-.81.29-1.23 0-.42-.1-.71-.29-.87-.2-.16-.45-.15-.76.05-.31.19-.57.49-.76.89-.2.4-.29.81-.29 1.23 0 .42.1.71.29.87zM63.15 167.24l-1.4.86-.57-2.99-.57 3.69-1.4.86-1.26-5.12 1.5-.92.57 3.26.67-4.02 1.01-.62.67 3.2.56-3.95 1.5-.92-1.28 6.67zM68.05 164.23l-3.35 2.06v-5.9l3.35-2.06v1.56l-2.01 1.24v.58l1.97-1.21v1.56l-1.97 1.21v.65l2.01-1.24v1.55zM72.59 161.44l-1.52.94-.61-1.48-.48.3v1.86l-1.34.82v-5.9l2.36-1.45c.5-.31.89-.35 1.17-.14.28.21.42.61.42 1.19 0 .46-.08.88-.23 1.28-.16.39-.34.72-.56 1l.79 1.58zm-1.8-2.31c.12-.08.23-.18.31-.31.08-.13.13-.27.13-.43 0-.15-.04-.23-.13-.26-.08-.03-.19 0-.31.07l-.81.5v.93l.81-.5z" class="st3"/><linearGradient id="SVGID_00000104701410755155927520000010383257533616532867_" x1="421.219" x2="401.02" y1="841.851" y2="824.855" gradientTransform="matrix(.7491 -.4602 0 1 -247.638 -454.219)" gradientUnits="userSpaceOnUse"><stop offset="0" stop-color="#c1489f"/><stop offset="1" stop-color="#55bac7"/></linearGradient><path fill="url(#SVGID_00000104701410755155927520000010383257533616532867_)" d="M60.31 176.35c-5.61 3.45-10.17 12.33-10.17 19.82 0 7.5 4.55 10.78 10.17 7.33 5.61-3.45 10.17-12.32 10.17-19.82 0-7.51-4.55-10.78-10.17-7.33zm4.32 17.26c-.11.23-.26.4-.46.52-.13.08-.25.1-.36.06-.11-.03-.18-.13-.25-.27l-3.27-8.85-1.2 4.73.58-.36c.34-.21.62-.01.62.44v.02c0 .45-.28.99-.62 1.2l-1.09.67-1.57 6.17c-.06.21-.14.4-.25.57-.1.16-.23.29-.36.38-.19.12-.35.14-.46.05-.11-.09-.17-.26-.17-.51 0-.11.01-.22.04-.34l1.43-5.49-.61.37c-.34.21-.62.01-.62-.44v-.01c0-.45.28-.99.62-1.2l1.13-.7 1.49-5.75c.19-.69.48-1.15.86-1.39l.3-.19c.38-.23.67-.13.86.33l3.44 8.99c.03.08.04.18.04.29.06.24-.01.49-.12.71z"/><path id="矩形_00000122697389597365287330000001263154032658972046_" d="M181.1 222.87c.62 0 1.15.76 1.15 1.64v1.52c0 .88-.53 1.64-1.15 1.64-.62 0-1.15-.76-1.15-1.64v-1.52c.01-.95.54-1.64 1.15-1.64z" class="st74"/><radialGradient id="SVGID_00000147943054154676995550000004460635281713216150_" cx="146.82" cy="250.25" r="29.158" gradientTransform="matrix(1 0 0 .5898 0 102.654)" gradientUnits="userSpaceOnUse"><stop offset="0"/><stop offset="1" stop-color="#0d101d" stop-opacity="0"/></radialGradient><path fill="url(#SVGID_00000147943054154676995550000004460635281713216150_)" d="M171.82 236.18c-13.68-7.9-35.96-8-49.77-.23s-13.91 20.48-.23 28.37 35.96 8 49.77.23c13.8-7.77 13.91-20.48.23-28.37z" opacity=".67"/><path fill="#3fa9bd" d="M188.07 206.89v-49.28c0-.23.02-.45.02-.68 0-22.91-18.57-41.48-41.48-41.48-22.91 0-41.48 18.57-41.48 41.48 0 .36.02.72.03 1.07v44.66h-.03v22.67a5.15 5.15 0 1 0 10.3 0v-.83c.56.36 1.13.72 1.74 1.07 1.83 1.06 3.79 1.99 5.85 2.81v8.2a5.15 5.15 0 1 0 10.3 0v-5.23c2.95.57 5.99.96 9.06 1.14v12.59a5.15 5.15 0 1 0 10.3 0v-12.7c3.39-.28 6.73-.8 9.93-1.55v6.36c0 2.84 2.3 5.15 5.15 5.15s5.15-2.31 5.15-5.15v-9.87c1-.47 1.97-.96 2.91-1.49.7-.39 1.35-.8 1.99-1.21v.71a5.15 5.15 0 1 0 10.3 0v-18.45h-.04z"/><radialGradient id="SVGID_00000096035731198912384320000008417106656836619439_" cx="171.285" cy="132.875" r="106.685" gradientUnits="userSpaceOnUse"><stop offset=".012" stop-color="#dd78ce"/><stop offset=".494" stop-color="#a7589a"/><stop offset=".583" stop-color="#a0619e"/><stop offset=".727" stop-color="#8e79a8"/><stop offset=".908" stop-color="#709fb9"/><stop offset="1" stop-color="#5eb6c3"/></radialGradient><path fill="url(#SVGID_00000096035731198912384320000008417106656836619439_)" d="M188.07 206.89v-49.28c0-.23.02-.45.02-.68 0-22.91-18.57-41.48-41.48-41.48-22.91 0-41.48 18.57-41.48 41.48 0 .36.02.72.03 1.07v44.66h-.03v22.67a5.15 5.15 0 1 0 10.3 0v-.83c.56.36 1.13.72 1.74 1.07 1.83 1.06 3.79 1.99 5.85 2.81v8.2a5.15 5.15 0 1 0 10.3 0v-5.23c2.95.57 5.99.96 9.06 1.14v12.59a5.15 5.15 0 1 0 10.3 0v-12.7c3.39-.28 6.73-.8 9.93-1.55v6.36c0 2.84 2.3 5.15 5.15 5.15s5.15-2.31 5.15-5.15v-9.87c1-.47 1.97-.96 2.91-1.49.7-.39 1.35-.8 1.99-1.21v.71a5.15 5.15 0 1 0 10.3 0v-18.45h-.04z"/><path id="矩形_00000059280486179927663800000014777948698555383999_" d="M109.01 193.05c1.12 0 2.09 1.38 2.09 2.99v14.25c0 1.61-.96 2.99-2.09 2.99-1.12 0-2.09-1.38-2.09-2.99v-14.25c.01-1.61.97-2.99 2.09-2.99z" class="st74"/><path id="矩形_00000128448460356940740440000004822465306280513677_" d="M170.31 129.96c1.37-1.02 3.68-.37 5.02 1.41l2.29 3.06c1.34 1.78 1.31 4.19-.06 5.22-1.37 1.02-3.68.37-5.02-1.41l-2.29-3.06c-1.43-1.91-1.3-4.19.06-5.22z" class="st74"/><path id="矩形_00000059995208429175495350000013182873735744875958_" d="M126.41 229.64c1.12 0 2.09 1.38 2.09 2.99v2.76c0 1.61-.96 2.99-2.09 2.99-1.12 0-2.09-1.38-2.09-2.99v-2.76c0-1.73.97-2.99 2.09-2.99z" class="st74"/><path id="矩形_00000075883062674900734190000013397597418799041469_" d="M109.01 218.5c1.12 0 2.09 1.38 2.09 2.99v2.76c0 1.61-.96 2.99-2.09 2.99-1.12 0-2.09-1.38-2.09-2.99v-2.76c.01-1.73.97-2.99 2.09-2.99z" class="st74"/><path id="矩形_00000047772926838372314420000017685899333479639462_" d="M146.6 238.38c1.12 0 2.09 1.38 2.09 2.99v2.76c0 1.61-.96 2.99-2.09 2.99-1.12 0-2.09-1.38-2.09-2.99v-2.76c0-1.73.97-2.99 2.09-2.99z" class="st74"/><path id="矩形_00000061443793076341169240000003646368304734476195_" d="M166.3 233.03c.89 0 1.66 1.1 1.66 2.37v2.19c0 1.28-.76 2.37-1.66 2.37-.89 0-1.66-1.1-1.66-2.37v-2.19c.01-1.36.77-2.37 1.66-2.37z" class="st74"/><ellipse cx="152.23" cy="152.78" class="st79" rx="9.1" ry="9.5" transform="rotate(-34.547 152.215 152.768)"/><path id="形状结合_00000008143530127105115310000011259493228925072549_" d="M151.03 142.81c-4.24-.18-7.66 3.98-7.66 9.22v1.12c0-5.33 3.33-9.59 7.48-9.42 4.15.17 7.46 4.61 7.46 10.04 0 1.03-.09 2.05-.37 2.98.46-1.2.74-2.59.74-3.99 0-5.33-3.41-9.77-7.65-9.95z" class="st80"/><path id="形状结合_00000135657012097015650680000002729982723333948035_" d="M159.6 152.71c-.01 5.89-3.88 10.5-8.58 10.31-4.7-.2-8.57-5.13-8.57-11.02.01-5.89 3.88-10.5 8.58-10.31 4.8.2 8.57 5.13 8.57 11.02zm-16.23-.67c0 5.24 3.4 9.68 7.64 9.86 4.24.18 7.66-3.98 7.66-9.22s-3.4-9.68-7.64-9.86c-4.15-.18-7.65 3.98-7.66 9.22z" class="st81"/><ellipse cx="121.51" cy="151.4" class="st79" rx="9.1" ry="9.5" transform="rotate(-34.547 121.501 151.388)"/><path id="形状结合_00000160900802961786180570000016902491065337871236_" d="M120.52 141.44c-4.24-.18-7.66 3.98-7.66 9.22v1.12c0-5.33 3.33-9.59 7.48-9.42 4.15.17 7.46 4.61 7.46 10.04 0 1.03-.09 2.05-.37 2.98.46-1.2.74-2.59.74-3.99 0-5.33-3.41-9.77-7.65-9.95z" class="st80"/><path id="形状结合_00000178207268793094897970000013057875152966770068_" d="M129.09 151.34c-.01 5.89-3.88 10.5-8.58 10.31s-8.57-5.13-8.57-11.02 3.88-10.5 8.58-10.31c4.8.2 8.57 5.13 8.57 11.02zm-16.23-.68c0 5.24 3.4 9.68 7.64 9.86 4.24.18 7.66-3.98 7.66-9.22s-3.4-9.68-7.64-9.86c-4.15-.17-7.66 3.99-7.66 9.22z" class="st81"/><ellipse cx="136.15" cy="172.83" class="st78" rx="3.94" ry="4.12" transform="rotate(-34.547 136.138 172.814)"/><ellipse cx="134.38" cy="171.07" class="st79" rx="3.23" ry="3.37" transform="rotate(-34.547 134.361 171.053)"/><circle cx="146.82" cy="148.06" r="3.77" class="st78"/><circle cx="117.92" cy="146.18" r="3.77" class="st78"/></svg>