<svg xmlns="http://www.w3.org/2000/svg" xml:space="preserve" id="Слой_1" x="0" y="0" version="1.1" viewBox="0 0 290 269.62"><style>.st2,.st5{fill:#0d101d}.st2{stroke:#000;stroke-linecap:round;stroke-linejoin:round;stroke-miterlimit:10}.st5{fill-rule:evenodd;clip-rule:evenodd}.st5,.st6{stroke:#000;stroke-linecap:round;stroke-linejoin:round;stroke-miterlimit:10}.st6,.st74,.st78,.st79,.st80,.st81{fill-rule:evenodd;clip-rule:evenodd}.st74{opacity:.2563;fill:#fff;enable-background:new}.st78,.st79,.st80,.st81{fill:#555069}.st79,.st80,.st81{fill:#fff}.st80,.st81{fill:#afafb1}.st81{fill:#d3d3d3}</style><path d="M150.63 31.27 33.28 98.3v62.75l117.35-67.04z" class="st5"/><path d="m17.9 89.6 15.38 8.32v63.13l-15.38-8.32z" class="st6"/><path fill="#30345e" fill-rule="evenodd" stroke="#000" stroke-linecap="round" stroke-linejoin="round" stroke-miterlimit="10" d="m150.63 31.27-16.53-8.74L17.9 89.6l15.38 8.32z" clip-rule="evenodd"/><path d="m142.34 62.01-98.09 57.16v-7.68l98.09-57.16z" class="st6"/><path d="m141.51 61.35-96.65 56.44-.01-6.36 96.65-56.44z" class="st5"/><path fill="#1ad4b3" fill-rule="evenodd" d="m114.34 76.55-69.85 40.92v-5.23l69.84-40.75z" clip-rule="evenodd"/><path d="M142.34 77.64 44.25 134.8v-7.68l98.09-57.16z" class="st6"/><path d="m141.51 77.08-97.26 56.71-.01-6.36 97.26-56.71z" class="st5"/><path fill="#fc4f83" fill-rule="evenodd" d="m84.17 109.83-39.7 23.22-.01-5.14 39.7-23.23z" clip-rule="evenodd"/><path d="M177.37 73.82c0-16.69-5.94-22.53 2.49-27.94 12.9-8.28 26.89-12.64 39.52-8.14 27.31 9.73 52.1 50.32 52.16 83.71.05 28.15-4.78 32.1-28.51 45.5-4.69 2.65-17.34-4.66-23.65-8.32-23.2-13.46-42.01-51.43-42.01-84.81z" class="st2"/><ellipse cx="213.63" cy="104.77" class="st2" rx="40.13" ry="68.8" transform="rotate(-26.527 213.646 104.779)"/><path fill="#30345e" stroke="#000" stroke-linecap="round" stroke-linejoin="round" stroke-miterlimit="10" d="m213.63 104.77 5.95-54.11a62.175 62.175 0 0 0-5.71-3.69c-25.73-14.63-46.7-.61-46.84 31.31s20.62 69.66 46.35 84.29c25.73 14.63 46.7.61 46.84-31.31.02-3.94-.29-7.98-.88-12.05l-45.71-14.44z"/><path id="矩形_00000174576588283323481590000011612067494284038837_" d="M177.82 200.04c.62 0 1.15.76 1.15 1.64v1.52c0 .88-.53 1.64-1.15 1.64-.62 0-1.15-.76-1.15-1.64v-1.52c.01-.94.53-1.64 1.15-1.64z" class="st74"/><radialGradient id="SVGID_1_" cx="146.279" cy="234.168" r="29.158" gradientTransform="matrix(1 0 0 .5898 0 96.057)" gradientUnits="userSpaceOnUse"><stop offset="0"/><stop offset="1" stop-color="#0d101d" stop-opacity="0"/></radialGradient><path fill="url(#SVGID_1_)" d="M171.28 220.09c-13.68-7.9-35.96-8-49.77-.23s-13.91 20.48-.23 28.37c13.68 7.9 35.96 8 49.77.23 13.8-7.77 13.91-20.47.23-28.37z" opacity=".67"/><path fill="#3fa9bd" d="M184.78 184.07v-49.28c0-.23.02-.45.02-.68 0-22.91-18.57-41.48-41.48-41.48-22.91 0-41.48 18.57-41.48 41.48 0 .36.02.72.03 1.07v44.66h-.03v22.67a5.15 5.15 0 1 0 10.3 0v-.83c.56.36 1.13.72 1.74 1.07 1.83 1.06 3.79 1.99 5.85 2.81v8.2a5.15 5.15 0 1 0 10.3 0v-5.23c2.95.57 5.99.96 9.06 1.14v12.59a5.15 5.15 0 1 0 10.3 0v-12.7c3.39-.28 6.73-.8 9.93-1.55v6.36a5.15 5.15 0 1 0 10.3 0v-9.87c1-.47 1.97-.96 2.91-1.49.7-.39 1.35-.8 1.99-1.21v.71c0 2.84 2.3 5.15 5.15 5.15s5.15-2.31 5.15-5.15v-18.45h-.04z"/><radialGradient id="SVGID_00000058547582947393125650000012562238208633336231_" cx="168.002" cy="110.047" r="106.685" gradientUnits="userSpaceOnUse"><stop offset=".012" stop-color="#dd78ce"/><stop offset=".494" stop-color="#a7589a"/><stop offset=".583" stop-color="#a0619e"/><stop offset=".727" stop-color="#8e79a8"/><stop offset=".908" stop-color="#709fb9"/><stop offset="1" stop-color="#5eb6c3"/></radialGradient><path fill="url(#SVGID_00000058547582947393125650000012562238208633336231_)" d="M184.78 184.07v-49.28c0-.23.02-.45.02-.68 0-22.91-18.57-41.48-41.48-41.48-22.91 0-41.48 18.57-41.48 41.48 0 .36.02.72.03 1.07v44.66h-.03v22.67a5.15 5.15 0 1 0 10.3 0v-.83c.56.36 1.13.72 1.74 1.07 1.83 1.06 3.79 1.99 5.85 2.81v8.2a5.15 5.15 0 1 0 10.3 0v-5.23c2.95.57 5.99.96 9.06 1.14v12.59a5.15 5.15 0 1 0 10.3 0v-12.7c3.39-.28 6.73-.8 9.93-1.55v6.36a5.15 5.15 0 1 0 10.3 0v-9.87c1-.47 1.97-.96 2.91-1.49.7-.39 1.35-.8 1.99-1.21v.71c0 2.84 2.3 5.15 5.15 5.15s5.15-2.31 5.15-5.15v-18.45h-.04z"/><path id="矩形_00000007417107686637507580000014205103695477996929_" d="M105.73 170.22c1.12 0 2.09 1.38 2.09 2.99v14.25c0 1.61-.96 2.99-2.09 2.99-1.12 0-2.09-1.38-2.09-2.99v-14.25c0-1.61.97-2.99 2.09-2.99z" class="st74"/><path id="矩形_00000101809494190856234910000002345618731239334571_" d="M167.03 107.13c1.37-1.02 3.68-.37 5.02 1.41l2.29 3.06c1.34 1.78 1.31 4.19-.06 5.22-1.37 1.02-3.68.37-5.02-1.41l-2.29-3.06c-1.43-1.91-1.31-4.19.06-5.22z" class="st74"/><path id="矩形_00000161604928908795527600000008605890212235698820_" d="M123.13 206.81c1.12 0 2.09 1.38 2.09 2.99v2.76c0 1.61-.96 2.99-2.09 2.99-1.12 0-2.09-1.38-2.09-2.99v-2.76c0-1.72.96-2.99 2.09-2.99z" class="st74"/><path id="矩形_00000175321853410306879980000001170281700059483016_" d="M105.73 196.1c1.12 0 2.09 1.38 2.09 2.99v2.76c0 1.61-.96 2.99-2.09 2.99-1.12 0-2.09-1.38-2.09-2.99v-2.76c0-1.72.97-2.99 2.09-2.99z" class="st74"/><path id="矩形_00000145768048235864275040000012115126387051226515_" d="M143.32 215.55c1.12 0 2.09 1.38 2.09 2.99v2.76c0 1.61-.96 2.99-2.09 2.99-1.12 0-2.09-1.38-2.09-2.99v-2.76c0-1.72.96-2.99 2.09-2.99z" class="st74"/><path id="矩形_00000076565711984352682370000003144567158406498946_" d="M163.02 210.21c.89 0 1.66 1.1 1.66 2.37v2.19c0 1.28-.76 2.37-1.66 2.37-.89 0-1.66-1.1-1.66-2.37v-2.19c0-1.37.77-2.37 1.66-2.37z" class="st74"/><path id="椭圆形_00000155129080565217219960000011225319890852127894_" d="M155.19 156.59c4.06-.17 7.1-3.66 7.09-6 0-.94-.55-1.75-1.38-1.81-1.29-.13-3.23.7-5.72.8-2.31.1-3.78-.5-5.53-.42-1.84.08-1.75 2.22-1.47 3.06.65 2.3 2.86 4.54 7.01 4.37z" class="st78"/><path id="椭圆形_00000078025562520743858880000008416374861513232017_" d="M155.28 154.62c4.15-.17 7.19-3.38 7.19-5.63 0-.84-.55-1.57-1.38-1.63-1.29-.13-3.32.7-5.81.8-2.4.1-3.78-.5-5.62-.43-1.84.08-1.75 2.13-1.48 2.87.64 2.13 2.95 4.19 7.1 4.02z" class="st79"/><ellipse cx="138.24" cy="133.12" class="st79" rx="9.5" ry="9.1" transform="rotate(-55.453 138.244 133.12)"/><path id="形状结合_00000067234309611863648520000001352696298397152951_" d="M139.44 123.16c4.24-.18 7.66 3.98 7.66 9.22v1.12c0-5.33-3.33-9.59-7.48-9.42-4.15.17-7.46 4.61-7.46 10.04 0 1.03.09 2.05.37 2.98-.46-1.2-.74-2.59-.74-3.99 0-5.33 3.41-9.78 7.65-9.95z" class="st80"/><path id="形状结合_00000162341696767027055490000002275206768602789016_" d="M139.44 122.03c4.7-.2 8.58 4.41 8.58 10.31.01 5.89-3.86 10.83-8.57 11.02-4.7.2-8.58-4.41-8.58-10.31 0-5.89 3.78-10.82 8.57-11.02zm0 1.13c-4.24.18-7.65 4.62-7.64 9.86 0 5.24 3.42 9.4 7.66 9.22 4.24-.18 7.65-4.62 7.64-9.86 0-5.24-3.51-9.4-7.66-9.22z" class="st81"/><ellipse cx="168.96" cy="131.74" class="st79" rx="9.5" ry="9.1" transform="rotate(-55.453 168.96 131.739)"/><path id="形状结合_00000017505610530539898230000015726695416026389156_" d="M169.95 121.79c4.24-.18 7.66 3.98 7.66 9.22v1.12c0-5.33-3.33-9.59-7.48-9.42s-7.46 4.61-7.46 10.04c0 1.03.09 2.05.37 2.98-.46-1.2-.74-2.59-.74-3.99.01-5.33 3.41-9.78 7.65-9.95z" class="st80"/><path id="形状结合_00000021101072276550753200000011519581052717660332_" d="M169.95 120.66c4.7-.2 8.58 4.41 8.58 10.31.01 5.89-3.86 10.83-8.57 11.02s-8.58-4.41-8.58-10.31c0-5.89 3.78-10.82 8.57-11.02zm0 1.13c-4.24.18-7.65 4.62-7.64 9.86 0 5.24 3.42 9.4 7.66 9.22 4.24-.18 7.65-4.62 7.64-9.86 0-5.24-3.51-9.4-7.66-9.22z" class="st81"/><circle cx="143.22" cy="130.98" r="3.77" class="st78"/><circle cx="173.76" cy="129.86" r="3.77" class="st78"/></svg>