<svg xmlns="http://www.w3.org/2000/svg" xml:space="preserve" id="Слой_1" x="0" y="0" version="1.1" viewBox="0 0 290 574.88"><style>.st3{fill:#30345e}.st5{fill-rule:evenodd;clip-rule:evenodd;fill:#0d101d}.st5,.st6{stroke:#000;stroke-linecap:round;stroke-linejoin:round;stroke-miterlimit:10}.st17,.st6,.st7{fill-rule:evenodd;clip-rule:evenodd}.st7{fill:#30345e;stroke:#000;stroke-linecap:round;stroke-linejoin:round;stroke-miterlimit:10}.st17{fill:#40407c}.st53{fill:#30345e}.st53,.st74,.st78,.st79,.st80,.st81{fill-rule:evenodd;clip-rule:evenodd}.st74{opacity:.2563;fill:#fff;enable-background:new}.st78,.st79,.st80,.st81{fill:#555069}.st79,.st80,.st81{fill:#fff}.st80,.st81{fill:#afafb1}.st81{fill:#d3d3d3}</style><path d="m152.38 279.55-21.9-12.64v-21.9l21.9 12.64z" class="st6"/><path d="m152.38 279.55 21.9-12.64v-21.9l-21.9 12.64z" class="st5"/><path d="m152.46 257.72-21.98-12.69 21.82-12.71 21.98 12.69z" class="st7"/><path id="矩形_00000074429809742084874480000002671092822813040037_" d="M145.12 239.93c.43.24.36.72-.15 1.02l-4.54 2.69c-.51.3-1.32.35-1.75.11-.43-.24-.36-.72.15-1.02l4.54-2.69c.51-.3 1.32-.35 1.75-.11z" class="st17"/><path id="矩形_00000057861844136131035390000008842370943227631542_" d="M137.56 244.32c.43.24.36.72-.15 1.02l-.88.52c-.51.3-1.32.35-1.75.11-.43-.24-.36-.72.15-1.02l.88-.52c.54-.32 1.32-.35 1.75-.11z" class="st17"/><path id="矩形_00000171709193285721527400000014622135407749553332_" d="M199.43 231.56h0c.58-.42 1.59-.06 2.19.78l1.02 1.43c.6.84.61 1.91.03 2.33h0c-.58.42-1.59.06-2.19-.78l-1.02-1.43c-.64-.9-.61-1.92-.03-2.33z" class="st5"/><path d="m223.67 295.5-21.9-12.64v-21.9l21.9 12.64zM223.67 295.5l21.9-12.64v-21.9l-21.9 12.64z" class="st5"/><path d="m223.75 273.67-21.98-12.69 21.82-12.71 21.98 12.69z" class="st7"/><path id="矩形_00000119837517589275667280000004500461190526882237_" d="M216.41 255.31h0c.43.24.36.72-.15 1.02l-4.54 2.69c-.51.3-1.32.35-1.75.11h0c-.43-.24-.36-.72.15-1.02l4.54-2.69c.51-.3 1.32-.35 1.75-.11z" class="st5"/><path id="矩形_00000113313367439791237100000007586929020423460020_" d="M208.18 260.18h0c.43.24.36.72-.15 1.02l-.88.52c-.51.3-1.32.35-1.75.11h0c-.43-.24-.36-.72.15-1.02l.88-.52c.55-.33 1.32-.35 1.75-.11z" class="st5"/><path d="m151.2 308.1-21.9-12.64v-21.9l21.9 12.64z" class="st6"/><path d="m151.2 308.1 21.9-12.64v-21.9l-21.9 12.64z" class="st5"/><path d="m151.28 286.27-21.98-12.69 21.82-12.71 21.98 12.69z" class="st7"/><path id="矩形_00000108291993854735191880000009220003679593272758_" d="M143.94 268.48c.43.24.36.72-.15 1.02l-4.54 2.69c-.51.3-1.32.35-1.75.11-.43-.24-.36-.72.15-1.02l4.54-2.69c.51-.3 1.32-.35 1.75-.11z" class="st17"/><path id="矩形_00000152975957861064394030000018433102099329114029_" d="M136.38 272.88c.43.24.36.72-.15 1.02l-.88.52c-.51.3-1.32.35-1.75.11-.43-.24-.36-.72.15-1.02l.88-.52c.54-.33 1.31-.36 1.75-.11z" class="st17"/><path d="m215.97 265.13-21.9-12.65v-21.9l21.9 12.65zM215.97 265.13l21.9-12.65v-21.9l-21.9 12.65z" class="st5"/><path d="m216.05 243.3-21.98-12.69 21.82-12.72 21.98 12.69z" class="st7"/><path id="矩形_00000058553323764223514830000003490145920871739526_" d="M208.71 225.51h0c.43.24.36.72-.15 1.02l-4.54 2.69c-.51.3-1.32.35-1.75.11h0c-.43-.24-.36-.72.15-1.02l4.54-2.69c.51-.31 1.32-.36 1.75-.11z" class="st5"/><path id="矩形_00000007402712855919275420000002244523683204023717_" d="M201.14 229.9h0c.43.24.36.72-.15 1.02l-.88.52c-.51.3-1.32.35-1.75.11h0c-.43-.24-.36-.72.15-1.02l.88-.52c.55-.33 1.32-.35 1.75-.11z" class="st5"/><path d="m234.62 321.53-21.9-12.65v-21.9l21.9 12.65z" class="st6"/><path d="m234.62 321.53 21.9-12.65v-21.9l-21.9 12.65z" class="st5"/><path d="M234.7 299.69 212.72 287l21.82-12.71 21.98 12.69z" class="st7"/><path id="矩形_00000150803874836512844570000016570232933959825062_" d="M227.36 281.91h0c.43.24.36.72-.15 1.02l-4.54 2.69c-.51.3-1.32.35-1.75.11h0c-.43-.24-.36-.72.15-1.02l4.54-2.69c.51-.31 1.32-.36 1.75-.11z" class="st5"/><path id="矩形_00000019657312735284439320000001155125854875381134_" d="M219.79 286.3h0c.43.24.36.72-.15 1.02l-.88.52c-.51.3-1.32.35-1.75.11h0c-.43-.24-.36-.72.15-1.02l.88-.52c.55-.33 1.32-.36 1.75-.11z" class="st5"/><path d="m209.68 296.07-21.9-12.64v-21.9l21.9 12.64z" class="st6"/><path d="m209.68 296.07 21.9-12.64v-21.9l-21.9 12.64z" class="st5"/><path d="m209.76 274.24-21.98-12.69 21.82-12.71 21.98 12.69z" class="st7"/><path id="矩形_00000094592435499019916790000005185546963400270748_" d="M202.42 256.46h0c.43.24.36.72-.15 1.02l-4.54 2.69c-.51.3-1.32.35-1.75.11h0c-.43-.24-.36-.72.15-1.02l4.54-2.69c.51-.31 1.32-.36 1.75-.11z" class="st5"/><path id="矩形_00000044874006084009637080000017368748485768580746_" d="M194.85 260.85h0c.43.24.36.72-.15 1.02l-.88.52c-.51.3-1.32.35-1.75.11h0c-.43-.24-.36-.72.15-1.02l.88-.52c.55-.33 1.32-.36 1.75-.11z" class="st5"/><path d="m194.44 251.04-21.9-12.65v-21.9l21.9 12.65z" class="st6"/><path d="m194.44 251.04 21.9-12.65v-21.9l-21.9 12.65z" class="st5"/><path d="m194.52 229.2-21.98-12.69 21.83-12.71 21.98 12.69z" class="st7"/><path id="矩形_00000143588426642419264260000002873791457091888271_" d="M187.19 211.42h0c.43.24.36.72-.15 1.02l-4.54 2.69c-.51.3-1.32.35-1.75.11h0c-.43-.24-.36-.72.15-1.02l4.54-2.69c.51-.31 1.32-.36 1.75-.11z" class="st5"/><path id="矩形_00000103230515038816527500000008410248749794766240_" d="M179.62 215.81h0c.43.24.36.72-.15 1.02l-.88.52c-.51.3-1.32.35-1.75.11h0c-.43-.24-.36-.72.15-1.02l.88-.52c.55-.33 1.32-.36 1.75-.11z" class="st5"/><path d="m187.43 225.35-21.9-12.64v-21.9l21.9 12.64z" class="st6"/><path d="m187.43 225.35 21.9-12.64v-21.9l-21.9 12.64z" class="st5"/><path d="m187.51 203.52-21.98-12.69 21.82-12.71 21.98 12.69z" class="st7"/><path id="矩形_00000019662155001817463070000018337255576784740516_" d="M180.17 185.73c.43.24.36.72-.15 1.02l-4.54 2.69c-.51.3-1.32.35-1.75.11-.43-.24-.36-.72.15-1.02l4.54-2.69c.51-.3 1.32-.35 1.75-.11z" class="st17"/><path id="矩形_00000071530797266799779220000009289015623535716244_" d="M172.6 190.13c.43.24.36.72-.15 1.02l-.88.52c-.51.3-1.32.35-1.75.11-.43-.24-.36-.72.15-1.02l.88-.52c.55-.33 1.32-.36 1.75-.11z" class="st17"/><path id="矩形_00000000933548998852903250000016169523102504339119_" d="M182.91 255.84h0c.92-.65 2.5-.09 3.44 1.22l1.61 2.25c.94 1.31.96 3 .04 3.65h0c-.92.65-2.5.09-3.44-1.22l-1.61-2.25c-1-1.4-.96-2.99-.04-3.65z" class="st5"/><path d="m167.93 339.2-34.39-19.86v-34.39l34.39 19.86z" class="st6"/><path d="m167.93 339.2 34.4-19.86v-34.39l-34.4 19.86z" class="st5"/><path d="m168.06 304.91-34.52-19.93 34.27-19.96 34.52 19.93z" class="st7"/><path id="矩形_00000128460044982284752560000011374711108577257887_" d="M156.53 276.08c.68.38.56 1.12-.24 1.6l-7.14 4.22c-.81.48-2.08.56-2.75.17-.68-.38-.56-1.12.24-1.6l7.14-4.22c.81-.48 2.08-.56 2.75-.17z" class="st17"/><path id="矩形_00000013164963560768695520000003392376985704708264_" d="M143.61 283.73c.68.38.56 1.12-.24 1.6l-1.38.82c-.81.48-2.08.56-2.75.17-.68-.38-.56-1.12.24-1.6l1.38-.82c.86-.51 2.08-.56 2.75-.17z" class="st17"/><path d="M187.61 310.02v1.71c-.06.04-.36.24-.97.59-.51.29-.88.47-1.01.53v-1.71c-1.97 1.23-3.43 2.49-3.43 3.02 0 .52 1.47.13 3.43-.87.13-.06.49-.25 1-.54.64-.36.93-.55.98-.58 1.96-1.22 3.43-2.49 3.43-3.01s-1.47-.14-3.43.86z" class="st53"/><path d="m194.46 307.5-2.86-6.06c-.02-.04-.06-.05-.11-.03l-9.74 5.51a.25.25 0 0 0-.11.15l-2.86 9.3c-.02.07-.01.14.02.16l7.73 5.08c.05.03.12-.01.16-.09l7.73-13.84c.05-.06.06-.13.04-.18zm-6.85 5.08v4.9l-1.98 1.12v-4.9c-2.23 1.13-3.9 1.51-3.9.84s1.67-2.19 3.9-3.58v-1.53l-2.74 1.55v-2.33l7.46-4.22v2.33l-2.74 1.55v1.53c2.22-1.13 3.89-1.51 3.89-.84.01.68-1.67 2.19-3.89 3.58zM187.61 309.85z" class="st53"/><path d="m181.37 295.38-34.39-19.86v-34.4l34.39 19.86z" class="st6"/><path d="m181.37 295.38 34.4-19.86v-34.4l-34.4 19.86z" class="st5"/><path d="m181.5 261.09-34.52-19.93 34.27-19.97 34.52 19.93z" class="st7"/><path id="矩形_00000043448541530548057740000016906345255289543814_" d="M169.97 233.15c.68.38.56 1.12-.24 1.6l-7.14 4.22c-.81.48-2.08.56-2.75.17-.68-.38-.56-1.12.24-1.6l7.14-4.22c.81-.47 2.08-.55 2.75-.17z" class="st17"/><path id="矩形_00000132079447353184840480000002607363019218575530_" d="M158.09 240.05c.68.38.56 1.12-.24 1.6l-1.38.82c-.81.48-2.08.56-2.75.17-.68-.38-.56-1.12.24-1.6l1.38-.82c.86-.51 2.07-.55 2.75-.17z" class="st17"/><g id="Layer_2_00000149351348720023517500000012722676176538792853_"><g id="Layer_1-2_00000169524706651652865790000004092240227012539312_"><g id="Page-1_00000127020736293781695140000017177698553006155396_"><g id="wbtc_colour_00000169522097119543132590000016956421464544675478_"><path id="Shape_00000065058781101431473860000000187611922769663932_" d="m204.52 258.48-.44.84c2.19 1.98 2.19 6.88 0 11.29l.44.34c2.43-4.88 2.43-10.32 0-12.49v.02z" class="st3"/><path id="Shape-2_00000170257485063290297980000006068556312757078931_" d="M195.23 263.71c2.39-4.26 6.06-6.3 8.45-4.71l.44-.84c-2.64-1.78-6.7.48-9.34 5.2l.45.35z" class="st3"/><path id="Shape-3_00000039830430749088632610000017895205124637603519_" d="M194.81 275.78c-2.18-1.98-2.18-6.87 0-11.29l-.44-.34c-2.43 4.88-2.43 10.32 0 12.49l.44-.86z" class="st3"/><path id="Shape-4_00000052797169200412410770000011303173657676585362_" d="M203.67 271.39c-2.39 4.26-6.06 6.3-8.45 4.71l-.44.84c2.64 1.78 6.7-.48 9.34-5.2l-.45-.35z" class="st3"/><path id="Shape-5_00000117649112825934216230000004876335251495434161_" d="M202.24 264.02c-.09-1.18-.88-1.15-1.89-.72v-1.7l-.78.43v1.67c-.2.11-.41.23-.62.35v-1.67l-.77.43v1.71l-1.58.88v1.11s.57-.33.57-.32c.22-.15.41-.06.44.21v4.68c0 .1-.04.21-.09.31-.05.1-.13.17-.2.2.01.01-.57.32-.57.32l-.15 1.33 1.56-.87v1.74l.78-.43v-1.71l.62-.35v1.7l.78-.43v-1.72c1.31-.84 2.23-1.78 2.35-3.49.09-1.38-.37-1.71-1.12-1.53.45-.55.73-1.26.67-2.13zm-1.09 4.31c0 1.29-1.66 2.07-2.18 2.36v-2.29c.52-.29 2.18-1.42 2.18-.07zm-.36-3.03c0 1.18-1.38 1.81-1.82 2.05v-2.08c.43-.24 1.82-1.2 1.82.03z" class="st3"/><path id="Shape-6_00000163050873124574717280000007081311254416894095_" d="M199.44 278.31c-4.45 2.48-8.05-.33-8.05-6.28 0-5.94 3.61-12.77 8.05-15.25 4.45-2.48 8.05.33 8.05 6.27.01 5.96-3.6 12.78-8.05 15.26.01 0 .01 0 0 0zm0-20.68c-4.1 2.29-7.42 8.58-7.41 14.05 0 5.47 3.33 8.06 7.42 5.77 4.09-2.29 7.41-8.57 7.41-14.04.01-5.47-3.31-8.07-7.42-5.78.01 0 .01 0 0 0z" class="st3"/></g></g></g></g><path d="m135.89 208.57-93.07 54.22v-98.82l84.75-49.37c8.54-4.32 12.42-1.6 12.42 7.14v79.69a8.241 8.241 0 0 1-4.1 7.14z" class="st6"/><path d="m149.44 216.82-93.07 54.22v-98.82l84.75-49.37c8.54-4.32 12.42-1.6 12.42 7.14v79.69c0 2.94-1.56 5.66-4.1 7.14z" class="st7"/><path d="m56.37 271.04-13.55-8.13v-98.78l13.55 8.12z" class="st6"/><ellipse cx="137.47" cy="180.33" fill="#121421" fill-rule="evenodd" clip-rule="evenodd" rx="9.38" ry="5.12" transform="rotate(-65.437 137.464 180.326)"/><path id="矩形_00000003815607589243554020000013261222974872552117_" d="M148.57 390.03c.62 0 1.15.76 1.15 1.64v1.52c0 .88-.53 1.64-1.15 1.64-.62 0-1.15-.76-1.15-1.64v-1.52c0-.95.53-1.64 1.15-1.64z" class="st74"/><radialGradient id="SVGID_1_" cx="117.025" cy="424.155" r="29.158" gradientTransform="matrix(1 0 0 .5898 0 173.991)" gradientUnits="userSpaceOnUse"><stop offset="0"/><stop offset="1" stop-color="#0d101d" stop-opacity="0"/></radialGradient><path fill="url(#SVGID_1_)" d="M142.02 410.08c-13.68-7.9-35.96-8-49.77-.23s-13.91 20.48-.23 28.37c13.68 7.9 35.96 8 49.77.23s13.91-20.47.23-28.37z" opacity=".67"/><path fill="#3fa9bd" d="M155.53 374.05v-49.28c0-.23.02-.45.02-.68 0-22.91-18.57-41.48-41.48-41.48-22.91 0-41.48 18.57-41.48 41.48 0 .36.02.72.03 1.07v44.66h-.03v22.67a5.15 5.15 0 1 0 10.3 0v-.83c.56.36 1.13.72 1.74 1.07 1.83 1.06 3.79 1.99 5.85 2.81v8.2c0 2.84 2.3 5.15 5.15 5.15s5.15-2.31 5.15-5.15v-5.23c2.95.57 5.99.96 9.06 1.14v12.59a5.15 5.15 0 1 0 10.3 0v-12.7c3.39-.28 6.73-.8 9.93-1.55v6.36c0 2.84 2.3 5.15 5.15 5.15s5.15-2.31 5.15-5.15v-9.87c1-.47 1.97-.96 2.91-1.49.7-.39 1.35-.8 1.99-1.21v.71a5.15 5.15 0 1 0 10.3 0v-18.45h-.04z"/><radialGradient id="SVGID_00000016759047650780982580000001852405367933965211_" cx="138.748" cy="300.034" r="106.685" gradientUnits="userSpaceOnUse"><stop offset=".012" stop-color="#dd78ce"/><stop offset=".494" stop-color="#a7589a"/><stop offset=".583" stop-color="#a0619e"/><stop offset=".727" stop-color="#8e79a8"/><stop offset=".908" stop-color="#709fb9"/><stop offset="1" stop-color="#5eb6c3"/></radialGradient><path fill="url(#SVGID_00000016759047650780982580000001852405367933965211_)" d="M155.53 374.05v-49.28c0-.23.02-.45.02-.68 0-22.91-18.57-41.48-41.48-41.48-22.91 0-41.48 18.57-41.48 41.48 0 .36.02.72.03 1.07v44.66h-.03v22.67a5.15 5.15 0 1 0 10.3 0v-.83c.56.36 1.13.72 1.74 1.07 1.83 1.06 3.79 1.99 5.85 2.81v8.2c0 2.84 2.3 5.15 5.15 5.15s5.15-2.31 5.15-5.15v-5.23c2.95.57 5.99.96 9.06 1.14v12.59a5.15 5.15 0 1 0 10.3 0v-12.7c3.39-.28 6.73-.8 9.93-1.55v6.36c0 2.84 2.3 5.15 5.15 5.15s5.15-2.31 5.15-5.15v-9.87c1-.47 1.97-.96 2.91-1.49.7-.39 1.35-.8 1.99-1.21v.71a5.15 5.15 0 1 0 10.3 0v-18.45h-.04z"/><path id="矩形_00000171694894255067399250000009034742014192140694_" d="M76.47 360.21c1.12 0 2.09 1.38 2.09 2.99v14.25c0 1.61-.96 2.99-2.09 2.99-1.12 0-2.09-1.38-2.09-2.99V363.2c.01-1.61.97-2.99 2.09-2.99z" class="st74"/><path id="矩形_00000183247816928767321900000015061808167135862162_" d="M137.78 297.12c1.37-1.02 3.68-.37 5.02 1.41l2.29 3.06c1.34 1.78 1.31 4.19-.06 5.22-1.37 1.02-3.68.37-5.02-1.41l-2.29-3.06c-1.43-1.92-1.31-4.2.06-5.22z" class="st74"/><path id="矩形_00000136396410385586090130000002114204814497997240_" d="M93.87 396.8c1.12 0 2.09 1.38 2.09 2.99v2.76c0 1.61-.96 2.99-2.09 2.99-1.12 0-2.09-1.38-2.09-2.99v-2.76c.01-1.73.97-2.99 2.09-2.99z" class="st74"/><path id="矩形_00000135650782189384123610000017236745639232838303_" d="M76.23 386c1.12 0 2.09 1.38 2.09 2.99v2.76c0 1.61-.96 2.99-2.09 2.99-1.12 0-2.09-1.38-2.09-2.99v-2.76c0-1.73.96-2.99 2.09-2.99z" class="st74"/><path id="矩形_00000039092368458992106780000000645833254274049464_" d="M114.06 405.54c1.12 0 2.09 1.38 2.09 2.99v2.76c0 1.61-.96 2.99-2.09 2.99-1.12 0-2.09-1.38-2.09-2.99v-2.76c.01-1.73.97-2.99 2.09-2.99z" class="st74"/><path id="矩形_00000044138994540286054770000008343922041797945495_" d="M133.76 400.19c.89 0 1.66 1.1 1.66 2.37v2.19c0 1.28-.76 2.37-1.66 2.37-.89 0-1.66-1.1-1.66-2.37v-2.19c.01-1.36.77-2.37 1.66-2.37z" class="st74"/><path id="椭圆形_00000131361704513822836830000016022114457789136031_" d="M124.07 355.08c4.06-.17 7.1-3.66 7.09-6 0-.94-.55-1.75-1.38-1.81-1.29-.13-3.23.7-5.72.8-2.31.1-3.78-.5-5.53-.42-1.84.08-1.75 2.22-1.47 3.05.65 2.31 2.86 4.55 7.01 4.38z" class="st78"/><path id="椭圆形_00000128456352546275628570000013909899437292470701_" d="M124.16 353.11c4.15-.17 7.19-3.38 7.19-5.63 0-.84-.55-1.57-1.38-1.63-1.29-.13-3.32.7-5.81.8-2.4.1-3.78-.5-5.62-.43-1.84.08-1.75 2.13-1.48 2.87.65 2.13 2.95 4.19 7.1 4.02z" class="st79"/><ellipse cx="107.13" cy="331.61" class="st79" rx="9.5" ry="9.1" transform="rotate(-55.453 107.13 331.605)"/><path id="形状结合_00000155122769449738814970000007459829606100747163_" d="M108.32 321.65c4.24-.18 7.66 3.98 7.66 9.22v1.12c0-5.33-3.33-9.59-7.48-9.42-4.15.17-7.46 4.61-7.46 10.04 0 1.03.09 2.05.37 2.98-.46-1.2-.74-2.59-.74-3.99.01-5.33 3.41-9.78 7.65-9.95z" class="st80"/><path id="形状结合_00000088827138005424475060000017637778482518230936_" d="M108.32 320.52c4.7-.2 8.58 4.41 8.58 10.31s-3.86 10.83-8.57 11.02c-4.7.2-8.58-4.41-8.58-10.31 0-5.89 3.78-10.82 8.57-11.02zm0 1.13c-4.24.18-7.65 4.62-7.64 9.86 0 5.24 3.42 9.4 7.66 9.22 4.24-.18 7.65-4.62 7.64-9.86 0-5.24-3.51-9.4-7.66-9.22z" class="st81"/><ellipse cx="137.84" cy="330.23" class="st79" rx="9.5" ry="9.1" transform="rotate(-55.453 137.846 330.225)"/><path id="形状结合_00000041268273137469590620000004765197014587934901_" d="M138.84 320.27c4.24-.18 7.66 3.98 7.66 9.22v1.12c0-5.33-3.33-9.59-7.48-9.42-4.15.17-7.46 4.61-7.46 10.04 0 1.03.09 2.05.37 2.98-.46-1.2-.74-2.59-.74-3.99 0-5.32 3.41-9.77 7.65-9.95z" class="st80"/><path id="形状结合_00000008860574950884165590000011753648654087837860_" d="M138.84 319.15c4.7-.2 8.58 4.41 8.58 10.31.01 5.89-3.86 10.83-8.57 11.02-4.7.2-8.58-4.41-8.58-10.31s3.77-10.82 8.57-11.02zm0 1.12c-4.24.18-7.65 4.62-7.64 9.86 0 5.24 3.42 9.4 7.66 9.22 4.24-.18 7.65-4.62 7.64-9.86-.01-5.23-3.51-9.39-7.66-9.22z" class="st81"/><circle cx="107.13" cy="331.61" r="3.77" class="st78"/><circle cx="137.67" cy="330.48" r="3.77" class="st78"/><path d="m47.44 166.9 84.8-50 8.88 5.94-84.75 49.41z" class="st5"/><path d="m220.3 371.74-34.4-19.85v-34.4l34.4 19.86z" class="st6"/><path d="m220.3 371.74 34.39-19.85v-34.4l-34.39 19.86z" class="st5"/><path d="m220.42 337.46-34.52-19.93 34.28-19.97 34.51 19.93z" class="st7"/><path id="矩形_00000062176820489208126420000014446796841423610791_" d="M208.9 308.62c.68.38.56 1.12-.24 1.6l-7.14 4.22c-.81.48-2.08.56-2.75.17-.68-.38-.56-1.12.24-1.6l7.14-4.22c.8-.48 2.07-.56 2.75-.17z" class="st17"/><path id="矩形_00000013162173754037115520000006499575845244856974_" d="M195.98 316.27c.68.38.56 1.12-.24 1.6l-1.38.82c-.81.48-2.08.56-2.75.17-.68-.38-.56-1.12.24-1.6l1.38-.82c.86-.51 2.07-.56 2.75-.17z" class="st17"/><g id="Layer_x0020_1_00000025414759159716597830000013848664676837709234_"><g id="_1421394342400_00000024693168387509389740000011353865409224278668_"><path d="m202.19 333.94-.12.39v13.31l.12.21 5.42-.46z" class="st3"/><path d="m202.19 333.94-5.42 7.06 5.42 6.85v-6.46zM202.19 349.02l-.07.05v4.74l.07.26 5.42-5.51z" class="st3"/><path d="M202.19 354.07v-5.05l-5.42-6.85zM202.19 347.85l5.42-.46-5.42-6z" class="st3"/><path d="m196.77 341 5.42 6.85v-6.46z" class="st3"/></g></g></svg>