<svg xmlns="http://www.w3.org/2000/svg" xml:space="preserve" id="Слой_1" x="0" y="0" version="1.1" viewBox="0 0 290 269.62"><style>.st3{fill:#30345e}.st5{fill-rule:evenodd;clip-rule:evenodd;fill:#0d101d}.st5,.st6{stroke:#000;stroke-linecap:round;stroke-linejoin:round;stroke-miterlimit:10}.st17,.st53,.st6,.st7{fill-rule:evenodd;clip-rule:evenodd}.st7{fill:#30345e;stroke:#000;stroke-linecap:round;stroke-linejoin:round;stroke-miterlimit:10}.st17,.st53{fill:#40407c}.st53{fill:#30345e}.st74{opacity:.2563;enable-background:new}.st130,.st131,.st132,.st74,.st79{fill-rule:evenodd;clip-rule:evenodd;fill:#fff}.st130,.st131,.st132{fill:#545067}.st131,.st132{fill:#aeaeb0}.st132{fill:#d2d2d2}</style><path d="m175.36 128.21-21.9-12.65v-21.9l21.9 12.65z" class="st6"/><path d="m175.36 128.21 21.9-12.65v-21.9l-21.9 12.65z" class="st5"/><linearGradient id="SVGID_1_" x1="175.358" x2="197.258" y1="-4972.555" y2="-4972.555" gradientTransform="matrix(1 0 0 -1 0 -4861.63)" gradientUnits="userSpaceOnUse"><stop offset="0" stop-color="#de40cb"/><stop offset="1" stop-color="#3137e4"/></linearGradient><path fill="url(#SVGID_1_)" d="M196.52 94.94v20.19l-20.42 11.8v-20.2l20.42-11.79m.74-1.28-21.9 12.64v21.9l21.9-12.64v-21.9z"/><path d="m175.44 106.37-21.98-12.69 21.82-12.71 21.98 12.69z" class="st7"/><path id="矩形_00000148623313805129071540000007807996957795660682_" d="M168.1 88.59c.43.24.36.72-.15 1.02l-4.54 2.69c-.51.3-1.32.35-1.75.11-.43-.24-.36-.72.15-1.02l4.54-2.69c.51-.31 1.32-.36 1.75-.11z" class="st17"/><path id="矩形_00000118383254599036983700000000543607972685688218_" d="M160.53 92.98c.43.24.36.72-.15 1.02l-.88.52c-.51.3-1.32.35-1.75.11-.43-.24-.36-.72.15-1.02l.88-.52c.55-.33 1.32-.36 1.75-.11z" class="st17"/><path id="矩形_00000172426292579953570200000006099085767994963896_" d="M222.41 80.21h0c.58-.42 1.59-.06 2.19.78l1.02 1.43c.6.84.61 1.91.03 2.33h0c-.58.42-1.59.06-2.19-.78l-1.02-1.43c-.65-.9-.62-1.91-.03-2.33z" class="st5"/><path d="m246.65 144.16-21.9-12.64v-21.9l21.9 12.64z" class="st5"/><linearGradient id="SVGID_00000148631886374637325710000011823828700688134828_" x1="224.748" x2="246.648" y1="-4988.515" y2="-4988.515" gradientTransform="matrix(1 0 0 -1 0 -4861.63)" gradientUnits="userSpaceOnUse"><stop offset="0" stop-color="#de40cb"/><stop offset="1" stop-color="#3137e4"/></linearGradient><path fill="url(#SVGID_00000148631886374637325710000011823828700688134828_)" d="m225.48 110.89 20.42 11.79v20.19l-20.42-11.79v-20.19m-.73-1.27v21.9l21.9 12.64v-21.9l-21.9-12.64z"/><path d="m246.65 144.16 21.89-12.64v-21.9l-21.89 12.64z" class="st5"/><path d="m246.73 122.33-21.98-12.69 21.82-12.72 21.98 12.69z" class="st7"/><path id="矩形_00000078746474933635943310000006488400228940387215_" d="M239.39 103.97h0c.43.24.36.72-.15 1.02l-4.54 2.69c-.51.3-1.32.35-1.75.11h0c-.43-.24-.36-.72.15-1.02l4.54-2.69c.51-.31 1.32-.36 1.75-.11z" class="st5"/><path id="矩形_00000034052103442070673650000000955420715301935273_" d="M231.16 108.84h0c.43.24.36.72-.15 1.02l-.88.52c-.51.3-1.32.35-1.75.11h0c-.43-.24-.36-.72.15-1.02l.88-.52c.55-.33 1.32-.36 1.75-.11z" class="st5"/><path d="m174.18 156.76-21.9-12.65v-21.9l21.9 12.65zM174.18 156.76l21.9-12.65v-21.9l-21.9 12.65z" class="st5"/><linearGradient id="SVGID_00000018213219028686847810000010016871923158723976_" x1="174.178" x2="196.078" y1="-5001.105" y2="-5001.105" gradientTransform="matrix(1 0 0 -1 0 -4861.63)" gradientUnits="userSpaceOnUse"><stop offset="0" stop-color="#de40cb"/><stop offset="1" stop-color="#3137e4"/></linearGradient><path fill="url(#SVGID_00000018213219028686847810000010016871923158723976_)" d="M195.34 123.49v20.19l-20.42 11.79v-20.19l20.42-11.79m.74-1.28-21.9 12.64v21.9l21.9-12.64v-21.9z"/><path d="m174.26 134.92-21.98-12.68 21.82-12.72 21.98 12.69z" class="st7"/><path id="矩形_00000037650785007930572000000012779279190776651199_" d="M166.92 117.14h0c.43.24.36.72-.15 1.02l-4.54 2.69c-.51.3-1.32.35-1.75.11h0c-.43-.24-.36-.72.15-1.02l4.54-2.69c.51-.31 1.32-.36 1.75-.11z" class="st5"/><path id="矩形_00000078761642528680542380000001461960331606722719_" d="M159.35 121.53h0c.43.24.36.72-.15 1.02l-.88.52c-.51.3-1.32.35-1.75.11h0c-.43-.24-.36-.72.15-1.02l.88-.52c.55-.33 1.32-.35 1.75-.11z" class="st5"/><path d="m238.94 113.78-21.9-12.64v-21.9l21.9 12.64z" class="st5"/><linearGradient id="SVGID_00000087406116761863759690000003768314793493272230_" x1="217.038" x2="238.938" y1="-4958.135" y2="-4958.135" gradientTransform="matrix(1 0 0 -1 0 -4861.63)" gradientUnits="userSpaceOnUse"><stop offset="0" stop-color="#de40cb"/><stop offset="1" stop-color="#3137e4"/></linearGradient><path fill="url(#SVGID_00000087406116761863759690000003768314793493272230_)" d="m217.78 80.52 20.42 11.79v20.19l-20.42-11.79V80.52m-.74-1.28v21.9l21.9 12.64v-21.9l-21.9-12.64z"/><path d="m238.94 113.78 21.9-12.64v-21.9l-21.9 12.64z" class="st5"/><path d="m239.02 91.95-21.98-12.69 21.82-12.71 21.98 12.69z" class="st7"/><path id="矩形_00000069361033736915773900000005031093674425097095_" d="M231.68 74.16h0c.43.24.36.72-.15 1.02l-4.54 2.69c-.51.3-1.32.35-1.75.11h0c-.43-.24-.36-.72.15-1.02l4.54-2.69c.51-.3 1.32-.35 1.75-.11z" class="st5"/><path id="矩形_00000006683367174722169930000014713480140337575829_" d="M224.12 78.56h0c.43.24.36.72-.15 1.02l-.88.52c-.51.3-1.32.35-1.75.11h0c-.43-.24-.36-.72.15-1.02l.88-.52c.54-.33 1.32-.36 1.75-.11z" class="st5"/><path d="m257.59 170.18-21.9-12.64v-21.9l21.9 12.64z" class="st6"/><path d="m257.59 170.18 21.9-12.64v-21.9l-21.9 12.64z" class="st5"/><path d="m257.67 148.35-21.98-12.69 21.83-12.71 21.98 12.68z" class="st7"/><path id="矩形_00000031888461265566228590000014095895372491705246_" d="M250.34 130.56h0c.43.24.36.72-.15 1.02l-4.54 2.69c-.51.3-1.32.35-1.75.11h0c-.43-.24-.36-.72.15-1.02l4.54-2.69c.51-.3 1.32-.35 1.75-.11z" class="st5"/><path id="矩形_00000146482413366987904990000016930185588983010990_" d="M242.77 134.95h0c.43.24.36.72-.15 1.02l-.88.52c-.51.3-1.32.35-1.75.11h0c-.43-.24-.36-.72.15-1.02l.88-.52c.55-.32 1.32-.35 1.75-.11z" class="st5"/><path d="m232.65 144.73-21.9-12.64v-21.9l21.9 12.64z" class="st6"/><path d="m232.65 144.73 21.9-12.64v-21.9l-21.9 12.64z" class="st5"/><path d="m232.73 122.9-21.98-12.69 21.83-12.72 21.97 12.69z" class="st7"/><path id="矩形_00000026867665860181870300000012061862892588957628_" d="M225.39 105.11h0c.43.24.36.72-.15 1.02l-4.54 2.69c-.51.3-1.32.35-1.75.11h0c-.43-.24-.36-.72.15-1.02l4.54-2.69c.52-.3 1.32-.35 1.75-.11z" class="st5"/><path id="矩形_00000093886902960681685480000002336860987494706051_" d="M217.83 109.5h0c.43.24.36.72-.15 1.02l-.88.52c-.51.3-1.32.35-1.75.11h0c-.43-.24-.36-.72.15-1.02l.88-.52c.54-.32 1.32-.35 1.75-.11z" class="st5"/><path d="m217.42 99.69-21.9-12.64v-21.9l21.9 12.64z" class="st6"/><path d="m217.42 99.69 21.9-12.64v-21.9l-21.9 12.64z" class="st5"/><path d="m217.5 77.86-21.98-12.69 21.82-12.71 21.98 12.68z" class="st7"/><path id="矩形_00000180356288007304960820000004729412807136236699_" d="M210.16 60.07h0c.43.24.36.72-.15 1.02l-4.54 2.69c-.51.3-1.32.35-1.75.11h0c-.43-.24-.36-.72.15-1.02l4.54-2.69c.51-.3 1.32-.35 1.75-.11z" class="st5"/><path id="矩形_00000142887255132434147450000006931573802100280970_" d="M202.59 64.46h0c.43.24.36.72-.15 1.02l-.88.52c-.51.3-1.32.35-1.75.11h0c-.43-.24-.36-.72.15-1.02l.88-.52c.55-.32 1.32-.35 1.75-.11z" class="st5"/><path d="m210.41 74.01-21.9-12.65V39.47l21.9 12.64z" class="st6"/><path d="m210.41 74.01 21.89-12.65V39.47l-21.89 12.64z" class="st5"/><path d="m210.49 52.18-21.98-12.69 21.82-12.72 21.98 12.69z" class="st7"/><path id="矩形_00000049932566688582992770000008406498107719781800_" d="M203.15 34.39c.43.24.36.72-.15 1.02l-4.54 2.69c-.51.3-1.32.35-1.75.11-.43-.24-.36-.72.15-1.02l4.54-2.69c.51-.3 1.32-.36 1.75-.11z" class="st17"/><path id="矩形_00000072251151674518024490000005423164561701977242_" d="M195.58 38.78c.43.24.36.72-.15 1.02l-.88.52c-.51.3-1.32.35-1.75.11-.43-.24-.36-.72.15-1.02l.88-.52c.55-.32 1.32-.35 1.75-.11z" class="st17"/><path id="矩形_00000092444985759491655410000001619075072154429838_" d="M205.89 104.5h0c.92-.65 2.5-.09 3.44 1.22l1.61 2.25c.94 1.31.96 3 .04 3.65h0c-.92.65-2.5.09-3.44-1.22l-1.61-2.25c-1.01-1.41-.96-3-.04-3.65z" class="st5"/><path d="M190.91 187.86 156.52 168v-34.4l34.39 19.86z" class="st6"/><path d="M190.91 187.86 225.3 168v-34.4l-34.39 19.86z" class="st5"/><path d="m191.03 153.57-34.51-19.93 34.27-19.97 34.52 19.93z" class="st7"/><path id="矩形_00000005947241955890264000000015274529504360588419_" d="M179.51 124.73h0c.68.38.56 1.12-.24 1.6l-7.14 4.22c-.81.48-2.08.56-2.75.17h0c-.68-.38-.56-1.12.24-1.6l7.14-4.22c.8-.47 2.07-.55 2.75-.17z" class="st5"/><path id="矩形_00000165932070018221714440000010251829299095301546_" d="M166.59 132.38h0c.68.38.56 1.12-.24 1.6l-1.38.82c-.81.48-2.08.56-2.75.17h0c-.68-.38-.56-1.12.24-1.6l1.38-.82c.86-.51 2.07-.55 2.75-.17z" class="st5"/><path d="M210.59 158.68v1.71c-.06.04-.36.24-.97.59-.51.29-.88.47-1.01.53v-1.71c-1.97 1.23-3.43 2.49-3.43 3.02s1.47.13 3.43-.87c.13-.06.49-.25 1-.54.64-.36.93-.55.98-.58 1.96-1.22 3.43-2.49 3.43-3.01s-1.47-.14-3.43.86z" class="st53"/><path d="m217.44 156.16-2.86-6.06c-.02-.04-.06-.05-.11-.03l-9.74 5.51a.25.25 0 0 0-.11.15l-2.86 9.3c-.02.07-.01.14.02.16l7.73 5.08c.05.03.12-.01.16-.09l7.73-13.84c.05-.06.06-.14.04-.18zm-6.85 5.08v4.9l-1.98 1.12v-4.9c-2.23 1.13-3.9 1.51-3.9.84s1.67-2.19 3.9-3.58v-1.53l-2.74 1.55v-2.33l7.46-4.22v2.33l-2.74 1.55v1.53c2.22-1.13 3.89-1.51 3.89-.84 0 .68-1.67 2.19-3.89 3.58z" class="st53"/><path d="m204.35 144.03-34.39-19.86V89.78l34.39 19.86z" class="st6"/><path d="m204.35 144.03 34.39-19.86V89.78l-34.39 19.86z" class="st5"/><path d="m204.47 109.74-34.51-19.93 34.27-19.96 34.52 19.93z" class="st7"/><path id="矩形_00000026161721441682241300000018248590518573428102_" d="M192.95 81.81c.68.38.56 1.12-.24 1.6l-7.14 4.22c-.81.48-2.08.56-2.75.17-.68-.38-.56-1.12.24-1.6l7.14-4.22c.8-.48 2.07-.56 2.75-.17z" class="st17"/><path id="矩形_00000176023803833714054170000008867858770629861815_" d="M181.06 88.71c.68.38.56 1.12-.24 1.6l-1.38.82c-.81.48-2.08.56-2.75.17-.68-.38-.56-1.12.24-1.6l1.38-.82c.87-.51 2.08-.56 2.75-.17z" class="st17"/><g id="Layer_2_00000084496246384721177180000002169298202784089479_"><g id="Layer_1-2_00000021841144106814293420000008240498963940336544_"><g id="Page-1_00000137091898446777023290000000336784721674663586_"><g id="wbtc_colour_00000159435701711634348250000002008622591444957576_"><path id="Shape_00000103980657995546986290000005810453347689381520_" d="m227.5 107.13-.44.84c2.19 1.98 2.19 6.88 0 11.29l.44.34c2.43-4.88 2.43-10.32 0-12.49v.02z" class="st3"/><path id="Shape-2_00000129903232723516385670000010187999523497584315_" d="M218.2 112.36c2.39-4.26 6.06-6.3 8.45-4.71l.44-.84c-2.64-1.78-6.7.48-9.34 5.2l.45.35z" class="st3"/><path id="Shape-3_00000000194945493035371980000000525141177645470375_" d="M217.79 124.43c-2.18-1.98-2.18-6.87 0-11.29l-.44-.34c-2.43 4.88-2.43 10.32 0 12.49l.44-.86z" class="st3"/><path id="Shape-4_00000116917652406591591370000009775842508424926597_" d="M226.65 120.04c-2.39 4.26-6.06 6.3-8.45 4.71l-.44.84c2.64 1.78 6.7-.48 9.34-5.2l-.45-.35z" class="st3"/><path id="Shape-5_00000137823128162404731280000013171361786358305169_" d="M225.21 112.68c-.09-1.18-.88-1.15-1.89-.72v-1.7l-.78.43v1.67c-.2.11-.41.23-.62.35v-1.67l-.77.43v1.71l-1.58.88v1.11s.57-.33.57-.32c.22-.15.41-.06.44.21v4.68c0 .1-.04.21-.09.31s-.13.17-.2.2c.01.01-.57.32-.57.32l-.15 1.33 1.56-.87v1.74l.78-.43v-1.71l.62-.35v1.7l.78-.43v-1.72c1.31-.84 2.23-1.78 2.35-3.49.09-1.38-.37-1.71-1.12-1.53.46-.56.74-1.26.67-2.13zm-1.09 4.31c0 1.29-1.66 2.07-2.18 2.36v-2.29c.53-.3 2.18-1.42 2.18-.07zm-.36-3.03c0 1.18-1.38 1.81-1.82 2.05v-2.08c.44-.25 1.82-1.2 1.82.03z" class="st3"/><path id="Shape-6_00000136389258416826123460000017857293604995505054_" d="M222.42 126.97c-4.45 2.48-8.05-.33-8.05-6.28 0-5.94 3.61-12.77 8.05-15.25 4.45-2.48 8.05.33 8.05 6.27 0 5.95-3.6 12.78-8.05 15.26zm0-20.69c-4.1 2.29-7.42 8.58-7.41 14.05 0 5.47 3.33 8.06 7.42 5.77s7.41-8.57 7.41-14.04c.01-5.47-3.31-8.06-7.42-5.78.01 0 0 0 0 0z" class="st3"/></g></g></g></g><path d="m108.13 112.4-93.07 54.22V67.8l84.75-49.37c8.54-4.32 12.42-1.6 12.42 7.14v79.69c0 2.94-1.56 5.66-4.1 7.14z" class="st6"/><path d="M121.67 120.65 28.6 174.87V76.05l84.75-49.37c8.54-4.32 12.42-1.6 12.42 7.14v79.69a8.241 8.241 0 0 1-4.1 7.14z" class="st7"/><path d="m28.6 174.87-13.54-8.12V67.96l13.54 8.13z" class="st6"/><ellipse cx="109.7" cy="84.15" fill="#121421" fill-rule="evenodd" clip-rule="evenodd" rx="9.38" ry="5.12" transform="rotate(-65.437 109.701 84.152)"/><path d="m19.68 70.73 84.8-49.99 8.87 5.94L28.6 76.09z" class="st5"/><path id="矩形_00000183238061735208863580000003521296721235984821_" d="M171.54 207.27c.62 0 1.15.76 1.15 1.64v1.52c0 .88-.53 1.64-1.15 1.64-.62 0-1.15-.76-1.15-1.64v-1.52c.01-.95.54-1.64 1.15-1.64z" class="st74"/><radialGradient id="SVGID_00000111891064163986624420000011097399438035070606_" cx="139.998" cy="-7091.962" r="29.155" gradientTransform="matrix(1 0 0 -.5898 0 -3941.453)" gradientUnits="userSpaceOnUse"><stop offset="0"/><stop offset="1" stop-color="#0d101d" stop-opacity="0"/></radialGradient><path fill="url(#SVGID_00000111891064163986624420000011097399438035070606_)" d="M165 227.32c-13.68-7.9-35.96-8-49.77-.23s-13.91 20.48-.23 28.37c13.68 7.9 35.96 8 49.77.23 13.81-7.77 13.91-20.47.23-28.37z" opacity=".67"/><path fill="#5ea6b9" d="M178.5 191.29v-49.28c0-.23.02-.45.02-.68 0-22.91-18.57-41.48-41.48-41.48s-41.48 18.57-41.48 41.48c0 .36.02.72.03 1.07v44.66h-.03v22.67a5.15 5.15 0 1 0 10.3 0v-.83c.56.36 1.13.72 1.74 1.07 1.83 1.06 3.79 1.99 5.85 2.81v8.2c0 2.84 2.3 5.15 5.15 5.15s5.15-2.31 5.15-5.15v-5.23c2.95.57 5.99.96 9.06 1.14v12.59a5.15 5.15 0 1 0 10.3 0v-12.7c3.39-.28 6.73-.8 9.93-1.55v6.36a5.15 5.15 0 1 0 10.3 0v-9.87c1-.47 1.97-.96 2.91-1.49.7-.39 1.35-.8 1.99-1.21v.71c0 2.84 2.3 5.15 5.15 5.15s5.15-2.31 5.15-5.15v-18.45l-.04.01z"/><radialGradient id="SVGID_00000084507876415635268790000016655210880664916355_" cx="161.723" cy="-4978.898" r="106.685" gradientTransform="matrix(1 0 0 -1 0 -4861.63)" gradientUnits="userSpaceOnUse"><stop offset=".012" stop-color="#cf7dc9"/><stop offset=".494" stop-color="#9c5c96"/><stop offset=".583" stop-color="#96649a"/><stop offset=".727" stop-color="#8a7aa4"/><stop offset=".908" stop-color="#7a9db5"/><stop offset="1" stop-color="#74b3c0"/></radialGradient><path fill="url(#SVGID_00000084507876415635268790000016655210880664916355_)" d="M178.5 191.29v-49.28c0-.23.02-.45.02-.68 0-22.91-18.57-41.48-41.48-41.48s-41.48 18.57-41.48 41.48c0 .36.02.72.03 1.07v44.66h-.03v22.67a5.15 5.15 0 1 0 10.3 0v-.83c.56.36 1.13.72 1.74 1.07 1.83 1.06 3.79 1.99 5.85 2.81v8.2c0 2.84 2.3 5.15 5.15 5.15s5.15-2.31 5.15-5.15v-5.23c2.95.57 5.99.96 9.06 1.14v12.59a5.15 5.15 0 1 0 10.3 0v-12.7c3.39-.28 6.73-.8 9.93-1.55v6.36a5.15 5.15 0 1 0 10.3 0v-9.87c1-.47 1.97-.96 2.91-1.49.7-.39 1.35-.8 1.99-1.21v.71c0 2.84 2.3 5.15 5.15 5.15s5.15-2.31 5.15-5.15v-18.45l-.04.01z"/><path id="矩形_00000010996289430403931590000016246259695407211442_" d="M99.45 177.45c1.12 0 2.09 1.38 2.09 2.99v14.25c0 1.61-.96 2.99-2.09 2.99-1.12 0-2.09-1.38-2.09-2.99v-14.25c.01-1.61.97-2.99 2.09-2.99z" class="st74"/><path id="矩形_00000179635957371172241150000018433802154186715531_" d="M160.75 114.36c1.37-1.02 3.68-.37 5.02 1.41l2.29 3.06c1.34 1.78 1.31 4.19-.06 5.22-1.37 1.02-3.68.37-5.02-1.41l-2.29-3.06c-1.43-1.92-1.3-4.2.06-5.22z" class="st74"/><path id="矩形_00000014635436879287004890000002883993650454765727_" d="M116.85 214.04c1.12 0 2.09 1.38 2.09 2.99v2.76c0 1.61-.96 2.99-2.09 2.99-1.12 0-2.09-1.38-2.09-2.99v-2.76c0-1.73.97-2.99 2.09-2.99z" class="st74"/><path id="矩形_00000012461150525925807440000013666773816624626874_" d="M99.2 203.24c1.12 0 2.09 1.38 2.09 2.99v2.76c0 1.61-.96 2.99-2.09 2.99-1.12 0-2.09-1.38-2.09-2.99v-2.76c.01-1.73.97-2.99 2.09-2.99z" class="st74"/><path id="矩形_00000058591326225360406320000015420240568444972417_" d="M137.04 222.78c1.12 0 2.09 1.38 2.09 2.99v2.76c0 1.61-.96 2.99-2.09 2.99-1.12 0-2.09-1.38-2.09-2.99v-2.76c0-1.73.97-2.99 2.09-2.99z" class="st74"/><path id="矩形_00000023977176486743112070000003382371161999630489_" d="M156.74 217.43c.89 0 1.66 1.1 1.66 2.37v2.19c0 1.28-.76 2.37-1.66 2.37-.89 0-1.66-1.1-1.66-2.37v-2.19c0-1.36.77-2.37 1.66-2.37z" class="st74"/><path id="椭圆形_00000171697560968318489470000006466776752005700011_" d="M147.05 172.32c4.06-.17 7.1-3.66 7.09-6 0-.94-.55-1.75-1.38-1.81-1.29-.13-3.23.7-5.72.8-2.31.1-3.78-.5-5.53-.42-1.84.08-1.75 2.22-1.47 3.06.65 2.29 2.86 4.54 7.01 4.37z" class="st130"/><path id="椭圆形_00000124130033010786155540000010180999742264841856_" d="M147.14 170.35c4.15-.17 7.19-3.38 7.19-5.63 0-.84-.55-1.57-1.38-1.63-1.29-.13-3.32.7-5.81.8-2.4.1-3.78-.5-5.62-.43s-1.75 2.13-1.48 2.87c.64 2.13 2.95 4.19 7.1 4.02z" class="st79"/><ellipse cx="130.11" cy="148.85" class="st79" rx="9.5" ry="9.1" transform="rotate(-55.453 130.103 148.846)"/><path id="形状结合_00000179634114676343657300000006906802966940264338_" d="M131.3 138.88c4.24-.18 7.66 3.98 7.66 9.22v1.12c0-5.33-3.33-9.59-7.48-9.42s-7.46 4.61-7.46 10.04c0 1.03.09 2.05.37 2.98-.46-1.2-.74-2.59-.74-3.99 0-5.32 3.41-9.77 7.65-9.95z" class="st131"/><path id="形状结合_00000008846327353721607020000015805202501947049892_" d="M131.3 137.76c4.7-.2 8.58 4.41 8.58 10.31s-3.86 10.83-8.57 11.02c-4.7.2-8.58-4.41-8.58-10.31 0-5.89 3.78-10.82 8.57-11.02zm0 1.12c-4.24.18-7.65 4.62-7.64 9.86 0 5.24 3.42 9.4 7.66 9.22s7.65-4.62 7.64-9.86c0-5.23-3.51-9.39-7.66-9.22z" class="st132"/><ellipse cx="160.83" cy="147.47" class="st79" rx="9.5" ry="9.1" transform="rotate(-55.453 160.822 147.463)"/><path id="形状结合_00000041294428208011629170000002338251994008067510_" d="M161.81 137.51c4.24-.18 7.66 3.98 7.66 9.22v1.12c0-5.33-3.33-9.59-7.48-9.42s-7.46 4.61-7.46 10.04c0 1.03.09 2.05.37 2.98-.46-1.2-.74-2.59-.74-3.99 0-5.33 3.41-9.77 7.65-9.95z" class="st131"/><path id="形状结合_00000069372544864055136930000001284274576715800752_" d="M161.81 136.39c4.7-.2 8.58 4.41 8.58 10.31.01 5.89-3.86 10.83-8.57 11.02-4.7.2-8.58-4.41-8.58-10.31s3.78-10.82 8.57-11.02zm0 1.12c-4.24.18-7.65 4.62-7.64 9.86 0 5.24 3.42 9.4 7.66 9.22s7.65-4.62 7.64-9.86c0-5.23-3.51-9.39-7.66-9.22z" class="st132"/><circle cx="130.49" cy="148.85" r="3.77" class="st130"/><circle cx="161.03" cy="147.72" r="3.77" class="st130"/><path d="m239.67 230.38-34.39-19.85v-34.4l34.39 19.86z" class="st6"/><path d="m239.67 230.38 34.39-19.85v-34.4l-34.39 19.86z" class="st5"/><path d="m239.79 196.1-34.51-19.93 34.27-19.97 34.52 19.93z" class="st7"/><path id="矩形_00000080886331881788784150000006068158316813717161_" d="M228.27 167.26c.68.38.56 1.12-.24 1.6l-7.14 4.22c-.81.48-2.08.56-2.75.17-.68-.38-.56-1.12.24-1.6l7.14-4.22c.8-.48 2.07-.55 2.75-.17z" class="st17"/><path id="矩形_00000168080537461685925120000007387547364077961356_" d="M215.35 174.91c.68.38.56 1.12-.24 1.6l-1.38.82c-.81.48-2.08.56-2.75.17-.68-.38-.56-1.12.24-1.6l1.38-.82c.86-.51 2.07-.56 2.75-.17z" class="st17"/><g id="Layer_x0020_1_00000104676643499027378670000006912667322220952737_"><g id="_1421394342400_00000144313903482404529240000005982761123721496705_"><path d="m221.56 192.58-.12.39v13.31l.12.21 5.42-.46z" class="st3"/><path d="m221.56 192.58-5.42 7.06 5.42 6.85v-6.46zM221.56 207.66l-.07.05v4.74l.07.26 5.42-5.51z" class="st3"/><path d="M221.56 212.71v-5.05l-5.42-6.85zM221.56 206.49l5.42-.46-5.42-6zM216.14 199.64l5.42 6.85v-6.46z" class="st3"/></g></g></svg>