<svg xmlns="http://www.w3.org/2000/svg" xml:space="preserve" id="Слой_1" x="0" y="0" version="1.1" viewBox="0 0 290 574.88"><style>.st3{fill:#30345e}.st5{fill-rule:evenodd;clip-rule:evenodd;fill:#0d101d}.st5,.st6{stroke:#000;stroke-linecap:round;stroke-linejoin:round;stroke-miterlimit:10}.st17,.st6,.st7{fill-rule:evenodd;clip-rule:evenodd}.st7{fill:#30345e;stroke:#000;stroke-linecap:round;stroke-linejoin:round;stroke-miterlimit:10}.st17{fill:#40407c}.st53{fill:#30345e}.st53,.st74,.st78,.st79,.st80,.st81{fill-rule:evenodd;clip-rule:evenodd}.st74{opacity:.2563;fill:#fff;enable-background:new}.st78,.st79,.st80,.st81{fill:#555069}.st79,.st80,.st81{fill:#fff}.st80,.st81{fill:#afafb1}.st81{fill:#d3d3d3}</style><path d="m152.16 279.55-21.9-12.64v-21.9l21.9 12.64z" class="st6"/><path d="m152.16 279.55 21.9-12.64v-21.9l-21.9 12.64z" class="st5"/><path d="m152.24 257.72-21.98-12.69 21.82-12.71 21.98 12.69z" class="st7"/><path id="矩形_00000032629608643589246760000011313044689763369386_" d="M144.9 239.93c.43.24.36.72-.15 1.02l-4.54 2.69c-.51.3-1.32.35-1.75.11-.43-.24-.36-.72.15-1.02l4.54-2.69c.51-.3 1.32-.35 1.75-.11z" class="st17"/><path id="矩形_00000013889800913030314600000010854794274542956703_" d="M137.33 244.32c.43.24.36.72-.15 1.02l-.88.52c-.51.3-1.32.35-1.75.11-.43-.24-.36-.72.15-1.02l.88-.52c.55-.32 1.32-.35 1.75-.11z" class="st17"/><path id="矩形_00000050660705482965576450000018437746357502161819_" d="M199.2 231.56h0c.58-.42 1.59-.06 2.19.78l1.02 1.43c.6.84.61 1.91.03 2.33h0c-.58.42-1.59.06-2.19-.78l-1.02-1.43c-.64-.9-.61-1.92-.03-2.33z" class="st5"/><path d="m223.44 295.5-21.9-12.64v-21.9l21.9 12.64zM223.44 295.5l21.9-12.64v-21.9l-21.9 12.64z" class="st5"/><path d="m223.52 273.67-21.98-12.69 21.83-12.71 21.97 12.69z" class="st7"/><path id="矩形_00000004535655134323430460000006526713944802646694_" d="M216.19 255.31h0c.43.24.36.72-.15 1.02l-4.54 2.69c-.51.3-1.32.35-1.75.11h0c-.43-.24-.36-.72.15-1.02l4.54-2.69c.51-.3 1.31-.35 1.75-.11z" class="st5"/><path id="矩形_00000034050358122367815340000014145316364207842478_" d="M207.96 260.18h0c.43.24.36.72-.15 1.02l-.88.52c-.51.3-1.32.35-1.75.11h0c-.43-.24-.36-.72.15-1.02l.88-.52c.54-.33 1.32-.35 1.75-.11z" class="st5"/><path d="m150.98 308.1-21.9-12.64v-21.9l21.9 12.64z" class="st6"/><path d="m150.98 308.1 21.9-12.64v-21.9l-21.9 12.64z" class="st5"/><path d="m151.06 286.27-21.98-12.69 21.82-12.71 21.98 12.69z" class="st7"/><path id="矩形_00000159457585865046413750000001025902691071745961_" d="M143.72 268.48c.43.24.36.72-.15 1.02l-4.54 2.69c-.51.3-1.32.35-1.75.11-.43-.24-.36-.72.15-1.02l4.54-2.69c.51-.3 1.32-.35 1.75-.11z" class="st17"/><path id="矩形_00000170240620110454840980000011056549285943332520_" d="M136.15 272.88c.43.24.36.72-.15 1.02l-.88.52c-.51.3-1.32.35-1.75.11-.43-.24-.36-.72.15-1.02l.88-.52c.55-.33 1.32-.36 1.75-.11z" class="st17"/><path d="m215.74 265.13-21.9-12.65v-21.9l21.9 12.65zM215.74 265.13l21.9-12.65v-21.9l-21.9 12.65z" class="st5"/><path d="m215.82 243.3-21.98-12.69 21.82-12.72 21.98 12.69z" class="st7"/><path id="矩形_00000029022306106307731120000016615581152618796712_" d="M208.48 225.51h0c.43.24.36.72-.15 1.02l-4.54 2.69c-.51.3-1.32.35-1.75.11h0c-.43-.24-.36-.72.15-1.02l4.54-2.69c.51-.31 1.32-.36 1.75-.11z" class="st5"/><path id="矩形_00000085217097738549613980000003468520918600801195_" d="M200.91 229.9h0c.43.24.36.72-.15 1.02l-.88.52c-.51.3-1.32.35-1.75.11h0c-.43-.24-.36-.72.15-1.02l.88-.52c.55-.33 1.32-.35 1.75-.11z" class="st5"/><path d="m234.39 321.53-21.9-12.65v-21.9l21.9 12.65z" class="st6"/><path d="m234.39 321.53 21.9-12.65v-21.9l-21.9 12.65z" class="st5"/><path d="M234.47 299.69 212.49 287l21.82-12.71 21.98 12.69z" class="st7"/><path id="矩形_00000052825243419253822820000010659263525013115827_" d="M227.13 281.91h0c.43.24.36.72-.15 1.02l-4.54 2.69c-.51.3-1.32.35-1.75.11h0c-.43-.24-.36-.72.15-1.02l4.54-2.69c.51-.31 1.32-.36 1.75-.11z" class="st5"/><path id="矩形_00000154426434702559015290000007554413707486504111_" d="M219.57 286.3h0c.43.24.36.72-.15 1.02l-.88.52c-.51.3-1.32.35-1.75.11h0c-.43-.24-.36-.72.15-1.02l.88-.52c.54-.33 1.32-.36 1.75-.11z" class="st5"/><path d="m209.45 296.07-21.9-12.64v-21.9l21.9 12.64z" class="st6"/><path d="m209.45 296.07 21.9-12.64v-21.9l-21.9 12.64z" class="st5"/><path d="m209.53 274.24-21.98-12.69 21.82-12.71 21.98 12.69z" class="st7"/><path id="矩形_00000160903189634142074530000002891107226704646838_" d="M202.19 256.46h0c.43.24.36.72-.15 1.02l-4.54 2.69c-.51.3-1.32.35-1.75.11h0c-.43-.24-.36-.72.15-1.02l4.54-2.69c.51-.31 1.32-.36 1.75-.11z" class="st5"/><path id="矩形_00000007397067166545916970000002143585144914139056_" d="M194.62 260.85h0c.43.24.36.72-.15 1.02l-.88.52c-.51.3-1.32.35-1.75.11h0c-.43-.24-.36-.72.15-1.02l.88-.52c.55-.33 1.32-.36 1.75-.11z" class="st5"/><path d="m194.22 251.04-21.9-12.65v-21.9l21.9 12.65z" class="st6"/><path d="m194.22 251.04 21.9-12.65v-21.9l-21.9 12.65z" class="st5"/><path d="m194.3 229.2-21.98-12.69 21.82-12.71 21.98 12.69z" class="st7"/><path id="矩形_00000101794999315356074290000015725765711543275915_" d="M186.96 211.42h0c.43.24.36.72-.15 1.02l-4.54 2.69c-.51.3-1.32.35-1.75.11h0c-.43-.24-.36-.72.15-1.02l4.54-2.69c.51-.31 1.32-.36 1.75-.11z" class="st5"/><path id="矩形_00000098938928692352587570000014834042473236993666_" d="M179.39 215.81h0c.43.24.36.72-.15 1.02l-.88.52c-.51.3-1.32.35-1.75.11h0c-.43-.24-.36-.72.15-1.02l.88-.52c.55-.33 1.32-.36 1.75-.11z" class="st5"/><path d="m187.2 225.35-21.9-12.64v-21.9l21.9 12.64z" class="st6"/><path d="m187.2 225.35 21.9-12.64v-21.9l-21.9 12.64z" class="st5"/><path d="m187.28 203.52-21.98-12.69 21.83-12.71 21.97 12.69z" class="st7"/><path id="矩形_00000055697330921744431090000007979506223541072519_" d="M179.94 185.73c.43.24.36.72-.15 1.02l-4.54 2.69c-.51.3-1.32.35-1.75.11-.43-.24-.36-.72.15-1.02l4.54-2.69c.52-.3 1.32-.35 1.75-.11z" class="st17"/><path id="矩形_00000052104368206952486960000001307456816210270868_" d="M172.38 190.13c.43.24.36.72-.15 1.02l-.88.52c-.51.3-1.32.35-1.75.11-.43-.24-.36-.72.15-1.02l.88-.52c.54-.33 1.32-.36 1.75-.11z" class="st17"/><path id="矩形_00000150080378111477988510000010005367634560557244_" d="M183.68 255.84h0c.92-.65 2.5-.09 3.44 1.22l1.61 2.25c.94 1.31.96 3 .04 3.65h0c-.92.65-2.5.09-3.44-1.22l-1.61-2.25c-1-1.4-.95-2.99-.04-3.65z" class="st5"/><path d="m167.71 339.2-34.4-19.86v-34.39l34.4 19.86z" class="st6"/><path d="m167.71 339.2 34.39-19.86v-34.39l-34.39 19.86z" class="st5"/><path d="m167.83 304.91-34.52-19.93 34.28-19.96 34.51 19.93z" class="st7"/><path id="矩形_00000136371979321420593470000005249680387291317162_" d="M156.31 276.08c.68.38.56 1.12-.24 1.6l-7.14 4.22c-.81.48-2.08.56-2.75.17-.68-.38-.56-1.12.24-1.6l7.14-4.22c.8-.48 2.07-.56 2.75-.17z" class="st17"/><path id="矩形_00000106826835317674341130000011384096200676048264_" d="M143.39 283.73c.68.38.56 1.12-.24 1.6l-1.38.82c-.81.48-2.08.56-2.75.17-.68-.38-.56-1.12.24-1.6l1.38-.82c.86-.51 2.07-.56 2.75-.17z" class="st17"/><path d="M187.39 310.02v1.71c-.06.04-.36.24-.97.59-.51.29-.88.47-1.01.53v-1.71c-1.97 1.23-3.43 2.49-3.43 3.02 0 .52 1.47.13 3.43-.87.13-.06.49-.25 1-.54.64-.36.93-.55.98-.58 1.96-1.22 3.43-2.49 3.43-3.01s-1.47-.14-3.43.86z" class="st53"/><path d="m194.23 307.5-2.86-6.06c-.02-.04-.06-.05-.11-.03l-9.74 5.51a.25.25 0 0 0-.11.15l-2.86 9.3c-.02.07-.01.14.02.16l7.73 5.08c.05.03.12-.01.16-.09l7.73-13.84c.06-.06.07-.13.04-.18zm-6.84 5.08v4.9l-1.98 1.12v-4.9c-2.23 1.13-3.9 1.51-3.9.84s1.67-2.19 3.9-3.58v-1.53l-2.74 1.55v-2.33l7.46-4.22v2.33l-2.74 1.55v1.53c2.22-1.13 3.89-1.51 3.89-.84 0 .68-1.67 2.19-3.89 3.58zM187.39 309.85z" class="st53"/><path d="m181.15 295.38-34.4-19.86v-34.4l34.4 19.86z" class="st6"/><path d="m181.15 295.38 34.39-19.86v-34.4l-34.39 19.86z" class="st5"/><path d="m181.27 261.09-34.52-19.93 34.27-19.97 34.52 19.93z" class="st7"/><path id="矩形_00000161625152259056173680000011980523440365244851_" d="M169.75 233.15c.68.38.56 1.12-.24 1.6l-7.14 4.22c-.81.48-2.08.56-2.75.17-.68-.38-.56-1.12.24-1.6l7.14-4.22c.8-.47 2.07-.55 2.75-.17z" class="st17"/><path id="矩形_00000062888933968975997140000002178608790208134568_" d="M157.86 240.05c.68.38.56 1.12-.24 1.6l-1.38.82c-.81.48-2.08.56-2.75.17-.68-.38-.56-1.12.24-1.6l1.38-.82c.86-.51 2.08-.55 2.75-.17z" class="st17"/><g id="Layer_2_00000102540851905900832380000006988007728433942442_"><g id="Layer_1-2_00000066482606510416215310000003511022855889460147_"><g id="Page-1_00000055700713210850531740000008749194977626926223_"><g id="wbtc_colour_00000172408473380103974340000013880287873054759061_"><path id="Shape_00000080906745429967918220000017415878320240987804_" d="m204.3 258.48-.44.84c2.19 1.98 2.19 6.88 0 11.29l.44.34c2.43-4.88 2.43-10.32 0-12.49v.02z" class="st3"/><path id="Shape-2_00000054254308669426799030000013077082175151086260_" d="M195 263.71c2.39-4.26 6.06-6.3 8.45-4.71l.44-.84c-2.64-1.78-6.7.48-9.34 5.2l.45.35z" class="st3"/><path id="Shape-3_00000151536995416216480280000011159096162566086584_" d="M194.59 275.78c-2.18-1.98-2.18-6.87 0-11.29l-.44-.34c-2.43 4.88-2.43 10.32 0 12.49l.44-.86z" class="st3"/><path id="Shape-4_00000062151920632388065560000016487987413188291494_" d="M203.44 271.39c-2.39 4.26-6.06 6.3-8.45 4.71l-.44.84c2.64 1.78 6.7-.48 9.34-5.2l-.45-.35z" class="st3"/><path id="Shape-5_00000155110089474802543120000010198488182915200164_" d="M202.01 264.02c-.09-1.18-.88-1.15-1.89-.72v-1.7l-.78.43v1.67c-.2.11-.41.23-.62.35v-1.67l-.77.43v1.71l-1.58.88v1.11s.57-.33.57-.32c.22-.15.41-.06.44.21v4.68c0 .1-.04.21-.09.31-.05.1-.13.17-.2.2.01.01-.57.32-.57.32l-.15 1.33 1.56-.87v1.74l.78-.43v-1.71l.62-.35v1.7l.78-.43v-1.72c1.31-.84 2.23-1.78 2.35-3.49.09-1.38-.37-1.71-1.12-1.53.46-.55.74-1.26.67-2.13zm-1.09 4.31c0 1.29-1.66 2.07-2.18 2.36v-2.29c.53-.29 2.18-1.42 2.18-.07zm-.36-3.03c0 1.18-1.38 1.81-1.82 2.05v-2.08c.44-.24 1.82-1.2 1.82.03z" class="st3"/><path id="Shape-6_00000008116255221057928870000004716742768179740032_" d="M199.22 278.31c-4.45 2.48-8.05-.33-8.05-6.28 0-5.94 3.61-12.77 8.05-15.25 4.45-2.48 8.05.33 8.05 6.27 0 5.96-3.6 12.78-8.05 15.26zm0-20.68c-4.1 2.29-7.42 8.58-7.41 14.05 0 5.47 3.33 8.06 7.42 5.77 4.09-2.29 7.41-8.57 7.41-14.04.01-5.47-3.31-8.07-7.42-5.78.01 0 0 0 0 0z" class="st3"/></g></g></g></g><path d="m220.3 371.74-34.4-19.85v-34.4l34.4 19.86z" class="st6"/><path d="m220.3 371.74 34.39-19.85v-34.4l-34.39 19.86z" class="st5"/><path d="m220.42 337.46-34.52-19.93 34.28-19.97 34.51 19.93z" class="st7"/><path id="矩形_00000137090123107722679210000002194064958726255236_" d="M208.9 308.62c.68.38.56 1.12-.24 1.6l-7.14 4.22c-.81.48-2.08.56-2.75.17-.68-.38-.56-1.12.24-1.6l7.14-4.22c.8-.48 2.07-.56 2.75-.17z" class="st17"/><path id="矩形_00000137830544964306238180000010640803284822027688_" d="M195.98 316.27c.68.38.56 1.12-.24 1.6l-1.38.82c-.81.48-2.08.56-2.75.17-.68-.38-.56-1.12.24-1.6l1.38-.82c.86-.51 2.07-.56 2.75-.17z" class="st17"/><g id="Layer_x0020_1_00000002357447354598212010000016124669940793836706_"><g id="_1421394342400_00000139988896349069244230000013150670203882902420_"><path d="m202.19 333.94-.12.39v13.31l.12.21 5.42-.46z" class="st3"/><path d="m202.19 333.94-5.42 7.06 5.42 6.85v-6.46zM202.19 349.02l-.07.05v4.74l.07.26 5.42-5.51z" class="st3"/><path d="M202.19 354.07v-5.05l-5.42-6.85zM202.19 347.85l5.42-.46-5.42-6z" class="st3"/><path d="m196.77 341 5.42 6.85v-6.46z" class="st3"/></g></g><path d="M135.67 208.57 42.6 262.79v-98.82l84.75-49.37c8.54-4.32 12.42-1.6 12.42 7.14v79.69c0 2.94-1.56 5.66-4.1 7.14z" class="st6"/><path d="m149.21 216.82-93.07 54.22v-98.82l84.75-49.37c8.54-4.32 12.42-1.6 12.42 7.14v79.69c0 2.94-1.56 5.66-4.1 7.14z" class="st7"/><path d="m56.14 271.04-13.54-8.13v-98.78l13.54 8.12z" class="st6"/><ellipse cx="137.25" cy="180.33" fill="#121421" fill-rule="evenodd" clip-rule="evenodd" rx="9.38" ry="5.12" transform="rotate(-65.437 137.239 180.326)"/><path d="m47.22 166.9 84.8-50 8.87 5.94-84.75 49.41z" class="st5"/><path id="矩形_00000027592309788354587420000006403522287918551171_" d="M148.34 390.03c.62 0 1.15.76 1.15 1.64v1.52c0 .88-.53 1.64-1.15 1.64-.62 0-1.15-.76-1.15-1.64v-1.52c.01-.95.53-1.64 1.15-1.64z" class="st74"/><radialGradient id="SVGID_1_" cx="116.8" cy="424.155" r="29.158" gradientTransform="matrix(1 0 0 .5898 0 173.991)" gradientUnits="userSpaceOnUse"><stop offset="0"/><stop offset="1" stop-color="#0d101d" stop-opacity="0"/></radialGradient><path fill="url(#SVGID_1_)" d="M141.8 410.08c-13.68-7.9-35.96-8-49.77-.23s-13.91 20.48-.23 28.37c13.68 7.9 35.96 8 49.77.23s13.91-20.47.23-28.37z" opacity=".67"/><path fill="#3fa9bd" d="M155.3 374.05v-49.28c0-.23.02-.45.02-.68 0-22.91-18.57-41.48-41.48-41.48-22.91 0-41.48 18.57-41.48 41.48 0 .36.02.72.03 1.07v44.66h-.03v22.67a5.15 5.15 0 1 0 10.3 0v-.83c.56.36 1.13.72 1.74 1.07 1.83 1.06 3.79 1.99 5.85 2.81v8.2a5.15 5.15 0 1 0 10.3 0v-5.23c2.95.57 5.99.96 9.06 1.14v12.59a5.15 5.15 0 1 0 10.3 0v-12.7c3.39-.28 6.73-.8 9.93-1.55v6.36c0 2.84 2.3 5.15 5.15 5.15s5.15-2.31 5.15-5.15v-9.87c1-.47 1.97-.96 2.91-1.49.7-.39 1.35-.8 1.99-1.21v.71a5.15 5.15 0 1 0 10.3 0v-18.45h-.04z"/><radialGradient id="SVGID_00000131364428042159516090000003710240807171556521_" cx="138.522" cy="300.034" r="106.685" gradientUnits="userSpaceOnUse"><stop offset=".012" stop-color="#dd78ce"/><stop offset=".494" stop-color="#a7589a"/><stop offset=".583" stop-color="#a0619e"/><stop offset=".727" stop-color="#8e79a8"/><stop offset=".908" stop-color="#709fb9"/><stop offset="1" stop-color="#5eb6c3"/></radialGradient><path fill="url(#SVGID_00000131364428042159516090000003710240807171556521_)" d="M155.3 374.05v-49.28c0-.23.02-.45.02-.68 0-22.91-18.57-41.48-41.48-41.48-22.91 0-41.48 18.57-41.48 41.48 0 .36.02.72.03 1.07v44.66h-.03v22.67a5.15 5.15 0 1 0 10.3 0v-.83c.56.36 1.13.72 1.74 1.07 1.83 1.06 3.79 1.99 5.85 2.81v8.2a5.15 5.15 0 1 0 10.3 0v-5.23c2.95.57 5.99.96 9.06 1.14v12.59a5.15 5.15 0 1 0 10.3 0v-12.7c3.39-.28 6.73-.8 9.93-1.55v6.36c0 2.84 2.3 5.15 5.15 5.15s5.15-2.31 5.15-5.15v-9.87c1-.47 1.97-.96 2.91-1.49.7-.39 1.35-.8 1.99-1.21v.71a5.15 5.15 0 1 0 10.3 0v-18.45h-.04z"/><path id="矩形_00000152944834369539099730000016252393706229862838_" d="M76.25 360.21c1.12 0 2.09 1.38 2.09 2.99v14.25c0 1.61-.96 2.99-2.09 2.99-1.12 0-2.09-1.38-2.09-2.99V363.2c0-1.61.97-2.99 2.09-2.99z" class="st74"/><path id="矩形_00000045583776776573521690000005425702571327890615_" d="M137.55 297.12c1.37-1.02 3.68-.37 5.02 1.41l2.29 3.06c1.34 1.78 1.31 4.19-.06 5.22-1.37 1.02-3.68.37-5.02-1.41l-2.29-3.06c-1.43-1.92-1.31-4.2.06-5.22z" class="st74"/><path id="矩形_00000067232291870130697600000011919284958754619018_" d="M93.65 396.8c1.12 0 2.09 1.38 2.09 2.99v2.76c0 1.61-.96 2.99-2.09 2.99-1.12 0-2.09-1.38-2.09-2.99v-2.76c0-1.73.96-2.99 2.09-2.99z" class="st74"/><path id="矩形_00000047768702531513686180000008577605401748337807_" d="M76 386c1.12 0 2.09 1.38 2.09 2.99v2.76c0 1.61-.96 2.99-2.09 2.99-1.12 0-2.09-1.38-2.09-2.99v-2.76c0-1.73.97-2.99 2.09-2.99z" class="st74"/><path id="矩形_00000017500112818748170300000011023041496377661335_" d="M113.84 405.54c1.12 0 2.09 1.38 2.09 2.99v2.76c0 1.61-.96 2.99-2.09 2.99-1.12 0-2.09-1.38-2.09-2.99v-2.76c0-1.73.96-2.99 2.09-2.99z" class="st74"/><path id="矩形_00000087379536985998452180000010252065639699536546_" d="M133.54 400.19c.89 0 1.66 1.1 1.66 2.37v2.19c0 1.28-.76 2.37-1.66 2.37-.89 0-1.66-1.1-1.66-2.37v-2.19c0-1.36.77-2.37 1.66-2.37z" class="st74"/><path id="椭圆形_00000137837083813257603020000007687423495718196108_" d="M123.85 355.08c4.06-.17 7.1-3.66 7.09-6 0-.94-.55-1.75-1.38-1.81-1.29-.13-3.23.7-5.72.8-2.31.1-3.78-.5-5.53-.42-1.84.08-1.75 2.22-1.47 3.05.64 2.31 2.86 4.55 7.01 4.38z" class="st78"/><path id="椭圆形_00000121275121431432696730000017046847632692980900_" d="M123.93 353.11c4.15-.17 7.19-3.38 7.19-5.63 0-.84-.55-1.57-1.38-1.63-1.29-.13-3.32.7-5.81.8-2.4.1-3.78-.5-5.62-.43-1.84.08-1.75 2.13-1.48 2.87.65 2.13 2.96 4.19 7.1 4.02z" class="st79"/><ellipse cx="106.9" cy="331.61" class="st79" rx="9.5" ry="9.1" transform="rotate(-55.453 106.904 331.605)"/><path id="形状结合_00000036223276195754916150000004161394281118004645_" d="M108.1 321.65c4.24-.18 7.66 3.98 7.66 9.22v1.12c0-5.33-3.33-9.59-7.48-9.42-4.15.17-7.46 4.61-7.46 10.04 0 1.03.09 2.05.37 2.98-.46-1.2-.74-2.59-.74-3.99 0-5.33 3.41-9.78 7.65-9.95z" class="st80"/><path id="形状结合_00000103967625990562806560000007501887144214676671_" d="M108.1 320.52c4.7-.2 8.58 4.41 8.58 10.31s-3.86 10.83-8.57 11.02-8.58-4.41-8.58-10.31c0-5.89 3.77-10.82 8.57-11.02zm0 1.13c-4.24.18-7.65 4.62-7.64 9.86s3.42 9.4 7.66 9.22c4.24-.18 7.65-4.62 7.64-9.86 0-5.24-3.51-9.4-7.66-9.22z" class="st81"/><ellipse cx="137.62" cy="330.23" class="st79" rx="9.5" ry="9.1" transform="rotate(-55.453 137.62 330.225)"/><path id="形状结合_00000151540685922974454420000013796076548946660259_" d="M138.61 320.27c4.24-.18 7.66 3.98 7.66 9.22v1.12c0-5.33-3.33-9.59-7.48-9.42-4.15.17-7.46 4.61-7.46 10.04 0 1.03.09 2.05.37 2.98-.46-1.2-.74-2.59-.74-3.99 0-5.32 3.41-9.77 7.65-9.95z" class="st80"/><path id="形状结合_00000031209230853963400920000005064558258675277704_" d="M138.61 319.15c4.7-.2 8.58 4.41 8.58 10.31.01 5.89-3.86 10.83-8.57 11.02-4.7.2-8.58-4.41-8.58-10.31 0-5.89 3.78-10.82 8.57-11.02zm0 1.12c-4.24.18-7.65 4.62-7.64 9.86 0 5.24 3.42 9.4 7.66 9.22 4.24-.18 7.65-4.62 7.64-9.86 0-5.23-3.51-9.39-7.66-9.22z" class="st81"/><circle cx="112.44" cy="331.61" r="3.77" class="st78"/><circle cx="142.99" cy="330.48" r="3.77" class="st78"/></svg>