<svg width="73" height="137" viewBox="0 0 73 137" fill="none" xmlns="http://www.w3.org/2000/svg">
<g clip-path="url(#clip0_1041_1134)">
<path opacity="0.26" fill-rule="evenodd" clip-rule="evenodd" d="M66.8587 95.0312C67.4042 95.0312 67.8705 95.7036 67.8705 96.4821V97.8268C67.8705 98.6053 67.4042 99.2777 66.8587 99.2777C66.3132 99.2777 65.8469 98.6053 65.8469 97.8268V96.4821C65.8469 95.6417 66.3132 95.0312 66.8587 95.0312Z" fill="white"/>
<path opacity="0.67" d="M67.6558 119.337C67.683 109.536 53.8432 101.552 36.7437 101.504C19.6443 101.456 5.76034 109.362 5.73312 119.164C5.7059 128.965 19.5457 136.949 36.6452 136.997C53.7446 137.045 67.6285 129.139 67.6558 119.337Z" fill="url(#paint0_radial_1041_1134)"/>
<path d="M72.9824 80.8942V37.2977C72.9824 37.0942 73 36.8996 73 36.6961C73 16.4283 56.6526 0 36.4956 0C16.3386 0 0 16.4283 0 36.6961C0 37.0146 0.0175967 37.3331 0.0263951 37.6427V77.1521H0V97.2075C0 99.72 2.02362 101.764 4.53116 101.764C7.03869 101.764 9.06231 99.72 9.06231 97.2075V96.4733C9.55502 96.7917 10.0565 97.1102 10.5932 97.4199C12.2033 98.3576 13.9278 99.1804 15.7403 99.9058V107.16C15.7403 109.673 17.7639 111.716 20.2714 111.716C22.779 111.716 24.8026 109.673 24.8026 107.16V102.533C27.3981 103.038 30.0728 103.383 32.7739 103.542V114.68C32.7739 117.192 34.7975 119.236 37.305 119.236C39.8126 119.236 41.8362 117.192 41.8362 114.68V103.444C44.8188 103.197 47.7575 102.737 50.573 102.073V107.7C50.573 110.212 52.5966 112.256 55.1041 112.256C57.6117 112.256 59.6353 110.212 59.6353 107.7V98.968C60.5151 98.5522 61.3686 98.1188 62.1956 97.6499C62.8115 97.3049 63.3834 96.9421 63.9465 96.5794V97.2075C63.9465 99.72 65.9701 101.764 68.4776 101.764C70.9852 101.764 73.0088 99.72 73.0088 97.2075V80.8854H72.9912L72.9824 80.8942Z" fill="#3FA9BD"/>
<path d="M72.9824 80.8942V37.2977C72.9824 37.0942 73 36.8996 73 36.6961C73 16.4283 56.6526 0 36.4956 0C16.3386 0 0 16.4283 0 36.6961C0 37.0146 0.0175967 37.3331 0.0263951 37.6427V77.1521H0V97.2075C0 99.72 2.02362 101.764 4.53116 101.764C7.03869 101.764 9.06231 99.72 9.06231 97.2075V96.4733C9.55502 96.7917 10.0565 97.1102 10.5932 97.4199C12.2033 98.3576 13.9278 99.1804 15.7403 99.9058V107.16C15.7403 109.673 17.7639 111.716 20.2714 111.716C22.779 111.716 24.8026 109.673 24.8026 107.16V102.533C27.3981 103.038 30.0728 103.383 32.7739 103.542V114.68C32.7739 117.192 34.7975 119.236 37.305 119.236C39.8126 119.236 41.8362 117.192 41.8362 114.68V103.444C44.8188 103.197 47.7575 102.737 50.573 102.073V107.7C50.573 110.212 52.5966 112.256 55.1041 112.256C57.6117 112.256 59.6353 110.212 59.6353 107.7V98.968C60.5151 98.5522 61.3686 98.1188 62.1956 97.6499C62.8115 97.3049 63.3834 96.9421 63.9465 96.5794V97.2075C63.9465 99.72 65.9701 101.764 68.4776 101.764C70.9852 101.764 73.0088 99.72 73.0088 97.2075V80.8854H72.9912L72.9824 80.8942Z" fill="url(#paint1_radial_1041_1134)"/>
<path opacity="0.26" fill-rule="evenodd" clip-rule="evenodd" d="M3.43139 68.6504C4.4168 68.6504 5.27024 69.8712 5.27024 71.2956V83.9021C5.27024 85.3264 4.4256 86.5473 3.43139 86.5473C2.44597 86.5473 1.59253 85.3264 1.59253 83.9021V71.2956C1.59253 69.8712 2.43717 68.6504 3.43139 68.6504Z" fill="white"/>
<path opacity="0.26" fill-rule="evenodd" clip-rule="evenodd" d="M57.3652 12.8365C58.5706 11.9342 60.603 12.5092 61.782 14.0839L63.7968 16.791C64.9758 18.3657 64.9494 20.4978 63.744 21.409C62.5387 22.3113 60.5063 21.7363 59.3273 20.1616L57.3124 17.4545C56.0543 15.7648 56.1599 13.7477 57.3652 12.8365Z" fill="white"/>
<path opacity="0.26" fill-rule="evenodd" clip-rule="evenodd" d="M18.7317 101.012C19.7171 101.012 20.5705 102.232 20.5705 103.657V106.098C20.5705 107.523 19.7259 108.744 18.7317 108.744C17.7463 108.744 16.8928 107.523 16.8928 106.098V103.657C16.8928 102.135 17.7375 101.012 18.7317 101.012Z" fill="white"/>
<path opacity="0.26" fill-rule="evenodd" clip-rule="evenodd" d="M3.43139 91.1652C4.4168 91.1652 5.27024 92.3861 5.27024 93.8104V96.2521C5.27024 97.6764 4.4256 98.8972 3.43139 98.8972C2.44597 98.8972 1.59253 97.6764 1.59253 96.2521V93.8104C1.59253 92.2888 2.43717 91.1652 3.43139 91.1652Z" fill="white"/>
<path opacity="0.26" fill-rule="evenodd" clip-rule="evenodd" d="M36.4956 108.744C37.481 108.744 38.3345 109.965 38.3345 111.389V113.831C38.3345 115.255 37.4898 116.476 36.4956 116.476C35.5102 116.476 34.6567 115.255 34.6567 113.831V111.389C34.6567 109.867 35.5014 108.744 36.4956 108.744Z" fill="white"/>
<path opacity="0.26" fill-rule="evenodd" clip-rule="evenodd" d="M53.8284 104.02C54.6115 104.02 55.289 104.993 55.289 106.116V108.054C55.289 109.186 54.6203 110.15 53.8284 110.15C53.0454 110.15 52.3679 109.177 52.3679 108.054V106.116C52.3679 104.904 53.0366 104.02 53.8284 104.02Z" fill="white"/>
<path d="M46.1893 39.9559C49.8318 37.4351 50.6628 32.292 48.0455 28.4685C45.4281 24.6451 40.3536 23.5892 36.7112 26.1101C33.0687 28.631 32.2377 33.7741 34.855 37.5975C37.4724 41.4209 42.5469 42.4768 46.1893 39.9559Z" fill="white"/>
<path fill-rule="evenodd" clip-rule="evenodd" d="M40.4021 24.2046C36.6716 24.0453 33.6626 27.7256 33.6626 32.3612V32.8566V33.3521C33.6626 28.6368 36.5925 24.8681 40.2438 25.0185C43.8951 25.1689 46.8074 29.0968 46.8074 33.9005C46.8074 34.8118 46.7282 35.7141 46.4818 36.5369C46.8865 35.4753 47.1329 34.2456 47.1329 33.007C47.1329 28.2917 44.1414 24.355 40.4109 24.2046H40.4021Z" fill="#AFAFB1"/>
<path fill-rule="evenodd" clip-rule="evenodd" d="M47.9334 32.9628C47.9334 38.1735 44.5197 42.2519 40.3844 42.0838C36.2492 41.9157 32.8442 37.5454 32.8442 32.3347C32.8442 27.124 36.258 23.0457 40.3932 23.2138C44.6076 23.3907 47.9334 27.7521 47.9334 32.9628ZM33.6537 32.3612C33.6537 36.9969 36.6451 40.9248 40.3756 41.0841C44.1061 41.2433 47.1152 37.5631 47.1152 32.9274C47.1152 28.2918 44.1237 24.3638 40.3932 24.2046C36.7419 24.0542 33.6537 27.7256 33.6537 32.3612Z" fill="#D3D3D3"/>
<path d="M19.1703 38.7309C22.8127 36.21 23.6437 31.0669 21.0264 27.2435C18.4091 23.4201 13.3346 22.3641 9.69213 24.885C6.0497 27.4059 5.21868 32.549 7.83601 36.3725C10.4533 40.1959 15.5279 41.2518 19.1703 38.7309Z" fill="white"/>
<path fill-rule="evenodd" clip-rule="evenodd" d="M13.5494 22.9926C9.81885 22.8333 6.80981 26.5136 6.80981 31.1492V31.6447V32.1401C6.80981 27.4248 9.73967 23.6561 13.391 23.8065C17.0423 23.9569 19.9546 27.8848 19.9546 32.6886C19.9546 33.5998 19.8754 34.5021 19.629 35.3249C20.0338 34.2633 20.2801 33.0336 20.2801 31.7951C20.2801 27.0798 17.2887 23.143 13.5582 22.9926H13.5494Z" fill="#AFAFB1"/>
<path fill-rule="evenodd" clip-rule="evenodd" d="M21.0897 31.7508C21.0897 36.9615 17.6759 41.0398 13.5407 40.8717C9.40545 40.6948 6.00049 36.3334 6.00049 31.1227C6.00049 25.912 9.41425 21.8336 13.5495 22.0017C17.7639 22.1787 21.0897 26.5401 21.0897 31.7508ZM6.80994 31.1492C6.80994 35.7849 9.80138 39.7128 13.5319 39.8721C17.2624 40.0313 20.2714 36.3511 20.2714 31.7154C20.2714 27.0797 17.28 23.1518 13.5495 22.9925C9.89816 22.8422 6.80994 26.5135 6.80994 31.1492Z" fill="#D3D3D3"/>
<path d="M29.362 53.7544C30.9391 52.663 31.2974 50.4339 30.1623 48.7758C29.0272 47.1176 26.8286 46.6582 25.2515 47.7497C23.6745 48.8411 23.3162 51.0702 24.4513 52.7283C25.5864 54.3865 27.785 54.8459 29.362 53.7544Z" fill="#555069"/>
<path d="M27.4183 51.6592C28.7111 50.7644 29.0065 48.9395 28.0781 47.5832C27.1496 46.2269 25.3489 45.8528 24.056 46.7475C22.7632 47.6423 22.4678 49.4672 23.3962 50.8235C24.3247 52.1798 26.1254 52.554 27.4183 51.6592Z" fill="white"/>
<path d="M36.6891 32.1755C38.521 32.1755 40.006 30.6823 40.006 28.8403C40.006 26.9983 38.521 25.5051 36.6891 25.5051C34.8571 25.5051 33.3721 26.9983 33.3721 28.8403C33.3721 30.6823 34.8571 32.1755 36.6891 32.1755Z" fill="#555069"/>
<path d="M11.2618 30.5211C13.0937 30.5211 14.5788 29.0279 14.5788 27.1859C14.5788 25.3439 13.0937 23.8507 11.2618 23.8507C9.42989 23.8507 7.94482 25.3439 7.94482 27.1859C7.94482 29.0279 9.42989 30.5211 11.2618 30.5211Z" fill="#555069"/>
</g>
<defs>
<radialGradient id="paint0_radial_1041_1134" cx="0" cy="0" r="1" gradientUnits="userSpaceOnUse" gradientTransform="translate(36.6873 119.273) scale(25.656 15.2202)">
<stop stop-color="#B8B3D4"/>
<stop offset="0.19" stop-color="#B8B3D4" stop-opacity="0.99"/>
<stop offset="0.33" stop-color="#BAB5D5" stop-opacity="0.94"/>
<stop offset="0.46" stop-color="#BDB9D7" stop-opacity="0.86"/>
<stop offset="0.57" stop-color="#C1BDD9" stop-opacity="0.76"/>
<stop offset="0.69" stop-color="#C6C4DC" stop-opacity="0.62"/>
<stop offset="0.79" stop-color="#CCCBE0" stop-opacity="0.44"/>
<stop offset="0.9" stop-color="#D4D5E5" stop-opacity="0.24"/>
<stop offset="1" stop-color="#DDE0EB" stop-opacity="0"/>
</radialGradient>
<radialGradient id="paint1_radial_1041_1134" cx="0" cy="0" r="1" gradientUnits="userSpaceOnUse" gradientTransform="translate(58.2188 15.411) scale(93.8697 94.3854)">
<stop offset="0.01" stop-color="#DD78CE"/>
<stop offset="0.49" stop-color="#A7589A"/>
<stop offset="0.58" stop-color="#A0609D"/>
<stop offset="0.73" stop-color="#8D78A8"/>
<stop offset="0.91" stop-color="#6F9FB9"/>
<stop offset="1" stop-color="#5EB6C3"/>
</radialGradient>
<clipPath id="clip0_1041_1134">
<rect width="73" height="137" fill="white"/>
</clipPath>
</defs>
</svg>
